%TF.GenerationSoftware,KiCad,Pcbnew,9.0.8-1.fc43*%
%TF.CreationDate,2026-06-16T16:27:06-06:00*%
%TF.ProjectId,chouchou,63686f75-6368-46f7-952e-6b696361645f,v1.0.0*%
%TF.SameCoordinates,Original*%
%TF.FileFunction,Soldermask,Bot*%
%TF.FilePolarity,Negative*%
%FSLAX46Y46*%
G04 Gerber Fmt 4.6, Leading zero omitted, Abs format (unit mm)*
G04 Created by KiCad (PCBNEW 9.0.8-1.fc43) date 2026-06-16 16:27:06*
%MOMM*%
%LPD*%
G01*
G04 APERTURE LIST*
G04 Aperture macros list*
%AMRoundRect*
0 Rectangle with rounded corners*
0 $1 Rounding radius*
0 $2 $3 $4 $5 $6 $7 $8 $9 X,Y pos of 4 corners*
0 Add a 4 corners polygon primitive as box body*
4,1,4,$2,$3,$4,$5,$6,$7,$8,$9,$2,$3,0*
0 Add four circle primitives for the rounded corners*
1,1,$1+$1,$2,$3*
1,1,$1+$1,$4,$5*
1,1,$1+$1,$6,$7*
1,1,$1+$1,$8,$9*
0 Add four rect primitives between the rounded corners*
20,1,$1+$1,$2,$3,$4,$5,0*
20,1,$1+$1,$4,$5,$6,$7,0*
20,1,$1+$1,$6,$7,$8,$9,0*
20,1,$1+$1,$8,$9,$2,$3,0*%
%AMFreePoly0*
4,1,29,0.530754,0.524039,0.567109,0.516808,0.585134,0.509342,0.615954,0.488748,0.629748,0.474954,0.650342,0.444134,0.657808,0.426109,0.665039,0.389754,0.666000,0.380000,0.666000,-0.380000,0.665039,-0.389754,0.657808,-0.426109,0.650342,-0.444134,0.629748,-0.474954,0.615954,-0.488748,0.585134,-0.509342,0.567109,-0.516808,0.530754,-0.524039,0.521000,-0.525000,-0.283500,-0.525000,
-0.318855,-0.510355,-0.651355,-0.177855,-0.666000,-0.142500,-0.666000,0.142500,-0.651355,0.177855,-0.318855,0.510355,-0.283500,0.525000,0.521000,0.525000,0.530754,0.524039,0.530754,0.524039,$1*%
%AMFreePoly1*
4,1,29,0.318855,0.510355,0.651355,0.177855,0.666000,0.142500,0.666000,-0.142500,0.651355,-0.177855,0.318855,-0.510355,0.283500,-0.525000,-0.521000,-0.525000,-0.530754,-0.524039,-0.567109,-0.516808,-0.585134,-0.509342,-0.615954,-0.488748,-0.629748,-0.474954,-0.650342,-0.444134,-0.657808,-0.426109,-0.665039,-0.389754,-0.666000,-0.380000,-0.666000,0.380000,-0.665039,0.389754,-0.657808,0.426109,
-0.650342,0.444134,-0.629748,0.474954,-0.615954,0.488748,-0.585134,0.509342,-0.567109,0.516808,-0.530754,0.524039,-0.521000,0.525000,0.283500,0.525000,0.318855,0.510355,0.318855,0.510355,$1*%
G04 Aperture macros list end*
%ADD10C,3.900000*%
%ADD11O,1.800000X1.800000*%
%ADD12C,1.800000*%
%ADD13C,2.000000*%
%ADD14C,3.100000*%
%ADD15C,5.100000*%
%ADD16C,2.132000*%
%ADD17RoundRect,0.050000X-1.810547X-0.319248X0.319248X-1.810547X1.810547X0.319248X-0.319248X1.810547X0*%
%ADD18RoundRect,0.050000X-1.592168X-0.919239X0.919239X-1.592168X1.592168X0.919239X-0.919239X1.592168X0*%
%ADD19RoundRect,0.050000X-0.279375X-0.696024X0.589958X-0.463087X0.279375X0.696024X-0.589958X0.463087X0*%
%ADD20RoundRect,0.050000X0.589958X0.463087X-0.279375X0.696024X-0.589958X-0.463087X0.279375X-0.696024X0*%
%ADD21RoundRect,0.050000X-0.919239X-1.592168X1.592168X-0.919239X0.919239X1.592168X-1.592168X0.919239X0*%
%ADD22RoundRect,0.105000X-0.961000X-0.420000X0.961000X-0.420000X0.961000X0.420000X-0.961000X0.420000X0*%
%ADD23FreePoly0,0.000000*%
%ADD24FreePoly1,180.000000*%
%ADD25C,1.497000*%
%ADD26RoundRect,0.050000X-0.628796X-1.727604X1.727604X-0.628796X0.628796X1.727604X-1.727604X0.628796X0*%
%ADD27RoundRect,0.050000X-0.475833X-1.775833X1.775833X-0.475833X0.475833X1.775833X-1.775833X0.475833X0*%
%ADD28RoundRect,0.050000X-0.154268X-0.733963X0.661409X-0.353606X0.154268X0.733963X-0.661409X0.353606X0*%
%ADD29RoundRect,0.050000X-0.270365X0.699573X-0.747293X-0.063670X0.270365X-0.699573X0.747293X0.063670X0*%
%ADD30RoundRect,0.050000X-0.747293X0.063670X-0.270365X-0.699573X0.747293X-0.063670X0.270365X0.699573X0*%
%ADD31RoundRect,0.050000X0.712764X0.233382X-0.024473X0.749601X-0.712764X-0.233382X0.024473X-0.749601X0*%
%ADD32RoundRect,0.050000X-0.024473X-0.749601X0.712764X-0.233382X0.024473X0.749601X-0.712764X0.233382X0*%
%ADD33RoundRect,0.050000X-1.791358X0.413567X-0.413567X-1.791358X1.791358X-0.413567X0.413567X1.791358X0*%
%ADD34RoundRect,0.050000X-1.727604X-0.628796X0.628796X-1.727604X1.727604X0.628796X-0.628796X1.727604X0*%
%ADD35RoundRect,0.260000X-0.390000X-0.665000X0.390000X-0.665000X0.390000X0.665000X-0.390000X0.665000X0*%
%ADD36O,1.300000X1.850000*%
%ADD37RoundRect,0.050000X0.413567X-1.791358X1.791358X0.413567X-0.413567X1.791358X-1.791358X-0.413567X0*%
%ADD38RoundRect,0.050000X-0.319248X-1.810547X1.810547X-0.319248X0.319248X1.810547X-1.810547X0.319248X0*%
%ADD39RoundRect,0.050000X-1.775833X-0.475833X0.475833X-1.775833X1.775833X0.475833X-0.475833X1.775833X0*%
%ADD40RoundRect,0.050000X0.661409X0.353606X-0.154268X0.733963X-0.661409X-0.353606X0.154268X-0.733963X0*%
%ADD41RoundRect,0.050000X0.689711X0.294615X-0.089711X0.744615X-0.689711X-0.294615X0.089711X-0.744615X0*%
%ADD42RoundRect,0.050000X-0.089711X-0.744615X0.689711X-0.294615X0.089711X0.744615X-0.689711X0.294615X0*%
G04 APERTURE END LIST*
D10*
%TO.C,H4*%
X184623709Y-149996734D03*
%TD*%
D11*
%TO.C,DISP1*%
X125124325Y-176374035D03*
X127664325Y-176374035D03*
X130204325Y-176374035D03*
X132744325Y-176374035D03*
D12*
X135284325Y-176374035D03*
%TD*%
%TO.C,RST1*%
X133454325Y-183674035D03*
X126954325Y-183674035D03*
%TD*%
D10*
%TO.C,H6*%
X155979233Y-129173174D03*
%TD*%
%TO.C,H1*%
X55345849Y-111084148D03*
%TD*%
%TO.C,H3*%
X75784942Y-149996734D03*
%TD*%
%TO.C,H5*%
X104429417Y-129173174D03*
%TD*%
%TO.C,H7*%
X92677801Y-209409175D03*
%TD*%
%TO.C,H2*%
X205062801Y-111084148D03*
%TD*%
%TO.C,H8*%
X167730849Y-209409175D03*
%TD*%
D13*
%TO.C,S8*%
X103198989Y-140519365D03*
D14*
X111117105Y-138800080D03*
D15*
X107704325Y-143674035D03*
D14*
X113950997Y-143470097D03*
D13*
X108846167Y-150760550D03*
X112209661Y-146828705D03*
D16*
X101428974Y-143918931D03*
D17*
X108434382Y-136921618D03*
D16*
X104320224Y-148507032D03*
D17*
X116633720Y-145348560D03*
%TD*%
D13*
%TO.C,S2*%
X35689872Y-118758296D03*
D14*
X42542437Y-114434542D03*
D15*
X41002464Y-120181801D03*
D14*
X46802665Y-117853674D03*
D13*
X44499175Y-126450414D03*
X46315056Y-121605306D03*
D16*
X35189322Y-122558224D03*
D18*
X39379030Y-113586910D03*
D16*
X39475432Y-125880763D03*
D18*
X49966072Y-118701307D03*
%TD*%
D19*
%TO.C,D11*%
X227559599Y-137667347D03*
X230747155Y-136813247D03*
%TD*%
D20*
%TO.C,D1*%
X42508309Y-140255537D03*
X39320753Y-139401437D03*
%TD*%
D13*
%TO.C,S9*%
X218493518Y-138026045D03*
D14*
X222266137Y-130855281D03*
D15*
X223806110Y-136602540D03*
D14*
X227665168Y-131686223D03*
D13*
X229968657Y-140282963D03*
X229118702Y-135179035D03*
D16*
X219959993Y-141567153D03*
D21*
X219102730Y-131702914D03*
D16*
X225333142Y-142301502D03*
D21*
X230828575Y-130838591D03*
%TD*%
D22*
%TO.C,REF\u002A\u002A*%
X138500572Y-144736695D03*
X138500572Y-147276695D03*
X138500572Y-149816695D03*
X138500572Y-152356695D03*
X138500572Y-154896695D03*
X138500572Y-157436695D03*
X138500572Y-159976695D03*
X121990572Y-159976695D03*
X121990572Y-157436695D03*
X121990572Y-154896695D03*
X121990572Y-152356695D03*
X121990572Y-149816695D03*
X121990572Y-147276695D03*
X121990572Y-144736695D03*
D23*
X138900572Y-146006695D03*
X138900572Y-148546695D03*
X138900572Y-151086695D03*
X138900572Y-153626695D03*
X138900572Y-156166695D03*
X138900572Y-158706695D03*
D24*
X121590572Y-158706695D03*
X121590572Y-156166695D03*
X121590572Y-153626695D03*
D25*
X131474325Y-143776942D03*
X128934325Y-143776942D03*
X131474325Y-146316942D03*
X128934325Y-146316942D03*
X131213325Y-158405835D03*
X129308325Y-158405835D03*
%TD*%
D13*
%TO.C,S12*%
X187350060Y-121745139D03*
D14*
X189820174Y-114028208D03*
D15*
X192334753Y-119420739D03*
D14*
X195281473Y-113908993D03*
D13*
X199042776Y-121975133D03*
X197319446Y-117096339D03*
D16*
X189409163Y-124977800D03*
D26*
X186852016Y-115412282D03*
D16*
X194828201Y-124767955D03*
D26*
X198249631Y-112524919D03*
%TD*%
D13*
%TO.C,S13*%
X173610569Y-141921416D03*
D14*
X175398709Y-134018565D03*
D15*
X178373709Y-139171416D03*
D14*
X180828836Y-133423821D03*
D13*
X185278836Y-141131447D03*
X183136849Y-136421416D03*
D16*
X175943582Y-144962313D03*
D27*
X172562476Y-135656065D03*
D16*
X181323709Y-144280966D03*
D27*
X183665069Y-131786321D03*
%TD*%
D28*
%TO.C,D13*%
X203400631Y-135224816D03*
X206391447Y-133830176D03*
%TD*%
D29*
%TO.C,D9*%
X96624459Y-189883644D03*
X94875725Y-192682202D03*
%TD*%
D13*
%TO.C,S10*%
X214093595Y-121605306D03*
D14*
X217866214Y-114434542D03*
D15*
X219406187Y-120181801D03*
D14*
X223265245Y-115265484D03*
D13*
X225568734Y-123862224D03*
X224718779Y-118758296D03*
D16*
X215560070Y-125146414D03*
D21*
X214702807Y-115282175D03*
D16*
X220933219Y-125880763D03*
D21*
X226428652Y-114417852D03*
%TD*%
D19*
%TO.C,D12*%
X223159676Y-121246608D03*
X226347232Y-120392508D03*
%TD*%
D29*
%TO.C,D10*%
X111889325Y-199422191D03*
X110140591Y-202220749D03*
%TD*%
D28*
%TO.C,D14*%
X196216121Y-119817584D03*
X199206937Y-118422944D03*
%TD*%
D30*
%TO.C,D20*%
X153818519Y-207902672D03*
X155567253Y-210701230D03*
%TD*%
D31*
%TO.C,D7*%
X102253734Y-163052207D03*
X99550532Y-161159405D03*
%TD*%
D32*
%TO.C,D18*%
X156595637Y-143390858D03*
X159298839Y-141498056D03*
%TD*%
D13*
%TO.C,S20*%
X150824829Y-199337607D03*
D14*
X158785271Y-200848852D03*
D15*
X153739385Y-204001872D03*
D14*
X159569162Y-206254915D03*
D13*
X152021534Y-210971197D03*
X156653941Y-208666137D03*
D16*
X147867206Y-201775325D03*
D33*
X157049786Y-198071495D03*
D16*
X148735901Y-207128396D03*
D33*
X161304647Y-209032273D03*
%TD*%
D13*
%TO.C,S3*%
X55904694Y-132503572D03*
D14*
X63403966Y-129435441D03*
D15*
X60889387Y-134827972D03*
D14*
X67005744Y-133542409D03*
D13*
X63244442Y-141608548D03*
X65874080Y-137152372D03*
D16*
X54751899Y-136158850D03*
D34*
X60435808Y-128051366D03*
D16*
X58395939Y-140175188D03*
D34*
X69973902Y-134926484D03*
%TD*%
D13*
%TO.C,S14*%
X165110569Y-127198985D03*
D14*
X166898709Y-119296134D03*
D15*
X169873709Y-124448985D03*
D14*
X172328836Y-118701390D03*
D13*
X176778836Y-126409016D03*
X174636849Y-121698985D03*
D16*
X167443582Y-130239882D03*
D27*
X164062476Y-120933634D03*
D16*
X172823709Y-129558535D03*
D27*
X175165069Y-117063890D03*
%TD*%
D35*
%TO.C,JST1*%
X131204325Y-165174035D03*
D36*
X129204325Y-165174035D03*
%TD*%
D13*
%TO.C,S1*%
X31289948Y-135179035D03*
D14*
X38142513Y-130855281D03*
D15*
X36602540Y-136602540D03*
D14*
X42402741Y-134274413D03*
D13*
X40099251Y-142871153D03*
X41915132Y-138026045D03*
D16*
X30789398Y-138978963D03*
D18*
X34979106Y-130007649D03*
D16*
X35075508Y-142301502D03*
D18*
X45566148Y-135122046D03*
%TD*%
D30*
%TO.C,D19*%
X169083384Y-198364125D03*
X170832118Y-201162683D03*
%TD*%
D13*
%TO.C,S18*%
X103754709Y-208666137D03*
D14*
X101623379Y-200848852D03*
D15*
X106669265Y-204001872D03*
D14*
X106138681Y-197774434D03*
D13*
X113686309Y-202490716D03*
X109583821Y-199337607D03*
D16*
X107242251Y-210255807D03*
D37*
X99887893Y-203626210D03*
D16*
X111672749Y-207128396D03*
D37*
X107874167Y-194997077D03*
%TD*%
D13*
%TO.C,S4*%
X63089204Y-117096339D03*
D14*
X70588476Y-114028208D03*
D15*
X68073897Y-119420739D03*
D14*
X74190254Y-118135176D03*
D13*
X70428952Y-126201315D03*
X73058590Y-121745139D03*
D16*
X61936409Y-120751617D03*
D34*
X67620318Y-112644133D03*
D16*
X65580449Y-124767955D03*
D34*
X77158412Y-119519251D03*
%TD*%
D32*
%TO.C,D17*%
X166346437Y-157316442D03*
X169049639Y-155423640D03*
%TD*%
D13*
%TO.C,S16*%
X148198989Y-146828705D03*
D14*
X149291545Y-138800080D03*
D15*
X152704325Y-143674035D03*
D14*
X154649174Y-137734333D03*
D13*
X159754004Y-145024786D03*
X157209661Y-140519365D03*
D16*
X150788155Y-149654695D03*
D38*
X146608822Y-140678543D03*
D16*
X156088426Y-148507032D03*
D38*
X157331897Y-135855870D03*
%TD*%
D13*
%TO.C,S5*%
X77271802Y-136421416D03*
D14*
X85009942Y-134018565D03*
D15*
X82034942Y-139171416D03*
D14*
X88240069Y-138423821D03*
D13*
X83790069Y-146131447D03*
X86798082Y-141921416D03*
D16*
X75804815Y-139962313D03*
D39*
X82173709Y-132381065D03*
D16*
X79084942Y-144280966D03*
D39*
X91076302Y-140061321D03*
%TD*%
D13*
%TO.C,S15*%
X157949789Y-160754290D03*
D14*
X159042345Y-152725665D03*
D15*
X162455125Y-157599620D03*
D14*
X164399974Y-151659918D03*
D13*
X169504804Y-158950371D03*
X166960461Y-154444950D03*
D16*
X160538955Y-163580280D03*
D38*
X156359622Y-154604128D03*
D16*
X165839226Y-162432617D03*
D38*
X167082697Y-149781455D03*
%TD*%
D13*
%TO.C,S19*%
X166089695Y-189799060D03*
D14*
X174050137Y-191310305D03*
D15*
X169004251Y-194463325D03*
D14*
X174834028Y-196716368D03*
D13*
X167286400Y-201432650D03*
X171918807Y-199127590D03*
D16*
X163132072Y-192236778D03*
D33*
X172314652Y-188532948D03*
D16*
X164000767Y-197589849D03*
D33*
X176569513Y-199493726D03*
%TD*%
D13*
%TO.C,S6*%
X85771802Y-121698985D03*
D14*
X93509942Y-119296134D03*
D15*
X90534942Y-124448985D03*
D14*
X96740069Y-123701390D03*
D13*
X92290069Y-131409016D03*
X95298082Y-127198985D03*
D16*
X84304815Y-125239882D03*
D39*
X90673709Y-117658634D03*
D16*
X87584942Y-129558535D03*
D39*
X99576302Y-125338890D03*
%TD*%
D40*
%TO.C,D3*%
X66071097Y-139450999D03*
X63080281Y-138056359D03*
%TD*%
D20*
%TO.C,D2*%
X46908233Y-123834798D03*
X43720677Y-122980698D03*
%TD*%
D40*
%TO.C,D4*%
X73255608Y-124043766D03*
X70264792Y-122649126D03*
%TD*%
D13*
%TO.C,S17*%
X88489844Y-199127590D03*
D14*
X86358514Y-191310305D03*
D15*
X91404400Y-194463325D03*
D14*
X90873816Y-188235887D03*
D13*
X98421444Y-192952169D03*
X94318956Y-189799060D03*
D16*
X91977386Y-200717260D03*
D37*
X84623028Y-194087663D03*
D16*
X96407884Y-197589849D03*
D37*
X92609302Y-185458530D03*
%TD*%
D13*
%TO.C,S11*%
X194534571Y-137152372D03*
D14*
X197004685Y-129435441D03*
D15*
X199519264Y-134827972D03*
D14*
X202465984Y-129316226D03*
D13*
X206227287Y-137382366D03*
X204503957Y-132503572D03*
D16*
X196593674Y-140385033D03*
D26*
X194036527Y-130819515D03*
D16*
X202012712Y-140175188D03*
D26*
X205434142Y-127932152D03*
%TD*%
D13*
%TO.C,S7*%
X93448190Y-154444950D03*
D14*
X101366306Y-152725665D03*
D15*
X97953526Y-157599620D03*
D14*
X104200198Y-157395682D03*
D13*
X99095368Y-164686135D03*
X102458862Y-160754290D03*
D16*
X91678175Y-157844516D03*
D17*
X98683583Y-150847203D03*
D16*
X94569425Y-162432617D03*
D17*
X106882921Y-159274145D03*
%TD*%
D31*
%TO.C,D8*%
X112004534Y-149126622D03*
X109301332Y-147233820D03*
%TD*%
D41*
%TO.C,D6*%
X95294011Y-129506035D03*
X92436127Y-127856035D03*
%TD*%
D42*
%TO.C,D16*%
X173774894Y-124506035D03*
X176632778Y-122856035D03*
%TD*%
D41*
%TO.C,D5*%
X86794011Y-144228467D03*
X83936127Y-142578467D03*
%TD*%
D42*
%TO.C,D15*%
X182274894Y-139228467D03*
X185132778Y-137578467D03*
%TD*%
M02*
