%TF.GenerationSoftware,KiCad,Pcbnew,9.0.8-1.fc43*%
%TF.CreationDate,2026-06-16T16:27:06-06:00*%
%TF.ProjectId,chouchou,63686f75-6368-46f7-952e-6b696361645f,v1.0.0*%
%TF.SameCoordinates,Original*%
%TF.FileFunction,Copper,L1,Top*%
%TF.FilePolarity,Positive*%
%FSLAX46Y46*%
G04 Gerber Fmt 4.6, Leading zero omitted, Abs format (unit mm)*
G04 Created by KiCad (PCBNEW 9.0.8-1.fc43) date 2026-06-16 16:27:06*
%MOMM*%
%LPD*%
G01*
G04 APERTURE LIST*
G04 Aperture macros list*
%AMRoundRect*
0 Rectangle with rounded corners*
0 $1 Rounding radius*
0 $2 $3 $4 $5 $6 $7 $8 $9 X,Y pos of 4 corners*
0 Add a 4 corners polygon primitive as box body*
4,1,4,$2,$3,$4,$5,$6,$7,$8,$9,$2,$3,0*
0 Add four circle primitives for the rounded corners*
1,1,$1+$1,$2,$3*
1,1,$1+$1,$4,$5*
1,1,$1+$1,$6,$7*
1,1,$1+$1,$8,$9*
0 Add four rect primitives between the rounded corners*
20,1,$1+$1,$2,$3,$4,$5,0*
20,1,$1+$1,$4,$5,$6,$7,0*
20,1,$1+$1,$6,$7,$8,$9,0*
20,1,$1+$1,$8,$9,$2,$3,0*%
G04 Aperture macros list end*
%ADD10C,0.625000*%
%ADD11C,0.100000*%
%TA.AperFunction,EtchedComponent*%
%ADD12C,0.105833*%
%TD*%
%TA.AperFunction,EtchedComponent*%
%ADD13C,0.000000*%
%TD*%
%TA.AperFunction,ComponentPad*%
%ADD14C,3.800000*%
%TD*%
%TA.AperFunction,ComponentPad*%
%ADD15O,1.700000X1.700000*%
%TD*%
%TA.AperFunction,ComponentPad*%
%ADD16C,1.700000*%
%TD*%
%TA.AperFunction,ComponentPad*%
%ADD17C,1.900000*%
%TD*%
%TA.AperFunction,ComponentPad*%
%ADD18C,2.032000*%
%TD*%
%TA.AperFunction,ComponentPad*%
%ADD19C,1.397000*%
%TD*%
%TA.AperFunction,ComponentPad*%
%ADD20RoundRect,0.240000X-0.360000X-0.635000X0.360000X-0.635000X0.360000X0.635000X-0.360000X0.635000X0*%
%TD*%
%TA.AperFunction,ComponentPad*%
%ADD21O,1.200000X1.750000*%
%TD*%
%TA.AperFunction,ViaPad*%
%ADD22C,0.600000*%
%TD*%
%TA.AperFunction,Conductor*%
%ADD23C,0.200000*%
%TD*%
G04 APERTURE END LIST*
D10*
G36*
X157157829Y-182433864D02*
G01*
X157277536Y-182327957D01*
X157329071Y-182210916D01*
X157321886Y-182072049D01*
X157241762Y-181894687D01*
X157080327Y-181685925D01*
X156846725Y-181473360D01*
X156576715Y-181278925D01*
X156261395Y-181084539D01*
X155593862Y-180742765D01*
X154955447Y-180473516D01*
X154439839Y-180288454D01*
X154159008Y-180208331D01*
X154340794Y-180083388D01*
X154427148Y-180003698D01*
X154473636Y-179928464D01*
X154471009Y-179889529D01*
X154423019Y-179858941D01*
X154313472Y-179868446D01*
X154008417Y-179980585D01*
X153513900Y-180231992D01*
X153062715Y-180493403D01*
X152778818Y-180666481D01*
X152594813Y-180813320D01*
X152550675Y-180908043D01*
X152565376Y-181008792D01*
X152621625Y-181127594D01*
X152764773Y-181013305D01*
X153004170Y-180855433D01*
X153194212Y-180736682D01*
X153379527Y-180637444D01*
X153730735Y-180479906D01*
X153904216Y-180443747D01*
X154116138Y-180449684D01*
X154348503Y-180504432D01*
X154693396Y-180641225D01*
X155109069Y-180831132D01*
X155481411Y-181011036D01*
X155718742Y-181147141D01*
X155373909Y-181301055D01*
X154938681Y-181535575D01*
X154764073Y-181659460D01*
X154648468Y-181770561D01*
X154603668Y-181847819D01*
X154608336Y-181905827D01*
X154658515Y-181958327D01*
X154881794Y-181827087D01*
X155267733Y-181606446D01*
X155657393Y-181391760D01*
X155891575Y-181278547D01*
X156136574Y-181439022D01*
X156524049Y-181749152D01*
X156850909Y-182060797D01*
X157157829Y-182433864D01*
G37*
G36*
X155114048Y-183636798D02*
G01*
X155206716Y-183552808D01*
X155257560Y-183444160D01*
X155254764Y-183317418D01*
X155173415Y-183137813D01*
X155110026Y-183049620D01*
X155023563Y-182951004D01*
X154875560Y-182807564D01*
X154643502Y-182619322D01*
X154086166Y-182229209D01*
X153478344Y-181850483D01*
X152945238Y-181552151D01*
X152511539Y-181355798D01*
X152187831Y-181250335D01*
X151888579Y-181196171D01*
X151682891Y-181194690D01*
X151504671Y-181231054D01*
X151392788Y-181285244D01*
X151994153Y-181495201D01*
X152341928Y-181644689D01*
X152759840Y-181849444D01*
X153725443Y-182384772D01*
X154137470Y-182645673D01*
X154525415Y-182932155D01*
X154721531Y-183111588D01*
X154832469Y-183251857D01*
X154889819Y-183385277D01*
X154881902Y-183473699D01*
X154822054Y-183538811D01*
X154701316Y-183581647D01*
X154515128Y-183582277D01*
X154185622Y-183523929D01*
X153836152Y-183433056D01*
X153523641Y-183335649D01*
X153482961Y-183336228D01*
X153464649Y-183363861D01*
X153480559Y-183411890D01*
X153537707Y-183450342D01*
X153763717Y-183528000D01*
X153995261Y-183601839D01*
X154223343Y-183669562D01*
X154455633Y-183718095D01*
X154619406Y-183737586D01*
X154802619Y-183732399D01*
X154978784Y-183698096D01*
X155114048Y-183636798D01*
G37*
G36*
X151600305Y-182549522D02*
G01*
X151652998Y-182500831D01*
X151679149Y-182438333D01*
X151680047Y-182370485D01*
X151655699Y-182308624D01*
X151588580Y-182235900D01*
X151499077Y-182196248D01*
X151402195Y-182190967D01*
X151320533Y-182221053D01*
X151258834Y-182277775D01*
X151230651Y-182347418D01*
X151235460Y-182422103D01*
X151277627Y-182495188D01*
X151349635Y-182549472D01*
X151433378Y-182579668D01*
X151520064Y-182581152D01*
X151600305Y-182549522D01*
G37*
G36*
X153877195Y-184384830D02*
G01*
X153985591Y-184287076D01*
X154048995Y-184157955D01*
X154058109Y-184063047D01*
X154032200Y-183948243D01*
X153960291Y-183805135D01*
X153820115Y-183620561D01*
X153579026Y-183391554D01*
X153311488Y-183196051D01*
X152798155Y-182902285D01*
X152492833Y-182750704D01*
X152413795Y-182726513D01*
X152266462Y-182731233D01*
X152117878Y-182762707D01*
X152023545Y-182804543D01*
X151976334Y-182852852D01*
X151982113Y-182896674D01*
X152059679Y-182955127D01*
X152466550Y-183150535D01*
X152928075Y-183394233D01*
X153354290Y-183680516D01*
X153529661Y-183840090D01*
X153651668Y-183997984D01*
X153694750Y-184086758D01*
X153708027Y-184160771D01*
X153688441Y-184226786D01*
X153619925Y-184289984D01*
X153512061Y-184329446D01*
X153342934Y-184335265D01*
X152972911Y-184277755D01*
X152690752Y-184202422D01*
X152497459Y-184150042D01*
X152315557Y-184090544D01*
X152274877Y-184091122D01*
X152256565Y-184118756D01*
X152272476Y-184166785D01*
X152329623Y-184205236D01*
X152558481Y-184281115D01*
X152793132Y-184353013D01*
X153151210Y-184450748D01*
X153343692Y-184482998D01*
X153530490Y-184490233D01*
X153710104Y-184461339D01*
X153877195Y-184384830D01*
G37*
G36*
X151206001Y-183663062D02*
G01*
X151511877Y-183734841D01*
X151829597Y-183853834D01*
X152239475Y-184067883D01*
X152441439Y-184204814D01*
X152617276Y-184355618D01*
X152698076Y-184445171D01*
X152770849Y-184548381D01*
X152852352Y-184719327D01*
X152886834Y-184892433D01*
X152873984Y-185001402D01*
X152819531Y-185097272D01*
X152714867Y-185185294D01*
X152569205Y-185247442D01*
X152394216Y-185266137D01*
X152208921Y-185249179D01*
X152009889Y-185205325D01*
X151765488Y-185125435D01*
X151527322Y-185020136D01*
X151159449Y-184820880D01*
X151279337Y-185010610D01*
X151454391Y-185226632D01*
X151657540Y-185435479D01*
X151897842Y-185646507D01*
X152210850Y-185632362D01*
X152723567Y-185588106D01*
X153344696Y-185558909D01*
X153669064Y-185565161D01*
X153985915Y-185595280D01*
X154290872Y-185656460D01*
X154556801Y-185750121D01*
X154789287Y-185887904D01*
X154967510Y-186070933D01*
X155031186Y-186206468D01*
X155049100Y-186366278D01*
X155023267Y-186467064D01*
X154945219Y-186573433D01*
X154793862Y-186690651D01*
X154576960Y-186799420D01*
X154337928Y-186867643D01*
X154071941Y-186894433D01*
X153661358Y-186867004D01*
X153215749Y-186765227D01*
X152774866Y-186602629D01*
X152337056Y-186382236D01*
X151923329Y-186115980D01*
X151549286Y-185814628D01*
X151332040Y-185810336D01*
X151064600Y-185782701D01*
X152049187Y-185782701D01*
X152318083Y-185987392D01*
X152661925Y-186195796D01*
X153032431Y-186376523D01*
X153418844Y-186522757D01*
X153809872Y-186626242D01*
X154163644Y-186671887D01*
X154393855Y-186665951D01*
X154585372Y-186623224D01*
X154745818Y-186547509D01*
X154853700Y-186451365D01*
X154889167Y-186354612D01*
X154880420Y-186253816D01*
X154842065Y-186173801D01*
X154727910Y-186043621D01*
X154582674Y-185936281D01*
X154401162Y-185851336D01*
X154104219Y-185767392D01*
X153771440Y-185721019D01*
X153429337Y-185706135D01*
X153085687Y-185712476D01*
X152466305Y-185757142D01*
X152049187Y-185782701D01*
X151064600Y-185782701D01*
X150895997Y-185765279D01*
X150618788Y-185711694D01*
X150161235Y-185560196D01*
X150094670Y-185519349D01*
X150081508Y-185476637D01*
X150100534Y-185449803D01*
X150141472Y-185449063D01*
X150320008Y-185510664D01*
X150516409Y-185561103D01*
X150861998Y-185625601D01*
X151309141Y-185667681D01*
X151404155Y-185674551D01*
X151205878Y-185458180D01*
X151022130Y-185228533D01*
X150738191Y-184820226D01*
X150652477Y-184676142D01*
X150605626Y-184581575D01*
X150644658Y-184544945D01*
X150687250Y-184514011D01*
X150756526Y-184484832D01*
X150837834Y-184477876D01*
X150923604Y-184502822D01*
X151045977Y-184586859D01*
X151157654Y-184672716D01*
X151341295Y-184781772D01*
X151769945Y-184979771D01*
X151998728Y-185056972D01*
X152204266Y-185100425D01*
X152394352Y-185103495D01*
X152520868Y-185059193D01*
X152578017Y-185000040D01*
X152588266Y-184925956D01*
X152545259Y-184821108D01*
X152442690Y-184694337D01*
X152260531Y-184537136D01*
X152045876Y-184391295D01*
X151786972Y-184247677D01*
X151511758Y-184122591D01*
X151227905Y-184019568D01*
X150941486Y-183947347D01*
X150682354Y-183919097D01*
X150440113Y-183941032D01*
X150253417Y-184017923D01*
X150163697Y-184105483D01*
X150122977Y-184226135D01*
X150135584Y-184396840D01*
X150135572Y-184472782D01*
X150096964Y-184519975D01*
X150031983Y-184531850D01*
X149970109Y-184475400D01*
X149945254Y-184391176D01*
X149966471Y-184271389D01*
X150060569Y-184082314D01*
X150181756Y-183931098D01*
X150331397Y-183812593D01*
X150589577Y-183696517D01*
X150892313Y-183647858D01*
X151206001Y-183663062D01*
G37*
G36*
X151124664Y-186146203D02*
G01*
X150367225Y-185610924D01*
X149666100Y-185152096D01*
X148383435Y-184386482D01*
X147957900Y-184172579D01*
X147642858Y-184065509D01*
X147349641Y-184017387D01*
X147142253Y-184023715D01*
X146961957Y-184067738D01*
X146850175Y-184123784D01*
X147100991Y-184206352D01*
X147445131Y-184349986D01*
X148225410Y-184740832D01*
X149097813Y-185239355D01*
X149968400Y-185787975D01*
X149683429Y-185681638D01*
X149259693Y-185538170D01*
X148787089Y-185408677D01*
X148554524Y-185366167D01*
X148351079Y-185350999D01*
X148164712Y-185368260D01*
X148038617Y-185418445D01*
X147934540Y-185508469D01*
X147902583Y-185590210D01*
X147911047Y-185677555D01*
X147948812Y-185763287D01*
X148037683Y-185868622D01*
X148189921Y-185983793D01*
X148567212Y-186185444D01*
X148970395Y-186362276D01*
X149296849Y-186521172D01*
X149462287Y-186639829D01*
X149542782Y-186730384D01*
X149564962Y-186810848D01*
X149521280Y-186867662D01*
X149451699Y-186894581D01*
X149349369Y-186908843D01*
X149173775Y-186910784D01*
X148969537Y-186882303D01*
X148561104Y-186782913D01*
X148370659Y-186728753D01*
X148191864Y-186667313D01*
X148151184Y-186667892D01*
X148132872Y-186695525D01*
X148148782Y-186743554D01*
X148205930Y-186782006D01*
X148663484Y-186933503D01*
X148897521Y-186997505D01*
X149117902Y-187053480D01*
X149385870Y-187081304D01*
X149590172Y-187056877D01*
X149746800Y-186990627D01*
X149840342Y-186904736D01*
X149875554Y-186807211D01*
X149865995Y-186699678D01*
X149814928Y-186585169D01*
X149697657Y-186437965D01*
X149510689Y-186276308D01*
X149296210Y-186132690D01*
X149069262Y-186011771D01*
X148924836Y-185945415D01*
X148646308Y-185810213D01*
X148361504Y-185658052D01*
X148248647Y-185584187D01*
X148204008Y-185537941D01*
X148198536Y-185504742D01*
X148236505Y-185484514D01*
X148476566Y-185499391D01*
X148926357Y-185598138D01*
X149470867Y-185756860D01*
X150025018Y-185950600D01*
X150503117Y-186155141D01*
X150601781Y-186233531D01*
X150698046Y-186285346D01*
X150781645Y-186290344D01*
X150946406Y-186224470D01*
X151124664Y-186146203D01*
G37*
G36*
X148610176Y-187700869D02*
G01*
X148719370Y-187605114D01*
X148781521Y-187486518D01*
X148785348Y-187350569D01*
X148707248Y-187170042D01*
X148641917Y-187078742D01*
X148561117Y-186989189D01*
X148339515Y-186783985D01*
X148004208Y-186532928D01*
X147622559Y-186283817D01*
X147140643Y-185996121D01*
X147366156Y-185855205D01*
X147411400Y-185811962D01*
X147409075Y-185778705D01*
X147352508Y-185760771D01*
X147247489Y-185797234D01*
X147033887Y-185930707D01*
X146702191Y-185762846D01*
X146503722Y-185676259D01*
X146236826Y-185598446D01*
X146049724Y-185576541D01*
X145882562Y-185589649D01*
X145769884Y-185623601D01*
X145625736Y-185697115D01*
X145954460Y-185813552D01*
X146333663Y-185984848D01*
X146665973Y-186160605D01*
X146060895Y-186538700D01*
X146013999Y-186581137D01*
X146014255Y-186609245D01*
X146077812Y-186631451D01*
X146185517Y-186592951D01*
X146784639Y-186218577D01*
X147144876Y-186418285D01*
X147469256Y-186607278D01*
X147879875Y-186862265D01*
X148197972Y-187100545D01*
X148306858Y-187208075D01*
X148373744Y-187295996D01*
X148423853Y-187406341D01*
X148426509Y-187485870D01*
X148395517Y-187554400D01*
X148337275Y-187607511D01*
X148257808Y-187642308D01*
X148141285Y-187663738D01*
X147965924Y-187665562D01*
X147761712Y-187637036D01*
X147353279Y-187537646D01*
X147162834Y-187483486D01*
X146984039Y-187422046D01*
X146943359Y-187422624D01*
X146924140Y-187449616D01*
X146937236Y-187492332D01*
X146998105Y-187536738D01*
X147455659Y-187688236D01*
X147735449Y-187762911D01*
X148034119Y-187821784D01*
X148232266Y-187830445D01*
X148422495Y-187790908D01*
X148610176Y-187700869D01*
G37*
D11*
G36*
X103219910Y-182431747D02*
G01*
X103100203Y-182325840D01*
X103048668Y-182208799D01*
X103055853Y-182069932D01*
X103135977Y-181892570D01*
X103297412Y-181683808D01*
X103531014Y-181471243D01*
X103801024Y-181276808D01*
X104116344Y-181082422D01*
X104783877Y-180740648D01*
X105422292Y-180471399D01*
X105937900Y-180286337D01*
X106218731Y-180206214D01*
X106036945Y-180081271D01*
X105950591Y-180001581D01*
X105904103Y-179926347D01*
X105906730Y-179887412D01*
X105954720Y-179856824D01*
X106064267Y-179866329D01*
X106369322Y-179978468D01*
X106863839Y-180229875D01*
X107315024Y-180491286D01*
X107598921Y-180664364D01*
X107782926Y-180811203D01*
X107827064Y-180905926D01*
X107812363Y-181006675D01*
X107756114Y-181125477D01*
X107612966Y-181011188D01*
X107373569Y-180853316D01*
X107183527Y-180734565D01*
X106998212Y-180635327D01*
X106647004Y-180477789D01*
X106473523Y-180441630D01*
X106261601Y-180447567D01*
X106029236Y-180502315D01*
X105684343Y-180639108D01*
X105268670Y-180829015D01*
X104896328Y-181008919D01*
X104658997Y-181145024D01*
X105003830Y-181298938D01*
X105439058Y-181533458D01*
X105613666Y-181657343D01*
X105729271Y-181768444D01*
X105774071Y-181845702D01*
X105769403Y-181903710D01*
X105719224Y-181956210D01*
X105495945Y-181824970D01*
X105110006Y-181604329D01*
X104720346Y-181389643D01*
X104486164Y-181276430D01*
X104241165Y-181436905D01*
X103853690Y-181747035D01*
X103526830Y-182058680D01*
X103219910Y-182431747D01*
G37*
G36*
X105263691Y-183634681D02*
G01*
X105171023Y-183550691D01*
X105120179Y-183442043D01*
X105122975Y-183315301D01*
X105204324Y-183135696D01*
X105267713Y-183047503D01*
X105354176Y-182948887D01*
X105502179Y-182805447D01*
X105734237Y-182617205D01*
X106291573Y-182227092D01*
X106899395Y-181848366D01*
X107432501Y-181550034D01*
X107866200Y-181353681D01*
X108189908Y-181248218D01*
X108489160Y-181194054D01*
X108694848Y-181192573D01*
X108873068Y-181228937D01*
X108984951Y-181283127D01*
X108383586Y-181493084D01*
X108035811Y-181642572D01*
X107617899Y-181847327D01*
X106652296Y-182382655D01*
X106240269Y-182643556D01*
X105852324Y-182930038D01*
X105656208Y-183109471D01*
X105545270Y-183249740D01*
X105487920Y-183383160D01*
X105495837Y-183471582D01*
X105555685Y-183536694D01*
X105676423Y-183579530D01*
X105862611Y-183580160D01*
X106192117Y-183521812D01*
X106541587Y-183430939D01*
X106854098Y-183333532D01*
X106894778Y-183334111D01*
X106913090Y-183361744D01*
X106897180Y-183409773D01*
X106840032Y-183448225D01*
X106614022Y-183525883D01*
X106382478Y-183599722D01*
X106154396Y-183667445D01*
X105922106Y-183715978D01*
X105758333Y-183735469D01*
X105575120Y-183730282D01*
X105398955Y-183695979D01*
X105263691Y-183634681D01*
G37*
G36*
X108777434Y-182547405D02*
G01*
X108724741Y-182498714D01*
X108698590Y-182436216D01*
X108697692Y-182368368D01*
X108722040Y-182306507D01*
X108789159Y-182233783D01*
X108878662Y-182194131D01*
X108975544Y-182188850D01*
X109057206Y-182218936D01*
X109118905Y-182275658D01*
X109147088Y-182345301D01*
X109142279Y-182419986D01*
X109100112Y-182493071D01*
X109028104Y-182547355D01*
X108944361Y-182577551D01*
X108857675Y-182579035D01*
X108777434Y-182547405D01*
G37*
G36*
X106500544Y-184382713D02*
G01*
X106392148Y-184284959D01*
X106328744Y-184155838D01*
X106319630Y-184060930D01*
X106345539Y-183946126D01*
X106417448Y-183803018D01*
X106557624Y-183618444D01*
X106798713Y-183389437D01*
X107066251Y-183193934D01*
X107579584Y-182900168D01*
X107884906Y-182748587D01*
X107963944Y-182724396D01*
X108111277Y-182729116D01*
X108259861Y-182760590D01*
X108354194Y-182802426D01*
X108401405Y-182850735D01*
X108395626Y-182894557D01*
X108318060Y-182953010D01*
X107911189Y-183148418D01*
X107449664Y-183392116D01*
X107023449Y-183678399D01*
X106848078Y-183837973D01*
X106726071Y-183995867D01*
X106682989Y-184084641D01*
X106669712Y-184158654D01*
X106689298Y-184224669D01*
X106757814Y-184287867D01*
X106865678Y-184327329D01*
X107034805Y-184333148D01*
X107404828Y-184275638D01*
X107686987Y-184200305D01*
X107880280Y-184147925D01*
X108062182Y-184088427D01*
X108102862Y-184089005D01*
X108121174Y-184116639D01*
X108105263Y-184164668D01*
X108048116Y-184203119D01*
X107819258Y-184278998D01*
X107584607Y-184350896D01*
X107226529Y-184448631D01*
X107034047Y-184480881D01*
X106847249Y-184488116D01*
X106667635Y-184459222D01*
X106500544Y-184382713D01*
G37*
G36*
X109788162Y-183694400D02*
G01*
X110046342Y-183810476D01*
X110195983Y-183928981D01*
X110317170Y-184080197D01*
X110411268Y-184269272D01*
X110432485Y-184389059D01*
X110407630Y-184473283D01*
X110345756Y-184529733D01*
X110280775Y-184517858D01*
X110242167Y-184470665D01*
X110242155Y-184394723D01*
X110254762Y-184224018D01*
X110214042Y-184103366D01*
X110124322Y-184015806D01*
X109937626Y-183938915D01*
X109695385Y-183916980D01*
X109436253Y-183945230D01*
X109149834Y-184017451D01*
X108865981Y-184120474D01*
X108590767Y-184245560D01*
X108331863Y-184389178D01*
X108117208Y-184535019D01*
X107935049Y-184692220D01*
X107832480Y-184818991D01*
X107789473Y-184923839D01*
X107799722Y-184997923D01*
X107856871Y-185057076D01*
X107983387Y-185101378D01*
X108173473Y-185098308D01*
X108379011Y-185054855D01*
X108607794Y-184977654D01*
X109036444Y-184779655D01*
X109220085Y-184670599D01*
X109331762Y-184584742D01*
X109454135Y-184500705D01*
X109539905Y-184475759D01*
X109621213Y-184482715D01*
X109690489Y-184511894D01*
X109733081Y-184542828D01*
X109772113Y-184579458D01*
X109725262Y-184674025D01*
X109639548Y-184818109D01*
X109355609Y-185226416D01*
X109171861Y-185456063D01*
X108973584Y-185672434D01*
X109068598Y-185665564D01*
X109515741Y-185623484D01*
X109861330Y-185558986D01*
X110057731Y-185508547D01*
X110236267Y-185446946D01*
X110277205Y-185447686D01*
X110296231Y-185474520D01*
X110283069Y-185517232D01*
X110216504Y-185558079D01*
X109758951Y-185709577D01*
X109481742Y-185763162D01*
X109045699Y-185808219D01*
X108828453Y-185812511D01*
X108454410Y-186113863D01*
X108040683Y-186380119D01*
X107602873Y-186600512D01*
X107161990Y-186763110D01*
X106716381Y-186864887D01*
X106305798Y-186892316D01*
X106039811Y-186865526D01*
X105800779Y-186797303D01*
X105583877Y-186688534D01*
X105432520Y-186571316D01*
X105354472Y-186464947D01*
X105328639Y-186364161D01*
X105329947Y-186352495D01*
X105488572Y-186352495D01*
X105524039Y-186449248D01*
X105631921Y-186545392D01*
X105792367Y-186621107D01*
X105983884Y-186663834D01*
X106214095Y-186669770D01*
X106567867Y-186624125D01*
X106958895Y-186520640D01*
X107345308Y-186374406D01*
X107715814Y-186193679D01*
X108059656Y-185985275D01*
X108328552Y-185780584D01*
X107911434Y-185755025D01*
X107292052Y-185710359D01*
X106948402Y-185704018D01*
X106606299Y-185718902D01*
X106273520Y-185765275D01*
X105976577Y-185849219D01*
X105795065Y-185934164D01*
X105649829Y-186041504D01*
X105535674Y-186171684D01*
X105497319Y-186251699D01*
X105488572Y-186352495D01*
X105329947Y-186352495D01*
X105346553Y-186204351D01*
X105410229Y-186068816D01*
X105588452Y-185885787D01*
X105820938Y-185748004D01*
X106086867Y-185654343D01*
X106391824Y-185593163D01*
X106708675Y-185563044D01*
X107033043Y-185556792D01*
X107654172Y-185585989D01*
X108166889Y-185630245D01*
X108479897Y-185644390D01*
X108720199Y-185433362D01*
X108923348Y-185224515D01*
X109098402Y-185008493D01*
X109218290Y-184818763D01*
X108850417Y-185018019D01*
X108612251Y-185123318D01*
X108367850Y-185203208D01*
X108168818Y-185247062D01*
X107983523Y-185264020D01*
X107808534Y-185245325D01*
X107662872Y-185183177D01*
X107558208Y-185095155D01*
X107503755Y-184999285D01*
X107490905Y-184890316D01*
X107525387Y-184717210D01*
X107606890Y-184546264D01*
X107679663Y-184443054D01*
X107760463Y-184353501D01*
X107936300Y-184202697D01*
X108138264Y-184065766D01*
X108548142Y-183851717D01*
X108865862Y-183732724D01*
X109171738Y-183660945D01*
X109485426Y-183645741D01*
X109788162Y-183694400D01*
G37*
G36*
X109253075Y-186144086D02*
G01*
X110010514Y-185608807D01*
X110711639Y-185149979D01*
X111994304Y-184384365D01*
X112419839Y-184170462D01*
X112734881Y-184063392D01*
X113028098Y-184015270D01*
X113235486Y-184021598D01*
X113415782Y-184065621D01*
X113527564Y-184121667D01*
X113276748Y-184204235D01*
X112932608Y-184347869D01*
X112152329Y-184738715D01*
X111279926Y-185237238D01*
X110409339Y-185785858D01*
X110694310Y-185679521D01*
X111118046Y-185536053D01*
X111590650Y-185406560D01*
X111823215Y-185364050D01*
X112026660Y-185348882D01*
X112213027Y-185366143D01*
X112339122Y-185416328D01*
X112443199Y-185506352D01*
X112475156Y-185588093D01*
X112466692Y-185675438D01*
X112428927Y-185761170D01*
X112340056Y-185866505D01*
X112187818Y-185981676D01*
X111810527Y-186183327D01*
X111407344Y-186360159D01*
X111080890Y-186519055D01*
X110915452Y-186637712D01*
X110834957Y-186728267D01*
X110812777Y-186808731D01*
X110856459Y-186865545D01*
X110926040Y-186892464D01*
X111028370Y-186906726D01*
X111203964Y-186908667D01*
X111408202Y-186880186D01*
X111816635Y-186780796D01*
X112007080Y-186726636D01*
X112185875Y-186665196D01*
X112226555Y-186665775D01*
X112244867Y-186693408D01*
X112228957Y-186741437D01*
X112171809Y-186779889D01*
X111714255Y-186931386D01*
X111480218Y-186995388D01*
X111259837Y-187051363D01*
X110991869Y-187079187D01*
X110787567Y-187054760D01*
X110630939Y-186988510D01*
X110537397Y-186902619D01*
X110502185Y-186805094D01*
X110511744Y-186697561D01*
X110562811Y-186583052D01*
X110680082Y-186435848D01*
X110867050Y-186274191D01*
X111081529Y-186130573D01*
X111308477Y-186009654D01*
X111452903Y-185943298D01*
X111731431Y-185808096D01*
X112016235Y-185655935D01*
X112129092Y-185582070D01*
X112173731Y-185535824D01*
X112179203Y-185502625D01*
X112141234Y-185482397D01*
X111901173Y-185497274D01*
X111451382Y-185596021D01*
X110906872Y-185754743D01*
X110352721Y-185948483D01*
X109874622Y-186153024D01*
X109775958Y-186231414D01*
X109679693Y-186283229D01*
X109596094Y-186288227D01*
X109431333Y-186222353D01*
X109253075Y-186144086D01*
G37*
G36*
X111767563Y-187698752D02*
G01*
X111658369Y-187602997D01*
X111596218Y-187484401D01*
X111592391Y-187348452D01*
X111670491Y-187167925D01*
X111735822Y-187076625D01*
X111816622Y-186987072D01*
X112038224Y-186781868D01*
X112373531Y-186530811D01*
X112755180Y-186281700D01*
X113237096Y-185994004D01*
X113011583Y-185853088D01*
X112966339Y-185809845D01*
X112968664Y-185776588D01*
X113025231Y-185758654D01*
X113130250Y-185795117D01*
X113343852Y-185928590D01*
X113675548Y-185760729D01*
X113874017Y-185674142D01*
X114140913Y-185596329D01*
X114328015Y-185574424D01*
X114495177Y-185587532D01*
X114607855Y-185621484D01*
X114752003Y-185694998D01*
X114423279Y-185811435D01*
X114044076Y-185982731D01*
X113711766Y-186158488D01*
X114316844Y-186536583D01*
X114363740Y-186579020D01*
X114363484Y-186607128D01*
X114299927Y-186629334D01*
X114192222Y-186590834D01*
X113593100Y-186216460D01*
X113232863Y-186416168D01*
X112908483Y-186605161D01*
X112497864Y-186860148D01*
X112179767Y-187098428D01*
X112070881Y-187205958D01*
X112003995Y-187293879D01*
X111953886Y-187404224D01*
X111951230Y-187483753D01*
X111982222Y-187552283D01*
X112040464Y-187605394D01*
X112119931Y-187640191D01*
X112236454Y-187661621D01*
X112411815Y-187663445D01*
X112616027Y-187634919D01*
X113024460Y-187535529D01*
X113214905Y-187481369D01*
X113393700Y-187419929D01*
X113434380Y-187420507D01*
X113453599Y-187447499D01*
X113440503Y-187490215D01*
X113379634Y-187534621D01*
X112922080Y-187686119D01*
X112642290Y-187760794D01*
X112343620Y-187819667D01*
X112145473Y-187828328D01*
X111955244Y-187788791D01*
X111767563Y-187698752D01*
G37*
D12*
%TO.C,REF\u002A\u002A*%
X206666382Y-118986590D02*
X206680829Y-118987945D01*
X206695129Y-118990741D01*
X206709273Y-118994963D01*
X206723254Y-119000594D01*
X206750689Y-119016003D01*
X206777352Y-119036827D01*
X206803177Y-119062920D01*
X206828084Y-119094137D01*
X206852002Y-119130337D01*
X206874857Y-119171372D01*
X206896573Y-119217099D01*
X206917075Y-119267376D01*
X206936293Y-119322057D01*
X206954150Y-119380998D01*
X206970574Y-119444057D01*
X206985488Y-119511087D01*
X206998823Y-119581945D01*
X207010498Y-119656488D01*
X207010628Y-119656440D01*
X207010616Y-119656798D01*
X207010605Y-119657159D01*
X207020021Y-119730675D01*
X207027725Y-119806172D01*
X207033702Y-119883409D01*
X207037947Y-119962140D01*
X207040447Y-120042119D01*
X207041191Y-120123104D01*
X207040168Y-120204852D01*
X207037371Y-120287117D01*
X207033284Y-120360440D01*
X207027823Y-120433271D01*
X207021009Y-120505434D01*
X207012862Y-120576756D01*
X207003407Y-120647065D01*
X206992664Y-120716186D01*
X206980651Y-120783947D01*
X206967395Y-120850172D01*
X206967237Y-120854639D01*
X206780512Y-121967731D01*
X206858427Y-122046256D01*
X206945931Y-122129487D01*
X207041353Y-122216340D01*
X207143037Y-122305729D01*
X207358532Y-122487778D01*
X207579118Y-122666948D01*
X207791496Y-122834557D01*
X207982368Y-122981918D01*
X208246393Y-123181173D01*
X208257831Y-123189121D01*
X208269750Y-123197593D01*
X208282011Y-123206512D01*
X208294477Y-123215796D01*
X208307012Y-123225366D01*
X208319479Y-123235144D01*
X208331739Y-123245046D01*
X208343657Y-123254997D01*
X208374635Y-123281804D01*
X208404671Y-123309537D01*
X208433748Y-123338172D01*
X208461849Y-123367682D01*
X208488957Y-123398043D01*
X208515051Y-123429231D01*
X208540116Y-123461217D01*
X208564132Y-123493977D01*
X208587082Y-123527485D01*
X208608945Y-123561718D01*
X208629708Y-123596649D01*
X208649350Y-123632253D01*
X208667852Y-123668501D01*
X208685198Y-123705372D01*
X208701371Y-123742840D01*
X208716349Y-123780878D01*
X208720784Y-123792171D01*
X208720807Y-123792234D01*
X208741670Y-123854447D01*
X208759145Y-123916978D01*
X208773278Y-123979721D01*
X208784122Y-124042577D01*
X208791722Y-124105438D01*
X208796126Y-124168206D01*
X208797388Y-124230778D01*
X208795549Y-124293047D01*
X208790663Y-124354916D01*
X208782775Y-124416275D01*
X208771936Y-124477028D01*
X208758194Y-124537067D01*
X208741598Y-124596292D01*
X208722195Y-124654600D01*
X208700034Y-124711887D01*
X208675165Y-124768048D01*
X208647634Y-124822986D01*
X208617492Y-124876593D01*
X208584786Y-124928768D01*
X208549565Y-124979407D01*
X208511877Y-125028409D01*
X208471772Y-125075669D01*
X208429296Y-125121086D01*
X208384499Y-125164556D01*
X208337432Y-125205976D01*
X208288139Y-125245243D01*
X208236672Y-125282257D01*
X208183076Y-125316911D01*
X208127403Y-125349103D01*
X208069701Y-125378733D01*
X208010016Y-125405692D01*
X207948401Y-125429885D01*
X207885648Y-125450960D01*
X207822598Y-125468671D01*
X207759349Y-125483064D01*
X207696008Y-125494188D01*
X207632676Y-125502094D01*
X207569457Y-125506822D01*
X207506457Y-125508428D01*
X207443774Y-125506953D01*
X207381515Y-125502447D01*
X207319783Y-125494959D01*
X207258681Y-125484535D01*
X207198310Y-125471224D01*
X207138778Y-125455072D01*
X207080186Y-125436127D01*
X207022634Y-125414437D01*
X206966231Y-125390050D01*
X206911079Y-125363014D01*
X206857276Y-125333374D01*
X206804934Y-125301181D01*
X206754150Y-125266480D01*
X206705028Y-125229321D01*
X206657672Y-125189751D01*
X206612188Y-125147816D01*
X206568677Y-125103563D01*
X206527240Y-125057043D01*
X206487986Y-125008300D01*
X206451011Y-124957387D01*
X206416427Y-124904345D01*
X206384330Y-124849226D01*
X206354826Y-124792078D01*
X206328019Y-124732945D01*
X206304010Y-124671876D01*
X206290794Y-124633007D01*
X206278869Y-124593799D01*
X206268234Y-124554289D01*
X206258898Y-124514499D01*
X206250856Y-124474468D01*
X206244117Y-124434224D01*
X206238681Y-124393801D01*
X206234550Y-124353227D01*
X206231730Y-124312537D01*
X206230219Y-124271760D01*
X206230023Y-124230927D01*
X206231144Y-124190072D01*
X206233584Y-124149224D01*
X206237348Y-124108417D01*
X206242437Y-124067679D01*
X206248852Y-124027045D01*
X206251278Y-124011737D01*
X206253730Y-123997080D01*
X206256286Y-123982868D01*
X206259024Y-123968902D01*
X206262022Y-123954979D01*
X206265359Y-123940899D01*
X206269111Y-123926459D01*
X206273361Y-123911459D01*
X206350227Y-123596240D01*
X206464750Y-123089438D01*
X206523303Y-122804505D01*
X206575874Y-122520048D01*
X206617332Y-122252192D01*
X206632289Y-122129527D01*
X206642545Y-122017058D01*
X205784783Y-121285018D01*
X205781726Y-121281615D01*
X205729011Y-121239413D01*
X205676262Y-121195236D01*
X205623610Y-121149202D01*
X205571181Y-121101432D01*
X205519104Y-121052043D01*
X205467506Y-121001153D01*
X205416515Y-120948884D01*
X205366262Y-120895353D01*
X205311865Y-120834650D01*
X205259139Y-120773230D01*
X205208233Y-120711283D01*
X205159288Y-120648994D01*
X205112450Y-120586554D01*
X205067862Y-120524150D01*
X205025670Y-120461967D01*
X204986017Y-120400200D01*
X204981357Y-120395034D01*
X204982490Y-120394622D01*
X204943581Y-120330144D01*
X204908295Y-120267414D01*
X204876660Y-120206589D01*
X204848720Y-120147824D01*
X204824505Y-120091277D01*
X204804055Y-120037104D01*
X204795251Y-120010960D01*
X204787403Y-119985466D01*
X204780513Y-119960646D01*
X204774588Y-119936518D01*
X204769630Y-119913100D01*
X204765644Y-119890416D01*
X204762635Y-119868482D01*
X204760606Y-119847319D01*
X204759564Y-119826946D01*
X204759514Y-119807385D01*
X204760458Y-119788651D01*
X204762400Y-119770768D01*
X204765347Y-119753753D01*
X204769301Y-119737628D01*
X204774270Y-119722412D01*
X204780255Y-119708120D01*
X204787262Y-119694778D01*
X204795296Y-119682404D01*
X204804359Y-119671017D01*
X204814459Y-119660635D01*
X204822266Y-119654067D01*
X204830539Y-119648051D01*
X204839274Y-119642581D01*
X204848464Y-119637660D01*
X204858104Y-119633289D01*
X204868184Y-119629463D01*
X204878701Y-119626183D01*
X204889652Y-119623449D01*
X204912819Y-119619613D01*
X204937638Y-119617948D01*
X204964060Y-119618450D01*
X204992040Y-119621110D01*
X205021527Y-119625923D01*
X205052475Y-119632883D01*
X205084835Y-119641984D01*
X205118559Y-119653218D01*
X205153599Y-119666584D01*
X205189906Y-119682068D01*
X205227436Y-119699667D01*
X205266139Y-119719378D01*
X205260819Y-119676339D01*
X205257085Y-119635121D01*
X205254925Y-119595771D01*
X205254328Y-119558335D01*
X205254613Y-119540351D01*
X205255285Y-119522863D01*
X205256341Y-119505878D01*
X205257783Y-119489399D01*
X205259610Y-119473438D01*
X205261818Y-119457993D01*
X205264404Y-119443076D01*
X205267369Y-119428690D01*
X205270714Y-119414842D01*
X205274434Y-119401537D01*
X205278530Y-119388783D01*
X205282998Y-119376584D01*
X205287840Y-119364946D01*
X205293053Y-119353874D01*
X205298636Y-119343376D01*
X205304588Y-119333457D01*
X205310906Y-119324122D01*
X205317591Y-119315378D01*
X205324640Y-119307230D01*
X205332053Y-119299687D01*
X205339827Y-119292749D01*
X205347963Y-119286428D01*
X205356457Y-119280726D01*
X205365309Y-119275649D01*
X205365311Y-119275649D01*
X205374553Y-119271319D01*
X205384101Y-119267641D01*
X205393953Y-119264613D01*
X205404101Y-119262231D01*
X205414540Y-119260496D01*
X205425264Y-119259400D01*
X205436268Y-119258948D01*
X205447548Y-119259134D01*
X205470907Y-119261408D01*
X205495296Y-119266209D01*
X205520673Y-119273515D01*
X205546992Y-119283311D01*
X205574206Y-119295575D01*
X205602273Y-119310292D01*
X205631147Y-119327440D01*
X205660785Y-119347004D01*
X205691140Y-119368964D01*
X205722169Y-119393304D01*
X205753827Y-119420000D01*
X205786071Y-119449040D01*
X205792104Y-119406062D01*
X205799196Y-119365258D01*
X205807324Y-119326663D01*
X205816463Y-119290328D01*
X205826593Y-119256287D01*
X205837690Y-119224586D01*
X205849732Y-119195271D01*
X205856102Y-119181521D01*
X205862699Y-119168381D01*
X205869521Y-119155859D01*
X205876565Y-119143959D01*
X205883829Y-119132689D01*
X205891310Y-119122050D01*
X205899006Y-119112052D01*
X205906912Y-119102696D01*
X205915025Y-119093990D01*
X205923347Y-119085940D01*
X205931870Y-119078547D01*
X205940593Y-119071822D01*
X205949511Y-119065767D01*
X205958627Y-119060389D01*
X205967932Y-119055692D01*
X205977427Y-119051681D01*
X205987108Y-119048362D01*
X205996972Y-119045742D01*
X206017192Y-119042751D01*
X206037908Y-119042590D01*
X206059081Y-119045231D01*
X206080674Y-119050644D01*
X206102648Y-119058799D01*
X206124961Y-119069670D01*
X206147580Y-119083223D01*
X206170464Y-119099432D01*
X206193574Y-119118265D01*
X206216873Y-119139698D01*
X206240321Y-119163694D01*
X206263881Y-119190230D01*
X206287513Y-119219273D01*
X206311180Y-119250797D01*
X206334843Y-119284770D01*
X206358463Y-119321164D01*
X206375430Y-119281278D01*
X206392853Y-119243755D01*
X206410698Y-119208634D01*
X206428934Y-119175950D01*
X206447528Y-119145734D01*
X206466449Y-119118024D01*
X206485663Y-119092860D01*
X206505135Y-119070269D01*
X206514959Y-119059952D01*
X206524836Y-119050292D01*
X206534761Y-119041295D01*
X206544731Y-119032966D01*
X206554743Y-119025304D01*
X206564790Y-119018321D01*
X206574871Y-119012015D01*
X206584979Y-119006394D01*
X206595112Y-119001462D01*
X206605265Y-118997223D01*
X206615434Y-118993682D01*
X206625614Y-118990842D01*
X206635805Y-118988708D01*
X206645998Y-118987285D01*
X206656193Y-118986578D01*
X206666382Y-118986590D01*
%TA.AperFunction,EtchedComponent*%
G36*
X206666382Y-118986590D02*
G01*
X206680829Y-118987945D01*
X206695129Y-118990741D01*
X206709273Y-118994963D01*
X206723254Y-119000594D01*
X206750689Y-119016003D01*
X206777352Y-119036827D01*
X206803177Y-119062920D01*
X206828084Y-119094137D01*
X206852002Y-119130337D01*
X206874857Y-119171372D01*
X206896573Y-119217099D01*
X206917075Y-119267376D01*
X206936293Y-119322057D01*
X206954150Y-119380998D01*
X206970574Y-119444057D01*
X206985488Y-119511087D01*
X206998823Y-119581945D01*
X207010498Y-119656488D01*
X207010628Y-119656440D01*
X207010616Y-119656798D01*
X207010605Y-119657159D01*
X207020021Y-119730675D01*
X207027725Y-119806172D01*
X207033702Y-119883409D01*
X207037947Y-119962140D01*
X207040447Y-120042119D01*
X207041191Y-120123104D01*
X207040168Y-120204852D01*
X207037371Y-120287117D01*
X207033284Y-120360440D01*
X207027823Y-120433271D01*
X207021009Y-120505434D01*
X207012862Y-120576756D01*
X207003407Y-120647065D01*
X206992664Y-120716186D01*
X206980651Y-120783947D01*
X206967395Y-120850172D01*
X206967237Y-120854639D01*
X206780512Y-121967731D01*
X206858427Y-122046256D01*
X206945931Y-122129487D01*
X207041353Y-122216340D01*
X207143037Y-122305729D01*
X207358532Y-122487778D01*
X207579118Y-122666948D01*
X207791496Y-122834557D01*
X207982368Y-122981918D01*
X208246393Y-123181173D01*
X208257831Y-123189121D01*
X208269750Y-123197593D01*
X208282011Y-123206512D01*
X208294477Y-123215796D01*
X208307012Y-123225366D01*
X208319479Y-123235144D01*
X208331739Y-123245046D01*
X208343657Y-123254997D01*
X208374635Y-123281804D01*
X208404671Y-123309537D01*
X208433748Y-123338172D01*
X208461849Y-123367682D01*
X208488957Y-123398043D01*
X208515051Y-123429231D01*
X208540116Y-123461217D01*
X208564132Y-123493977D01*
X208587082Y-123527485D01*
X208608945Y-123561718D01*
X208629708Y-123596649D01*
X208649350Y-123632253D01*
X208667852Y-123668501D01*
X208685198Y-123705372D01*
X208701371Y-123742840D01*
X208716349Y-123780878D01*
X208720784Y-123792171D01*
X208720807Y-123792234D01*
X208741670Y-123854447D01*
X208759145Y-123916978D01*
X208773278Y-123979721D01*
X208784122Y-124042577D01*
X208791722Y-124105438D01*
X208796126Y-124168206D01*
X208797388Y-124230778D01*
X208795549Y-124293047D01*
X208790663Y-124354916D01*
X208782775Y-124416275D01*
X208771936Y-124477028D01*
X208758194Y-124537067D01*
X208741598Y-124596292D01*
X208722195Y-124654600D01*
X208700034Y-124711887D01*
X208675165Y-124768048D01*
X208647634Y-124822986D01*
X208617492Y-124876593D01*
X208584786Y-124928768D01*
X208549565Y-124979407D01*
X208511877Y-125028409D01*
X208471772Y-125075669D01*
X208429296Y-125121086D01*
X208384499Y-125164556D01*
X208337432Y-125205976D01*
X208288139Y-125245243D01*
X208236672Y-125282257D01*
X208183076Y-125316911D01*
X208127403Y-125349103D01*
X208069701Y-125378733D01*
X208010016Y-125405692D01*
X207948401Y-125429885D01*
X207885648Y-125450960D01*
X207822598Y-125468671D01*
X207759349Y-125483064D01*
X207696008Y-125494188D01*
X207632676Y-125502094D01*
X207569457Y-125506822D01*
X207506457Y-125508428D01*
X207443774Y-125506953D01*
X207381515Y-125502447D01*
X207319783Y-125494959D01*
X207258681Y-125484535D01*
X207198310Y-125471224D01*
X207138778Y-125455072D01*
X207080186Y-125436127D01*
X207022634Y-125414437D01*
X206966231Y-125390050D01*
X206911079Y-125363014D01*
X206857276Y-125333374D01*
X206804934Y-125301181D01*
X206754150Y-125266480D01*
X206705028Y-125229321D01*
X206657672Y-125189751D01*
X206612188Y-125147816D01*
X206568677Y-125103563D01*
X206527240Y-125057043D01*
X206487986Y-125008300D01*
X206451011Y-124957387D01*
X206416427Y-124904345D01*
X206384330Y-124849226D01*
X206354826Y-124792078D01*
X206328019Y-124732945D01*
X206304010Y-124671876D01*
X206290794Y-124633007D01*
X206278869Y-124593799D01*
X206268234Y-124554289D01*
X206258898Y-124514499D01*
X206250856Y-124474468D01*
X206244117Y-124434224D01*
X206238681Y-124393801D01*
X206234550Y-124353227D01*
X206231730Y-124312537D01*
X206230219Y-124271760D01*
X206230023Y-124230927D01*
X206231144Y-124190072D01*
X206233584Y-124149224D01*
X206237348Y-124108417D01*
X206242437Y-124067679D01*
X206248852Y-124027045D01*
X206251278Y-124011737D01*
X206253730Y-123997080D01*
X206256286Y-123982868D01*
X206259024Y-123968902D01*
X206262022Y-123954979D01*
X206265359Y-123940899D01*
X206269111Y-123926459D01*
X206273361Y-123911459D01*
X206350227Y-123596240D01*
X206464750Y-123089438D01*
X206523303Y-122804505D01*
X206575874Y-122520048D01*
X206617332Y-122252192D01*
X206632289Y-122129527D01*
X206642545Y-122017058D01*
X205784783Y-121285018D01*
X205781726Y-121281615D01*
X205729011Y-121239413D01*
X205676262Y-121195236D01*
X205623610Y-121149202D01*
X205571181Y-121101432D01*
X205519104Y-121052043D01*
X205467506Y-121001153D01*
X205416515Y-120948884D01*
X205366262Y-120895353D01*
X205311865Y-120834650D01*
X205259139Y-120773230D01*
X205208233Y-120711283D01*
X205159288Y-120648994D01*
X205112450Y-120586554D01*
X205067862Y-120524150D01*
X205025670Y-120461967D01*
X204986017Y-120400200D01*
X204981357Y-120395034D01*
X204982490Y-120394622D01*
X204943581Y-120330144D01*
X204908295Y-120267414D01*
X204876660Y-120206589D01*
X204848720Y-120147824D01*
X204824505Y-120091277D01*
X204804055Y-120037104D01*
X204795251Y-120010960D01*
X204787403Y-119985466D01*
X204780513Y-119960646D01*
X204774588Y-119936518D01*
X204769630Y-119913100D01*
X204765644Y-119890416D01*
X204762635Y-119868482D01*
X204760606Y-119847319D01*
X204759564Y-119826946D01*
X204759514Y-119807385D01*
X204760458Y-119788651D01*
X204762400Y-119770768D01*
X204765347Y-119753753D01*
X204769301Y-119737628D01*
X204774270Y-119722412D01*
X204780255Y-119708120D01*
X204787262Y-119694778D01*
X204795296Y-119682404D01*
X204804359Y-119671017D01*
X204814459Y-119660635D01*
X204822266Y-119654067D01*
X204830539Y-119648051D01*
X204839274Y-119642581D01*
X204848464Y-119637660D01*
X204858104Y-119633289D01*
X204868184Y-119629463D01*
X204878701Y-119626183D01*
X204889652Y-119623449D01*
X204912819Y-119619613D01*
X204937638Y-119617948D01*
X204964060Y-119618450D01*
X204992040Y-119621110D01*
X205021527Y-119625923D01*
X205052475Y-119632883D01*
X205084835Y-119641984D01*
X205118559Y-119653218D01*
X205153599Y-119666584D01*
X205189906Y-119682068D01*
X205227436Y-119699667D01*
X205266139Y-119719378D01*
X205260819Y-119676339D01*
X205257085Y-119635121D01*
X205254925Y-119595771D01*
X205254328Y-119558335D01*
X205254613Y-119540351D01*
X205255285Y-119522863D01*
X205256341Y-119505878D01*
X205257783Y-119489399D01*
X205259610Y-119473438D01*
X205261818Y-119457993D01*
X205264404Y-119443076D01*
X205267369Y-119428690D01*
X205270714Y-119414842D01*
X205274434Y-119401537D01*
X205278530Y-119388783D01*
X205282998Y-119376584D01*
X205287840Y-119364946D01*
X205293053Y-119353874D01*
X205298636Y-119343376D01*
X205304588Y-119333457D01*
X205310906Y-119324122D01*
X205317591Y-119315378D01*
X205324640Y-119307230D01*
X205332053Y-119299687D01*
X205339827Y-119292749D01*
X205347963Y-119286428D01*
X205356457Y-119280726D01*
X205365309Y-119275649D01*
X205365311Y-119275649D01*
X205374553Y-119271319D01*
X205384101Y-119267641D01*
X205393953Y-119264613D01*
X205404101Y-119262231D01*
X205414540Y-119260496D01*
X205425264Y-119259400D01*
X205436268Y-119258948D01*
X205447548Y-119259134D01*
X205470907Y-119261408D01*
X205495296Y-119266209D01*
X205520673Y-119273515D01*
X205546992Y-119283311D01*
X205574206Y-119295575D01*
X205602273Y-119310292D01*
X205631147Y-119327440D01*
X205660785Y-119347004D01*
X205691140Y-119368964D01*
X205722169Y-119393304D01*
X205753827Y-119420000D01*
X205786071Y-119449040D01*
X205792104Y-119406062D01*
X205799196Y-119365258D01*
X205807324Y-119326663D01*
X205816463Y-119290328D01*
X205826593Y-119256287D01*
X205837690Y-119224586D01*
X205849732Y-119195271D01*
X205856102Y-119181521D01*
X205862699Y-119168381D01*
X205869521Y-119155859D01*
X205876565Y-119143959D01*
X205883829Y-119132689D01*
X205891310Y-119122050D01*
X205899006Y-119112052D01*
X205906912Y-119102696D01*
X205915025Y-119093990D01*
X205923347Y-119085940D01*
X205931870Y-119078547D01*
X205940593Y-119071822D01*
X205949511Y-119065767D01*
X205958627Y-119060389D01*
X205967932Y-119055692D01*
X205977427Y-119051681D01*
X205987108Y-119048362D01*
X205996972Y-119045742D01*
X206017192Y-119042751D01*
X206037908Y-119042590D01*
X206059081Y-119045231D01*
X206080674Y-119050644D01*
X206102648Y-119058799D01*
X206124961Y-119069670D01*
X206147580Y-119083223D01*
X206170464Y-119099432D01*
X206193574Y-119118265D01*
X206216873Y-119139698D01*
X206240321Y-119163694D01*
X206263881Y-119190230D01*
X206287513Y-119219273D01*
X206311180Y-119250797D01*
X206334843Y-119284770D01*
X206358463Y-119321164D01*
X206375430Y-119281278D01*
X206392853Y-119243755D01*
X206410698Y-119208634D01*
X206428934Y-119175950D01*
X206447528Y-119145734D01*
X206466449Y-119118024D01*
X206485663Y-119092860D01*
X206505135Y-119070269D01*
X206514959Y-119059952D01*
X206524836Y-119050292D01*
X206534761Y-119041295D01*
X206544731Y-119032966D01*
X206554743Y-119025304D01*
X206564790Y-119018321D01*
X206574871Y-119012015D01*
X206584979Y-119006394D01*
X206595112Y-119001462D01*
X206605265Y-118997223D01*
X206615434Y-118993682D01*
X206625614Y-118990842D01*
X206635805Y-118988708D01*
X206645998Y-118987285D01*
X206656193Y-118986578D01*
X206666382Y-118986590D01*
G37*
%TD.AperFunction*%
X53779714Y-118996636D02*
X53789921Y-118998061D01*
X53800124Y-119000198D01*
X53810318Y-119003046D01*
X53820499Y-119006595D01*
X53830664Y-119010842D01*
X53840811Y-119015787D01*
X53861023Y-119027740D01*
X53881106Y-119042418D01*
X53901024Y-119059786D01*
X53920748Y-119079809D01*
X53940242Y-119102450D01*
X53959476Y-119127675D01*
X53978415Y-119155447D01*
X53997028Y-119185730D01*
X54015279Y-119218492D01*
X54033139Y-119253691D01*
X54050576Y-119291297D01*
X54067554Y-119331274D01*
X54091144Y-119294885D01*
X54114778Y-119260910D01*
X54138417Y-119229377D01*
X54162023Y-119200316D01*
X54173801Y-119186723D01*
X54185557Y-119173758D01*
X54197284Y-119161426D01*
X54208981Y-119149729D01*
X54220640Y-119138676D01*
X54232259Y-119128264D01*
X54243829Y-119118499D01*
X54255347Y-119109385D01*
X54266811Y-119100927D01*
X54278213Y-119093126D01*
X54289549Y-119085988D01*
X54300813Y-119079515D01*
X54312003Y-119073713D01*
X54323113Y-119068582D01*
X54334138Y-119064129D01*
X54345073Y-119060356D01*
X54355913Y-119057266D01*
X54366655Y-119054865D01*
X54377292Y-119053154D01*
X54387820Y-119052141D01*
X54398234Y-119051823D01*
X54408530Y-119052210D01*
X54418702Y-119053302D01*
X54428746Y-119055103D01*
X54428748Y-119055105D01*
X54438611Y-119057728D01*
X54448289Y-119061048D01*
X54457783Y-119065061D01*
X54467088Y-119069759D01*
X54476200Y-119075140D01*
X54485119Y-119081194D01*
X54493840Y-119087921D01*
X54502361Y-119095314D01*
X54518793Y-119112071D01*
X54534390Y-119131426D01*
X54549134Y-119153335D01*
X54562999Y-119177756D01*
X54575963Y-119204644D01*
X54588003Y-119233959D01*
X54599100Y-119265655D01*
X54609228Y-119299693D01*
X54618366Y-119336027D01*
X54626490Y-119374617D01*
X54633582Y-119415417D01*
X54639615Y-119458389D01*
X54671863Y-119429344D01*
X54703524Y-119402645D01*
X54734558Y-119378304D01*
X54764915Y-119356344D01*
X54794556Y-119336779D01*
X54823434Y-119319628D01*
X54851502Y-119304911D01*
X54865220Y-119298472D01*
X54878720Y-119292647D01*
X54891995Y-119287440D01*
X54905040Y-119282852D01*
X54917849Y-119278888D01*
X54930418Y-119275547D01*
X54942740Y-119272834D01*
X54954810Y-119270749D01*
X54966622Y-119269295D01*
X54978171Y-119268477D01*
X54989452Y-119268293D01*
X55000457Y-119268748D01*
X55011181Y-119269842D01*
X55021621Y-119271582D01*
X55031768Y-119273965D01*
X55041620Y-119276996D01*
X55051169Y-119280676D01*
X55060410Y-119285009D01*
X55077822Y-119295715D01*
X55093795Y-119308908D01*
X55108316Y-119324541D01*
X55121378Y-119342567D01*
X55132969Y-119362939D01*
X55143075Y-119385609D01*
X55151690Y-119410530D01*
X55158801Y-119437657D01*
X55164399Y-119466939D01*
X55168470Y-119498333D01*
X55171008Y-119531788D01*
X55171999Y-119567259D01*
X55171434Y-119604698D01*
X55169300Y-119644060D01*
X55165590Y-119685295D01*
X55160290Y-119728357D01*
X55198926Y-119708709D01*
X55236392Y-119691164D01*
X55272637Y-119675730D01*
X55307616Y-119662414D01*
X55341282Y-119651220D01*
X55373588Y-119642154D01*
X55404482Y-119635228D01*
X55433919Y-119630439D01*
X55448077Y-119628851D01*
X55461852Y-119627799D01*
X55475238Y-119627287D01*
X55488230Y-119627315D01*
X55500824Y-119627881D01*
X55513010Y-119628990D01*
X55524785Y-119630639D01*
X55536142Y-119632831D01*
X55547074Y-119635566D01*
X55557576Y-119638845D01*
X55567643Y-119642669D01*
X55577267Y-119647037D01*
X55586445Y-119651953D01*
X55595168Y-119657414D01*
X55603432Y-119663426D01*
X55611230Y-119669985D01*
X55621426Y-119680309D01*
X55630583Y-119691643D01*
X55638704Y-119703969D01*
X55645795Y-119717269D01*
X55656906Y-119746708D01*
X55663946Y-119779799D01*
X55666957Y-119816387D01*
X55665971Y-119856311D01*
X55661024Y-119899415D01*
X55652155Y-119945541D01*
X55639398Y-119994529D01*
X55622786Y-120046222D01*
X55602360Y-120100463D01*
X55578152Y-120157093D01*
X55550200Y-120215956D01*
X55518539Y-120276890D01*
X55483207Y-120339742D01*
X55444236Y-120404350D01*
X55444366Y-120404397D01*
X55444127Y-120404663D01*
X55443886Y-120404933D01*
X55403844Y-120467302D01*
X55361217Y-120530088D01*
X55316149Y-120593097D01*
X55268794Y-120656137D01*
X55219299Y-120719011D01*
X55167813Y-120781528D01*
X55114483Y-120843493D01*
X55059461Y-120904713D01*
X55009199Y-120958255D01*
X54958201Y-121010536D01*
X54906596Y-121061437D01*
X54854510Y-121110836D01*
X54802073Y-121158618D01*
X54749413Y-121204662D01*
X54696655Y-121248848D01*
X54643932Y-121291059D01*
X54640939Y-121294379D01*
X53782418Y-122027033D01*
X53791630Y-122137269D01*
X53805161Y-122257274D01*
X53822431Y-122385144D01*
X53842867Y-122518981D01*
X53890927Y-122796956D01*
X53944738Y-123075998D01*
X53999692Y-123340908D01*
X54051186Y-123576483D01*
X54125362Y-123898833D01*
X54129015Y-123912274D01*
X54132700Y-123926425D01*
X54136360Y-123941139D01*
X54139942Y-123956264D01*
X54143393Y-123971652D01*
X54146658Y-123987156D01*
X54149684Y-124002622D01*
X54152418Y-124017906D01*
X54158917Y-124058353D01*
X54164100Y-124098905D01*
X54167968Y-124139531D01*
X54170526Y-124180200D01*
X54171776Y-124220883D01*
X54171718Y-124261547D01*
X54170358Y-124302161D01*
X54167698Y-124342694D01*
X54163740Y-124383114D01*
X54158484Y-124423392D01*
X54151936Y-124463497D01*
X54144097Y-124503396D01*
X54134970Y-124543057D01*
X54124558Y-124582452D01*
X54112863Y-124621549D01*
X54099887Y-124660316D01*
X54096025Y-124671817D01*
X54096002Y-124671881D01*
X54071994Y-124732949D01*
X54045187Y-124792083D01*
X54015683Y-124849232D01*
X53983587Y-124904352D01*
X53949002Y-124957392D01*
X53912030Y-125008306D01*
X53872776Y-125057050D01*
X53831341Y-125103569D01*
X53787830Y-125147822D01*
X53742346Y-125189756D01*
X53694992Y-125229328D01*
X53645873Y-125266488D01*
X53595090Y-125301189D01*
X53542747Y-125333383D01*
X53488948Y-125363023D01*
X53433797Y-125390059D01*
X53377394Y-125414448D01*
X53319846Y-125436138D01*
X53261254Y-125455084D01*
X53201723Y-125471236D01*
X53141355Y-125484548D01*
X53080254Y-125494972D01*
X53018522Y-125502461D01*
X52956264Y-125506966D01*
X52893584Y-125508441D01*
X52830583Y-125506837D01*
X52767365Y-125502108D01*
X52704033Y-125494204D01*
X52640692Y-125483079D01*
X52577444Y-125468686D01*
X52514394Y-125450974D01*
X52451643Y-125429901D01*
X52390025Y-125405709D01*
X52330341Y-125378748D01*
X52272638Y-125349118D01*
X52216965Y-125316925D01*
X52163369Y-125282272D01*
X52111901Y-125245258D01*
X52062608Y-125205992D01*
X52015538Y-125164571D01*
X51970741Y-125121099D01*
X51928265Y-125075683D01*
X51888158Y-125028422D01*
X51850468Y-124979419D01*
X51815246Y-124928780D01*
X51782539Y-124876605D01*
X51752394Y-124822996D01*
X51724863Y-124768059D01*
X51699992Y-124711897D01*
X51677829Y-124654608D01*
X51658426Y-124596302D01*
X51641828Y-124537076D01*
X51628084Y-124477035D01*
X51617243Y-124416283D01*
X51609355Y-124354922D01*
X51604469Y-124293054D01*
X51602629Y-124230783D01*
X51603890Y-124168212D01*
X51608292Y-124105443D01*
X51615893Y-124042580D01*
X51626735Y-123979725D01*
X51640868Y-123916982D01*
X51658343Y-123854453D01*
X51679205Y-123792238D01*
X51694066Y-123753968D01*
X51710133Y-123716268D01*
X51727383Y-123679165D01*
X51745807Y-123642683D01*
X51765378Y-123606848D01*
X51786084Y-123571688D01*
X51807903Y-123537228D01*
X51830819Y-123503491D01*
X51854814Y-123470508D01*
X51879868Y-123438300D01*
X51905964Y-123406894D01*
X51933084Y-123376318D01*
X51961210Y-123346595D01*
X51990324Y-123317754D01*
X52020408Y-123289818D01*
X52051441Y-123262814D01*
X52063140Y-123252647D01*
X52074439Y-123242995D01*
X52085532Y-123233751D01*
X52096607Y-123224813D01*
X52107853Y-123216074D01*
X52119460Y-123207433D01*
X52131616Y-123198783D01*
X52144513Y-123190024D01*
X52406015Y-122997961D01*
X52819511Y-122683342D01*
X53047516Y-122502708D01*
X53270634Y-122318593D01*
X53474567Y-122140052D01*
X53564872Y-122055700D01*
X53645022Y-121976136D01*
X53458485Y-120864002D01*
X53458330Y-120859430D01*
X53445075Y-120793217D01*
X53433064Y-120725469D01*
X53422320Y-120656361D01*
X53412863Y-120586066D01*
X53404716Y-120514757D01*
X53397901Y-120442607D01*
X53392438Y-120369790D01*
X53388351Y-120296481D01*
X53385699Y-120215014D01*
X53384789Y-120134072D01*
X53385612Y-120053896D01*
X53388156Y-119974719D01*
X53392412Y-119896780D01*
X53398368Y-119820315D01*
X53406017Y-119745560D01*
X53415345Y-119672755D01*
X53415095Y-119665802D01*
X53416228Y-119666215D01*
X53427868Y-119591812D01*
X53441159Y-119521076D01*
X53456023Y-119454147D01*
X53472393Y-119391171D01*
X53490191Y-119332289D01*
X53509347Y-119277645D01*
X53519408Y-119251958D01*
X53529783Y-119227384D01*
X53540459Y-119203942D01*
X53551430Y-119181650D01*
X53562684Y-119160524D01*
X53574212Y-119140585D01*
X53586006Y-119121848D01*
X53598055Y-119104332D01*
X53610352Y-119088056D01*
X53622887Y-119073039D01*
X53635652Y-119059295D01*
X53648635Y-119046844D01*
X53661829Y-119035704D01*
X53675224Y-119025893D01*
X53688811Y-119017431D01*
X53702582Y-119010330D01*
X53716526Y-119004613D01*
X53730634Y-119000298D01*
X53744896Y-118997401D01*
X53759307Y-118995940D01*
X53769509Y-118995927D01*
X53779714Y-118996636D01*
%TA.AperFunction,EtchedComponent*%
G36*
X53779714Y-118996636D02*
G01*
X53789921Y-118998061D01*
X53800124Y-119000198D01*
X53810318Y-119003046D01*
X53820499Y-119006595D01*
X53830664Y-119010842D01*
X53840811Y-119015787D01*
X53861023Y-119027740D01*
X53881106Y-119042418D01*
X53901024Y-119059786D01*
X53920748Y-119079809D01*
X53940242Y-119102450D01*
X53959476Y-119127675D01*
X53978415Y-119155447D01*
X53997028Y-119185730D01*
X54015279Y-119218492D01*
X54033139Y-119253691D01*
X54050576Y-119291297D01*
X54067554Y-119331274D01*
X54091144Y-119294885D01*
X54114778Y-119260910D01*
X54138417Y-119229377D01*
X54162023Y-119200316D01*
X54173801Y-119186723D01*
X54185557Y-119173758D01*
X54197284Y-119161426D01*
X54208981Y-119149729D01*
X54220640Y-119138676D01*
X54232259Y-119128264D01*
X54243829Y-119118499D01*
X54255347Y-119109385D01*
X54266811Y-119100927D01*
X54278213Y-119093126D01*
X54289549Y-119085988D01*
X54300813Y-119079515D01*
X54312003Y-119073713D01*
X54323113Y-119068582D01*
X54334138Y-119064129D01*
X54345073Y-119060356D01*
X54355913Y-119057266D01*
X54366655Y-119054865D01*
X54377292Y-119053154D01*
X54387820Y-119052141D01*
X54398234Y-119051823D01*
X54408530Y-119052210D01*
X54418702Y-119053302D01*
X54428746Y-119055103D01*
X54428748Y-119055105D01*
X54438611Y-119057728D01*
X54448289Y-119061048D01*
X54457783Y-119065061D01*
X54467088Y-119069759D01*
X54476200Y-119075140D01*
X54485119Y-119081194D01*
X54493840Y-119087921D01*
X54502361Y-119095314D01*
X54518793Y-119112071D01*
X54534390Y-119131426D01*
X54549134Y-119153335D01*
X54562999Y-119177756D01*
X54575963Y-119204644D01*
X54588003Y-119233959D01*
X54599100Y-119265655D01*
X54609228Y-119299693D01*
X54618366Y-119336027D01*
X54626490Y-119374617D01*
X54633582Y-119415417D01*
X54639615Y-119458389D01*
X54671863Y-119429344D01*
X54703524Y-119402645D01*
X54734558Y-119378304D01*
X54764915Y-119356344D01*
X54794556Y-119336779D01*
X54823434Y-119319628D01*
X54851502Y-119304911D01*
X54865220Y-119298472D01*
X54878720Y-119292647D01*
X54891995Y-119287440D01*
X54905040Y-119282852D01*
X54917849Y-119278888D01*
X54930418Y-119275547D01*
X54942740Y-119272834D01*
X54954810Y-119270749D01*
X54966622Y-119269295D01*
X54978171Y-119268477D01*
X54989452Y-119268293D01*
X55000457Y-119268748D01*
X55011181Y-119269842D01*
X55021621Y-119271582D01*
X55031768Y-119273965D01*
X55041620Y-119276996D01*
X55051169Y-119280676D01*
X55060410Y-119285009D01*
X55077822Y-119295715D01*
X55093795Y-119308908D01*
X55108316Y-119324541D01*
X55121378Y-119342567D01*
X55132969Y-119362939D01*
X55143075Y-119385609D01*
X55151690Y-119410530D01*
X55158801Y-119437657D01*
X55164399Y-119466939D01*
X55168470Y-119498333D01*
X55171008Y-119531788D01*
X55171999Y-119567259D01*
X55171434Y-119604698D01*
X55169300Y-119644060D01*
X55165590Y-119685295D01*
X55160290Y-119728357D01*
X55198926Y-119708709D01*
X55236392Y-119691164D01*
X55272637Y-119675730D01*
X55307616Y-119662414D01*
X55341282Y-119651220D01*
X55373588Y-119642154D01*
X55404482Y-119635228D01*
X55433919Y-119630439D01*
X55448077Y-119628851D01*
X55461852Y-119627799D01*
X55475238Y-119627287D01*
X55488230Y-119627315D01*
X55500824Y-119627881D01*
X55513010Y-119628990D01*
X55524785Y-119630639D01*
X55536142Y-119632831D01*
X55547074Y-119635566D01*
X55557576Y-119638845D01*
X55567643Y-119642669D01*
X55577267Y-119647037D01*
X55586445Y-119651953D01*
X55595168Y-119657414D01*
X55603432Y-119663426D01*
X55611230Y-119669985D01*
X55621426Y-119680309D01*
X55630583Y-119691643D01*
X55638704Y-119703969D01*
X55645795Y-119717269D01*
X55656906Y-119746708D01*
X55663946Y-119779799D01*
X55666957Y-119816387D01*
X55665971Y-119856311D01*
X55661024Y-119899415D01*
X55652155Y-119945541D01*
X55639398Y-119994529D01*
X55622786Y-120046222D01*
X55602360Y-120100463D01*
X55578152Y-120157093D01*
X55550200Y-120215956D01*
X55518539Y-120276890D01*
X55483207Y-120339742D01*
X55444236Y-120404350D01*
X55444366Y-120404397D01*
X55444127Y-120404663D01*
X55443886Y-120404933D01*
X55403844Y-120467302D01*
X55361217Y-120530088D01*
X55316149Y-120593097D01*
X55268794Y-120656137D01*
X55219299Y-120719011D01*
X55167813Y-120781528D01*
X55114483Y-120843493D01*
X55059461Y-120904713D01*
X55009199Y-120958255D01*
X54958201Y-121010536D01*
X54906596Y-121061437D01*
X54854510Y-121110836D01*
X54802073Y-121158618D01*
X54749413Y-121204662D01*
X54696655Y-121248848D01*
X54643932Y-121291059D01*
X54640939Y-121294379D01*
X53782418Y-122027033D01*
X53791630Y-122137269D01*
X53805161Y-122257274D01*
X53822431Y-122385144D01*
X53842867Y-122518981D01*
X53890927Y-122796956D01*
X53944738Y-123075998D01*
X53999692Y-123340908D01*
X54051186Y-123576483D01*
X54125362Y-123898833D01*
X54129015Y-123912274D01*
X54132700Y-123926425D01*
X54136360Y-123941139D01*
X54139942Y-123956264D01*
X54143393Y-123971652D01*
X54146658Y-123987156D01*
X54149684Y-124002622D01*
X54152418Y-124017906D01*
X54158917Y-124058353D01*
X54164100Y-124098905D01*
X54167968Y-124139531D01*
X54170526Y-124180200D01*
X54171776Y-124220883D01*
X54171718Y-124261547D01*
X54170358Y-124302161D01*
X54167698Y-124342694D01*
X54163740Y-124383114D01*
X54158484Y-124423392D01*
X54151936Y-124463497D01*
X54144097Y-124503396D01*
X54134970Y-124543057D01*
X54124558Y-124582452D01*
X54112863Y-124621549D01*
X54099887Y-124660316D01*
X54096025Y-124671817D01*
X54096002Y-124671881D01*
X54071994Y-124732949D01*
X54045187Y-124792083D01*
X54015683Y-124849232D01*
X53983587Y-124904352D01*
X53949002Y-124957392D01*
X53912030Y-125008306D01*
X53872776Y-125057050D01*
X53831341Y-125103569D01*
X53787830Y-125147822D01*
X53742346Y-125189756D01*
X53694992Y-125229328D01*
X53645873Y-125266488D01*
X53595090Y-125301189D01*
X53542747Y-125333383D01*
X53488948Y-125363023D01*
X53433797Y-125390059D01*
X53377394Y-125414448D01*
X53319846Y-125436138D01*
X53261254Y-125455084D01*
X53201723Y-125471236D01*
X53141355Y-125484548D01*
X53080254Y-125494972D01*
X53018522Y-125502461D01*
X52956264Y-125506966D01*
X52893584Y-125508441D01*
X52830583Y-125506837D01*
X52767365Y-125502108D01*
X52704033Y-125494204D01*
X52640692Y-125483079D01*
X52577444Y-125468686D01*
X52514394Y-125450974D01*
X52451643Y-125429901D01*
X52390025Y-125405709D01*
X52330341Y-125378748D01*
X52272638Y-125349118D01*
X52216965Y-125316925D01*
X52163369Y-125282272D01*
X52111901Y-125245258D01*
X52062608Y-125205992D01*
X52015538Y-125164571D01*
X51970741Y-125121099D01*
X51928265Y-125075683D01*
X51888158Y-125028422D01*
X51850468Y-124979419D01*
X51815246Y-124928780D01*
X51782539Y-124876605D01*
X51752394Y-124822996D01*
X51724863Y-124768059D01*
X51699992Y-124711897D01*
X51677829Y-124654608D01*
X51658426Y-124596302D01*
X51641828Y-124537076D01*
X51628084Y-124477035D01*
X51617243Y-124416283D01*
X51609355Y-124354922D01*
X51604469Y-124293054D01*
X51602629Y-124230783D01*
X51603890Y-124168212D01*
X51608292Y-124105443D01*
X51615893Y-124042580D01*
X51626735Y-123979725D01*
X51640868Y-123916982D01*
X51658343Y-123854453D01*
X51679205Y-123792238D01*
X51694066Y-123753968D01*
X51710133Y-123716268D01*
X51727383Y-123679165D01*
X51745807Y-123642683D01*
X51765378Y-123606848D01*
X51786084Y-123571688D01*
X51807903Y-123537228D01*
X51830819Y-123503491D01*
X51854814Y-123470508D01*
X51879868Y-123438300D01*
X51905964Y-123406894D01*
X51933084Y-123376318D01*
X51961210Y-123346595D01*
X51990324Y-123317754D01*
X52020408Y-123289818D01*
X52051441Y-123262814D01*
X52063140Y-123252647D01*
X52074439Y-123242995D01*
X52085532Y-123233751D01*
X52096607Y-123224813D01*
X52107853Y-123216074D01*
X52119460Y-123207433D01*
X52131616Y-123198783D01*
X52144513Y-123190024D01*
X52406015Y-122997961D01*
X52819511Y-122683342D01*
X53047516Y-122502708D01*
X53270634Y-122318593D01*
X53474567Y-122140052D01*
X53564872Y-122055700D01*
X53645022Y-121976136D01*
X53458485Y-120864002D01*
X53458330Y-120859430D01*
X53445075Y-120793217D01*
X53433064Y-120725469D01*
X53422320Y-120656361D01*
X53412863Y-120586066D01*
X53404716Y-120514757D01*
X53397901Y-120442607D01*
X53392438Y-120369790D01*
X53388351Y-120296481D01*
X53385699Y-120215014D01*
X53384789Y-120134072D01*
X53385612Y-120053896D01*
X53388156Y-119974719D01*
X53392412Y-119896780D01*
X53398368Y-119820315D01*
X53406017Y-119745560D01*
X53415345Y-119672755D01*
X53415095Y-119665802D01*
X53416228Y-119666215D01*
X53427868Y-119591812D01*
X53441159Y-119521076D01*
X53456023Y-119454147D01*
X53472393Y-119391171D01*
X53490191Y-119332289D01*
X53509347Y-119277645D01*
X53519408Y-119251958D01*
X53529783Y-119227384D01*
X53540459Y-119203942D01*
X53551430Y-119181650D01*
X53562684Y-119160524D01*
X53574212Y-119140585D01*
X53586006Y-119121848D01*
X53598055Y-119104332D01*
X53610352Y-119088056D01*
X53622887Y-119073039D01*
X53635652Y-119059295D01*
X53648635Y-119046844D01*
X53661829Y-119035704D01*
X53675224Y-119025893D01*
X53688811Y-119017431D01*
X53702582Y-119010330D01*
X53716526Y-119004613D01*
X53730634Y-119000298D01*
X53744896Y-118997401D01*
X53759307Y-118995940D01*
X53769509Y-118995927D01*
X53779714Y-118996636D01*
G37*
%TD.AperFunction*%
D13*
%TA.AperFunction,EtchedComponent*%
%TO.C,G\u002A\u002A\u002A*%
G36*
X143346295Y-165075457D02*
G01*
X143824303Y-165227621D01*
X144357119Y-165488637D01*
X144928927Y-165849800D01*
X145523913Y-166302402D01*
X146126262Y-166837734D01*
X146615939Y-167333781D01*
X147335785Y-168171136D01*
X147916038Y-168985476D01*
X148351761Y-169767989D01*
X148638015Y-170509863D01*
X148767427Y-171173548D01*
X148810981Y-171658978D01*
X149200396Y-171722632D01*
X149882827Y-171897326D01*
X150600739Y-172191764D01*
X151304476Y-172579314D01*
X151944381Y-173033347D01*
X152376357Y-173425902D01*
X152853960Y-174001154D01*
X153249964Y-174641262D01*
X153555663Y-175317773D01*
X153762348Y-176002229D01*
X153861313Y-176666174D01*
X153843849Y-177281152D01*
X153712333Y-177792027D01*
X153597109Y-178031391D01*
X153451602Y-178209124D01*
X153224365Y-178381644D01*
X153104897Y-178458188D01*
X152856780Y-178599123D01*
X152660527Y-178685014D01*
X152567820Y-178698277D01*
X152581367Y-178640821D01*
X152736557Y-178539866D01*
X152858492Y-178478791D01*
X153208411Y-178257868D01*
X153450701Y-177965250D01*
X153592233Y-177581796D01*
X153639880Y-177088361D01*
X153600510Y-176465805D01*
X153595670Y-176425078D01*
X153460575Y-175747406D01*
X153215256Y-175105817D01*
X152840605Y-174453783D01*
X152705055Y-174256121D01*
X152118477Y-173568502D01*
X151411332Y-172976167D01*
X150615124Y-172499920D01*
X149761362Y-172160570D01*
X149381396Y-172061259D01*
X148804879Y-171934436D01*
X148680063Y-172235075D01*
X148500726Y-172535819D01*
X148260866Y-172764202D01*
X147990423Y-172914555D01*
X147719334Y-172981208D01*
X147477538Y-172958490D01*
X147294974Y-172840730D01*
X147242601Y-172718217D01*
X147206136Y-172632916D01*
X147379111Y-172632916D01*
X147470170Y-172758087D01*
X147648815Y-172781961D01*
X147878543Y-172718463D01*
X148122857Y-172581518D01*
X148345253Y-172385053D01*
X148470051Y-172216703D01*
X148557517Y-172035102D01*
X148577530Y-171918512D01*
X148575167Y-171913539D01*
X148465160Y-171885158D01*
X148228029Y-171912659D01*
X147895065Y-171992101D01*
X147851023Y-172004685D01*
X147646878Y-172124148D01*
X147474604Y-172322168D01*
X147381104Y-172536305D01*
X147379111Y-172632916D01*
X147206136Y-172632916D01*
X147201580Y-172622259D01*
X147195587Y-172516232D01*
X147280237Y-172249816D01*
X147500264Y-172004922D01*
X147822012Y-171813146D01*
X148016766Y-171745333D01*
X148338103Y-171648368D01*
X148525568Y-171554663D01*
X148611284Y-171434004D01*
X148627371Y-171256177D01*
X148622548Y-171175523D01*
X148501918Y-170552338D01*
X148239032Y-169877672D01*
X147846035Y-169169561D01*
X147335077Y-168446043D01*
X146718305Y-167725157D01*
X146007866Y-167024938D01*
X145574036Y-166648898D01*
X145037154Y-166235790D01*
X144495451Y-165875482D01*
X143981213Y-165586526D01*
X143526721Y-165387470D01*
X143239268Y-165307393D01*
X142839950Y-165296653D01*
X142496191Y-165422369D01*
X142200419Y-165691956D01*
X141945061Y-166112827D01*
X141722542Y-166692401D01*
X141679374Y-166834634D01*
X141568516Y-167160215D01*
X141481331Y-167324614D01*
X141427601Y-167335412D01*
X141417108Y-167200190D01*
X141459633Y-166926532D01*
X141512909Y-166705624D01*
X141685990Y-166170162D01*
X141897607Y-165763191D01*
X142176245Y-165444160D01*
X142550387Y-165172525D01*
X142617956Y-165132521D01*
X142938907Y-165040855D01*
X143346295Y-165075457D01*
G37*
%TD.AperFunction*%
%TA.AperFunction,EtchedComponent*%
G36*
X140871380Y-167399701D02*
G01*
X141238470Y-167536093D01*
X141687570Y-167769498D01*
X142096643Y-168013389D01*
X143050715Y-168653848D01*
X143933230Y-169347788D01*
X144722638Y-170074766D01*
X145397387Y-170814337D01*
X145935923Y-171546054D01*
X146092508Y-171803978D01*
X146305243Y-172202260D01*
X146439038Y-172538340D01*
X146503875Y-172867031D01*
X146509736Y-173243143D01*
X146466604Y-173721490D01*
X146456714Y-173803903D01*
X146374300Y-174477289D01*
X146776573Y-174225921D01*
X147319064Y-173943491D01*
X147835888Y-173800969D01*
X148354190Y-173783791D01*
X148963402Y-173907848D01*
X149561947Y-174182028D01*
X150133896Y-174587205D01*
X150663318Y-175104250D01*
X151134283Y-175714035D01*
X151530861Y-176397434D01*
X151837122Y-177135318D01*
X152037135Y-177908560D01*
X152088773Y-178267998D01*
X152116185Y-178794348D01*
X152061545Y-179202526D01*
X151910595Y-179529529D01*
X151649076Y-179812357D01*
X151429486Y-179978774D01*
X150901961Y-180273290D01*
X150522711Y-180394446D01*
X149923812Y-180472816D01*
X149207952Y-180477864D01*
X148408711Y-180413791D01*
X147559674Y-180284800D01*
X146694425Y-180095090D01*
X145846546Y-179848862D01*
X145662684Y-179786480D01*
X145356914Y-179672417D01*
X145202901Y-179599446D01*
X145188150Y-179567470D01*
X145300169Y-179576396D01*
X145526464Y-179626130D01*
X145854543Y-179716577D01*
X146093087Y-179789726D01*
X146741287Y-179967999D01*
X147452201Y-180117480D01*
X148176592Y-180231074D01*
X148865226Y-180301682D01*
X149468867Y-180322207D01*
X149716355Y-180312008D01*
X150314627Y-180219656D01*
X150881317Y-180047211D01*
X150923592Y-180030003D01*
X151228818Y-179896003D01*
X151423442Y-179784672D01*
X151556085Y-179661044D01*
X151675369Y-179490149D01*
X151676302Y-179488655D01*
X151844084Y-179068500D01*
X151893326Y-178562840D01*
X151834432Y-177995925D01*
X151677812Y-177392006D01*
X151433869Y-176775333D01*
X151113011Y-176170158D01*
X150725642Y-175600731D01*
X150282171Y-175091305D01*
X149793002Y-174666129D01*
X149531838Y-174491084D01*
X148918435Y-174191399D01*
X148334990Y-174056104D01*
X147769902Y-174085431D01*
X147211574Y-174279616D01*
X146771794Y-174546760D01*
X146338327Y-174857589D01*
X146036184Y-176062722D01*
X145861645Y-176710082D01*
X145696926Y-177209570D01*
X145532748Y-177581569D01*
X145359834Y-177846461D01*
X145168906Y-178024628D01*
X145132021Y-178048990D01*
X144861654Y-178141043D01*
X144621635Y-178087425D01*
X144462421Y-177934176D01*
X144439143Y-177911770D01*
X144341353Y-177637712D01*
X144341633Y-177571702D01*
X144621659Y-177571702D01*
X144680498Y-177797907D01*
X144802362Y-177885254D01*
X144965401Y-177841413D01*
X145147764Y-177674049D01*
X145327597Y-177390830D01*
X145366139Y-177310472D01*
X145470284Y-177045975D01*
X145594502Y-176677753D01*
X145718861Y-176266617D01*
X145775632Y-176061076D01*
X145871246Y-175690238D01*
X145920276Y-175461962D01*
X145924090Y-175356408D01*
X145884056Y-175353735D01*
X145820268Y-175413531D01*
X145548806Y-175741174D01*
X145279273Y-176126883D01*
X145031743Y-176534518D01*
X144826287Y-176927936D01*
X144682980Y-177270994D01*
X144621892Y-177527552D01*
X144621659Y-177571702D01*
X144341633Y-177571702D01*
X144342520Y-177362437D01*
X144423556Y-177097433D01*
X144592547Y-176742236D01*
X144826591Y-176334656D01*
X145102787Y-175912504D01*
X145398234Y-175513588D01*
X145624274Y-175246231D01*
X145811453Y-175026413D01*
X145949739Y-174817269D01*
X146050599Y-174583523D01*
X146125501Y-174289897D01*
X146185914Y-173901114D01*
X146243304Y-173381900D01*
X146249022Y-173324436D01*
X146255427Y-172832977D01*
X146163208Y-172373490D01*
X145959242Y-171911425D01*
X145630404Y-171412227D01*
X145421510Y-171145796D01*
X144955933Y-170613831D01*
X144432876Y-170081018D01*
X143871567Y-169561656D01*
X143291236Y-169070039D01*
X142711114Y-168620466D01*
X142150431Y-168227233D01*
X141628414Y-167904636D01*
X141164294Y-167666974D01*
X140777303Y-167528541D01*
X140517755Y-167499995D01*
X140139912Y-167607511D01*
X139787931Y-167845218D01*
X139549207Y-168125497D01*
X139449056Y-168336147D01*
X139337253Y-168654956D01*
X139233487Y-169023676D01*
X139204867Y-169144151D01*
X139103582Y-169901650D01*
X139112642Y-170772432D01*
X139229873Y-171743226D01*
X139453103Y-172800770D01*
X139780160Y-173931795D01*
X140165653Y-175012340D01*
X140402684Y-175551673D01*
X140708635Y-176139997D01*
X141058862Y-176737951D01*
X141428727Y-177306174D01*
X141793587Y-177805307D01*
X142128803Y-178195987D01*
X142208285Y-178275155D01*
X142779610Y-178772121D01*
X143332149Y-179142819D01*
X143915488Y-179415897D01*
X144501737Y-179600308D01*
X144900009Y-179719008D01*
X145275890Y-179857343D01*
X145572267Y-179993207D01*
X145673763Y-180053974D01*
X145882481Y-180184682D01*
X146033864Y-180253320D01*
X146074907Y-180255249D01*
X146206255Y-180246462D01*
X146451184Y-180286718D01*
X146765384Y-180363854D01*
X147104552Y-180465709D01*
X147424379Y-180580123D01*
X147680559Y-180694934D01*
X147684563Y-180697062D01*
X148052748Y-180934432D01*
X148256825Y-181168948D01*
X148301735Y-181407603D01*
X148268751Y-181524405D01*
X148080434Y-181784833D01*
X147805230Y-181910381D01*
X147461286Y-181898991D01*
X147066749Y-181748603D01*
X146939781Y-181675169D01*
X146630668Y-181443127D01*
X146288214Y-181125842D01*
X146057216Y-180875276D01*
X145970143Y-180780828D01*
X145805339Y-180563201D01*
X146197071Y-180563201D01*
X146286072Y-180732271D01*
X146458036Y-180944931D01*
X146685459Y-181173896D01*
X146940832Y-181391880D01*
X147196649Y-181571596D01*
X147425404Y-181685759D01*
X147460451Y-181696922D01*
X147662776Y-181697812D01*
X147877072Y-181620859D01*
X148045677Y-181497541D01*
X148110927Y-181359335D01*
X148109003Y-181342879D01*
X148013086Y-181208246D01*
X147796308Y-181044888D01*
X147498559Y-180871330D01*
X147159728Y-180706096D01*
X146819703Y-180567707D01*
X146518376Y-180474687D01*
X146295633Y-180445560D01*
X146218544Y-180465006D01*
X146197071Y-180563201D01*
X145805339Y-180563201D01*
X145748721Y-180488436D01*
X145643260Y-180450260D01*
X145413857Y-180426301D01*
X145105603Y-180420714D01*
X145031529Y-180422367D01*
X144365291Y-180411888D01*
X143782236Y-180342377D01*
X143303308Y-180219053D01*
X142949455Y-180047132D01*
X142755367Y-179855371D01*
X142614482Y-179771006D01*
X142336121Y-179721983D01*
X142142048Y-179712662D01*
X141897632Y-179690556D01*
X141523321Y-179633319D01*
X141053394Y-179547307D01*
X140522129Y-179438870D01*
X139963804Y-179314361D01*
X139855588Y-179288961D01*
X139323375Y-179167412D01*
X138837545Y-179064819D01*
X138425466Y-178986290D01*
X138114507Y-178936936D01*
X137932037Y-178921867D01*
X137905928Y-178924932D01*
X137744780Y-178935745D01*
X137656050Y-178888298D01*
X137684085Y-178811134D01*
X137705494Y-178795952D01*
X137849201Y-178745747D01*
X138074550Y-178731546D01*
X138397306Y-178755248D01*
X138833231Y-178818754D01*
X139398090Y-178923965D01*
X140107647Y-179072781D01*
X140237417Y-179101151D01*
X140790653Y-179221318D01*
X141302496Y-179329970D01*
X141744866Y-179421343D01*
X142089681Y-179489679D01*
X142308864Y-179529218D01*
X142355988Y-179535777D01*
X142623048Y-179563730D01*
X142302267Y-179466227D01*
X141894816Y-179320389D01*
X141424584Y-179108425D01*
X140865760Y-178817884D01*
X140319722Y-178510203D01*
X139716444Y-178166376D01*
X139236349Y-177905143D01*
X138860150Y-177717567D01*
X138568565Y-177594715D01*
X138342306Y-177527653D01*
X138162092Y-177507445D01*
X138155459Y-177507486D01*
X137968368Y-177496703D01*
X137940941Y-177456314D01*
X137973990Y-177430505D01*
X138203693Y-177356580D01*
X138515849Y-177378040D01*
X138920736Y-177498326D01*
X139428629Y-177720875D01*
X140049808Y-178049124D01*
X140367016Y-178231057D01*
X140977362Y-178583665D01*
X141466708Y-178855559D01*
X141856517Y-179057566D01*
X142168244Y-179200517D01*
X142423348Y-179295240D01*
X142544654Y-179330031D01*
X142774559Y-179411365D01*
X142857400Y-179496370D01*
X142852652Y-179517855D01*
X142855575Y-179684009D01*
X142996693Y-179858294D01*
X143249232Y-180010631D01*
X143315230Y-180037515D01*
X143583874Y-180109127D01*
X143962392Y-180173279D01*
X144391325Y-180223339D01*
X144811215Y-180252676D01*
X145162605Y-180254659D01*
X145226301Y-180250645D01*
X145403950Y-180231121D01*
X145434205Y-180200409D01*
X145340266Y-180138037D01*
X145188720Y-180075933D01*
X144921497Y-179988837D01*
X144587342Y-179892252D01*
X144460277Y-179858203D01*
X143597128Y-179550636D01*
X142800941Y-179096861D01*
X142069694Y-178494569D01*
X141401360Y-177741449D01*
X140793920Y-176835191D01*
X140245347Y-175773483D01*
X139753619Y-174554016D01*
X139712486Y-174437605D01*
X139413055Y-173445756D01*
X139165191Y-172344886D01*
X138981037Y-171190655D01*
X138952369Y-170953486D01*
X138909416Y-170317354D01*
X138942030Y-169734206D01*
X139015554Y-169285214D01*
X139149794Y-168704222D01*
X139297882Y-168264475D01*
X139475182Y-167937895D01*
X139697058Y-167696401D01*
X139978874Y-167511911D01*
X139988604Y-167506866D01*
X140273804Y-167391661D01*
X140558944Y-167353748D01*
X140871380Y-167399701D01*
G37*
%TD.AperFunction*%
%TA.AperFunction,EtchedComponent*%
G36*
X117782044Y-165132520D02*
G01*
X118173334Y-165400477D01*
X118464758Y-165709614D01*
X118684798Y-166100481D01*
X118861934Y-166613625D01*
X118887091Y-166705624D01*
X118965116Y-167056650D01*
X118984407Y-167273665D01*
X118954748Y-167349092D01*
X118885919Y-167275346D01*
X118787704Y-167044848D01*
X118720627Y-166834634D01*
X118504028Y-166220871D01*
X118256178Y-165767361D01*
X117969500Y-165466692D01*
X117636424Y-165311446D01*
X117249374Y-165294209D01*
X117160732Y-165307393D01*
X116738009Y-165437098D01*
X116235410Y-165681083D01*
X115678953Y-166021492D01*
X115094654Y-166440469D01*
X114508531Y-166920157D01*
X113946604Y-167442700D01*
X113736579Y-167657459D01*
X113311986Y-168139899D01*
X112903617Y-168668960D01*
X112536234Y-169207490D01*
X112234602Y-169718341D01*
X112023484Y-170164359D01*
X111974850Y-170300500D01*
X111836112Y-170810205D01*
X111779150Y-171201264D01*
X111804584Y-171463726D01*
X111895177Y-171580195D01*
X112066985Y-171647581D01*
X112315174Y-171726208D01*
X112383234Y-171745333D01*
X112744304Y-171897347D01*
X113021019Y-172118779D01*
X113179721Y-172378036D01*
X113204413Y-172516232D01*
X113151056Y-172772904D01*
X112997594Y-172926793D01*
X112773962Y-172983569D01*
X112510103Y-172948904D01*
X112235953Y-172828467D01*
X111981450Y-172627928D01*
X111776537Y-172352957D01*
X111719938Y-172235075D01*
X111595122Y-171934437D01*
X111018604Y-172061258D01*
X110149685Y-172334814D01*
X109324665Y-172754283D01*
X108575052Y-173298860D01*
X107932349Y-173947736D01*
X107694946Y-174256122D01*
X107279220Y-174919886D01*
X106998366Y-175559713D01*
X106833277Y-176222134D01*
X106804330Y-176425078D01*
X106760094Y-177055762D01*
X106802473Y-177556206D01*
X106938337Y-177945554D01*
X107174560Y-178242946D01*
X107518007Y-178467527D01*
X107541508Y-178478790D01*
X107759411Y-178596104D01*
X107844380Y-178676491D01*
X107832180Y-178698277D01*
X107720964Y-178678580D01*
X107516318Y-178585258D01*
X107295103Y-178458188D01*
X107022950Y-178272725D01*
X106852227Y-178103654D01*
X106731485Y-177894555D01*
X106687667Y-177792026D01*
X106552075Y-177249545D01*
X106541146Y-176631184D01*
X106646173Y-175965396D01*
X106858449Y-175280641D01*
X107169264Y-174605375D01*
X107569916Y-173968053D01*
X108023644Y-173425902D01*
X108576894Y-172937899D01*
X109233639Y-172495107D01*
X109944221Y-172124158D01*
X110497897Y-171913090D01*
X111825115Y-171913090D01*
X111825231Y-172056915D01*
X111939660Y-172245181D01*
X112131895Y-172445330D01*
X112365433Y-172624806D01*
X112603771Y-172751048D01*
X112810032Y-172791529D01*
X112975888Y-172718744D01*
X113020889Y-172632917D01*
X112986602Y-172434966D01*
X112849257Y-172220807D01*
X112655757Y-172052878D01*
X112548977Y-172004685D01*
X112207708Y-171919576D01*
X111957729Y-171885513D01*
X111830705Y-171906502D01*
X111825115Y-171913090D01*
X110497897Y-171913090D01*
X110658983Y-171851682D01*
X111199604Y-171722632D01*
X111453820Y-171681079D01*
X111589020Y-171658979D01*
X111632573Y-171173549D01*
X111771184Y-170478812D01*
X112063988Y-169735003D01*
X112506050Y-168950934D01*
X113092428Y-168135419D01*
X113784062Y-167333782D01*
X114380617Y-166736944D01*
X114982812Y-166215676D01*
X115574834Y-165778688D01*
X116140869Y-165434686D01*
X116665101Y-165192378D01*
X117131715Y-165060469D01*
X117524897Y-165047670D01*
X117782044Y-165132520D01*
G37*
%TD.AperFunction*%
%TA.AperFunction,EtchedComponent*%
G36*
X120195479Y-167413149D02*
G01*
X120411397Y-167506867D01*
X120695290Y-167690055D01*
X120918771Y-167929389D01*
X121097206Y-168252951D01*
X121245960Y-168688818D01*
X121380396Y-169265073D01*
X121384448Y-169285215D01*
X121474511Y-169892969D01*
X121486238Y-170480572D01*
X121447631Y-170953486D01*
X121277976Y-172111770D01*
X121042132Y-173228055D01*
X120752242Y-174246681D01*
X120687513Y-174437605D01*
X120200753Y-175671243D01*
X119657328Y-176746915D01*
X119055215Y-177666934D01*
X118392392Y-178433609D01*
X117666833Y-179049249D01*
X116876516Y-179516165D01*
X116019416Y-179836668D01*
X115939723Y-179858203D01*
X115593422Y-179954413D01*
X115296537Y-180046703D01*
X115097810Y-180119573D01*
X115059734Y-180138037D01*
X114965425Y-180200860D01*
X114997103Y-180231346D01*
X115173699Y-180250645D01*
X115501419Y-180255749D01*
X115911051Y-180232003D01*
X116343137Y-180186038D01*
X116738221Y-180124486D01*
X117036842Y-180053978D01*
X117084770Y-180037516D01*
X117357691Y-179893789D01*
X117524922Y-179721673D01*
X117559693Y-179551246D01*
X117547349Y-179517856D01*
X117588911Y-179433643D01*
X117782089Y-179350325D01*
X117855345Y-179330031D01*
X118088868Y-179256771D01*
X118367471Y-179141108D01*
X118712613Y-178972213D01*
X119145752Y-178739256D01*
X119688346Y-178431410D01*
X120032984Y-178231057D01*
X120708156Y-177854419D01*
X121265448Y-177585018D01*
X121715135Y-177419419D01*
X122067496Y-177354183D01*
X122332807Y-177385870D01*
X122426011Y-177430505D01*
X122461723Y-177483939D01*
X122340883Y-177506447D01*
X122244541Y-177507487D01*
X122066829Y-177525776D01*
X121844495Y-177590166D01*
X121558203Y-177709633D01*
X121188614Y-177893155D01*
X120716394Y-178149712D01*
X120122206Y-178488279D01*
X120082220Y-178511416D01*
X119426447Y-178878629D01*
X118879300Y-179156196D01*
X118414470Y-179356777D01*
X118097733Y-179466226D01*
X117776952Y-179563730D01*
X118044013Y-179535777D01*
X118203395Y-179509750D01*
X118499956Y-179452557D01*
X118905614Y-179369958D01*
X119392293Y-179267713D01*
X119931908Y-179151583D01*
X120162583Y-179101152D01*
X120897091Y-178945085D01*
X121484343Y-178832932D01*
X121940105Y-178762793D01*
X122280142Y-178732764D01*
X122520216Y-178740948D01*
X122676093Y-178785445D01*
X122694507Y-178795953D01*
X122748875Y-178875479D01*
X122678309Y-178930539D01*
X122527163Y-178932597D01*
X122494073Y-178924933D01*
X122356770Y-178928392D01*
X122082534Y-178967712D01*
X121698734Y-179037785D01*
X121232737Y-179133499D01*
X120711916Y-179249745D01*
X120544412Y-179288961D01*
X119984810Y-179415845D01*
X119445639Y-179527887D01*
X118961174Y-179618731D01*
X118565696Y-179682029D01*
X118293483Y-179711425D01*
X118257953Y-179712662D01*
X117918430Y-179740079D01*
X117700711Y-179806488D01*
X117644634Y-179855372D01*
X117421120Y-180066532D01*
X117053698Y-180233786D01*
X116563313Y-180351918D01*
X115970915Y-180415710D01*
X115368471Y-180422367D01*
X115048901Y-180423347D01*
X114798240Y-180443611D01*
X114661580Y-180479009D01*
X114651279Y-180488435D01*
X114406603Y-180808170D01*
X114084446Y-181153081D01*
X113742538Y-181465651D01*
X113460219Y-181675169D01*
X113053919Y-181868142D01*
X112692706Y-181921491D01*
X112394725Y-181837278D01*
X112178126Y-181617560D01*
X112131250Y-181524405D01*
X112109635Y-181342879D01*
X112290998Y-181342879D01*
X112339587Y-181480744D01*
X112498610Y-181607584D01*
X112710403Y-181691923D01*
X112917302Y-181702282D01*
X112939549Y-181696922D01*
X113160776Y-181596970D01*
X113413856Y-181426712D01*
X113671286Y-181213433D01*
X113905558Y-180984418D01*
X114089163Y-180766954D01*
X114194595Y-180588327D01*
X114194349Y-180475821D01*
X114181456Y-180465006D01*
X114022090Y-180448919D01*
X113761161Y-180507395D01*
X113438556Y-180621910D01*
X113094168Y-180773943D01*
X112767883Y-180944967D01*
X112499590Y-181116464D01*
X112329180Y-181269905D01*
X112290998Y-181342879D01*
X112109635Y-181342879D01*
X112102306Y-181281333D01*
X112164396Y-181166936D01*
X112230185Y-181045724D01*
X112519823Y-180810581D01*
X112715438Y-180697062D01*
X112969962Y-180582363D01*
X113288984Y-180467827D01*
X113628198Y-180365615D01*
X113943295Y-180287890D01*
X114189971Y-180246813D01*
X114323917Y-180254543D01*
X114325093Y-180255250D01*
X114422394Y-180232410D01*
X114605158Y-180133391D01*
X114726238Y-180053975D01*
X114960627Y-179927784D01*
X115303419Y-179787936D01*
X115697501Y-179656538D01*
X115898264Y-179600308D01*
X116550858Y-179390095D01*
X117128453Y-179107803D01*
X117680633Y-178724780D01*
X118191716Y-178275156D01*
X118515151Y-177919223D01*
X118874656Y-177444576D01*
X119245591Y-176890573D01*
X119603315Y-176296578D01*
X119923185Y-175701950D01*
X120180562Y-175146049D01*
X120234347Y-175012340D01*
X120653887Y-173826034D01*
X120971573Y-172701157D01*
X121185233Y-171650968D01*
X121292696Y-170688738D01*
X121291790Y-169827731D01*
X121195134Y-169144152D01*
X121098194Y-168771752D01*
X120986839Y-168430396D01*
X120880756Y-168178331D01*
X120850793Y-168125497D01*
X120573673Y-167811945D01*
X120223780Y-167587402D01*
X119930503Y-167499731D01*
X119633940Y-167528259D01*
X119242831Y-167668587D01*
X118776072Y-167906802D01*
X118252566Y-168228988D01*
X117691207Y-168621230D01*
X117110895Y-169069616D01*
X116530528Y-169560229D01*
X115969005Y-170079157D01*
X115445223Y-170612484D01*
X114978490Y-171145796D01*
X114584208Y-171675526D01*
X114321176Y-172151328D01*
X114176273Y-172607752D01*
X114136373Y-173079353D01*
X114150979Y-173324436D01*
X114208678Y-173857894D01*
X114268309Y-174257565D01*
X114341341Y-174558724D01*
X114439237Y-174796649D01*
X114573469Y-175006615D01*
X114755505Y-175223898D01*
X114775726Y-175246231D01*
X115070398Y-175601528D01*
X115363438Y-176009157D01*
X115631947Y-176431302D01*
X115853022Y-176830158D01*
X116003764Y-177167913D01*
X116057480Y-177362437D01*
X116047366Y-177698397D01*
X115930729Y-177954928D01*
X115734747Y-178108398D01*
X115486595Y-178135170D01*
X115267979Y-178048990D01*
X115072836Y-177884231D01*
X114897372Y-177636403D01*
X114732309Y-177285126D01*
X114568370Y-176810018D01*
X114396277Y-176190696D01*
X114363817Y-176062722D01*
X114206790Y-175436401D01*
X114488071Y-175436401D01*
X114522239Y-175651837D01*
X114611686Y-176013211D01*
X114624369Y-176061077D01*
X114819997Y-176723826D01*
X115015274Y-177244364D01*
X115206867Y-177616934D01*
X115391448Y-177835782D01*
X115565681Y-177895147D01*
X115661647Y-177853515D01*
X115756292Y-177680506D01*
X115742502Y-177401277D01*
X115626434Y-177034271D01*
X115414251Y-176597935D01*
X115112108Y-176110712D01*
X115049357Y-176020044D01*
X114789822Y-175658728D01*
X114614602Y-175440547D01*
X114516438Y-175366205D01*
X114488071Y-175436401D01*
X114206790Y-175436401D01*
X114128400Y-175123731D01*
X114061674Y-174857590D01*
X113628206Y-174546760D01*
X113066152Y-174219886D01*
X112519616Y-174058927D01*
X111980904Y-174062060D01*
X111772110Y-174107133D01*
X111051014Y-174388613D01*
X110401853Y-174819153D01*
X109821540Y-175401403D01*
X109306994Y-176138013D01*
X109208745Y-176309422D01*
X108877258Y-176995134D01*
X108650049Y-177658378D01*
X108530433Y-178277416D01*
X108521728Y-178830510D01*
X108627249Y-179295919D01*
X108723698Y-179488655D01*
X108843062Y-179660018D01*
X108975435Y-179783863D01*
X109169435Y-179895157D01*
X109473685Y-180028869D01*
X109476408Y-180030003D01*
X110034989Y-180207886D01*
X110635231Y-180308031D01*
X110683645Y-180312008D01*
X111228328Y-180318332D01*
X111881887Y-180271129D01*
X112595082Y-180177498D01*
X113318682Y-180044538D01*
X114003450Y-179879343D01*
X114306913Y-179789727D01*
X114689660Y-179675083D01*
X114978062Y-179601097D01*
X115159625Y-179567863D01*
X115221856Y-179575476D01*
X115152263Y-179624027D01*
X114938353Y-179713614D01*
X114737316Y-179786480D01*
X113906533Y-180042433D01*
X113051188Y-180243969D01*
X112204376Y-180386972D01*
X111399184Y-180467325D01*
X110668706Y-180480914D01*
X110046031Y-180423620D01*
X109879617Y-180390720D01*
X109435157Y-180242349D01*
X109014928Y-180020062D01*
X108670251Y-179755423D01*
X108480914Y-179530448D01*
X108320325Y-179120992D01*
X108271004Y-178617257D01*
X108324046Y-178044260D01*
X108470541Y-177427020D01*
X108701585Y-176790553D01*
X109008268Y-176159877D01*
X109381686Y-175560011D01*
X109812931Y-175015970D01*
X110235955Y-174600886D01*
X110852572Y-174159319D01*
X111475697Y-173885640D01*
X112102573Y-173780154D01*
X112730445Y-173843164D01*
X113356558Y-174074976D01*
X113623427Y-174225921D01*
X114025700Y-174477289D01*
X113943285Y-173803903D01*
X113893780Y-173305866D01*
X113891798Y-172918137D01*
X113947321Y-172585905D01*
X114070332Y-172254355D01*
X114270812Y-171868677D01*
X114307492Y-171803979D01*
X114791635Y-171080106D01*
X115419762Y-170341009D01*
X116170317Y-169607135D01*
X117021751Y-168898928D01*
X117952509Y-168236832D01*
X118303358Y-168013389D01*
X118832306Y-167702559D01*
X119258636Y-167493694D01*
X119609704Y-167380218D01*
X119912866Y-167355561D01*
X120195479Y-167413149D01*
G37*
%TD.AperFunction*%
%TD*%
D14*
%TO.P,H4,*%
%TO.N,*%
X184623709Y-149996734D03*
%TD*%
D15*
%TO.P,DISP1,1*%
%TO.N,D10*%
X125124325Y-176374035D03*
%TO.P,DISP1,2*%
%TO.N,D8*%
X127664325Y-176374035D03*
%TO.P,DISP1,3*%
%TO.N,VCC*%
X130204325Y-176374035D03*
%TO.P,DISP1,4*%
%TO.N,GND*%
X132744325Y-176374035D03*
D16*
%TO.P,DISP1,5*%
%TO.N,D7*%
X135284325Y-176374035D03*
%TD*%
%TO.P,RST1,1*%
%TO.N,RST*%
X133454325Y-183674035D03*
%TO.P,RST1,2*%
%TO.N,GND*%
X126954325Y-183674035D03*
%TD*%
D14*
%TO.P,H6,*%
%TO.N,*%
X155979233Y-129173174D03*
%TD*%
%TO.P,H1,*%
%TO.N,*%
X55345849Y-111084148D03*
%TD*%
%TO.P,H3,*%
%TO.N,*%
X75784942Y-149996734D03*
%TD*%
%TO.P,H5,*%
%TO.N,*%
X104429417Y-129173174D03*
%TD*%
%TO.P,H7,*%
%TO.N,*%
X92677801Y-209409175D03*
%TD*%
%TO.P,H2,*%
%TO.N,*%
X205062801Y-111084148D03*
%TD*%
%TO.P,H8,*%
%TO.N,*%
X167730849Y-209409175D03*
%TD*%
D17*
%TO.P,S8,*%
%TO.N,index_top*%
X108846167Y-150760550D03*
D18*
%TO.P,S8,1*%
X101428974Y-143918931D03*
%TO.P,S8,2*%
%TO.N,D14*%
X104320224Y-148507032D03*
%TD*%
D17*
%TO.P,S2,*%
%TO.N,pinky_top*%
X44499175Y-126450414D03*
D18*
%TO.P,S2,1*%
X35189322Y-122558224D03*
%TO.P,S2,2*%
%TO.N,D11*%
X39475432Y-125880763D03*
%TD*%
D17*
%TO.P,S9,*%
%TO.N,mirror_pinky_bottom*%
X229968657Y-140282963D03*
D18*
%TO.P,S9,1*%
X219959993Y-141567153D03*
%TO.P,S9,2*%
%TO.N,D11*%
X225333142Y-142301502D03*
%TD*%
D19*
%TO.P,REF\u002A\u002A,24*%
%TO.N,DIO*%
X131474325Y-143776942D03*
%TO.P,REF\u002A\u002A,25*%
%TO.N,CLK*%
X128934325Y-143776942D03*
%TO.P,REF\u002A\u002A,26*%
%TO.N,RST*%
X131474325Y-146316942D03*
%TO.P,REF\u002A\u002A,27*%
%TO.N,GND*%
X128934325Y-146316942D03*
%TO.P,REF\u002A\u002A,28*%
%TO.N,BAT_P*%
X131213325Y-158405835D03*
%TO.P,REF\u002A\u002A,29*%
%TO.N,GND*%
X129308325Y-158405835D03*
%TD*%
D17*
%TO.P,S12,*%
%TO.N,mirror_ring_top*%
X199042776Y-121975133D03*
D18*
%TO.P,S12,1*%
X189409163Y-124977800D03*
%TO.P,S12,2*%
%TO.N,D12*%
X194828201Y-124767955D03*
%TD*%
D17*
%TO.P,S13,*%
%TO.N,mirror_middle_bottom*%
X185278836Y-141131447D03*
D18*
%TO.P,S13,1*%
X175943582Y-144962313D03*
%TO.P,S13,2*%
%TO.N,D13*%
X181323709Y-144280966D03*
%TD*%
D17*
%TO.P,S10,*%
%TO.N,mirror_pinky_top*%
X225568734Y-123862224D03*
D18*
%TO.P,S10,1*%
X215560070Y-125146414D03*
%TO.P,S10,2*%
%TO.N,D11*%
X220933219Y-125880763D03*
%TD*%
D17*
%TO.P,S20,*%
%TO.N,mirror_outer_cluster*%
X152021534Y-210971197D03*
D18*
%TO.P,S20,1*%
X147867206Y-201775325D03*
%TO.P,S20,2*%
%TO.N,D14*%
X148735901Y-207128396D03*
%TD*%
D17*
%TO.P,S3,*%
%TO.N,ring_bottom*%
X63244442Y-141608548D03*
D18*
%TO.P,S3,1*%
X54751899Y-136158850D03*
%TO.P,S3,2*%
%TO.N,D12*%
X58395939Y-140175188D03*
%TD*%
D17*
%TO.P,S14,*%
%TO.N,mirror_middle_top*%
X176778836Y-126409016D03*
D18*
%TO.P,S14,1*%
X167443582Y-130239882D03*
%TO.P,S14,2*%
%TO.N,D13*%
X172823709Y-129558535D03*
%TD*%
D20*
%TO.P,JST1,1*%
%TO.N,GND*%
X131204325Y-165174035D03*
D21*
%TO.P,JST1,2*%
%TO.N,BAT_P*%
X129204325Y-165174035D03*
%TD*%
D17*
%TO.P,S1,*%
%TO.N,pinky_bottom*%
X40099251Y-142871153D03*
D18*
%TO.P,S1,1*%
X30789398Y-138978963D03*
%TO.P,S1,2*%
%TO.N,D11*%
X35075508Y-142301502D03*
%TD*%
D17*
%TO.P,S18,*%
%TO.N,outer_cluster*%
X113686309Y-202490716D03*
D18*
%TO.P,S18,1*%
X107242251Y-210255807D03*
%TO.P,S18,2*%
%TO.N,D12*%
X111672749Y-207128396D03*
%TD*%
D17*
%TO.P,S4,*%
%TO.N,ring_top*%
X70428952Y-126201315D03*
D18*
%TO.P,S4,1*%
X61936409Y-120751617D03*
%TO.P,S4,2*%
%TO.N,D12*%
X65580449Y-124767955D03*
%TD*%
D17*
%TO.P,S16,*%
%TO.N,mirror_index_top*%
X159754004Y-145024786D03*
D18*
%TO.P,S16,1*%
X150788155Y-149654695D03*
%TO.P,S16,2*%
%TO.N,D14*%
X156088426Y-148507032D03*
%TD*%
D17*
%TO.P,S5,*%
%TO.N,middle_bottom*%
X83790069Y-146131447D03*
D18*
%TO.P,S5,1*%
X75804815Y-139962313D03*
%TO.P,S5,2*%
%TO.N,D13*%
X79084942Y-144280966D03*
%TD*%
D17*
%TO.P,S15,*%
%TO.N,mirror_index_bottom*%
X169504804Y-158950371D03*
D18*
%TO.P,S15,1*%
X160538955Y-163580280D03*
%TO.P,S15,2*%
%TO.N,D14*%
X165839226Y-162432617D03*
%TD*%
D17*
%TO.P,S19,*%
%TO.N,mirror_inner_cluster*%
X167286400Y-201432650D03*
D18*
%TO.P,S19,1*%
X163132072Y-192236778D03*
%TO.P,S19,2*%
%TO.N,D13*%
X164000767Y-197589849D03*
%TD*%
D17*
%TO.P,S6,*%
%TO.N,middle_top*%
X92290069Y-131409016D03*
D18*
%TO.P,S6,1*%
X84304815Y-125239882D03*
%TO.P,S6,2*%
%TO.N,D13*%
X87584942Y-129558535D03*
%TD*%
D17*
%TO.P,S17,*%
%TO.N,inner_cluster*%
X98421444Y-192952169D03*
D18*
%TO.P,S17,1*%
X91977386Y-200717260D03*
%TO.P,S17,2*%
%TO.N,D11*%
X96407884Y-197589849D03*
%TD*%
D17*
%TO.P,S11,*%
%TO.N,mirror_ring_bottom*%
X206227287Y-137382366D03*
D18*
%TO.P,S11,1*%
X196593674Y-140385033D03*
%TO.P,S11,2*%
%TO.N,D12*%
X202012712Y-140175188D03*
%TD*%
D17*
%TO.P,S7,*%
%TO.N,index_bottom*%
X99095368Y-164686135D03*
D18*
%TO.P,S7,1*%
X91678175Y-157844516D03*
%TO.P,S7,2*%
%TO.N,D14*%
X94569425Y-162432617D03*
%TD*%
D22*
%TO.N,D12*%
X136346695Y-148546695D03*
%TO.N,D1*%
X136600000Y-147000000D03*
%TO.N,D0*%
X136400000Y-142750000D03*
%TO.N,D10*%
X125124325Y-155490448D03*
%TO.N,D11*%
X214702807Y-115282175D03*
X135700000Y-146700000D03*
X219102730Y-131702914D03*
X34979106Y-130007649D03*
X131450000Y-148050000D03*
X39379030Y-113586910D03*
X84623028Y-194087663D03*
X98300000Y-184950000D03*
%TO.N,pinky_bottom*%
X39320753Y-139401436D03*
X45566148Y-135122046D03*
%TO.N,GND*%
X128200000Y-152200000D03*
X134000000Y-153000000D03*
%TO.N,D1*%
X125800000Y-145000000D03*
%TO.N,pinky_top*%
X43720677Y-122980697D03*
X49966072Y-118701307D03*
%TO.N,D12*%
X99887893Y-203626210D03*
X123850000Y-151800000D03*
X186852016Y-115412282D03*
X67620318Y-112644133D03*
X60435808Y-128051366D03*
X194036527Y-130819515D03*
%TO.N,ring_bottom*%
X63080281Y-138056359D03*
X69973902Y-134926484D03*
%TO.N,ring_top*%
X70264792Y-122649126D03*
X77158412Y-119519251D03*
%TO.N,D13*%
X90673709Y-117658634D03*
X82173709Y-132381065D03*
X172562476Y-135656065D03*
X164062476Y-120933634D03*
X172314652Y-188532948D03*
%TO.N,middle_bottom*%
X83936127Y-142578467D03*
X91076302Y-140061321D03*
%TO.N,middle_top*%
X92436127Y-127856035D03*
X99576302Y-125338890D03*
%TO.N,D14*%
X153900000Y-156900000D03*
X156359622Y-154604128D03*
X108434382Y-136921618D03*
X146608822Y-140678543D03*
X157049786Y-198071495D03*
X98683583Y-150847203D03*
%TO.N,index_bottom*%
X106882921Y-159274145D03*
X99550532Y-161159405D03*
%TO.N,index_top*%
X116633720Y-145348560D03*
X109301332Y-147233820D03*
%TO.N,mirror_pinky_bottom*%
X230747155Y-136813246D03*
X230828575Y-130838591D03*
%TO.N,mirror_pinky_top*%
X226428652Y-114417852D03*
X226347232Y-120392507D03*
%TO.N,mirror_ring_bottom*%
X205434142Y-127932152D03*
X206391447Y-133830176D03*
%TO.N,mirror_ring_top*%
X198249631Y-112524919D03*
X199206937Y-118422944D03*
%TO.N,mirror_middle_bottom*%
X185132778Y-137578467D03*
X183665069Y-131786321D03*
%TO.N,mirror_middle_top*%
X175165069Y-117063890D03*
X176632778Y-122856035D03*
%TO.N,mirror_index_bottom*%
X167082697Y-149781455D03*
X169049639Y-155423640D03*
%TO.N,mirror_index_top*%
X159298839Y-141498056D03*
X157331897Y-135855870D03*
%TO.N,inner_cluster*%
X94875725Y-192682202D03*
X92609302Y-185458530D03*
%TO.N,outer_cluster*%
X110140591Y-202220749D03*
X107874167Y-194997077D03*
%TO.N,mirror_inner_cluster*%
X170832118Y-201162683D03*
X176569513Y-199493726D03*
%TO.N,mirror_outer_cluster*%
X155567253Y-210701230D03*
X161304647Y-209032273D03*
%TO.N,D0*%
X124250000Y-143450000D03*
%TO.N,RST*%
X136550000Y-154050000D03*
X129750000Y-151950000D03*
%TO.N,VCC*%
X125750000Y-152550000D03*
%TO.N,D7*%
X128100000Y-154000000D03*
%TO.N,D8*%
X124000000Y-153750000D03*
%TD*%
D23*
%TO.N,D0*%
X124250000Y-143450000D02*
X124650000Y-143450000D01*
X124650000Y-143450000D02*
X125800000Y-142300000D01*
X125800000Y-142300000D02*
X135600000Y-142300000D01*
X135600000Y-142300000D02*
X136050000Y-142750000D01*
X136050000Y-142750000D02*
X136400000Y-142750000D01*
%TO.N,D1*%
X125800000Y-143900000D02*
X126921558Y-142778442D01*
X134078442Y-142778442D02*
X136600000Y-145300000D01*
X125800000Y-145000000D02*
X125800000Y-143900000D01*
X126921558Y-142778442D02*
X134078442Y-142778442D01*
X136600000Y-145300000D02*
X136600000Y-147000000D01*
%TO.N,D12*%
X123850000Y-151800000D02*
X124550000Y-151100000D01*
X124550000Y-151100000D02*
X131150000Y-151100000D01*
X131150000Y-151100000D02*
X133703305Y-148546695D01*
X133703305Y-148546695D02*
X136346695Y-148546695D01*
%TO.N,D8*%
X124000000Y-153750000D02*
X124900000Y-153750000D01*
X124900000Y-153750000D02*
X127664325Y-156514325D01*
X127664325Y-156514325D02*
X127664325Y-176374035D01*
%TO.N,D11*%
X89023816Y-184526184D02*
X91650000Y-181900000D01*
X33752540Y-131234215D02*
X34979106Y-130007649D01*
X39379030Y-113586910D02*
X38152464Y-114813476D01*
X214702807Y-115282175D02*
X214702807Y-119650351D01*
X87749553Y-194087663D02*
X89023816Y-192813400D01*
X35075508Y-142301502D02*
X33752540Y-140978534D01*
X94700000Y-184950000D02*
X98300000Y-184950000D01*
X89023816Y-192813400D02*
X89023816Y-184526184D01*
X131450000Y-148050000D02*
X132800000Y-146700000D01*
X214702807Y-119650351D02*
X220933219Y-125880763D01*
X219102730Y-136071090D02*
X219102730Y-131702914D01*
X96407884Y-197589849D02*
X88125214Y-197589849D01*
X225333142Y-142301502D02*
X219102730Y-136071090D01*
X33752540Y-140978534D02*
X33752540Y-131234215D01*
X132800000Y-146700000D02*
X135700000Y-146700000D01*
X84623028Y-194087663D02*
X87749553Y-194087663D01*
X38152464Y-124557795D02*
X39475432Y-125880763D01*
X38152464Y-114813476D02*
X38152464Y-124557795D01*
X88125214Y-197589849D02*
X84623028Y-194087663D01*
X91650000Y-181900000D02*
X94700000Y-184950000D01*
%TO.N,pinky_bottom*%
X40099251Y-140179934D02*
X39320753Y-139401436D01*
X30789398Y-139876498D02*
X34530402Y-143617502D01*
X39320753Y-138781946D02*
X39320753Y-139401436D01*
X41978286Y-136124413D02*
X39320753Y-138781946D01*
X40099251Y-142871153D02*
X40099251Y-140179934D01*
X34530402Y-143617502D02*
X39352902Y-143617502D01*
X45566148Y-135122046D02*
X44563781Y-136124413D01*
X39352902Y-143617502D02*
X40099251Y-142871153D01*
X44563781Y-136124413D02*
X41978286Y-136124413D01*
%TO.N,GND*%
X129000000Y-153000000D02*
X128200000Y-152200000D01*
X134000000Y-153000000D02*
X129000000Y-153000000D01*
%TO.N,pinky_top*%
X43720677Y-122359531D02*
X46376534Y-119703674D01*
X35189322Y-123455759D02*
X39133976Y-127400413D01*
X44499175Y-126350825D02*
X43720677Y-125572327D01*
X39133976Y-127400413D02*
X43549176Y-127400413D01*
X43720677Y-122980697D02*
X43720677Y-122359531D01*
X46376534Y-119703674D02*
X48963705Y-119703674D01*
X43549176Y-127400413D02*
X44499175Y-126450414D01*
X48963705Y-119703674D02*
X49966072Y-118701307D01*
X43720677Y-125572327D02*
X43720677Y-122980697D01*
%TO.N,D12*%
X105765280Y-207128396D02*
X102263094Y-203626210D01*
X60435808Y-128051366D02*
X58039387Y-130447787D01*
X102263094Y-203626210D02*
X99887893Y-203626210D01*
X200575188Y-140175188D02*
X202012712Y-140175188D01*
X65223897Y-115040554D02*
X65223897Y-124411403D01*
X111672749Y-207128396D02*
X105765280Y-207128396D01*
X194036527Y-133636527D02*
X200575188Y-140175188D01*
X58039387Y-130447787D02*
X58039387Y-139818636D01*
X67620318Y-112644133D02*
X65223897Y-115040554D01*
X186852016Y-115412282D02*
X186852016Y-117968511D01*
X194036527Y-130819515D02*
X194036527Y-133636527D01*
X193651460Y-124767955D02*
X194828201Y-124767955D01*
X186852016Y-117968511D02*
X193651460Y-124767955D01*
%TO.N,ring_bottom*%
X69048014Y-135852372D02*
X65284268Y-135852372D01*
X69973902Y-134926484D02*
X69048014Y-135852372D01*
X54751899Y-138392254D02*
X57968193Y-141608548D01*
X63080281Y-138056359D02*
X63080281Y-141444387D01*
X65284268Y-135852372D02*
X63080281Y-138056359D01*
X54751899Y-136158850D02*
X54751899Y-138392254D01*
X57968193Y-141608548D02*
X63244442Y-141608548D01*
%TO.N,ring_top*%
X70264792Y-122649126D02*
X70264792Y-126037155D01*
X65152703Y-126201315D02*
X70428952Y-126201315D01*
X77158412Y-119519251D02*
X76377663Y-120300000D01*
X72613918Y-120300000D02*
X70264792Y-122649126D01*
X61936409Y-122985021D02*
X65152703Y-126201315D01*
X76377663Y-120300000D02*
X72613918Y-120300000D01*
X61936409Y-120751617D02*
X61936409Y-122985021D01*
%TO.N,D13*%
X79084942Y-135469832D02*
X79084942Y-144280966D01*
X164062476Y-122668261D02*
X170952750Y-129558535D01*
X172314652Y-188532948D02*
X170781720Y-188532948D01*
X164062476Y-120933634D02*
X164062476Y-122668261D01*
X172562476Y-137390692D02*
X179452750Y-144280966D01*
X164000767Y-195313901D02*
X164000767Y-197589849D01*
X172562476Y-135656065D02*
X172562476Y-137390692D01*
X82173709Y-132381065D02*
X79084942Y-135469832D01*
X90673709Y-117658634D02*
X87584942Y-120747401D01*
X170952750Y-129558535D02*
X172823709Y-129558535D01*
X179452750Y-144280966D02*
X181323709Y-144280966D01*
X170781720Y-188532948D02*
X164000767Y-195313901D01*
X87584942Y-120747401D02*
X87584942Y-129558535D01*
%TO.N,middle_bottom*%
X75804815Y-139962313D02*
X75804815Y-142861945D01*
X83936127Y-142578467D02*
X83936127Y-142686127D01*
X85893178Y-140621416D02*
X83936127Y-142578467D01*
X83936127Y-142686127D02*
X83790069Y-142832185D01*
X75804815Y-142861945D02*
X79074317Y-146131447D01*
X83790069Y-142832185D02*
X83790069Y-146131447D01*
X91076302Y-140061321D02*
X90516207Y-140621416D01*
X79074317Y-146131447D02*
X83790069Y-146131447D01*
X90516207Y-140621416D02*
X85893178Y-140621416D01*
%TO.N,middle_top*%
X84304815Y-125239882D02*
X84304815Y-128139514D01*
X84304815Y-128139514D02*
X87574317Y-131409016D01*
X99016207Y-125898985D02*
X94393177Y-125898985D01*
X99576302Y-125338890D02*
X99016207Y-125898985D01*
X87574317Y-131409016D02*
X92290069Y-131409016D01*
X94393177Y-125898985D02*
X92436127Y-127856035D01*
X92436127Y-127856035D02*
X92436127Y-131262958D01*
%TO.N,D14*%
X94569425Y-155162193D02*
X94569425Y-162432617D01*
X148735901Y-204852448D02*
X148735901Y-207128396D01*
X108434382Y-136921618D02*
X108434382Y-138508625D01*
X146608822Y-140678543D02*
X146608822Y-141758822D01*
X146608822Y-141758822D02*
X153357032Y-148507032D01*
X162601104Y-162432617D02*
X165839226Y-162432617D01*
X156359622Y-156191135D02*
X162601104Y-162432617D01*
X156359622Y-154604128D02*
X156359622Y-156191135D01*
X154313750Y-156650000D02*
X156359622Y-154604128D01*
X108434382Y-138508625D02*
X104320224Y-142622783D01*
X98683583Y-150847203D02*
X98683583Y-151048035D01*
X157049786Y-198071495D02*
X155516854Y-198071495D01*
X153357032Y-148507032D02*
X156088426Y-148507032D01*
X98683583Y-151048035D02*
X94569425Y-155162193D01*
X104320224Y-142622783D02*
X104320224Y-148507032D01*
X154150000Y-156650000D02*
X154313750Y-156650000D01*
X153900000Y-156900000D02*
X154150000Y-156650000D01*
X155516854Y-198071495D02*
X148735901Y-204852448D01*
%TO.N,index_bottom*%
X99095368Y-161614569D02*
X99550532Y-161159405D01*
X99095368Y-164686135D02*
X99095368Y-161614569D01*
X106882921Y-159274145D02*
X101435792Y-159274145D01*
X91678175Y-161402473D02*
X94961837Y-164686135D01*
X91678175Y-157844516D02*
X91678175Y-161402473D01*
X101435792Y-159274145D02*
X99550532Y-161159405D01*
X94961837Y-164686135D02*
X99095368Y-164686135D01*
%TO.N,index_top*%
X111186592Y-145348560D02*
X109301332Y-147233820D01*
X108846167Y-150760550D02*
X108846167Y-147688985D01*
X104712636Y-150760550D02*
X108846167Y-150760550D01*
X108846167Y-147688985D02*
X109301332Y-147233820D01*
X101428974Y-143918931D02*
X101428974Y-147476888D01*
X101428974Y-147476888D02*
X104712636Y-150760550D01*
X116633720Y-145348560D02*
X111186592Y-145348560D01*
%TO.N,mirror_pinky_bottom*%
X230747155Y-136752845D02*
X230828575Y-136671425D01*
X230828575Y-136671425D02*
X230828575Y-130838591D01*
X229968657Y-140282963D02*
X229968657Y-137591744D01*
X219959993Y-141567153D02*
X222010342Y-143617502D01*
X229968657Y-137591744D02*
X230747155Y-136813246D01*
X222010342Y-143617502D02*
X226634118Y-143617502D01*
X226634118Y-143617502D02*
X229968657Y-140282963D01*
X230747155Y-136813246D02*
X230747155Y-136752845D01*
%TO.N,mirror_pinky_top*%
X217610419Y-127196763D02*
X222234195Y-127196763D01*
X215560070Y-125146414D02*
X217610419Y-127196763D01*
X226347232Y-120392507D02*
X226347232Y-114499272D01*
X222234195Y-127196763D02*
X225568734Y-123862224D01*
X226347232Y-114499272D02*
X226428652Y-114417852D01*
X225568734Y-123862224D02*
X225568734Y-121171005D01*
X225568734Y-121171005D02*
X226347232Y-120392507D01*
%TO.N,mirror_ring_bottom*%
X206391447Y-131191447D02*
X206391447Y-133830176D01*
X205434142Y-130234142D02*
X206391447Y-131191447D01*
X205434142Y-127932152D02*
X205434142Y-130234142D01*
X196593674Y-140385033D02*
X197699829Y-141491188D01*
X206391447Y-133830176D02*
X206391447Y-137218206D01*
X202557818Y-141491188D02*
X206227287Y-137821719D01*
X197699829Y-141491188D02*
X202557818Y-141491188D01*
%TO.N,mirror_ring_top*%
X196277456Y-126083955D02*
X199042776Y-123318635D01*
X199042776Y-123318635D02*
X199042776Y-121975133D01*
X199206937Y-116156937D02*
X199206937Y-118422944D01*
X190515318Y-126083955D02*
X196277456Y-126083955D01*
X198249631Y-112524919D02*
X198249631Y-115199631D01*
X198249631Y-115199631D02*
X199206937Y-116156937D01*
X189409163Y-124977800D02*
X190515318Y-126083955D01*
%TO.N,mirror_middle_bottom*%
X182156819Y-145596966D02*
X185278836Y-142474949D01*
X183665069Y-133765069D02*
X185132778Y-135232778D01*
X185278836Y-141131447D02*
X185278836Y-137724525D01*
X176578235Y-145596966D02*
X182156819Y-145596966D01*
X185278836Y-142474949D02*
X185278836Y-141131447D01*
X185278836Y-137724525D02*
X185132778Y-137578467D01*
X185132778Y-135232778D02*
X185132778Y-137578467D01*
X183665069Y-131786321D02*
X183665069Y-133765069D01*
%TO.N,mirror_middle_top*%
X173368815Y-130874535D02*
X176778836Y-127464514D01*
X175165069Y-117063890D02*
X175165069Y-119015069D01*
X176778836Y-126409016D02*
X176778836Y-123002093D01*
X175165069Y-119015069D02*
X176632778Y-120482778D01*
X176778836Y-123002093D02*
X176632778Y-122856035D01*
X176778836Y-127464514D02*
X176778836Y-126409016D01*
X176632778Y-120482778D02*
X176632778Y-122856035D01*
X168078235Y-130874535D02*
X173368815Y-130874535D01*
%TO.N,mirror_index_bottom*%
X169049639Y-155423640D02*
X169049639Y-158495206D01*
X169504804Y-160628145D02*
X169504804Y-158950371D01*
X160707292Y-163748617D02*
X166384332Y-163748617D01*
X167082697Y-149781455D02*
X167082697Y-151832697D01*
X167082697Y-151832697D02*
X169049639Y-153799639D01*
X169049639Y-153799639D02*
X169049639Y-155423640D01*
X166384332Y-163748617D02*
X169504804Y-160628145D01*
%TO.N,mirror_index_top*%
X159754004Y-145024786D02*
X159754004Y-141953221D01*
X157331897Y-135855870D02*
X157331897Y-137681897D01*
X156633532Y-149823032D02*
X159754004Y-146702560D01*
X157331897Y-137681897D02*
X159298839Y-139648839D01*
X159754004Y-141953221D02*
X159298839Y-141498056D01*
X159754004Y-146702560D02*
X159754004Y-145024786D01*
X150956492Y-149823032D02*
X156633532Y-149823032D01*
X159298839Y-139648839D02*
X159298839Y-141498056D01*
%TO.N,inner_cluster*%
X97932202Y-192682202D02*
X94875725Y-192682202D01*
X93018956Y-190825433D02*
X93018956Y-185868184D01*
X94875725Y-192682202D02*
X93018956Y-190825433D01*
X91977386Y-200717259D02*
X95141580Y-200717259D01*
X93018956Y-185868184D02*
X92609302Y-185458530D01*
X98421444Y-197437395D02*
X98421444Y-192952169D01*
X95141580Y-200717259D02*
X98421444Y-197437395D01*
%TO.N,outer_cluster*%
X113686309Y-202490716D02*
X110410558Y-202490716D01*
X108250000Y-195372910D02*
X107874167Y-194997077D01*
X108250000Y-200330158D02*
X108250000Y-195372910D01*
X110410558Y-202490716D02*
X110140591Y-202220749D01*
X110406445Y-210255806D02*
X113686309Y-206975942D01*
X113686309Y-206975942D02*
X113686309Y-202490716D01*
X110140591Y-202220749D02*
X108250000Y-200330158D01*
X107242251Y-210255806D02*
X110406445Y-210255806D01*
%TO.N,mirror_inner_cluster*%
X176569513Y-199493726D02*
X174900556Y-201162683D01*
X165942898Y-201432650D02*
X167286400Y-201432650D01*
X162684767Y-192684083D02*
X162684767Y-198174519D01*
X170832118Y-201162683D02*
X167556367Y-201162683D01*
X174900556Y-201162683D02*
X170832118Y-201162683D01*
X162684767Y-198174519D02*
X165942898Y-201432650D01*
%TO.N,mirror_outer_cluster*%
X159635690Y-210701230D02*
X155567253Y-210701230D01*
X150717596Y-210971197D02*
X152021534Y-210971197D01*
X147419901Y-207673502D02*
X150717596Y-210971197D01*
X161304647Y-209032273D02*
X159635690Y-210701230D01*
X155567253Y-210701230D02*
X152291501Y-210701230D01*
X147419901Y-202222630D02*
X147419901Y-207673502D01*
%TO.N,BAT_P*%
X131435243Y-162943117D02*
X131435243Y-158621398D01*
X129204325Y-165174035D02*
X131435243Y-162943117D01*
%TO.N,RST*%
X134450000Y-151950000D02*
X129750000Y-151950000D01*
X136550000Y-154050000D02*
X134450000Y-151950000D01*
%TO.N,VCC*%
X130204325Y-176374035D02*
X132650000Y-173928360D01*
X132650000Y-173928360D02*
X132650000Y-155250000D01*
X132650000Y-155250000D02*
X128450000Y-155250000D01*
X128450000Y-155250000D02*
X125750000Y-152550000D01*
%TO.N,D7*%
X135284325Y-156234325D02*
X135284325Y-176374035D01*
X133050000Y-154000000D02*
X135284325Y-156234325D01*
X128100000Y-154000000D02*
X133050000Y-154000000D01*
%TO.N,D10*%
X125124325Y-155490448D02*
X125124325Y-176374035D01*
%TD*%
M02*
