%TF.GenerationSoftware,KiCad,Pcbnew,9.0.8-1.fc43*%
%TF.CreationDate,2026-06-16T16:27:06-06:00*%
%TF.ProjectId,chouchou,63686f75-6368-46f7-952e-6b696361645f,v1.0.0*%
%TF.SameCoordinates,Original*%
%TF.FileFunction,Legend,Top*%
%TF.FilePolarity,Positive*%
%FSLAX46Y46*%
G04 Gerber Fmt 4.6, Leading zero omitted, Abs format (unit mm)*
G04 Created by KiCad (PCBNEW 9.0.8-1.fc43) date 2026-06-16 16:27:06*
%MOMM*%
%LPD*%
G01*
G04 APERTURE LIST*
%ADD10C,0.150000*%
%ADD11C,0.120000*%
G04 APERTURE END LIST*
D10*
X132326763Y-180558433D02*
X132279144Y-180653671D01*
X132279144Y-180653671D02*
X132279144Y-180796528D01*
X132279144Y-180796528D02*
X132326763Y-180939385D01*
X132326763Y-180939385D02*
X132422001Y-181034623D01*
X132422001Y-181034623D02*
X132517239Y-181082242D01*
X132517239Y-181082242D02*
X132707715Y-181129861D01*
X132707715Y-181129861D02*
X132850572Y-181129861D01*
X132850572Y-181129861D02*
X133041048Y-181082242D01*
X133041048Y-181082242D02*
X133136286Y-181034623D01*
X133136286Y-181034623D02*
X133231525Y-180939385D01*
X133231525Y-180939385D02*
X133279144Y-180796528D01*
X133279144Y-180796528D02*
X133279144Y-180701290D01*
X133279144Y-180701290D02*
X133231525Y-180558433D01*
X133231525Y-180558433D02*
X133183905Y-180510814D01*
X133183905Y-180510814D02*
X132850572Y-180510814D01*
X132850572Y-180510814D02*
X132850572Y-180701290D01*
X133279144Y-180082242D02*
X132279144Y-180082242D01*
X132279144Y-180082242D02*
X133279144Y-179510814D01*
X133279144Y-179510814D02*
X132279144Y-179510814D01*
X133279144Y-179034623D02*
X132279144Y-179034623D01*
X132279144Y-179034623D02*
X132279144Y-178796528D01*
X132279144Y-178796528D02*
X132326763Y-178653671D01*
X132326763Y-178653671D02*
X132422001Y-178558433D01*
X132422001Y-178558433D02*
X132517239Y-178510814D01*
X132517239Y-178510814D02*
X132707715Y-178463195D01*
X132707715Y-178463195D02*
X132850572Y-178463195D01*
X132850572Y-178463195D02*
X133041048Y-178510814D01*
X133041048Y-178510814D02*
X133136286Y-178558433D01*
X133136286Y-178558433D02*
X133231525Y-178653671D01*
X133231525Y-178653671D02*
X133279144Y-178796528D01*
X133279144Y-178796528D02*
X133279144Y-179034623D01*
X129809144Y-181034623D02*
X130809144Y-180701290D01*
X130809144Y-180701290D02*
X129809144Y-180367957D01*
X130713905Y-179463195D02*
X130761525Y-179510814D01*
X130761525Y-179510814D02*
X130809144Y-179653671D01*
X130809144Y-179653671D02*
X130809144Y-179748909D01*
X130809144Y-179748909D02*
X130761525Y-179891766D01*
X130761525Y-179891766D02*
X130666286Y-179987004D01*
X130666286Y-179987004D02*
X130571048Y-180034623D01*
X130571048Y-180034623D02*
X130380572Y-180082242D01*
X130380572Y-180082242D02*
X130237715Y-180082242D01*
X130237715Y-180082242D02*
X130047239Y-180034623D01*
X130047239Y-180034623D02*
X129952001Y-179987004D01*
X129952001Y-179987004D02*
X129856763Y-179891766D01*
X129856763Y-179891766D02*
X129809144Y-179748909D01*
X129809144Y-179748909D02*
X129809144Y-179653671D01*
X129809144Y-179653671D02*
X129856763Y-179510814D01*
X129856763Y-179510814D02*
X129904382Y-179463195D01*
X130713905Y-178463195D02*
X130761525Y-178510814D01*
X130761525Y-178510814D02*
X130809144Y-178653671D01*
X130809144Y-178653671D02*
X130809144Y-178748909D01*
X130809144Y-178748909D02*
X130761525Y-178891766D01*
X130761525Y-178891766D02*
X130666286Y-178987004D01*
X130666286Y-178987004D02*
X130571048Y-179034623D01*
X130571048Y-179034623D02*
X130380572Y-179082242D01*
X130380572Y-179082242D02*
X130237715Y-179082242D01*
X130237715Y-179082242D02*
X130047239Y-179034623D01*
X130047239Y-179034623D02*
X129952001Y-178987004D01*
X129952001Y-178987004D02*
X129856763Y-178891766D01*
X129856763Y-178891766D02*
X129809144Y-178748909D01*
X129809144Y-178748909D02*
X129809144Y-178653671D01*
X129809144Y-178653671D02*
X129856763Y-178510814D01*
X129856763Y-178510814D02*
X129904382Y-178463195D01*
X128179144Y-179987004D02*
X127179144Y-179987004D01*
X127179144Y-179987004D02*
X127179144Y-179748909D01*
X127179144Y-179748909D02*
X127226763Y-179606052D01*
X127226763Y-179606052D02*
X127322001Y-179510814D01*
X127322001Y-179510814D02*
X127417239Y-179463195D01*
X127417239Y-179463195D02*
X127607715Y-179415576D01*
X127607715Y-179415576D02*
X127750572Y-179415576D01*
X127750572Y-179415576D02*
X127941048Y-179463195D01*
X127941048Y-179463195D02*
X128036286Y-179510814D01*
X128036286Y-179510814D02*
X128131525Y-179606052D01*
X128131525Y-179606052D02*
X128179144Y-179748909D01*
X128179144Y-179748909D02*
X128179144Y-179987004D01*
X127607715Y-178844147D02*
X127560096Y-178939385D01*
X127560096Y-178939385D02*
X127512477Y-178987004D01*
X127512477Y-178987004D02*
X127417239Y-179034623D01*
X127417239Y-179034623D02*
X127369620Y-179034623D01*
X127369620Y-179034623D02*
X127274382Y-178987004D01*
X127274382Y-178987004D02*
X127226763Y-178939385D01*
X127226763Y-178939385D02*
X127179144Y-178844147D01*
X127179144Y-178844147D02*
X127179144Y-178653671D01*
X127179144Y-178653671D02*
X127226763Y-178558433D01*
X127226763Y-178558433D02*
X127274382Y-178510814D01*
X127274382Y-178510814D02*
X127369620Y-178463195D01*
X127369620Y-178463195D02*
X127417239Y-178463195D01*
X127417239Y-178463195D02*
X127512477Y-178510814D01*
X127512477Y-178510814D02*
X127560096Y-178558433D01*
X127560096Y-178558433D02*
X127607715Y-178653671D01*
X127607715Y-178653671D02*
X127607715Y-178844147D01*
X127607715Y-178844147D02*
X127655334Y-178939385D01*
X127655334Y-178939385D02*
X127702953Y-178987004D01*
X127702953Y-178987004D02*
X127798191Y-179034623D01*
X127798191Y-179034623D02*
X127988667Y-179034623D01*
X127988667Y-179034623D02*
X128083905Y-178987004D01*
X128083905Y-178987004D02*
X128131525Y-178939385D01*
X128131525Y-178939385D02*
X128179144Y-178844147D01*
X128179144Y-178844147D02*
X128179144Y-178653671D01*
X128179144Y-178653671D02*
X128131525Y-178558433D01*
X128131525Y-178558433D02*
X128083905Y-178510814D01*
X128083905Y-178510814D02*
X127988667Y-178463195D01*
X127988667Y-178463195D02*
X127798191Y-178463195D01*
X127798191Y-178463195D02*
X127702953Y-178510814D01*
X127702953Y-178510814D02*
X127655334Y-178558433D01*
X127655334Y-178558433D02*
X127607715Y-178653671D01*
X125579144Y-180939385D02*
X124579144Y-180939385D01*
X124579144Y-180939385D02*
X124579144Y-180701290D01*
X124579144Y-180701290D02*
X124626763Y-180558433D01*
X124626763Y-180558433D02*
X124722001Y-180463195D01*
X124722001Y-180463195D02*
X124817239Y-180415576D01*
X124817239Y-180415576D02*
X125007715Y-180367957D01*
X125007715Y-180367957D02*
X125150572Y-180367957D01*
X125150572Y-180367957D02*
X125341048Y-180415576D01*
X125341048Y-180415576D02*
X125436286Y-180463195D01*
X125436286Y-180463195D02*
X125531525Y-180558433D01*
X125531525Y-180558433D02*
X125579144Y-180701290D01*
X125579144Y-180701290D02*
X125579144Y-180939385D01*
X125579144Y-179415576D02*
X125579144Y-179987004D01*
X125579144Y-179701290D02*
X124579144Y-179701290D01*
X124579144Y-179701290D02*
X124722001Y-179796528D01*
X124722001Y-179796528D02*
X124817239Y-179891766D01*
X124817239Y-179891766D02*
X124864858Y-179987004D01*
X124579144Y-178796528D02*
X124579144Y-178701290D01*
X124579144Y-178701290D02*
X124626763Y-178606052D01*
X124626763Y-178606052D02*
X124674382Y-178558433D01*
X124674382Y-178558433D02*
X124769620Y-178510814D01*
X124769620Y-178510814D02*
X124960096Y-178463195D01*
X124960096Y-178463195D02*
X125198191Y-178463195D01*
X125198191Y-178463195D02*
X125388667Y-178510814D01*
X125388667Y-178510814D02*
X125483905Y-178558433D01*
X125483905Y-178558433D02*
X125531525Y-178606052D01*
X125531525Y-178606052D02*
X125579144Y-178701290D01*
X125579144Y-178701290D02*
X125579144Y-178796528D01*
X125579144Y-178796528D02*
X125531525Y-178891766D01*
X125531525Y-178891766D02*
X125483905Y-178939385D01*
X125483905Y-178939385D02*
X125388667Y-178987004D01*
X125388667Y-178987004D02*
X125198191Y-179034623D01*
X125198191Y-179034623D02*
X124960096Y-179034623D01*
X124960096Y-179034623D02*
X124769620Y-178987004D01*
X124769620Y-178987004D02*
X124674382Y-178939385D01*
X124674382Y-178939385D02*
X124626763Y-178891766D01*
X124626763Y-178891766D02*
X124579144Y-178796528D01*
X135779144Y-179987004D02*
X134779144Y-179987004D01*
X134779144Y-179987004D02*
X134779144Y-179748909D01*
X134779144Y-179748909D02*
X134826763Y-179606052D01*
X134826763Y-179606052D02*
X134922001Y-179510814D01*
X134922001Y-179510814D02*
X135017239Y-179463195D01*
X135017239Y-179463195D02*
X135207715Y-179415576D01*
X135207715Y-179415576D02*
X135350572Y-179415576D01*
X135350572Y-179415576D02*
X135541048Y-179463195D01*
X135541048Y-179463195D02*
X135636286Y-179510814D01*
X135636286Y-179510814D02*
X135731525Y-179606052D01*
X135731525Y-179606052D02*
X135779144Y-179748909D01*
X135779144Y-179748909D02*
X135779144Y-179987004D01*
X134779144Y-179082242D02*
X134779144Y-178415576D01*
X134779144Y-178415576D02*
X135779144Y-178844147D01*
X129656705Y-184128854D02*
X129323372Y-183652663D01*
X129085277Y-184128854D02*
X129085277Y-183128854D01*
X129085277Y-183128854D02*
X129466229Y-183128854D01*
X129466229Y-183128854D02*
X129561467Y-183176473D01*
X129561467Y-183176473D02*
X129609086Y-183224092D01*
X129609086Y-183224092D02*
X129656705Y-183319330D01*
X129656705Y-183319330D02*
X129656705Y-183462187D01*
X129656705Y-183462187D02*
X129609086Y-183557425D01*
X129609086Y-183557425D02*
X129561467Y-183605044D01*
X129561467Y-183605044D02*
X129466229Y-183652663D01*
X129466229Y-183652663D02*
X129085277Y-183652663D01*
X130037658Y-184081235D02*
X130180515Y-184128854D01*
X130180515Y-184128854D02*
X130418610Y-184128854D01*
X130418610Y-184128854D02*
X130513848Y-184081235D01*
X130513848Y-184081235D02*
X130561467Y-184033615D01*
X130561467Y-184033615D02*
X130609086Y-183938377D01*
X130609086Y-183938377D02*
X130609086Y-183843139D01*
X130609086Y-183843139D02*
X130561467Y-183747901D01*
X130561467Y-183747901D02*
X130513848Y-183700282D01*
X130513848Y-183700282D02*
X130418610Y-183652663D01*
X130418610Y-183652663D02*
X130228134Y-183605044D01*
X130228134Y-183605044D02*
X130132896Y-183557425D01*
X130132896Y-183557425D02*
X130085277Y-183509806D01*
X130085277Y-183509806D02*
X130037658Y-183414568D01*
X130037658Y-183414568D02*
X130037658Y-183319330D01*
X130037658Y-183319330D02*
X130085277Y-183224092D01*
X130085277Y-183224092D02*
X130132896Y-183176473D01*
X130132896Y-183176473D02*
X130228134Y-183128854D01*
X130228134Y-183128854D02*
X130466229Y-183128854D01*
X130466229Y-183128854D02*
X130609086Y-183176473D01*
X130894801Y-183128854D02*
X131466229Y-183128854D01*
X131180515Y-184128854D02*
X131180515Y-183128854D01*
D11*
%TO.C,DISP1*%
X123794325Y-175044035D02*
X123794325Y-177704035D01*
X136614325Y-175044035D02*
X123794325Y-175044035D01*
X136614325Y-175044035D02*
X136614325Y-177704035D01*
X136614325Y-177704035D02*
X123794325Y-177704035D01*
D10*
%TO.C,RST1*%
X127204325Y-181924035D02*
X127204325Y-182174035D01*
X127204325Y-181924035D02*
X133204325Y-181924035D01*
X127204325Y-185424035D02*
X127204325Y-185174035D01*
X127204325Y-185424035D02*
X133204325Y-185424035D01*
X133204325Y-181924035D02*
X133204325Y-182174035D01*
X133204325Y-185424035D02*
X133204325Y-185174035D01*
%TD*%
M02*
