M48
; DRILL file {KiCad 9.0.8-1.fc43} date 2026-06-16T16:27:31-0600
; FORMAT={-:-/ absolute / metric / decimal}
; #@! TF.CreationDate,2026-06-16T16:27:31-06:00
; #@! TF.GenerationSoftware,Kicad,Pcbnew,9.0.8-1.fc43
; #@! TF.FileFunction,NonPlated,1,2,NPTH
FMAT,2
METRIC
; #@! TA.AperFunction,NonPlated,NPTH,ComponentDrill
T1C1.900
; #@! TA.AperFunction,NonPlated,NPTH,ComponentDrill
T2C3.000
; #@! TA.AperFunction,NonPlated,NPTH,ComponentDrill
T3C5.000
%
G90
G05
T1
X31.29Y-135.179
X35.69Y-118.758
X41.915Y-138.026
X46.315Y-121.605
X55.905Y-132.504
X63.089Y-117.096
X65.874Y-137.152
X73.059Y-121.745
X77.272Y-136.421
X85.772Y-121.699
X86.798Y-141.921
X88.49Y-199.128
X93.448Y-154.445
X94.319Y-189.799
X95.298Y-127.199
X102.459Y-160.754
X103.199Y-140.519
X103.755Y-208.666
X109.584Y-199.338
X112.21Y-146.829
X148.199Y-146.829
X150.825Y-199.338
X156.654Y-208.666
X157.21Y-140.519
X157.95Y-160.754
X165.111Y-127.199
X166.09Y-189.799
X166.96Y-154.445
X171.919Y-199.128
X173.611Y-141.921
X174.637Y-121.699
X183.137Y-136.421
X187.35Y-121.745
X194.535Y-137.152
X197.319Y-117.096
X204.504Y-132.504
X214.094Y-121.605
X218.494Y-138.026
X224.719Y-118.758
X229.119Y-135.179
T2
X38.143Y-130.855
X42.403Y-134.274
X42.542Y-114.435
X46.803Y-117.854
X63.404Y-129.435
X67.006Y-133.542
X70.588Y-114.028
X74.19Y-118.135
X85.01Y-134.019
X86.359Y-191.31
X88.24Y-138.424
X90.874Y-188.236
X93.51Y-119.296
X96.74Y-123.701
X101.366Y-152.726
X101.623Y-200.849
X104.2Y-157.396
X106.139Y-197.774
X111.117Y-138.8
X113.951Y-143.47
X149.292Y-138.8
X154.649Y-137.734
X158.785Y-200.849
X159.042Y-152.726
X159.569Y-206.255
X164.4Y-151.66
X166.899Y-119.296
X172.329Y-118.701
X174.05Y-191.31
X174.834Y-196.716
X175.399Y-134.019
X180.829Y-133.424
X189.82Y-114.028
X195.281Y-113.909
X197.005Y-129.435
X202.466Y-129.316
X217.866Y-114.435
X222.266Y-130.855
X223.265Y-115.265
X227.665Y-131.686
T3
X36.603Y-136.603
X41.002Y-120.182
X60.889Y-134.828
X68.074Y-119.421
X82.035Y-139.171
X90.535Y-124.449
X91.404Y-194.463
X97.954Y-157.6
X106.669Y-204.002
X107.704Y-143.674
X152.704Y-143.674
X153.739Y-204.002
X162.455Y-157.6
X169.004Y-194.463
X169.874Y-124.449
X178.374Y-139.171
X192.335Y-119.421
X199.519Y-134.828
X219.406Y-120.182
X223.806Y-136.603
M30
