M48
; DRILL file {KiCad 9.0.8-1.fc43} date 2026-06-16T16:27:31-0600
; FORMAT={-:-/ absolute / metric / decimal}
; #@! TF.CreationDate,2026-06-16T16:27:31-06:00
; #@! TF.GenerationSoftware,Kicad,Pcbnew,9.0.8-1.fc43
; #@! TF.FileFunction,Plated,1,2,PTH
FMAT,2
METRIC
; #@! TA.AperFunction,Plated,PTH,ViaDrill
T1C0.300
; #@! TA.AperFunction,Plated,PTH,ComponentDrill
T2C0.750
; #@! TA.AperFunction,Plated,PTH,ComponentDrill
T3C1.000
; #@! TA.AperFunction,Plated,PTH,ComponentDrill
T4C1.016
; #@! TA.AperFunction,Plated,PTH,ComponentDrill
T5C1.270
; #@! TA.AperFunction,Plated,PTH,ComponentDrill
T6C1.600
; #@! TA.AperFunction,Plated,PTH,ComponentDrill
T7C2.200
%
G90
G05
T1
X34.979Y-130.008
X39.321Y-139.401
X39.379Y-113.587
X43.721Y-122.981
X45.566Y-135.122
X49.966Y-118.701
X60.436Y-128.051
X63.08Y-138.056
X67.62Y-112.644
X69.974Y-134.926
X70.265Y-122.649
X77.158Y-119.519
X82.174Y-132.381
X83.936Y-142.578
X84.623Y-194.088
X90.674Y-117.659
X91.076Y-140.061
X92.436Y-127.856
X92.609Y-185.459
X94.876Y-192.682
X98.3Y-184.95
X98.684Y-150.847
X99.551Y-161.159
X99.576Y-125.339
X99.888Y-203.626
X106.883Y-159.274
X107.874Y-194.997
X108.434Y-136.922
X109.301Y-147.234
X110.141Y-202.221
X116.634Y-145.349
X123.85Y-151.8
X124.0Y-153.75
X124.25Y-143.45
X125.124Y-155.49
X125.75Y-152.55
X125.8Y-145.0
X128.1Y-154.0
X128.2Y-152.2
X129.75Y-151.95
X131.45Y-148.05
X134.0Y-153.0
X135.7Y-146.7
X136.347Y-148.547
X136.4Y-142.75
X136.55Y-154.05
X136.6Y-147.0
X146.609Y-140.679
X153.9Y-156.9
X155.567Y-210.701
X156.36Y-154.604
X157.05Y-198.071
X157.332Y-135.856
X159.299Y-141.498
X161.305Y-209.032
X164.062Y-120.934
X167.083Y-149.781
X169.05Y-155.424
X170.832Y-201.163
X172.315Y-188.533
X172.562Y-135.656
X175.165Y-117.064
X176.57Y-199.494
X176.633Y-122.856
X183.665Y-131.786
X185.133Y-137.578
X186.852Y-115.412
X194.037Y-130.82
X198.25Y-112.525
X199.207Y-118.423
X205.434Y-127.932
X206.391Y-133.83
X214.703Y-115.282
X219.103Y-131.703
X226.347Y-120.393
X226.429Y-114.418
X230.747Y-136.813
X230.829Y-130.839
T2
X129.204Y-165.174
X131.204Y-165.174
T3
X125.124Y-176.374
X126.954Y-183.674
X127.664Y-176.374
X130.204Y-176.374
X132.744Y-176.374
X133.454Y-183.674
X135.284Y-176.374
T4
X128.934Y-143.777
X128.934Y-146.317
X129.308Y-158.406
X131.213Y-158.406
X131.474Y-143.777
X131.474Y-146.317
T5
X30.789Y-138.979
X35.076Y-142.302
X35.189Y-122.558
X39.475Y-125.881
X54.752Y-136.159
X58.396Y-140.175
X61.936Y-120.752
X65.58Y-124.768
X75.805Y-139.962
X79.085Y-144.281
X84.305Y-125.24
X87.585Y-129.559
X91.678Y-157.845
X91.977Y-200.717
X94.569Y-162.433
X96.408Y-197.59
X101.429Y-143.919
X104.32Y-148.507
X107.242Y-210.256
X111.673Y-207.128
X147.867Y-201.775
X148.736Y-207.128
X150.788Y-149.655
X156.088Y-148.507
X160.539Y-163.58
X163.132Y-192.237
X164.001Y-197.59
X165.839Y-162.433
X167.444Y-130.24
X172.824Y-129.559
X175.944Y-144.962
X181.324Y-144.281
X189.409Y-124.978
X194.828Y-124.768
X196.594Y-140.385
X202.013Y-140.175
X215.56Y-125.146
X219.96Y-141.567
X220.933Y-125.881
X225.333Y-142.302
T6
X40.099Y-142.871
X44.499Y-126.45
X63.244Y-141.609
X70.429Y-126.201
X83.79Y-146.131
X92.29Y-131.409
X98.421Y-192.952
X99.095Y-164.686
X108.846Y-150.761
X113.686Y-202.491
X152.022Y-210.971
X159.754Y-145.025
X167.286Y-201.433
X169.505Y-158.95
X176.779Y-126.409
X185.279Y-141.131
X199.043Y-121.975
X206.227Y-137.382
X225.569Y-123.862
X229.969Y-140.283
T7
X55.346Y-111.084
X75.785Y-149.997
X92.678Y-209.409
X104.429Y-129.173
X155.979Y-129.173
X167.731Y-209.409
X184.624Y-149.997
X205.063Y-111.084
M30
