%TF.GenerationSoftware,KiCad,Pcbnew,9.0.8-1.fc43*%
%TF.CreationDate,2026-06-16T16:27:06-06:00*%
%TF.ProjectId,chouchou,63686f75-6368-46f7-952e-6b696361645f,v1.0.0*%
%TF.SameCoordinates,Original*%
%TF.FileFunction,Soldermask,Top*%
%TF.FilePolarity,Negative*%
%FSLAX46Y46*%
G04 Gerber Fmt 4.6, Leading zero omitted, Abs format (unit mm)*
G04 Created by KiCad (PCBNEW 9.0.8-1.fc43) date 2026-06-16 16:27:06*
%MOMM*%
%LPD*%
G01*
G04 APERTURE LIST*
G04 Aperture macros list*
%AMRoundRect*
0 Rectangle with rounded corners*
0 $1 Rounding radius*
0 $2 $3 $4 $5 $6 $7 $8 $9 X,Y pos of 4 corners*
0 Add a 4 corners polygon primitive as box body*
4,1,4,$2,$3,$4,$5,$6,$7,$8,$9,$2,$3,0*
0 Add four circle primitives for the rounded corners*
1,1,$1+$1,$2,$3*
1,1,$1+$1,$4,$5*
1,1,$1+$1,$6,$7*
1,1,$1+$1,$8,$9*
0 Add four rect primitives between the rounded corners*
20,1,$1+$1,$2,$3,$4,$5,0*
20,1,$1+$1,$4,$5,$6,$7,0*
20,1,$1+$1,$6,$7,$8,$9,0*
20,1,$1+$1,$8,$9,$2,$3,0*%
G04 Aperture macros list end*
%ADD10C,0.625000*%
%ADD11C,0.100000*%
%ADD12C,0.000000*%
%ADD13C,0.105833*%
%ADD14C,3.900000*%
%ADD15O,1.800000X1.800000*%
%ADD16C,1.800000*%
%ADD17C,2.000000*%
%ADD18C,3.100000*%
%ADD19C,5.100000*%
%ADD20C,2.132000*%
%ADD21C,1.497000*%
%ADD22RoundRect,0.260000X-0.390000X-0.665000X0.390000X-0.665000X0.390000X0.665000X-0.390000X0.665000X0*%
%ADD23O,1.300000X1.850000*%
G04 APERTURE END LIST*
D10*
G36*
X157180089Y-182431746D02*
G01*
X157299796Y-182325839D01*
X157351331Y-182208798D01*
X157344146Y-182069931D01*
X157264022Y-181892569D01*
X157102587Y-181683807D01*
X156868985Y-181471242D01*
X156598975Y-181276807D01*
X156283655Y-181082421D01*
X155616122Y-180740647D01*
X154977707Y-180471398D01*
X154462099Y-180286336D01*
X154181268Y-180206213D01*
X154363054Y-180081270D01*
X154449408Y-180001580D01*
X154495896Y-179926346D01*
X154493269Y-179887411D01*
X154445279Y-179856823D01*
X154335732Y-179866328D01*
X154030677Y-179978467D01*
X153536160Y-180229874D01*
X153084975Y-180491285D01*
X152801078Y-180664363D01*
X152617073Y-180811202D01*
X152572935Y-180905925D01*
X152587636Y-181006674D01*
X152643885Y-181125476D01*
X152787033Y-181011187D01*
X153026430Y-180853315D01*
X153216472Y-180734564D01*
X153401787Y-180635326D01*
X153752995Y-180477788D01*
X153926476Y-180441629D01*
X154138398Y-180447566D01*
X154370763Y-180502314D01*
X154715656Y-180639107D01*
X155131329Y-180829014D01*
X155503671Y-181008918D01*
X155741002Y-181145023D01*
X155396169Y-181298937D01*
X154960941Y-181533457D01*
X154786333Y-181657342D01*
X154670728Y-181768443D01*
X154625928Y-181845701D01*
X154630596Y-181903709D01*
X154680775Y-181956209D01*
X154904054Y-181824969D01*
X155289993Y-181604328D01*
X155679653Y-181389642D01*
X155913835Y-181276429D01*
X156158834Y-181436904D01*
X156546309Y-181747034D01*
X156873169Y-182058679D01*
X157180089Y-182431746D01*
G37*
G36*
X155136308Y-183634680D02*
G01*
X155228976Y-183550690D01*
X155279820Y-183442042D01*
X155277024Y-183315300D01*
X155195675Y-183135695D01*
X155132286Y-183047502D01*
X155045823Y-182948886D01*
X154897820Y-182805446D01*
X154665762Y-182617204D01*
X154108426Y-182227091D01*
X153500604Y-181848365D01*
X152967498Y-181550033D01*
X152533799Y-181353680D01*
X152210091Y-181248217D01*
X151910839Y-181194053D01*
X151705151Y-181192572D01*
X151526931Y-181228936D01*
X151415048Y-181283126D01*
X152016413Y-181493083D01*
X152364188Y-181642571D01*
X152782100Y-181847326D01*
X153747703Y-182382654D01*
X154159730Y-182643555D01*
X154547675Y-182930037D01*
X154743791Y-183109470D01*
X154854729Y-183249739D01*
X154912079Y-183383159D01*
X154904162Y-183471581D01*
X154844314Y-183536693D01*
X154723576Y-183579529D01*
X154537388Y-183580159D01*
X154207882Y-183521811D01*
X153858412Y-183430938D01*
X153545901Y-183333531D01*
X153505221Y-183334110D01*
X153486909Y-183361743D01*
X153502819Y-183409772D01*
X153559967Y-183448224D01*
X153785977Y-183525882D01*
X154017521Y-183599721D01*
X154245603Y-183667444D01*
X154477893Y-183715977D01*
X154641666Y-183735468D01*
X154824879Y-183730281D01*
X155001044Y-183695978D01*
X155136308Y-183634680D01*
G37*
G36*
X151622565Y-182547404D02*
G01*
X151675258Y-182498713D01*
X151701409Y-182436215D01*
X151702307Y-182368367D01*
X151677959Y-182306506D01*
X151610840Y-182233782D01*
X151521337Y-182194130D01*
X151424455Y-182188849D01*
X151342793Y-182218935D01*
X151281094Y-182275657D01*
X151252911Y-182345300D01*
X151257720Y-182419985D01*
X151299887Y-182493070D01*
X151371895Y-182547354D01*
X151455638Y-182577550D01*
X151542324Y-182579034D01*
X151622565Y-182547404D01*
G37*
G36*
X153899455Y-184382712D02*
G01*
X154007851Y-184284958D01*
X154071255Y-184155837D01*
X154080369Y-184060929D01*
X154054460Y-183946125D01*
X153982551Y-183803017D01*
X153842375Y-183618443D01*
X153601286Y-183389436D01*
X153333748Y-183193933D01*
X152820415Y-182900167D01*
X152515093Y-182748586D01*
X152436055Y-182724395D01*
X152288722Y-182729115D01*
X152140138Y-182760589D01*
X152045805Y-182802425D01*
X151998594Y-182850734D01*
X152004373Y-182894556D01*
X152081939Y-182953009D01*
X152488810Y-183148417D01*
X152950335Y-183392115D01*
X153376550Y-183678398D01*
X153551921Y-183837972D01*
X153673928Y-183995866D01*
X153717010Y-184084640D01*
X153730287Y-184158653D01*
X153710701Y-184224668D01*
X153642185Y-184287866D01*
X153534321Y-184327328D01*
X153365194Y-184333147D01*
X152995171Y-184275637D01*
X152713012Y-184200304D01*
X152519719Y-184147924D01*
X152337817Y-184088426D01*
X152297137Y-184089004D01*
X152278825Y-184116638D01*
X152294736Y-184164667D01*
X152351883Y-184203118D01*
X152580741Y-184278997D01*
X152815392Y-184350895D01*
X153173470Y-184448630D01*
X153365952Y-184480880D01*
X153552750Y-184488115D01*
X153732364Y-184459221D01*
X153899455Y-184382712D01*
G37*
G36*
X151228261Y-183660944D02*
G01*
X151534137Y-183732723D01*
X151851857Y-183851716D01*
X152261735Y-184065765D01*
X152463699Y-184202696D01*
X152639536Y-184353500D01*
X152720336Y-184443053D01*
X152793109Y-184546263D01*
X152874612Y-184717209D01*
X152909094Y-184890315D01*
X152896244Y-184999284D01*
X152841791Y-185095154D01*
X152737127Y-185183176D01*
X152591465Y-185245324D01*
X152416476Y-185264019D01*
X152231181Y-185247061D01*
X152032149Y-185203207D01*
X151787748Y-185123317D01*
X151549582Y-185018018D01*
X151181709Y-184818762D01*
X151301597Y-185008492D01*
X151476651Y-185224514D01*
X151679800Y-185433361D01*
X151920102Y-185644389D01*
X152233110Y-185630244D01*
X152745827Y-185585988D01*
X153366956Y-185556791D01*
X153691324Y-185563043D01*
X154008175Y-185593162D01*
X154313132Y-185654342D01*
X154579061Y-185748003D01*
X154811547Y-185885786D01*
X154989770Y-186068815D01*
X155053446Y-186204350D01*
X155071360Y-186364160D01*
X155045527Y-186464946D01*
X154967479Y-186571315D01*
X154816122Y-186688533D01*
X154599220Y-186797302D01*
X154360188Y-186865525D01*
X154094201Y-186892315D01*
X153683618Y-186864886D01*
X153238009Y-186763109D01*
X152797126Y-186600511D01*
X152359316Y-186380118D01*
X151945589Y-186113862D01*
X151571546Y-185812510D01*
X151354300Y-185808218D01*
X151086860Y-185780583D01*
X152071447Y-185780583D01*
X152340343Y-185985274D01*
X152684185Y-186193678D01*
X153054691Y-186374405D01*
X153441104Y-186520639D01*
X153832132Y-186624124D01*
X154185904Y-186669769D01*
X154416115Y-186663833D01*
X154607632Y-186621106D01*
X154768078Y-186545391D01*
X154875960Y-186449247D01*
X154911427Y-186352494D01*
X154902680Y-186251698D01*
X154864325Y-186171683D01*
X154750170Y-186041503D01*
X154604934Y-185934163D01*
X154423422Y-185849218D01*
X154126479Y-185765274D01*
X153793700Y-185718901D01*
X153451597Y-185704017D01*
X153107947Y-185710358D01*
X152488565Y-185755024D01*
X152071447Y-185780583D01*
X151086860Y-185780583D01*
X150918257Y-185763161D01*
X150641048Y-185709576D01*
X150183495Y-185558078D01*
X150116930Y-185517231D01*
X150103768Y-185474519D01*
X150122794Y-185447685D01*
X150163732Y-185446945D01*
X150342268Y-185508546D01*
X150538669Y-185558985D01*
X150884258Y-185623483D01*
X151331401Y-185665563D01*
X151426415Y-185672433D01*
X151228138Y-185456062D01*
X151044390Y-185226415D01*
X150760451Y-184818108D01*
X150674737Y-184674024D01*
X150627886Y-184579457D01*
X150666918Y-184542827D01*
X150709510Y-184511893D01*
X150778786Y-184482714D01*
X150860094Y-184475758D01*
X150945864Y-184500704D01*
X151068237Y-184584741D01*
X151179914Y-184670598D01*
X151363555Y-184779654D01*
X151792205Y-184977653D01*
X152020988Y-185054854D01*
X152226526Y-185098307D01*
X152416612Y-185101377D01*
X152543128Y-185057075D01*
X152600277Y-184997922D01*
X152610526Y-184923838D01*
X152567519Y-184818990D01*
X152464950Y-184692219D01*
X152282791Y-184535018D01*
X152068136Y-184389177D01*
X151809232Y-184245559D01*
X151534018Y-184120473D01*
X151250165Y-184017450D01*
X150963746Y-183945229D01*
X150704614Y-183916979D01*
X150462373Y-183938914D01*
X150275677Y-184015805D01*
X150185957Y-184103365D01*
X150145237Y-184224017D01*
X150157844Y-184394722D01*
X150157832Y-184470664D01*
X150119224Y-184517857D01*
X150054243Y-184529732D01*
X149992369Y-184473282D01*
X149967514Y-184389058D01*
X149988731Y-184269271D01*
X150082829Y-184080196D01*
X150204016Y-183928980D01*
X150353657Y-183810475D01*
X150611837Y-183694399D01*
X150914573Y-183645740D01*
X151228261Y-183660944D01*
G37*
G36*
X151146924Y-186144085D02*
G01*
X150389485Y-185608806D01*
X149688360Y-185149978D01*
X148405695Y-184384364D01*
X147980160Y-184170461D01*
X147665118Y-184063391D01*
X147371901Y-184015269D01*
X147164513Y-184021597D01*
X146984217Y-184065620D01*
X146872435Y-184121666D01*
X147123251Y-184204234D01*
X147467391Y-184347868D01*
X148247670Y-184738714D01*
X149120073Y-185237237D01*
X149990660Y-185785857D01*
X149705689Y-185679520D01*
X149281953Y-185536052D01*
X148809349Y-185406559D01*
X148576784Y-185364049D01*
X148373339Y-185348881D01*
X148186972Y-185366142D01*
X148060877Y-185416327D01*
X147956800Y-185506351D01*
X147924843Y-185588092D01*
X147933307Y-185675437D01*
X147971072Y-185761169D01*
X148059943Y-185866504D01*
X148212181Y-185981675D01*
X148589472Y-186183326D01*
X148992655Y-186360158D01*
X149319109Y-186519054D01*
X149484547Y-186637711D01*
X149565042Y-186728266D01*
X149587222Y-186808730D01*
X149543540Y-186865544D01*
X149473959Y-186892463D01*
X149371629Y-186906725D01*
X149196035Y-186908666D01*
X148991797Y-186880185D01*
X148583364Y-186780795D01*
X148392919Y-186726635D01*
X148214124Y-186665195D01*
X148173444Y-186665774D01*
X148155132Y-186693407D01*
X148171042Y-186741436D01*
X148228190Y-186779888D01*
X148685744Y-186931385D01*
X148919781Y-186995387D01*
X149140162Y-187051362D01*
X149408130Y-187079186D01*
X149612432Y-187054759D01*
X149769060Y-186988509D01*
X149862602Y-186902618D01*
X149897814Y-186805093D01*
X149888255Y-186697560D01*
X149837188Y-186583051D01*
X149719917Y-186435847D01*
X149532949Y-186274190D01*
X149318470Y-186130572D01*
X149091522Y-186009653D01*
X148947096Y-185943297D01*
X148668568Y-185808095D01*
X148383764Y-185655934D01*
X148270907Y-185582069D01*
X148226268Y-185535823D01*
X148220796Y-185502624D01*
X148258765Y-185482396D01*
X148498826Y-185497273D01*
X148948617Y-185596020D01*
X149493127Y-185754742D01*
X150047278Y-185948482D01*
X150525377Y-186153023D01*
X150624041Y-186231413D01*
X150720306Y-186283228D01*
X150803905Y-186288226D01*
X150968666Y-186222352D01*
X151146924Y-186144085D01*
G37*
G36*
X148632436Y-187698751D02*
G01*
X148741630Y-187602996D01*
X148803781Y-187484400D01*
X148807608Y-187348451D01*
X148729508Y-187167924D01*
X148664177Y-187076624D01*
X148583377Y-186987071D01*
X148361775Y-186781867D01*
X148026468Y-186530810D01*
X147644819Y-186281699D01*
X147162903Y-185994003D01*
X147388416Y-185853087D01*
X147433660Y-185809844D01*
X147431335Y-185776587D01*
X147374768Y-185758653D01*
X147269749Y-185795116D01*
X147056147Y-185928589D01*
X146724451Y-185760728D01*
X146525982Y-185674141D01*
X146259086Y-185596328D01*
X146071984Y-185574423D01*
X145904822Y-185587531D01*
X145792144Y-185621483D01*
X145647996Y-185694997D01*
X145976720Y-185811434D01*
X146355923Y-185982730D01*
X146688233Y-186158487D01*
X146083155Y-186536582D01*
X146036259Y-186579019D01*
X146036515Y-186607127D01*
X146100072Y-186629333D01*
X146207777Y-186590833D01*
X146806899Y-186216459D01*
X147167136Y-186416167D01*
X147491516Y-186605160D01*
X147902135Y-186860147D01*
X148220232Y-187098427D01*
X148329118Y-187205957D01*
X148396004Y-187293878D01*
X148446113Y-187404223D01*
X148448769Y-187483752D01*
X148417777Y-187552282D01*
X148359535Y-187605393D01*
X148280068Y-187640190D01*
X148163545Y-187661620D01*
X147988184Y-187663444D01*
X147783972Y-187634918D01*
X147375539Y-187535528D01*
X147185094Y-187481368D01*
X147006299Y-187419928D01*
X146965619Y-187420506D01*
X146946400Y-187447498D01*
X146959496Y-187490214D01*
X147020365Y-187534620D01*
X147477919Y-187686118D01*
X147757709Y-187760793D01*
X148056379Y-187819666D01*
X148254526Y-187828327D01*
X148444755Y-187788790D01*
X148632436Y-187698751D01*
G37*
D11*
G36*
X103219910Y-182431747D02*
G01*
X103100203Y-182325840D01*
X103048668Y-182208799D01*
X103055853Y-182069932D01*
X103135977Y-181892570D01*
X103297412Y-181683808D01*
X103531014Y-181471243D01*
X103801024Y-181276808D01*
X104116344Y-181082422D01*
X104783877Y-180740648D01*
X105422292Y-180471399D01*
X105937900Y-180286337D01*
X106218731Y-180206214D01*
X106036945Y-180081271D01*
X105950591Y-180001581D01*
X105904103Y-179926347D01*
X105906730Y-179887412D01*
X105954720Y-179856824D01*
X106064267Y-179866329D01*
X106369322Y-179978468D01*
X106863839Y-180229875D01*
X107315024Y-180491286D01*
X107598921Y-180664364D01*
X107782926Y-180811203D01*
X107827064Y-180905926D01*
X107812363Y-181006675D01*
X107756114Y-181125477D01*
X107612966Y-181011188D01*
X107373569Y-180853316D01*
X107183527Y-180734565D01*
X106998212Y-180635327D01*
X106647004Y-180477789D01*
X106473523Y-180441630D01*
X106261601Y-180447567D01*
X106029236Y-180502315D01*
X105684343Y-180639108D01*
X105268670Y-180829015D01*
X104896328Y-181008919D01*
X104658997Y-181145024D01*
X105003830Y-181298938D01*
X105439058Y-181533458D01*
X105613666Y-181657343D01*
X105729271Y-181768444D01*
X105774071Y-181845702D01*
X105769403Y-181903710D01*
X105719224Y-181956210D01*
X105495945Y-181824970D01*
X105110006Y-181604329D01*
X104720346Y-181389643D01*
X104486164Y-181276430D01*
X104241165Y-181436905D01*
X103853690Y-181747035D01*
X103526830Y-182058680D01*
X103219910Y-182431747D01*
G37*
G36*
X105263691Y-183634681D02*
G01*
X105171023Y-183550691D01*
X105120179Y-183442043D01*
X105122975Y-183315301D01*
X105204324Y-183135696D01*
X105267713Y-183047503D01*
X105354176Y-182948887D01*
X105502179Y-182805447D01*
X105734237Y-182617205D01*
X106291573Y-182227092D01*
X106899395Y-181848366D01*
X107432501Y-181550034D01*
X107866200Y-181353681D01*
X108189908Y-181248218D01*
X108489160Y-181194054D01*
X108694848Y-181192573D01*
X108873068Y-181228937D01*
X108984951Y-181283127D01*
X108383586Y-181493084D01*
X108035811Y-181642572D01*
X107617899Y-181847327D01*
X106652296Y-182382655D01*
X106240269Y-182643556D01*
X105852324Y-182930038D01*
X105656208Y-183109471D01*
X105545270Y-183249740D01*
X105487920Y-183383160D01*
X105495837Y-183471582D01*
X105555685Y-183536694D01*
X105676423Y-183579530D01*
X105862611Y-183580160D01*
X106192117Y-183521812D01*
X106541587Y-183430939D01*
X106854098Y-183333532D01*
X106894778Y-183334111D01*
X106913090Y-183361744D01*
X106897180Y-183409773D01*
X106840032Y-183448225D01*
X106614022Y-183525883D01*
X106382478Y-183599722D01*
X106154396Y-183667445D01*
X105922106Y-183715978D01*
X105758333Y-183735469D01*
X105575120Y-183730282D01*
X105398955Y-183695979D01*
X105263691Y-183634681D01*
G37*
G36*
X108777434Y-182547405D02*
G01*
X108724741Y-182498714D01*
X108698590Y-182436216D01*
X108697692Y-182368368D01*
X108722040Y-182306507D01*
X108789159Y-182233783D01*
X108878662Y-182194131D01*
X108975544Y-182188850D01*
X109057206Y-182218936D01*
X109118905Y-182275658D01*
X109147088Y-182345301D01*
X109142279Y-182419986D01*
X109100112Y-182493071D01*
X109028104Y-182547355D01*
X108944361Y-182577551D01*
X108857675Y-182579035D01*
X108777434Y-182547405D01*
G37*
G36*
X106500544Y-184382713D02*
G01*
X106392148Y-184284959D01*
X106328744Y-184155838D01*
X106319630Y-184060930D01*
X106345539Y-183946126D01*
X106417448Y-183803018D01*
X106557624Y-183618444D01*
X106798713Y-183389437D01*
X107066251Y-183193934D01*
X107579584Y-182900168D01*
X107884906Y-182748587D01*
X107963944Y-182724396D01*
X108111277Y-182729116D01*
X108259861Y-182760590D01*
X108354194Y-182802426D01*
X108401405Y-182850735D01*
X108395626Y-182894557D01*
X108318060Y-182953010D01*
X107911189Y-183148418D01*
X107449664Y-183392116D01*
X107023449Y-183678399D01*
X106848078Y-183837973D01*
X106726071Y-183995867D01*
X106682989Y-184084641D01*
X106669712Y-184158654D01*
X106689298Y-184224669D01*
X106757814Y-184287867D01*
X106865678Y-184327329D01*
X107034805Y-184333148D01*
X107404828Y-184275638D01*
X107686987Y-184200305D01*
X107880280Y-184147925D01*
X108062182Y-184088427D01*
X108102862Y-184089005D01*
X108121174Y-184116639D01*
X108105263Y-184164668D01*
X108048116Y-184203119D01*
X107819258Y-184278998D01*
X107584607Y-184350896D01*
X107226529Y-184448631D01*
X107034047Y-184480881D01*
X106847249Y-184488116D01*
X106667635Y-184459222D01*
X106500544Y-184382713D01*
G37*
G36*
X109788162Y-183694400D02*
G01*
X110046342Y-183810476D01*
X110195983Y-183928981D01*
X110317170Y-184080197D01*
X110411268Y-184269272D01*
X110432485Y-184389059D01*
X110407630Y-184473283D01*
X110345756Y-184529733D01*
X110280775Y-184517858D01*
X110242167Y-184470665D01*
X110242155Y-184394723D01*
X110254762Y-184224018D01*
X110214042Y-184103366D01*
X110124322Y-184015806D01*
X109937626Y-183938915D01*
X109695385Y-183916980D01*
X109436253Y-183945230D01*
X109149834Y-184017451D01*
X108865981Y-184120474D01*
X108590767Y-184245560D01*
X108331863Y-184389178D01*
X108117208Y-184535019D01*
X107935049Y-184692220D01*
X107832480Y-184818991D01*
X107789473Y-184923839D01*
X107799722Y-184997923D01*
X107856871Y-185057076D01*
X107983387Y-185101378D01*
X108173473Y-185098308D01*
X108379011Y-185054855D01*
X108607794Y-184977654D01*
X109036444Y-184779655D01*
X109220085Y-184670599D01*
X109331762Y-184584742D01*
X109454135Y-184500705D01*
X109539905Y-184475759D01*
X109621213Y-184482715D01*
X109690489Y-184511894D01*
X109733081Y-184542828D01*
X109772113Y-184579458D01*
X109725262Y-184674025D01*
X109639548Y-184818109D01*
X109355609Y-185226416D01*
X109171861Y-185456063D01*
X108973584Y-185672434D01*
X109068598Y-185665564D01*
X109515741Y-185623484D01*
X109861330Y-185558986D01*
X110057731Y-185508547D01*
X110236267Y-185446946D01*
X110277205Y-185447686D01*
X110296231Y-185474520D01*
X110283069Y-185517232D01*
X110216504Y-185558079D01*
X109758951Y-185709577D01*
X109481742Y-185763162D01*
X109045699Y-185808219D01*
X108828453Y-185812511D01*
X108454410Y-186113863D01*
X108040683Y-186380119D01*
X107602873Y-186600512D01*
X107161990Y-186763110D01*
X106716381Y-186864887D01*
X106305798Y-186892316D01*
X106039811Y-186865526D01*
X105800779Y-186797303D01*
X105583877Y-186688534D01*
X105432520Y-186571316D01*
X105354472Y-186464947D01*
X105328639Y-186364161D01*
X105329947Y-186352495D01*
X105488572Y-186352495D01*
X105524039Y-186449248D01*
X105631921Y-186545392D01*
X105792367Y-186621107D01*
X105983884Y-186663834D01*
X106214095Y-186669770D01*
X106567867Y-186624125D01*
X106958895Y-186520640D01*
X107345308Y-186374406D01*
X107715814Y-186193679D01*
X108059656Y-185985275D01*
X108328552Y-185780584D01*
X107911434Y-185755025D01*
X107292052Y-185710359D01*
X106948402Y-185704018D01*
X106606299Y-185718902D01*
X106273520Y-185765275D01*
X105976577Y-185849219D01*
X105795065Y-185934164D01*
X105649829Y-186041504D01*
X105535674Y-186171684D01*
X105497319Y-186251699D01*
X105488572Y-186352495D01*
X105329947Y-186352495D01*
X105346553Y-186204351D01*
X105410229Y-186068816D01*
X105588452Y-185885787D01*
X105820938Y-185748004D01*
X106086867Y-185654343D01*
X106391824Y-185593163D01*
X106708675Y-185563044D01*
X107033043Y-185556792D01*
X107654172Y-185585989D01*
X108166889Y-185630245D01*
X108479897Y-185644390D01*
X108720199Y-185433362D01*
X108923348Y-185224515D01*
X109098402Y-185008493D01*
X109218290Y-184818763D01*
X108850417Y-185018019D01*
X108612251Y-185123318D01*
X108367850Y-185203208D01*
X108168818Y-185247062D01*
X107983523Y-185264020D01*
X107808534Y-185245325D01*
X107662872Y-185183177D01*
X107558208Y-185095155D01*
X107503755Y-184999285D01*
X107490905Y-184890316D01*
X107525387Y-184717210D01*
X107606890Y-184546264D01*
X107679663Y-184443054D01*
X107760463Y-184353501D01*
X107936300Y-184202697D01*
X108138264Y-184065766D01*
X108548142Y-183851717D01*
X108865862Y-183732724D01*
X109171738Y-183660945D01*
X109485426Y-183645741D01*
X109788162Y-183694400D01*
G37*
G36*
X109253075Y-186144086D02*
G01*
X110010514Y-185608807D01*
X110711639Y-185149979D01*
X111994304Y-184384365D01*
X112419839Y-184170462D01*
X112734881Y-184063392D01*
X113028098Y-184015270D01*
X113235486Y-184021598D01*
X113415782Y-184065621D01*
X113527564Y-184121667D01*
X113276748Y-184204235D01*
X112932608Y-184347869D01*
X112152329Y-184738715D01*
X111279926Y-185237238D01*
X110409339Y-185785858D01*
X110694310Y-185679521D01*
X111118046Y-185536053D01*
X111590650Y-185406560D01*
X111823215Y-185364050D01*
X112026660Y-185348882D01*
X112213027Y-185366143D01*
X112339122Y-185416328D01*
X112443199Y-185506352D01*
X112475156Y-185588093D01*
X112466692Y-185675438D01*
X112428927Y-185761170D01*
X112340056Y-185866505D01*
X112187818Y-185981676D01*
X111810527Y-186183327D01*
X111407344Y-186360159D01*
X111080890Y-186519055D01*
X110915452Y-186637712D01*
X110834957Y-186728267D01*
X110812777Y-186808731D01*
X110856459Y-186865545D01*
X110926040Y-186892464D01*
X111028370Y-186906726D01*
X111203964Y-186908667D01*
X111408202Y-186880186D01*
X111816635Y-186780796D01*
X112007080Y-186726636D01*
X112185875Y-186665196D01*
X112226555Y-186665775D01*
X112244867Y-186693408D01*
X112228957Y-186741437D01*
X112171809Y-186779889D01*
X111714255Y-186931386D01*
X111480218Y-186995388D01*
X111259837Y-187051363D01*
X110991869Y-187079187D01*
X110787567Y-187054760D01*
X110630939Y-186988510D01*
X110537397Y-186902619D01*
X110502185Y-186805094D01*
X110511744Y-186697561D01*
X110562811Y-186583052D01*
X110680082Y-186435848D01*
X110867050Y-186274191D01*
X111081529Y-186130573D01*
X111308477Y-186009654D01*
X111452903Y-185943298D01*
X111731431Y-185808096D01*
X112016235Y-185655935D01*
X112129092Y-185582070D01*
X112173731Y-185535824D01*
X112179203Y-185502625D01*
X112141234Y-185482397D01*
X111901173Y-185497274D01*
X111451382Y-185596021D01*
X110906872Y-185754743D01*
X110352721Y-185948483D01*
X109874622Y-186153024D01*
X109775958Y-186231414D01*
X109679693Y-186283229D01*
X109596094Y-186288227D01*
X109431333Y-186222353D01*
X109253075Y-186144086D01*
G37*
G36*
X111767563Y-187698752D02*
G01*
X111658369Y-187602997D01*
X111596218Y-187484401D01*
X111592391Y-187348452D01*
X111670491Y-187167925D01*
X111735822Y-187076625D01*
X111816622Y-186987072D01*
X112038224Y-186781868D01*
X112373531Y-186530811D01*
X112755180Y-186281700D01*
X113237096Y-185994004D01*
X113011583Y-185853088D01*
X112966339Y-185809845D01*
X112968664Y-185776588D01*
X113025231Y-185758654D01*
X113130250Y-185795117D01*
X113343852Y-185928590D01*
X113675548Y-185760729D01*
X113874017Y-185674142D01*
X114140913Y-185596329D01*
X114328015Y-185574424D01*
X114495177Y-185587532D01*
X114607855Y-185621484D01*
X114752003Y-185694998D01*
X114423279Y-185811435D01*
X114044076Y-185982731D01*
X113711766Y-186158488D01*
X114316844Y-186536583D01*
X114363740Y-186579020D01*
X114363484Y-186607128D01*
X114299927Y-186629334D01*
X114192222Y-186590834D01*
X113593100Y-186216460D01*
X113232863Y-186416168D01*
X112908483Y-186605161D01*
X112497864Y-186860148D01*
X112179767Y-187098428D01*
X112070881Y-187205958D01*
X112003995Y-187293879D01*
X111953886Y-187404224D01*
X111951230Y-187483753D01*
X111982222Y-187552283D01*
X112040464Y-187605394D01*
X112119931Y-187640191D01*
X112236454Y-187661621D01*
X112411815Y-187663445D01*
X112616027Y-187634919D01*
X113024460Y-187535529D01*
X113214905Y-187481369D01*
X113393700Y-187419929D01*
X113434380Y-187420507D01*
X113453599Y-187447499D01*
X113440503Y-187490215D01*
X113379634Y-187534621D01*
X112922080Y-187686119D01*
X112642290Y-187760794D01*
X112343620Y-187819667D01*
X112145473Y-187828328D01*
X111955244Y-187788791D01*
X111767563Y-187698752D01*
G37*
D12*
%TO.C,REF\u002A\u002A*%
G36*
X206709096Y-123697457D02*
G01*
X206709094Y-123697459D01*
X206709094Y-123697465D01*
X206709092Y-123697475D01*
X206701004Y-123744696D01*
X206694596Y-123792398D01*
X206689867Y-123840519D01*
X206686810Y-123888998D01*
X206685421Y-123937778D01*
X206685694Y-123986805D01*
X206687623Y-124036013D01*
X206691202Y-124085348D01*
X206696431Y-124134750D01*
X206703299Y-124184160D01*
X206711801Y-124233520D01*
X206721935Y-124282771D01*
X206733694Y-124331856D01*
X206747072Y-124380714D01*
X206762066Y-124429287D01*
X206778669Y-124477517D01*
X206808050Y-124551876D01*
X206840854Y-124624055D01*
X206876934Y-124693898D01*
X206916141Y-124761242D01*
X206958327Y-124825941D01*
X207003344Y-124887833D01*
X207051044Y-124946760D01*
X207101279Y-125002574D01*
X207153898Y-125055111D01*
X207208759Y-125104220D01*
X207265705Y-125149742D01*
X207324596Y-125191523D01*
X207385278Y-125229406D01*
X207447607Y-125263235D01*
X207511431Y-125292856D01*
X207576604Y-125318110D01*
X207493496Y-125318252D01*
X207411634Y-125311810D01*
X207331328Y-125298991D01*
X207252899Y-125280007D01*
X207176655Y-125255069D01*
X207102912Y-125224383D01*
X207031982Y-125188159D01*
X206964178Y-125146609D01*
X206899820Y-125099940D01*
X206839215Y-125048365D01*
X206782680Y-124992089D01*
X206730527Y-124931324D01*
X206683071Y-124866281D01*
X206640627Y-124797168D01*
X206603506Y-124724192D01*
X206572024Y-124647569D01*
X206552352Y-124587278D01*
X206536561Y-124526305D01*
X206524627Y-124464816D01*
X206516526Y-124402989D01*
X206512231Y-124340997D01*
X206511717Y-124279009D01*
X206514961Y-124217197D01*
X206521935Y-124155740D01*
X206532618Y-124094807D01*
X206546981Y-124034569D01*
X206565004Y-123975203D01*
X206586656Y-123916876D01*
X206611919Y-123859766D01*
X206640760Y-123804044D01*
X206673162Y-123749883D01*
X206709096Y-123697454D01*
X206709096Y-123697457D01*
G37*
D13*
X206666380Y-118986591D02*
X206680825Y-118987946D01*
X206695126Y-118990742D01*
X206709271Y-118994964D01*
X206723252Y-119000596D01*
X206750687Y-119016004D01*
X206777351Y-119036830D01*
X206803175Y-119062920D01*
X206828081Y-119094138D01*
X206852000Y-119130338D01*
X206874852Y-119171373D01*
X206896569Y-119217101D01*
X206917074Y-119267377D01*
X206936290Y-119322059D01*
X206954149Y-119381001D01*
X206970572Y-119444058D01*
X206985488Y-119511088D01*
X206998820Y-119581946D01*
X207010497Y-119656488D01*
X207010626Y-119656441D01*
X207010613Y-119656800D01*
X207010603Y-119657160D01*
X207020019Y-119730675D01*
X207027722Y-119806174D01*
X207033701Y-119883411D01*
X207037946Y-119962140D01*
X207040445Y-120042119D01*
X207041188Y-120123105D01*
X207040167Y-120204852D01*
X207037369Y-120287117D01*
X207033283Y-120360441D01*
X207027821Y-120433270D01*
X207021007Y-120505435D01*
X207012861Y-120576756D01*
X207003406Y-120647065D01*
X206992662Y-120716186D01*
X206980649Y-120783948D01*
X206967393Y-120850172D01*
X206967234Y-120854640D01*
X206780511Y-121967732D01*
X206858426Y-122046255D01*
X206945928Y-122129488D01*
X207041352Y-122216340D01*
X207143035Y-122305730D01*
X207358531Y-122487779D01*
X207579117Y-122666948D01*
X207791496Y-122834557D01*
X207982367Y-122981919D01*
X208246390Y-123181175D01*
X208257829Y-123189123D01*
X208269748Y-123197593D01*
X208282010Y-123206513D01*
X208294476Y-123215797D01*
X208307011Y-123225367D01*
X208319476Y-123235143D01*
X208331737Y-123245046D01*
X208343655Y-123254998D01*
X208374632Y-123281806D01*
X208404669Y-123309537D01*
X208433745Y-123338173D01*
X208461847Y-123367684D01*
X208488955Y-123398044D01*
X208515050Y-123429232D01*
X208540114Y-123461218D01*
X208564131Y-123493977D01*
X208587079Y-123527487D01*
X208608944Y-123561719D01*
X208629706Y-123596648D01*
X208649349Y-123632252D01*
X208667852Y-123668503D01*
X208685198Y-123705373D01*
X208701371Y-123742840D01*
X208716349Y-123780879D01*
X208720781Y-123792170D01*
X208720805Y-123792235D01*
X208741668Y-123854448D01*
X208759141Y-123916978D01*
X208773276Y-123979722D01*
X208784119Y-124042576D01*
X208791719Y-124105439D01*
X208796125Y-124168207D01*
X208797384Y-124230778D01*
X208795546Y-124293049D01*
X208790660Y-124354916D01*
X208782773Y-124416277D01*
X208771934Y-124477029D01*
X208758193Y-124537069D01*
X208741595Y-124596294D01*
X208722192Y-124654600D01*
X208700034Y-124711887D01*
X208675162Y-124768050D01*
X208647633Y-124822986D01*
X208617489Y-124876594D01*
X208584783Y-124928768D01*
X208549562Y-124979407D01*
X208511877Y-125028409D01*
X208471770Y-125075670D01*
X208429293Y-125121086D01*
X208384499Y-125164556D01*
X208337431Y-125205978D01*
X208288138Y-125245243D01*
X208236671Y-125282257D01*
X208183076Y-125316911D01*
X208127402Y-125349103D01*
X208069701Y-125378733D01*
X208010016Y-125405692D01*
X207948400Y-125429885D01*
X207885647Y-125450960D01*
X207822598Y-125468671D01*
X207759347Y-125483064D01*
X207696008Y-125494188D01*
X207632676Y-125502094D01*
X207569456Y-125506822D01*
X207506455Y-125508428D01*
X207443773Y-125506953D01*
X207381514Y-125502447D01*
X207319782Y-125494959D01*
X207258680Y-125484536D01*
X207198310Y-125471224D01*
X207138777Y-125455072D01*
X207080184Y-125436127D01*
X207022633Y-125414438D01*
X206966231Y-125390050D01*
X206911077Y-125363013D01*
X206857275Y-125333374D01*
X206804934Y-125301182D01*
X206754150Y-125266480D01*
X206705027Y-125229321D01*
X206657671Y-125189750D01*
X206612186Y-125147815D01*
X206568676Y-125103565D01*
X206527240Y-125057043D01*
X206487986Y-125008301D01*
X206451011Y-124957387D01*
X206416426Y-124904346D01*
X206384329Y-124849227D01*
X206354825Y-124792079D01*
X206328019Y-124732945D01*
X206304009Y-124671877D01*
X206290793Y-124633008D01*
X206278868Y-124593800D01*
X206268234Y-124554288D01*
X206258896Y-124514498D01*
X206250855Y-124474469D01*
X206244117Y-124434224D01*
X206238679Y-124393801D01*
X206234548Y-124353227D01*
X206231728Y-124312537D01*
X206230218Y-124271760D01*
X206230021Y-124230929D01*
X206231143Y-124190072D01*
X206233584Y-124149224D01*
X206237347Y-124108417D01*
X206242436Y-124067679D01*
X206248852Y-124027045D01*
X206251278Y-124011738D01*
X206253729Y-123997081D01*
X206256286Y-123982868D01*
X206259023Y-123968902D01*
X206262020Y-123954980D01*
X206265358Y-123940900D01*
X206269111Y-123926459D01*
X206273360Y-123911460D01*
X206350225Y-123596239D01*
X206464749Y-123089438D01*
X206523301Y-122804505D01*
X206575872Y-122520047D01*
X206617331Y-122252192D01*
X206632288Y-122129528D01*
X206642544Y-122017058D01*
X205784782Y-121285019D01*
X205781724Y-121281616D01*
X205729009Y-121239412D01*
X205676261Y-121195237D01*
X205623610Y-121149203D01*
X205571180Y-121101432D01*
X205519102Y-121052043D01*
X205467505Y-121001152D01*
X205416513Y-120948884D01*
X205366261Y-120895353D01*
X205311863Y-120834650D01*
X205259138Y-120773231D01*
X205208232Y-120711282D01*
X205159287Y-120648994D01*
X205112449Y-120586554D01*
X205067862Y-120524150D01*
X205025669Y-120461967D01*
X204986017Y-120400200D01*
X204981354Y-120395036D01*
X204982489Y-120394622D01*
X204943581Y-120330145D01*
X204908294Y-120267416D01*
X204876659Y-120206589D01*
X204848719Y-120147824D01*
X204824504Y-120091277D01*
X204804055Y-120037106D01*
X204795250Y-120010961D01*
X204787402Y-119985467D01*
X204780513Y-119960646D01*
X204774587Y-119936517D01*
X204769630Y-119913102D01*
X204765643Y-119890416D01*
X204762634Y-119868483D01*
X204760607Y-119847319D01*
X204759564Y-119826948D01*
X204759514Y-119807385D01*
X204760457Y-119788651D01*
X204762399Y-119770768D01*
X204765347Y-119753753D01*
X204769300Y-119737627D01*
X204774269Y-119722412D01*
X204780254Y-119708120D01*
X204787261Y-119694778D01*
X204795295Y-119682404D01*
X204804358Y-119671016D01*
X204814459Y-119660636D01*
X204822266Y-119654068D01*
X204830538Y-119648050D01*
X204839274Y-119642582D01*
X204848463Y-119637662D01*
X204858102Y-119633288D01*
X204868183Y-119629463D01*
X204878700Y-119626184D01*
X204889649Y-119623450D01*
X204912818Y-119619614D01*
X204937637Y-119617949D01*
X204964059Y-119618450D01*
X204992039Y-119621110D01*
X205021525Y-119625925D01*
X205052474Y-119632883D01*
X205084834Y-119641985D01*
X205118558Y-119653219D01*
X205153597Y-119666584D01*
X205189906Y-119682068D01*
X205227435Y-119699669D01*
X205266138Y-119719379D01*
X205260819Y-119676340D01*
X205257085Y-119635121D01*
X205254924Y-119595773D01*
X205254327Y-119558337D01*
X205254612Y-119540352D01*
X205255284Y-119522862D01*
X205256341Y-119505878D01*
X205257782Y-119489401D01*
X205259608Y-119473437D01*
X205261814Y-119457994D01*
X205264401Y-119443075D01*
X205267368Y-119428691D01*
X205270712Y-119414843D01*
X205274433Y-119401538D01*
X205278529Y-119388783D01*
X205282996Y-119376583D01*
X205287839Y-119364947D01*
X205293052Y-119353875D01*
X205298634Y-119343377D01*
X205304586Y-119333457D01*
X205310906Y-119324122D01*
X205317590Y-119315378D01*
X205324640Y-119307232D01*
X205332051Y-119299687D01*
X205339826Y-119292750D01*
X205347962Y-119286428D01*
X205356457Y-119280726D01*
X205365308Y-119275650D01*
X205365311Y-119275650D01*
X205374551Y-119271320D01*
X205384100Y-119267642D01*
X205393952Y-119264613D01*
X205404099Y-119262232D01*
X205414538Y-119260496D01*
X205425263Y-119259402D01*
X205436267Y-119258949D01*
X205447547Y-119259134D01*
X205470906Y-119261409D01*
X205495296Y-119266209D01*
X205520673Y-119273517D01*
X205546989Y-119283312D01*
X205574205Y-119295576D01*
X205602271Y-119310292D01*
X205631147Y-119327442D01*
X205660783Y-119347005D01*
X205691137Y-119368965D01*
X205722168Y-119393304D01*
X205753826Y-119420001D01*
X205786068Y-119449040D01*
X205792103Y-119406063D01*
X205799195Y-119365259D01*
X205807322Y-119326665D01*
X205816461Y-119290328D01*
X205826590Y-119256287D01*
X205837690Y-119224589D01*
X205849732Y-119195271D01*
X205856100Y-119181520D01*
X205862698Y-119168381D01*
X205869520Y-119155859D01*
X205876564Y-119143960D01*
X205883829Y-119132689D01*
X205891310Y-119122050D01*
X205899005Y-119112051D01*
X205906911Y-119102698D01*
X205915024Y-119093991D01*
X205923345Y-119085939D01*
X205931868Y-119078548D01*
X205940591Y-119071822D01*
X205949510Y-119065768D01*
X205958625Y-119060388D01*
X205967931Y-119055692D01*
X205977427Y-119051680D01*
X205987107Y-119048363D01*
X205996970Y-119045742D01*
X206017191Y-119042750D01*
X206037907Y-119042590D01*
X206059079Y-119045231D01*
X206080672Y-119050644D01*
X206102646Y-119058800D01*
X206124960Y-119069669D01*
X206147578Y-119083223D01*
X206170461Y-119099432D01*
X206193573Y-119118265D01*
X206216871Y-119139697D01*
X206240320Y-119163694D01*
X206263880Y-119190230D01*
X206287511Y-119219273D01*
X206311179Y-119250797D01*
X206334843Y-119284771D01*
X206358462Y-119321163D01*
X206375430Y-119281277D01*
X206392850Y-119243756D01*
X206410696Y-119208634D01*
X206428932Y-119175950D01*
X206447526Y-119145735D01*
X206466447Y-119118025D01*
X206485661Y-119092860D01*
X206505133Y-119070271D01*
X206514957Y-119059952D01*
X206524833Y-119050294D01*
X206534759Y-119041295D01*
X206544730Y-119032966D01*
X206554741Y-119025305D01*
X206564788Y-119018321D01*
X206574868Y-119012017D01*
X206584978Y-119006394D01*
X206595110Y-119001463D01*
X206605262Y-118997223D01*
X206615432Y-118993682D01*
X206625614Y-118990842D01*
X206635804Y-118988709D01*
X206645996Y-118987286D01*
X206656191Y-118986578D01*
X206666380Y-118986591D01*
D12*
G36*
X52615864Y-123306174D02*
G01*
X52615861Y-123306175D01*
X52615857Y-123306179D01*
X52615849Y-123306185D01*
X52579300Y-123337160D01*
X52543729Y-123369583D01*
X52509175Y-123403406D01*
X52475671Y-123438578D01*
X52443252Y-123475053D01*
X52411947Y-123512785D01*
X52381795Y-123551721D01*
X52352825Y-123591814D01*
X52325075Y-123633019D01*
X52298576Y-123675284D01*
X52273361Y-123718561D01*
X52249466Y-123762804D01*
X52226923Y-123807963D01*
X52205766Y-123853990D01*
X52186030Y-123900837D01*
X52167747Y-123948456D01*
X52142457Y-124024304D01*
X52121190Y-124100682D01*
X52103935Y-124177377D01*
X52090681Y-124254167D01*
X52081410Y-124330846D01*
X52076112Y-124407194D01*
X52074774Y-124482996D01*
X52077380Y-124558042D01*
X52083919Y-124632111D01*
X52094378Y-124704994D01*
X52108740Y-124776471D01*
X52126997Y-124846331D01*
X52149131Y-124914357D01*
X52175133Y-124980335D01*
X52204985Y-125044052D01*
X52238677Y-125105290D01*
X52174922Y-125051978D01*
X52116353Y-124994423D01*
X52063075Y-124932984D01*
X52015197Y-124868028D01*
X51972821Y-124799915D01*
X51936055Y-124729007D01*
X51905004Y-124655666D01*
X51879771Y-124580253D01*
X51860468Y-124503134D01*
X51847194Y-124424669D01*
X51840059Y-124345219D01*
X51839166Y-124265147D01*
X51844622Y-124184817D01*
X51856533Y-124104591D01*
X51875005Y-124024827D01*
X51900140Y-123945894D01*
X51923825Y-123887064D01*
X51950921Y-123830205D01*
X51981303Y-123775431D01*
X52014839Y-123722862D01*
X52051397Y-123672612D01*
X52090848Y-123624796D01*
X52133065Y-123579531D01*
X52177911Y-123536935D01*
X52225262Y-123497124D01*
X52274985Y-123460212D01*
X52326951Y-123426319D01*
X52381029Y-123395556D01*
X52437091Y-123368046D01*
X52495003Y-123343899D01*
X52554638Y-123323237D01*
X52615866Y-123306172D01*
X52615864Y-123306174D01*
G37*
D13*
X53779713Y-118996635D02*
X53789920Y-118998061D01*
X53800122Y-119000199D01*
X53810317Y-119003044D01*
X53820498Y-119006594D01*
X53830663Y-119010842D01*
X53840808Y-119015786D01*
X53861022Y-119027740D01*
X53881105Y-119042418D01*
X53901023Y-119059786D01*
X53920747Y-119079808D01*
X53940240Y-119102450D01*
X53959475Y-119127674D01*
X53978414Y-119155447D01*
X53997027Y-119185730D01*
X54015278Y-119218491D01*
X54033139Y-119253691D01*
X54050574Y-119291298D01*
X54067553Y-119331274D01*
X54091143Y-119294885D01*
X54114778Y-119260910D01*
X54138415Y-119229378D01*
X54162021Y-119200317D01*
X54173800Y-119186723D01*
X54185557Y-119173757D01*
X54197284Y-119161426D01*
X54208979Y-119149730D01*
X54220639Y-119138674D01*
X54232256Y-119128262D01*
X54243827Y-119118497D01*
X54255346Y-119109385D01*
X54266809Y-119100926D01*
X54278212Y-119093126D01*
X54289548Y-119085988D01*
X54300812Y-119079514D01*
X54312001Y-119073713D01*
X54323112Y-119068582D01*
X54334136Y-119064128D01*
X54345072Y-119060355D01*
X54355913Y-119057266D01*
X54366654Y-119054864D01*
X54377291Y-119053155D01*
X54387818Y-119052140D01*
X54398233Y-119051823D01*
X54408529Y-119052210D01*
X54418702Y-119053302D01*
X54428745Y-119055103D01*
X54428747Y-119055105D01*
X54438609Y-119057728D01*
X54448288Y-119061048D01*
X54457782Y-119065060D01*
X54467086Y-119069759D01*
X54476198Y-119075139D01*
X54485117Y-119081195D01*
X54493838Y-119087921D01*
X54502360Y-119095313D01*
X54518792Y-119112071D01*
X54534390Y-119131426D01*
X54549132Y-119153336D01*
X54562996Y-119177755D01*
X54575961Y-119204644D01*
X54588002Y-119233958D01*
X54599098Y-119265656D01*
X54609226Y-119299692D01*
X54618363Y-119336026D01*
X54626489Y-119374617D01*
X54633580Y-119415417D01*
X54639613Y-119458387D01*
X54671861Y-119429344D01*
X54703522Y-119402645D01*
X54734556Y-119378304D01*
X54764914Y-119356343D01*
X54794554Y-119336777D01*
X54823432Y-119319629D01*
X54851502Y-119304911D01*
X54865219Y-119298471D01*
X54878719Y-119292647D01*
X54891994Y-119287439D01*
X54905039Y-119282852D01*
X54917849Y-119278888D01*
X54930418Y-119275547D01*
X54942740Y-119272833D01*
X54954809Y-119270750D01*
X54966620Y-119269295D01*
X54978170Y-119268476D01*
X54989450Y-119268292D01*
X55000455Y-119268747D01*
X55011179Y-119269842D01*
X55021620Y-119271580D01*
X55031767Y-119273964D01*
X55041620Y-119276995D01*
X55051168Y-119280676D01*
X55060408Y-119285008D01*
X55077821Y-119295714D01*
X55093794Y-119308907D01*
X55108315Y-119324540D01*
X55121377Y-119342566D01*
X55132967Y-119362938D01*
X55143074Y-119385608D01*
X55151688Y-119410529D01*
X55158799Y-119437655D01*
X55164398Y-119466938D01*
X55168469Y-119498332D01*
X55171007Y-119531787D01*
X55171998Y-119567259D01*
X55171432Y-119604697D01*
X55169299Y-119644059D01*
X55165589Y-119685295D01*
X55160290Y-119728356D01*
X55198926Y-119708708D01*
X55236389Y-119691163D01*
X55272636Y-119675729D01*
X55307614Y-119662413D01*
X55341280Y-119651219D01*
X55373586Y-119642154D01*
X55404481Y-119635227D01*
X55433917Y-119630439D01*
X55448075Y-119628849D01*
X55461849Y-119627799D01*
X55475237Y-119627286D01*
X55488229Y-119627314D01*
X55500822Y-119627881D01*
X55513008Y-119628989D01*
X55524782Y-119630639D01*
X55536141Y-119632830D01*
X55547072Y-119635565D01*
X55557574Y-119638843D01*
X55567641Y-119642668D01*
X55577266Y-119647037D01*
X55586444Y-119651953D01*
X55595166Y-119657414D01*
X55603430Y-119663425D01*
X55611228Y-119669984D01*
X55621422Y-119680307D01*
X55630580Y-119691641D01*
X55638702Y-119703968D01*
X55645792Y-119717269D01*
X55656904Y-119746707D01*
X55663943Y-119779800D01*
X55666955Y-119816386D01*
X55665968Y-119856310D01*
X55661022Y-119899415D01*
X55652151Y-119945539D01*
X55639394Y-119994528D01*
X55622784Y-120046222D01*
X55602356Y-120100462D01*
X55578150Y-120157094D01*
X55550198Y-120215955D01*
X55518538Y-120276891D01*
X55483204Y-120339741D01*
X55444235Y-120404349D01*
X55444364Y-120404396D01*
X55444123Y-120404663D01*
X55443884Y-120404932D01*
X55403843Y-120467300D01*
X55361214Y-120530087D01*
X55316147Y-120593097D01*
X55268793Y-120656136D01*
X55219298Y-120719010D01*
X55167810Y-120781526D01*
X55114482Y-120843492D01*
X55059460Y-120904712D01*
X55009198Y-120958255D01*
X54958200Y-121010535D01*
X54906594Y-121061436D01*
X54854509Y-121110835D01*
X54802072Y-121158617D01*
X54749412Y-121204661D01*
X54696653Y-121248848D01*
X54643930Y-121291058D01*
X54640937Y-121294378D01*
X53782416Y-122027033D01*
X53791629Y-122137268D01*
X53805159Y-122257273D01*
X53822430Y-122385143D01*
X53842865Y-122518980D01*
X53890926Y-122796956D01*
X53944737Y-123075997D01*
X53999691Y-123340908D01*
X54051185Y-123576483D01*
X54125359Y-123898833D01*
X54129013Y-123912274D01*
X54132699Y-123926424D01*
X54136358Y-123941139D01*
X54139940Y-123956264D01*
X54143391Y-123971652D01*
X54146656Y-123987154D01*
X54149683Y-124002621D01*
X54152416Y-124017905D01*
X54158914Y-124058353D01*
X54164098Y-124098904D01*
X54167965Y-124139530D01*
X54170523Y-124180200D01*
X54171773Y-124220882D01*
X54171716Y-124261547D01*
X54170356Y-124302160D01*
X54167697Y-124342693D01*
X54163737Y-124383114D01*
X54158482Y-124423392D01*
X54151935Y-124463495D01*
X54144096Y-124503395D01*
X54134969Y-124543058D01*
X54124557Y-124582452D01*
X54112863Y-124621549D01*
X54099886Y-124660316D01*
X54096023Y-124671815D01*
X54096000Y-124671880D01*
X54071992Y-124732948D01*
X54045184Y-124792081D01*
X54015681Y-124849231D01*
X53983585Y-124904350D01*
X53948999Y-124957391D01*
X53912028Y-125008306D01*
X53872773Y-125057048D01*
X53831338Y-125103569D01*
X53787828Y-125147821D01*
X53742344Y-125189756D01*
X53694990Y-125229328D01*
X53645871Y-125266489D01*
X53595087Y-125301189D01*
X53542745Y-125333382D01*
X53488947Y-125363023D01*
X53433794Y-125390059D01*
X53377393Y-125414447D01*
X53319843Y-125436137D01*
X53261252Y-125455082D01*
X53201721Y-125471234D01*
X53141354Y-125484548D01*
X53080252Y-125494972D01*
X53018520Y-125502459D01*
X52956264Y-125506966D01*
X52893582Y-125508442D01*
X52830582Y-125506836D01*
X52767364Y-125502108D01*
X52704033Y-125494204D01*
X52640691Y-125483078D01*
X52577444Y-125468686D01*
X52514394Y-125450974D01*
X52451642Y-125429900D01*
X52390024Y-125405708D01*
X52330341Y-125378748D01*
X52272637Y-125349117D01*
X52216965Y-125316925D01*
X52163369Y-125282272D01*
X52111900Y-125245257D01*
X52062607Y-125205991D01*
X52015537Y-125164570D01*
X51970740Y-125121099D01*
X51928264Y-125075682D01*
X51888157Y-125028422D01*
X51850468Y-124979419D01*
X51815245Y-124928779D01*
X51782538Y-124876603D01*
X51752393Y-124822996D01*
X51724863Y-124768059D01*
X51699991Y-124711895D01*
X51677828Y-124654607D01*
X51658425Y-124596302D01*
X51641828Y-124537076D01*
X51628083Y-124477035D01*
X51617242Y-124416282D01*
X51609354Y-124354920D01*
X51604467Y-124293055D01*
X51602629Y-124230783D01*
X51603889Y-124168212D01*
X51608292Y-124105443D01*
X51615892Y-124042580D01*
X51626734Y-123979725D01*
X51640867Y-123916982D01*
X51658343Y-123854453D01*
X51679204Y-123792238D01*
X51694064Y-123753968D01*
X51710132Y-123716268D01*
X51727383Y-123679164D01*
X51745806Y-123642681D01*
X51765377Y-123606848D01*
X51786084Y-123571688D01*
X51807902Y-123537227D01*
X51830818Y-123503490D01*
X51854813Y-123470507D01*
X51879867Y-123438299D01*
X51905962Y-123406894D01*
X51933083Y-123376317D01*
X51961210Y-123346595D01*
X51990323Y-123317754D01*
X52020407Y-123289818D01*
X52051441Y-123262814D01*
X52063139Y-123252648D01*
X52074438Y-123242995D01*
X52085532Y-123233751D01*
X52096606Y-123224812D01*
X52107851Y-123216073D01*
X52119459Y-123207433D01*
X52131616Y-123198783D01*
X52144512Y-123190025D01*
X52406014Y-122997959D01*
X52819510Y-122683341D01*
X53047515Y-122502707D01*
X53270633Y-122318591D01*
X53474566Y-122140052D01*
X53564871Y-122055700D01*
X53645021Y-121976135D01*
X53458483Y-120864002D01*
X53458328Y-120859430D01*
X53445074Y-120793215D01*
X53433062Y-120725469D01*
X53422319Y-120656362D01*
X53412862Y-120586066D01*
X53404715Y-120514756D01*
X53397901Y-120442606D01*
X53392436Y-120369789D01*
X53388350Y-120296480D01*
X53385698Y-120215013D01*
X53384788Y-120134072D01*
X53385611Y-120053895D01*
X53388155Y-119974718D01*
X53392411Y-119896780D01*
X53398368Y-119820315D01*
X53406017Y-119745559D01*
X53415345Y-119672755D01*
X53415092Y-119665802D01*
X53416227Y-119666214D01*
X53427867Y-119591812D01*
X53441157Y-119521077D01*
X53456022Y-119454147D01*
X53472392Y-119391170D01*
X53490190Y-119332288D01*
X53509346Y-119277646D01*
X53519407Y-119251958D01*
X53529782Y-119227384D01*
X53540459Y-119203942D01*
X53551429Y-119181649D01*
X53562683Y-119160525D01*
X53574211Y-119140584D01*
X53586004Y-119121848D01*
X53598055Y-119104333D01*
X53610351Y-119088057D01*
X53622887Y-119073039D01*
X53635652Y-119059294D01*
X53648634Y-119046843D01*
X53661829Y-119035704D01*
X53675223Y-119025892D01*
X53688810Y-119017430D01*
X53702581Y-119010329D01*
X53716525Y-119004613D01*
X53730633Y-119000298D01*
X53744896Y-118997400D01*
X53759306Y-118995941D01*
X53769508Y-118995928D01*
X53779713Y-118996635D01*
D12*
%TO.C,G\u002A\u002A\u002A*%
G36*
X143346295Y-165075457D02*
G01*
X143824303Y-165227621D01*
X144357119Y-165488637D01*
X144928927Y-165849800D01*
X145523913Y-166302402D01*
X146126262Y-166837734D01*
X146615939Y-167333781D01*
X147335785Y-168171136D01*
X147916038Y-168985476D01*
X148351761Y-169767989D01*
X148638015Y-170509863D01*
X148767427Y-171173548D01*
X148810981Y-171658978D01*
X149200396Y-171722632D01*
X149882827Y-171897326D01*
X150600739Y-172191764D01*
X151304476Y-172579314D01*
X151944381Y-173033347D01*
X152376357Y-173425902D01*
X152853960Y-174001154D01*
X153249964Y-174641262D01*
X153555663Y-175317773D01*
X153762348Y-176002229D01*
X153861313Y-176666174D01*
X153843849Y-177281152D01*
X153712333Y-177792027D01*
X153597109Y-178031391D01*
X153451602Y-178209124D01*
X153224365Y-178381644D01*
X153104897Y-178458188D01*
X152856780Y-178599123D01*
X152660527Y-178685014D01*
X152567820Y-178698277D01*
X152581367Y-178640821D01*
X152736557Y-178539866D01*
X152858492Y-178478791D01*
X153208411Y-178257868D01*
X153450701Y-177965250D01*
X153592233Y-177581796D01*
X153639880Y-177088361D01*
X153600510Y-176465805D01*
X153595670Y-176425078D01*
X153460575Y-175747406D01*
X153215256Y-175105817D01*
X152840605Y-174453783D01*
X152705055Y-174256121D01*
X152118477Y-173568502D01*
X151411332Y-172976167D01*
X150615124Y-172499920D01*
X149761362Y-172160570D01*
X149381396Y-172061259D01*
X148804879Y-171934436D01*
X148680063Y-172235075D01*
X148500726Y-172535819D01*
X148260866Y-172764202D01*
X147990423Y-172914555D01*
X147719334Y-172981208D01*
X147477538Y-172958490D01*
X147294974Y-172840730D01*
X147242601Y-172718217D01*
X147206136Y-172632916D01*
X147379111Y-172632916D01*
X147470170Y-172758087D01*
X147648815Y-172781961D01*
X147878543Y-172718463D01*
X148122857Y-172581518D01*
X148345253Y-172385053D01*
X148470051Y-172216703D01*
X148557517Y-172035102D01*
X148577530Y-171918512D01*
X148575167Y-171913539D01*
X148465160Y-171885158D01*
X148228029Y-171912659D01*
X147895065Y-171992101D01*
X147851023Y-172004685D01*
X147646878Y-172124148D01*
X147474604Y-172322168D01*
X147381104Y-172536305D01*
X147379111Y-172632916D01*
X147206136Y-172632916D01*
X147201580Y-172622259D01*
X147195587Y-172516232D01*
X147280237Y-172249816D01*
X147500264Y-172004922D01*
X147822012Y-171813146D01*
X148016766Y-171745333D01*
X148338103Y-171648368D01*
X148525568Y-171554663D01*
X148611284Y-171434004D01*
X148627371Y-171256177D01*
X148622548Y-171175523D01*
X148501918Y-170552338D01*
X148239032Y-169877672D01*
X147846035Y-169169561D01*
X147335077Y-168446043D01*
X146718305Y-167725157D01*
X146007866Y-167024938D01*
X145574036Y-166648898D01*
X145037154Y-166235790D01*
X144495451Y-165875482D01*
X143981213Y-165586526D01*
X143526721Y-165387470D01*
X143239268Y-165307393D01*
X142839950Y-165296653D01*
X142496191Y-165422369D01*
X142200419Y-165691956D01*
X141945061Y-166112827D01*
X141722542Y-166692401D01*
X141679374Y-166834634D01*
X141568516Y-167160215D01*
X141481331Y-167324614D01*
X141427601Y-167335412D01*
X141417108Y-167200190D01*
X141459633Y-166926532D01*
X141512909Y-166705624D01*
X141685990Y-166170162D01*
X141897607Y-165763191D01*
X142176245Y-165444160D01*
X142550387Y-165172525D01*
X142617956Y-165132521D01*
X142938907Y-165040855D01*
X143346295Y-165075457D01*
G37*
G36*
X140871380Y-167399701D02*
G01*
X141238470Y-167536093D01*
X141687570Y-167769498D01*
X142096643Y-168013389D01*
X143050715Y-168653848D01*
X143933230Y-169347788D01*
X144722638Y-170074766D01*
X145397387Y-170814337D01*
X145935923Y-171546054D01*
X146092508Y-171803978D01*
X146305243Y-172202260D01*
X146439038Y-172538340D01*
X146503875Y-172867031D01*
X146509736Y-173243143D01*
X146466604Y-173721490D01*
X146456714Y-173803903D01*
X146374300Y-174477289D01*
X146776573Y-174225921D01*
X147319064Y-173943491D01*
X147835888Y-173800969D01*
X148354190Y-173783791D01*
X148963402Y-173907848D01*
X149561947Y-174182028D01*
X150133896Y-174587205D01*
X150663318Y-175104250D01*
X151134283Y-175714035D01*
X151530861Y-176397434D01*
X151837122Y-177135318D01*
X152037135Y-177908560D01*
X152088773Y-178267998D01*
X152116185Y-178794348D01*
X152061545Y-179202526D01*
X151910595Y-179529529D01*
X151649076Y-179812357D01*
X151429486Y-179978774D01*
X150901961Y-180273290D01*
X150522711Y-180394446D01*
X149923812Y-180472816D01*
X149207952Y-180477864D01*
X148408711Y-180413791D01*
X147559674Y-180284800D01*
X146694425Y-180095090D01*
X145846546Y-179848862D01*
X145662684Y-179786480D01*
X145356914Y-179672417D01*
X145202901Y-179599446D01*
X145188150Y-179567470D01*
X145300169Y-179576396D01*
X145526464Y-179626130D01*
X145854543Y-179716577D01*
X146093087Y-179789726D01*
X146741287Y-179967999D01*
X147452201Y-180117480D01*
X148176592Y-180231074D01*
X148865226Y-180301682D01*
X149468867Y-180322207D01*
X149716355Y-180312008D01*
X150314627Y-180219656D01*
X150881317Y-180047211D01*
X150923592Y-180030003D01*
X151228818Y-179896003D01*
X151423442Y-179784672D01*
X151556085Y-179661044D01*
X151675369Y-179490149D01*
X151676302Y-179488655D01*
X151844084Y-179068500D01*
X151893326Y-178562840D01*
X151834432Y-177995925D01*
X151677812Y-177392006D01*
X151433869Y-176775333D01*
X151113011Y-176170158D01*
X150725642Y-175600731D01*
X150282171Y-175091305D01*
X149793002Y-174666129D01*
X149531838Y-174491084D01*
X148918435Y-174191399D01*
X148334990Y-174056104D01*
X147769902Y-174085431D01*
X147211574Y-174279616D01*
X146771794Y-174546760D01*
X146338327Y-174857589D01*
X146036184Y-176062722D01*
X145861645Y-176710082D01*
X145696926Y-177209570D01*
X145532748Y-177581569D01*
X145359834Y-177846461D01*
X145168906Y-178024628D01*
X145132021Y-178048990D01*
X144861654Y-178141043D01*
X144621635Y-178087425D01*
X144462421Y-177934176D01*
X144439143Y-177911770D01*
X144341353Y-177637712D01*
X144341633Y-177571702D01*
X144621659Y-177571702D01*
X144680498Y-177797907D01*
X144802362Y-177885254D01*
X144965401Y-177841413D01*
X145147764Y-177674049D01*
X145327597Y-177390830D01*
X145366139Y-177310472D01*
X145470284Y-177045975D01*
X145594502Y-176677753D01*
X145718861Y-176266617D01*
X145775632Y-176061076D01*
X145871246Y-175690238D01*
X145920276Y-175461962D01*
X145924090Y-175356408D01*
X145884056Y-175353735D01*
X145820268Y-175413531D01*
X145548806Y-175741174D01*
X145279273Y-176126883D01*
X145031743Y-176534518D01*
X144826287Y-176927936D01*
X144682980Y-177270994D01*
X144621892Y-177527552D01*
X144621659Y-177571702D01*
X144341633Y-177571702D01*
X144342520Y-177362437D01*
X144423556Y-177097433D01*
X144592547Y-176742236D01*
X144826591Y-176334656D01*
X145102787Y-175912504D01*
X145398234Y-175513588D01*
X145624274Y-175246231D01*
X145811453Y-175026413D01*
X145949739Y-174817269D01*
X146050599Y-174583523D01*
X146125501Y-174289897D01*
X146185914Y-173901114D01*
X146243304Y-173381900D01*
X146249022Y-173324436D01*
X146255427Y-172832977D01*
X146163208Y-172373490D01*
X145959242Y-171911425D01*
X145630404Y-171412227D01*
X145421510Y-171145796D01*
X144955933Y-170613831D01*
X144432876Y-170081018D01*
X143871567Y-169561656D01*
X143291236Y-169070039D01*
X142711114Y-168620466D01*
X142150431Y-168227233D01*
X141628414Y-167904636D01*
X141164294Y-167666974D01*
X140777303Y-167528541D01*
X140517755Y-167499995D01*
X140139912Y-167607511D01*
X139787931Y-167845218D01*
X139549207Y-168125497D01*
X139449056Y-168336147D01*
X139337253Y-168654956D01*
X139233487Y-169023676D01*
X139204867Y-169144151D01*
X139103582Y-169901650D01*
X139112642Y-170772432D01*
X139229873Y-171743226D01*
X139453103Y-172800770D01*
X139780160Y-173931795D01*
X140165653Y-175012340D01*
X140402684Y-175551673D01*
X140708635Y-176139997D01*
X141058862Y-176737951D01*
X141428727Y-177306174D01*
X141793587Y-177805307D01*
X142128803Y-178195987D01*
X142208285Y-178275155D01*
X142779610Y-178772121D01*
X143332149Y-179142819D01*
X143915488Y-179415897D01*
X144501737Y-179600308D01*
X144900009Y-179719008D01*
X145275890Y-179857343D01*
X145572267Y-179993207D01*
X145673763Y-180053974D01*
X145882481Y-180184682D01*
X146033864Y-180253320D01*
X146074907Y-180255249D01*
X146206255Y-180246462D01*
X146451184Y-180286718D01*
X146765384Y-180363854D01*
X147104552Y-180465709D01*
X147424379Y-180580123D01*
X147680559Y-180694934D01*
X147684563Y-180697062D01*
X148052748Y-180934432D01*
X148256825Y-181168948D01*
X148301735Y-181407603D01*
X148268751Y-181524405D01*
X148080434Y-181784833D01*
X147805230Y-181910381D01*
X147461286Y-181898991D01*
X147066749Y-181748603D01*
X146939781Y-181675169D01*
X146630668Y-181443127D01*
X146288214Y-181125842D01*
X146057216Y-180875276D01*
X145970143Y-180780828D01*
X145805339Y-180563201D01*
X146197071Y-180563201D01*
X146286072Y-180732271D01*
X146458036Y-180944931D01*
X146685459Y-181173896D01*
X146940832Y-181391880D01*
X147196649Y-181571596D01*
X147425404Y-181685759D01*
X147460451Y-181696922D01*
X147662776Y-181697812D01*
X147877072Y-181620859D01*
X148045677Y-181497541D01*
X148110927Y-181359335D01*
X148109003Y-181342879D01*
X148013086Y-181208246D01*
X147796308Y-181044888D01*
X147498559Y-180871330D01*
X147159728Y-180706096D01*
X146819703Y-180567707D01*
X146518376Y-180474687D01*
X146295633Y-180445560D01*
X146218544Y-180465006D01*
X146197071Y-180563201D01*
X145805339Y-180563201D01*
X145748721Y-180488436D01*
X145643260Y-180450260D01*
X145413857Y-180426301D01*
X145105603Y-180420714D01*
X145031529Y-180422367D01*
X144365291Y-180411888D01*
X143782236Y-180342377D01*
X143303308Y-180219053D01*
X142949455Y-180047132D01*
X142755367Y-179855371D01*
X142614482Y-179771006D01*
X142336121Y-179721983D01*
X142142048Y-179712662D01*
X141897632Y-179690556D01*
X141523321Y-179633319D01*
X141053394Y-179547307D01*
X140522129Y-179438870D01*
X139963804Y-179314361D01*
X139855588Y-179288961D01*
X139323375Y-179167412D01*
X138837545Y-179064819D01*
X138425466Y-178986290D01*
X138114507Y-178936936D01*
X137932037Y-178921867D01*
X137905928Y-178924932D01*
X137744780Y-178935745D01*
X137656050Y-178888298D01*
X137684085Y-178811134D01*
X137705494Y-178795952D01*
X137849201Y-178745747D01*
X138074550Y-178731546D01*
X138397306Y-178755248D01*
X138833231Y-178818754D01*
X139398090Y-178923965D01*
X140107647Y-179072781D01*
X140237417Y-179101151D01*
X140790653Y-179221318D01*
X141302496Y-179329970D01*
X141744866Y-179421343D01*
X142089681Y-179489679D01*
X142308864Y-179529218D01*
X142355988Y-179535777D01*
X142623048Y-179563730D01*
X142302267Y-179466227D01*
X141894816Y-179320389D01*
X141424584Y-179108425D01*
X140865760Y-178817884D01*
X140319722Y-178510203D01*
X139716444Y-178166376D01*
X139236349Y-177905143D01*
X138860150Y-177717567D01*
X138568565Y-177594715D01*
X138342306Y-177527653D01*
X138162092Y-177507445D01*
X138155459Y-177507486D01*
X137968368Y-177496703D01*
X137940941Y-177456314D01*
X137973990Y-177430505D01*
X138203693Y-177356580D01*
X138515849Y-177378040D01*
X138920736Y-177498326D01*
X139428629Y-177720875D01*
X140049808Y-178049124D01*
X140367016Y-178231057D01*
X140977362Y-178583665D01*
X141466708Y-178855559D01*
X141856517Y-179057566D01*
X142168244Y-179200517D01*
X142423348Y-179295240D01*
X142544654Y-179330031D01*
X142774559Y-179411365D01*
X142857400Y-179496370D01*
X142852652Y-179517855D01*
X142855575Y-179684009D01*
X142996693Y-179858294D01*
X143249232Y-180010631D01*
X143315230Y-180037515D01*
X143583874Y-180109127D01*
X143962392Y-180173279D01*
X144391325Y-180223339D01*
X144811215Y-180252676D01*
X145162605Y-180254659D01*
X145226301Y-180250645D01*
X145403950Y-180231121D01*
X145434205Y-180200409D01*
X145340266Y-180138037D01*
X145188720Y-180075933D01*
X144921497Y-179988837D01*
X144587342Y-179892252D01*
X144460277Y-179858203D01*
X143597128Y-179550636D01*
X142800941Y-179096861D01*
X142069694Y-178494569D01*
X141401360Y-177741449D01*
X140793920Y-176835191D01*
X140245347Y-175773483D01*
X139753619Y-174554016D01*
X139712486Y-174437605D01*
X139413055Y-173445756D01*
X139165191Y-172344886D01*
X138981037Y-171190655D01*
X138952369Y-170953486D01*
X138909416Y-170317354D01*
X138942030Y-169734206D01*
X139015554Y-169285214D01*
X139149794Y-168704222D01*
X139297882Y-168264475D01*
X139475182Y-167937895D01*
X139697058Y-167696401D01*
X139978874Y-167511911D01*
X139988604Y-167506866D01*
X140273804Y-167391661D01*
X140558944Y-167353748D01*
X140871380Y-167399701D01*
G37*
G36*
X117782044Y-165132520D02*
G01*
X118173334Y-165400477D01*
X118464758Y-165709614D01*
X118684798Y-166100481D01*
X118861934Y-166613625D01*
X118887091Y-166705624D01*
X118965116Y-167056650D01*
X118984407Y-167273665D01*
X118954748Y-167349092D01*
X118885919Y-167275346D01*
X118787704Y-167044848D01*
X118720627Y-166834634D01*
X118504028Y-166220871D01*
X118256178Y-165767361D01*
X117969500Y-165466692D01*
X117636424Y-165311446D01*
X117249374Y-165294209D01*
X117160732Y-165307393D01*
X116738009Y-165437098D01*
X116235410Y-165681083D01*
X115678953Y-166021492D01*
X115094654Y-166440469D01*
X114508531Y-166920157D01*
X113946604Y-167442700D01*
X113736579Y-167657459D01*
X113311986Y-168139899D01*
X112903617Y-168668960D01*
X112536234Y-169207490D01*
X112234602Y-169718341D01*
X112023484Y-170164359D01*
X111974850Y-170300500D01*
X111836112Y-170810205D01*
X111779150Y-171201264D01*
X111804584Y-171463726D01*
X111895177Y-171580195D01*
X112066985Y-171647581D01*
X112315174Y-171726208D01*
X112383234Y-171745333D01*
X112744304Y-171897347D01*
X113021019Y-172118779D01*
X113179721Y-172378036D01*
X113204413Y-172516232D01*
X113151056Y-172772904D01*
X112997594Y-172926793D01*
X112773962Y-172983569D01*
X112510103Y-172948904D01*
X112235953Y-172828467D01*
X111981450Y-172627928D01*
X111776537Y-172352957D01*
X111719938Y-172235075D01*
X111595122Y-171934437D01*
X111018604Y-172061258D01*
X110149685Y-172334814D01*
X109324665Y-172754283D01*
X108575052Y-173298860D01*
X107932349Y-173947736D01*
X107694946Y-174256122D01*
X107279220Y-174919886D01*
X106998366Y-175559713D01*
X106833277Y-176222134D01*
X106804330Y-176425078D01*
X106760094Y-177055762D01*
X106802473Y-177556206D01*
X106938337Y-177945554D01*
X107174560Y-178242946D01*
X107518007Y-178467527D01*
X107541508Y-178478790D01*
X107759411Y-178596104D01*
X107844380Y-178676491D01*
X107832180Y-178698277D01*
X107720964Y-178678580D01*
X107516318Y-178585258D01*
X107295103Y-178458188D01*
X107022950Y-178272725D01*
X106852227Y-178103654D01*
X106731485Y-177894555D01*
X106687667Y-177792026D01*
X106552075Y-177249545D01*
X106541146Y-176631184D01*
X106646173Y-175965396D01*
X106858449Y-175280641D01*
X107169264Y-174605375D01*
X107569916Y-173968053D01*
X108023644Y-173425902D01*
X108576894Y-172937899D01*
X109233639Y-172495107D01*
X109944221Y-172124158D01*
X110497897Y-171913090D01*
X111825115Y-171913090D01*
X111825231Y-172056915D01*
X111939660Y-172245181D01*
X112131895Y-172445330D01*
X112365433Y-172624806D01*
X112603771Y-172751048D01*
X112810032Y-172791529D01*
X112975888Y-172718744D01*
X113020889Y-172632917D01*
X112986602Y-172434966D01*
X112849257Y-172220807D01*
X112655757Y-172052878D01*
X112548977Y-172004685D01*
X112207708Y-171919576D01*
X111957729Y-171885513D01*
X111830705Y-171906502D01*
X111825115Y-171913090D01*
X110497897Y-171913090D01*
X110658983Y-171851682D01*
X111199604Y-171722632D01*
X111453820Y-171681079D01*
X111589020Y-171658979D01*
X111632573Y-171173549D01*
X111771184Y-170478812D01*
X112063988Y-169735003D01*
X112506050Y-168950934D01*
X113092428Y-168135419D01*
X113784062Y-167333782D01*
X114380617Y-166736944D01*
X114982812Y-166215676D01*
X115574834Y-165778688D01*
X116140869Y-165434686D01*
X116665101Y-165192378D01*
X117131715Y-165060469D01*
X117524897Y-165047670D01*
X117782044Y-165132520D01*
G37*
G36*
X120195479Y-167413149D02*
G01*
X120411397Y-167506867D01*
X120695290Y-167690055D01*
X120918771Y-167929389D01*
X121097206Y-168252951D01*
X121245960Y-168688818D01*
X121380396Y-169265073D01*
X121384448Y-169285215D01*
X121474511Y-169892969D01*
X121486238Y-170480572D01*
X121447631Y-170953486D01*
X121277976Y-172111770D01*
X121042132Y-173228055D01*
X120752242Y-174246681D01*
X120687513Y-174437605D01*
X120200753Y-175671243D01*
X119657328Y-176746915D01*
X119055215Y-177666934D01*
X118392392Y-178433609D01*
X117666833Y-179049249D01*
X116876516Y-179516165D01*
X116019416Y-179836668D01*
X115939723Y-179858203D01*
X115593422Y-179954413D01*
X115296537Y-180046703D01*
X115097810Y-180119573D01*
X115059734Y-180138037D01*
X114965425Y-180200860D01*
X114997103Y-180231346D01*
X115173699Y-180250645D01*
X115501419Y-180255749D01*
X115911051Y-180232003D01*
X116343137Y-180186038D01*
X116738221Y-180124486D01*
X117036842Y-180053978D01*
X117084770Y-180037516D01*
X117357691Y-179893789D01*
X117524922Y-179721673D01*
X117559693Y-179551246D01*
X117547349Y-179517856D01*
X117588911Y-179433643D01*
X117782089Y-179350325D01*
X117855345Y-179330031D01*
X118088868Y-179256771D01*
X118367471Y-179141108D01*
X118712613Y-178972213D01*
X119145752Y-178739256D01*
X119688346Y-178431410D01*
X120032984Y-178231057D01*
X120708156Y-177854419D01*
X121265448Y-177585018D01*
X121715135Y-177419419D01*
X122067496Y-177354183D01*
X122332807Y-177385870D01*
X122426011Y-177430505D01*
X122461723Y-177483939D01*
X122340883Y-177506447D01*
X122244541Y-177507487D01*
X122066829Y-177525776D01*
X121844495Y-177590166D01*
X121558203Y-177709633D01*
X121188614Y-177893155D01*
X120716394Y-178149712D01*
X120122206Y-178488279D01*
X120082220Y-178511416D01*
X119426447Y-178878629D01*
X118879300Y-179156196D01*
X118414470Y-179356777D01*
X118097733Y-179466226D01*
X117776952Y-179563730D01*
X118044013Y-179535777D01*
X118203395Y-179509750D01*
X118499956Y-179452557D01*
X118905614Y-179369958D01*
X119392293Y-179267713D01*
X119931908Y-179151583D01*
X120162583Y-179101152D01*
X120897091Y-178945085D01*
X121484343Y-178832932D01*
X121940105Y-178762793D01*
X122280142Y-178732764D01*
X122520216Y-178740948D01*
X122676093Y-178785445D01*
X122694507Y-178795953D01*
X122748875Y-178875479D01*
X122678309Y-178930539D01*
X122527163Y-178932597D01*
X122494073Y-178924933D01*
X122356770Y-178928392D01*
X122082534Y-178967712D01*
X121698734Y-179037785D01*
X121232737Y-179133499D01*
X120711916Y-179249745D01*
X120544412Y-179288961D01*
X119984810Y-179415845D01*
X119445639Y-179527887D01*
X118961174Y-179618731D01*
X118565696Y-179682029D01*
X118293483Y-179711425D01*
X118257953Y-179712662D01*
X117918430Y-179740079D01*
X117700711Y-179806488D01*
X117644634Y-179855372D01*
X117421120Y-180066532D01*
X117053698Y-180233786D01*
X116563313Y-180351918D01*
X115970915Y-180415710D01*
X115368471Y-180422367D01*
X115048901Y-180423347D01*
X114798240Y-180443611D01*
X114661580Y-180479009D01*
X114651279Y-180488435D01*
X114406603Y-180808170D01*
X114084446Y-181153081D01*
X113742538Y-181465651D01*
X113460219Y-181675169D01*
X113053919Y-181868142D01*
X112692706Y-181921491D01*
X112394725Y-181837278D01*
X112178126Y-181617560D01*
X112131250Y-181524405D01*
X112109635Y-181342879D01*
X112290998Y-181342879D01*
X112339587Y-181480744D01*
X112498610Y-181607584D01*
X112710403Y-181691923D01*
X112917302Y-181702282D01*
X112939549Y-181696922D01*
X113160776Y-181596970D01*
X113413856Y-181426712D01*
X113671286Y-181213433D01*
X113905558Y-180984418D01*
X114089163Y-180766954D01*
X114194595Y-180588327D01*
X114194349Y-180475821D01*
X114181456Y-180465006D01*
X114022090Y-180448919D01*
X113761161Y-180507395D01*
X113438556Y-180621910D01*
X113094168Y-180773943D01*
X112767883Y-180944967D01*
X112499590Y-181116464D01*
X112329180Y-181269905D01*
X112290998Y-181342879D01*
X112109635Y-181342879D01*
X112102306Y-181281333D01*
X112164396Y-181166936D01*
X112230185Y-181045724D01*
X112519823Y-180810581D01*
X112715438Y-180697062D01*
X112969962Y-180582363D01*
X113288984Y-180467827D01*
X113628198Y-180365615D01*
X113943295Y-180287890D01*
X114189971Y-180246813D01*
X114323917Y-180254543D01*
X114325093Y-180255250D01*
X114422394Y-180232410D01*
X114605158Y-180133391D01*
X114726238Y-180053975D01*
X114960627Y-179927784D01*
X115303419Y-179787936D01*
X115697501Y-179656538D01*
X115898264Y-179600308D01*
X116550858Y-179390095D01*
X117128453Y-179107803D01*
X117680633Y-178724780D01*
X118191716Y-178275156D01*
X118515151Y-177919223D01*
X118874656Y-177444576D01*
X119245591Y-176890573D01*
X119603315Y-176296578D01*
X119923185Y-175701950D01*
X120180562Y-175146049D01*
X120234347Y-175012340D01*
X120653887Y-173826034D01*
X120971573Y-172701157D01*
X121185233Y-171650968D01*
X121292696Y-170688738D01*
X121291790Y-169827731D01*
X121195134Y-169144152D01*
X121098194Y-168771752D01*
X120986839Y-168430396D01*
X120880756Y-168178331D01*
X120850793Y-168125497D01*
X120573673Y-167811945D01*
X120223780Y-167587402D01*
X119930503Y-167499731D01*
X119633940Y-167528259D01*
X119242831Y-167668587D01*
X118776072Y-167906802D01*
X118252566Y-168228988D01*
X117691207Y-168621230D01*
X117110895Y-169069616D01*
X116530528Y-169560229D01*
X115969005Y-170079157D01*
X115445223Y-170612484D01*
X114978490Y-171145796D01*
X114584208Y-171675526D01*
X114321176Y-172151328D01*
X114176273Y-172607752D01*
X114136373Y-173079353D01*
X114150979Y-173324436D01*
X114208678Y-173857894D01*
X114268309Y-174257565D01*
X114341341Y-174558724D01*
X114439237Y-174796649D01*
X114573469Y-175006615D01*
X114755505Y-175223898D01*
X114775726Y-175246231D01*
X115070398Y-175601528D01*
X115363438Y-176009157D01*
X115631947Y-176431302D01*
X115853022Y-176830158D01*
X116003764Y-177167913D01*
X116057480Y-177362437D01*
X116047366Y-177698397D01*
X115930729Y-177954928D01*
X115734747Y-178108398D01*
X115486595Y-178135170D01*
X115267979Y-178048990D01*
X115072836Y-177884231D01*
X114897372Y-177636403D01*
X114732309Y-177285126D01*
X114568370Y-176810018D01*
X114396277Y-176190696D01*
X114363817Y-176062722D01*
X114206790Y-175436401D01*
X114488071Y-175436401D01*
X114522239Y-175651837D01*
X114611686Y-176013211D01*
X114624369Y-176061077D01*
X114819997Y-176723826D01*
X115015274Y-177244364D01*
X115206867Y-177616934D01*
X115391448Y-177835782D01*
X115565681Y-177895147D01*
X115661647Y-177853515D01*
X115756292Y-177680506D01*
X115742502Y-177401277D01*
X115626434Y-177034271D01*
X115414251Y-176597935D01*
X115112108Y-176110712D01*
X115049357Y-176020044D01*
X114789822Y-175658728D01*
X114614602Y-175440547D01*
X114516438Y-175366205D01*
X114488071Y-175436401D01*
X114206790Y-175436401D01*
X114128400Y-175123731D01*
X114061674Y-174857590D01*
X113628206Y-174546760D01*
X113066152Y-174219886D01*
X112519616Y-174058927D01*
X111980904Y-174062060D01*
X111772110Y-174107133D01*
X111051014Y-174388613D01*
X110401853Y-174819153D01*
X109821540Y-175401403D01*
X109306994Y-176138013D01*
X109208745Y-176309422D01*
X108877258Y-176995134D01*
X108650049Y-177658378D01*
X108530433Y-178277416D01*
X108521728Y-178830510D01*
X108627249Y-179295919D01*
X108723698Y-179488655D01*
X108843062Y-179660018D01*
X108975435Y-179783863D01*
X109169435Y-179895157D01*
X109473685Y-180028869D01*
X109476408Y-180030003D01*
X110034989Y-180207886D01*
X110635231Y-180308031D01*
X110683645Y-180312008D01*
X111228328Y-180318332D01*
X111881887Y-180271129D01*
X112595082Y-180177498D01*
X113318682Y-180044538D01*
X114003450Y-179879343D01*
X114306913Y-179789727D01*
X114689660Y-179675083D01*
X114978062Y-179601097D01*
X115159625Y-179567863D01*
X115221856Y-179575476D01*
X115152263Y-179624027D01*
X114938353Y-179713614D01*
X114737316Y-179786480D01*
X113906533Y-180042433D01*
X113051188Y-180243969D01*
X112204376Y-180386972D01*
X111399184Y-180467325D01*
X110668706Y-180480914D01*
X110046031Y-180423620D01*
X109879617Y-180390720D01*
X109435157Y-180242349D01*
X109014928Y-180020062D01*
X108670251Y-179755423D01*
X108480914Y-179530448D01*
X108320325Y-179120992D01*
X108271004Y-178617257D01*
X108324046Y-178044260D01*
X108470541Y-177427020D01*
X108701585Y-176790553D01*
X109008268Y-176159877D01*
X109381686Y-175560011D01*
X109812931Y-175015970D01*
X110235955Y-174600886D01*
X110852572Y-174159319D01*
X111475697Y-173885640D01*
X112102573Y-173780154D01*
X112730445Y-173843164D01*
X113356558Y-174074976D01*
X113623427Y-174225921D01*
X114025700Y-174477289D01*
X113943285Y-173803903D01*
X113893780Y-173305866D01*
X113891798Y-172918137D01*
X113947321Y-172585905D01*
X114070332Y-172254355D01*
X114270812Y-171868677D01*
X114307492Y-171803979D01*
X114791635Y-171080106D01*
X115419762Y-170341009D01*
X116170317Y-169607135D01*
X117021751Y-168898928D01*
X117952509Y-168236832D01*
X118303358Y-168013389D01*
X118832306Y-167702559D01*
X119258636Y-167493694D01*
X119609704Y-167380218D01*
X119912866Y-167355561D01*
X120195479Y-167413149D01*
G37*
%TD*%
D14*
%TO.C,H4*%
X184623709Y-149996734D03*
%TD*%
D15*
%TO.C,DISP1*%
X125124325Y-176374035D03*
X127664325Y-176374035D03*
X130204325Y-176374035D03*
X132744325Y-176374035D03*
D16*
X135284325Y-176374035D03*
%TD*%
%TO.C,RST1*%
X133454325Y-183674035D03*
X126954325Y-183674035D03*
%TD*%
D14*
%TO.C,H6*%
X155979233Y-129173174D03*
%TD*%
%TO.C,H1*%
X55345849Y-111084148D03*
%TD*%
%TO.C,H3*%
X75784942Y-149996734D03*
%TD*%
%TO.C,H5*%
X104429417Y-129173174D03*
%TD*%
%TO.C,H7*%
X92677801Y-209409175D03*
%TD*%
%TO.C,H2*%
X205062801Y-111084148D03*
%TD*%
%TO.C,H8*%
X167730849Y-209409175D03*
%TD*%
D17*
%TO.C,S8*%
X103198989Y-140519365D03*
D18*
X111117105Y-138800080D03*
D19*
X107704325Y-143674035D03*
D18*
X113950997Y-143470097D03*
D17*
X108846167Y-150760550D03*
X112209661Y-146828705D03*
D20*
X101428974Y-143918931D03*
X104320224Y-148507032D03*
%TD*%
D17*
%TO.C,S2*%
X35689872Y-118758296D03*
D18*
X42542437Y-114434542D03*
D19*
X41002464Y-120181801D03*
D18*
X46802665Y-117853674D03*
D17*
X44499175Y-126450414D03*
X46315056Y-121605306D03*
D20*
X35189322Y-122558224D03*
X39475432Y-125880763D03*
%TD*%
D17*
%TO.C,S9*%
X218493518Y-138026045D03*
D18*
X222266137Y-130855281D03*
D19*
X223806110Y-136602540D03*
D18*
X227665168Y-131686223D03*
D17*
X229968657Y-140282963D03*
X229118702Y-135179035D03*
D20*
X219959993Y-141567153D03*
X225333142Y-142301502D03*
%TD*%
D21*
%TO.C,REF\u002A\u002A*%
X131474325Y-143776942D03*
X128934325Y-143776942D03*
X131474325Y-146316942D03*
X128934325Y-146316942D03*
X131213325Y-158405835D03*
X129308325Y-158405835D03*
%TD*%
D17*
%TO.C,S12*%
X187350060Y-121745139D03*
D18*
X189820174Y-114028208D03*
D19*
X192334753Y-119420739D03*
D18*
X195281473Y-113908993D03*
D17*
X199042776Y-121975133D03*
X197319446Y-117096339D03*
D20*
X189409163Y-124977800D03*
X194828201Y-124767955D03*
%TD*%
D17*
%TO.C,S13*%
X173610569Y-141921416D03*
D18*
X175398709Y-134018565D03*
D19*
X178373709Y-139171416D03*
D18*
X180828836Y-133423821D03*
D17*
X185278836Y-141131447D03*
X183136849Y-136421416D03*
D20*
X175943582Y-144962313D03*
X181323709Y-144280966D03*
%TD*%
D17*
%TO.C,S10*%
X214093595Y-121605306D03*
D18*
X217866214Y-114434542D03*
D19*
X219406187Y-120181801D03*
D18*
X223265245Y-115265484D03*
D17*
X225568734Y-123862224D03*
X224718779Y-118758296D03*
D20*
X215560070Y-125146414D03*
X220933219Y-125880763D03*
%TD*%
D17*
%TO.C,S20*%
X150824829Y-199337607D03*
D18*
X158785271Y-200848852D03*
D19*
X153739385Y-204001872D03*
D18*
X159569162Y-206254915D03*
D17*
X152021534Y-210971197D03*
X156653941Y-208666137D03*
D20*
X147867206Y-201775325D03*
X148735901Y-207128396D03*
%TD*%
D17*
%TO.C,S3*%
X55904694Y-132503572D03*
D18*
X63403966Y-129435441D03*
D19*
X60889387Y-134827972D03*
D18*
X67005744Y-133542409D03*
D17*
X63244442Y-141608548D03*
X65874080Y-137152372D03*
D20*
X54751899Y-136158850D03*
X58395939Y-140175188D03*
%TD*%
D17*
%TO.C,S14*%
X165110569Y-127198985D03*
D18*
X166898709Y-119296134D03*
D19*
X169873709Y-124448985D03*
D18*
X172328836Y-118701390D03*
D17*
X176778836Y-126409016D03*
X174636849Y-121698985D03*
D20*
X167443582Y-130239882D03*
X172823709Y-129558535D03*
%TD*%
D22*
%TO.C,JST1*%
X131204325Y-165174035D03*
D23*
X129204325Y-165174035D03*
%TD*%
D17*
%TO.C,S1*%
X31289948Y-135179035D03*
D18*
X38142513Y-130855281D03*
D19*
X36602540Y-136602540D03*
D18*
X42402741Y-134274413D03*
D17*
X40099251Y-142871153D03*
X41915132Y-138026045D03*
D20*
X30789398Y-138978963D03*
X35075508Y-142301502D03*
%TD*%
D17*
%TO.C,S18*%
X103754709Y-208666137D03*
D18*
X101623379Y-200848852D03*
D19*
X106669265Y-204001872D03*
D18*
X106138681Y-197774434D03*
D17*
X113686309Y-202490716D03*
X109583821Y-199337607D03*
D20*
X107242251Y-210255807D03*
X111672749Y-207128396D03*
%TD*%
D17*
%TO.C,S4*%
X63089204Y-117096339D03*
D18*
X70588476Y-114028208D03*
D19*
X68073897Y-119420739D03*
D18*
X74190254Y-118135176D03*
D17*
X70428952Y-126201315D03*
X73058590Y-121745139D03*
D20*
X61936409Y-120751617D03*
X65580449Y-124767955D03*
%TD*%
D17*
%TO.C,S16*%
X148198989Y-146828705D03*
D18*
X149291545Y-138800080D03*
D19*
X152704325Y-143674035D03*
D18*
X154649174Y-137734333D03*
D17*
X159754004Y-145024786D03*
X157209661Y-140519365D03*
D20*
X150788155Y-149654695D03*
X156088426Y-148507032D03*
%TD*%
D17*
%TO.C,S5*%
X77271802Y-136421416D03*
D18*
X85009942Y-134018565D03*
D19*
X82034942Y-139171416D03*
D18*
X88240069Y-138423821D03*
D17*
X83790069Y-146131447D03*
X86798082Y-141921416D03*
D20*
X75804815Y-139962313D03*
X79084942Y-144280966D03*
%TD*%
D17*
%TO.C,S15*%
X157949789Y-160754290D03*
D18*
X159042345Y-152725665D03*
D19*
X162455125Y-157599620D03*
D18*
X164399974Y-151659918D03*
D17*
X169504804Y-158950371D03*
X166960461Y-154444950D03*
D20*
X160538955Y-163580280D03*
X165839226Y-162432617D03*
%TD*%
D17*
%TO.C,S19*%
X166089695Y-189799060D03*
D18*
X174050137Y-191310305D03*
D19*
X169004251Y-194463325D03*
D18*
X174834028Y-196716368D03*
D17*
X167286400Y-201432650D03*
X171918807Y-199127590D03*
D20*
X163132072Y-192236778D03*
X164000767Y-197589849D03*
%TD*%
D17*
%TO.C,S6*%
X85771802Y-121698985D03*
D18*
X93509942Y-119296134D03*
D19*
X90534942Y-124448985D03*
D18*
X96740069Y-123701390D03*
D17*
X92290069Y-131409016D03*
X95298082Y-127198985D03*
D20*
X84304815Y-125239882D03*
X87584942Y-129558535D03*
%TD*%
D17*
%TO.C,S17*%
X88489844Y-199127590D03*
D18*
X86358514Y-191310305D03*
D19*
X91404400Y-194463325D03*
D18*
X90873816Y-188235887D03*
D17*
X98421444Y-192952169D03*
X94318956Y-189799060D03*
D20*
X91977386Y-200717260D03*
X96407884Y-197589849D03*
%TD*%
D17*
%TO.C,S11*%
X194534571Y-137152372D03*
D18*
X197004685Y-129435441D03*
D19*
X199519264Y-134827972D03*
D18*
X202465984Y-129316226D03*
D17*
X206227287Y-137382366D03*
X204503957Y-132503572D03*
D20*
X196593674Y-140385033D03*
X202012712Y-140175188D03*
%TD*%
D17*
%TO.C,S7*%
X93448190Y-154444950D03*
D18*
X101366306Y-152725665D03*
D19*
X97953526Y-157599620D03*
D18*
X104200198Y-157395682D03*
D17*
X99095368Y-164686135D03*
X102458862Y-160754290D03*
D20*
X91678175Y-157844516D03*
X94569425Y-162432617D03*
%TD*%
M02*
