%TF.GenerationSoftware,KiCad,Pcbnew,9.0.8-1.fc43*%
%TF.CreationDate,2026-06-16T16:27:06-06:00*%
%TF.ProjectId,chouchou,63686f75-6368-46f7-952e-6b696361645f,v1.0.0*%
%TF.SameCoordinates,Original*%
%TF.FileFunction,Legend,Bot*%
%TF.FilePolarity,Positive*%
%FSLAX46Y46*%
G04 Gerber Fmt 4.6, Leading zero omitted, Abs format (unit mm)*
G04 Created by KiCad (PCBNEW 9.0.8-1.fc43) date 2026-06-16 16:27:06*
%MOMM*%
%LPD*%
G01*
G04 APERTURE LIST*
%ADD10C,0.150000*%
%ADD11C,0.010000*%
%ADD12C,0.100000*%
%ADD13C,0.127000*%
%ADD14C,0.504000*%
%ADD15C,0.120000*%
G04 APERTURE END LIST*
D10*
X102799562Y-172203783D02*
X102751943Y-172251403D01*
X102751943Y-172251403D02*
X102609086Y-172299022D01*
X102609086Y-172299022D02*
X102513848Y-172299022D01*
X102513848Y-172299022D02*
X102370991Y-172251403D01*
X102370991Y-172251403D02*
X102275753Y-172156164D01*
X102275753Y-172156164D02*
X102228134Y-172060926D01*
X102228134Y-172060926D02*
X102180515Y-171870450D01*
X102180515Y-171870450D02*
X102180515Y-171727593D01*
X102180515Y-171727593D02*
X102228134Y-171537117D01*
X102228134Y-171537117D02*
X102275753Y-171441879D01*
X102275753Y-171441879D02*
X102370991Y-171346641D01*
X102370991Y-171346641D02*
X102513848Y-171299022D01*
X102513848Y-171299022D02*
X102609086Y-171299022D01*
X102609086Y-171299022D02*
X102751943Y-171346641D01*
X102751943Y-171346641D02*
X102799562Y-171394260D01*
X103228134Y-172299022D02*
X103228134Y-171299022D01*
X103656705Y-172299022D02*
X103656705Y-171775212D01*
X103656705Y-171775212D02*
X103609086Y-171679974D01*
X103609086Y-171679974D02*
X103513848Y-171632355D01*
X103513848Y-171632355D02*
X103370991Y-171632355D01*
X103370991Y-171632355D02*
X103275753Y-171679974D01*
X103275753Y-171679974D02*
X103228134Y-171727593D01*
X104275753Y-172299022D02*
X104180515Y-172251403D01*
X104180515Y-172251403D02*
X104132896Y-172203783D01*
X104132896Y-172203783D02*
X104085277Y-172108545D01*
X104085277Y-172108545D02*
X104085277Y-171822831D01*
X104085277Y-171822831D02*
X104132896Y-171727593D01*
X104132896Y-171727593D02*
X104180515Y-171679974D01*
X104180515Y-171679974D02*
X104275753Y-171632355D01*
X104275753Y-171632355D02*
X104418610Y-171632355D01*
X104418610Y-171632355D02*
X104513848Y-171679974D01*
X104513848Y-171679974D02*
X104561467Y-171727593D01*
X104561467Y-171727593D02*
X104609086Y-171822831D01*
X104609086Y-171822831D02*
X104609086Y-172108545D01*
X104609086Y-172108545D02*
X104561467Y-172203783D01*
X104561467Y-172203783D02*
X104513848Y-172251403D01*
X104513848Y-172251403D02*
X104418610Y-172299022D01*
X104418610Y-172299022D02*
X104275753Y-172299022D01*
X105466229Y-171632355D02*
X105466229Y-172299022D01*
X105037658Y-171632355D02*
X105037658Y-172156164D01*
X105037658Y-172156164D02*
X105085277Y-172251403D01*
X105085277Y-172251403D02*
X105180515Y-172299022D01*
X105180515Y-172299022D02*
X105323372Y-172299022D01*
X105323372Y-172299022D02*
X105418610Y-172251403D01*
X105418610Y-172251403D02*
X105466229Y-172203783D01*
X106513848Y-172203783D02*
X106466229Y-172251403D01*
X106466229Y-172251403D02*
X106323372Y-172299022D01*
X106323372Y-172299022D02*
X106228134Y-172299022D01*
X106228134Y-172299022D02*
X106085277Y-172251403D01*
X106085277Y-172251403D02*
X105990039Y-172156164D01*
X105990039Y-172156164D02*
X105942420Y-172060926D01*
X105942420Y-172060926D02*
X105894801Y-171870450D01*
X105894801Y-171870450D02*
X105894801Y-171727593D01*
X105894801Y-171727593D02*
X105942420Y-171537117D01*
X105942420Y-171537117D02*
X105990039Y-171441879D01*
X105990039Y-171441879D02*
X106085277Y-171346641D01*
X106085277Y-171346641D02*
X106228134Y-171299022D01*
X106228134Y-171299022D02*
X106323372Y-171299022D01*
X106323372Y-171299022D02*
X106466229Y-171346641D01*
X106466229Y-171346641D02*
X106513848Y-171394260D01*
X106942420Y-172299022D02*
X106942420Y-171299022D01*
X107370991Y-172299022D02*
X107370991Y-171775212D01*
X107370991Y-171775212D02*
X107323372Y-171679974D01*
X107323372Y-171679974D02*
X107228134Y-171632355D01*
X107228134Y-171632355D02*
X107085277Y-171632355D01*
X107085277Y-171632355D02*
X106990039Y-171679974D01*
X106990039Y-171679974D02*
X106942420Y-171727593D01*
X107990039Y-172299022D02*
X107894801Y-172251403D01*
X107894801Y-172251403D02*
X107847182Y-172203783D01*
X107847182Y-172203783D02*
X107799563Y-172108545D01*
X107799563Y-172108545D02*
X107799563Y-171822831D01*
X107799563Y-171822831D02*
X107847182Y-171727593D01*
X107847182Y-171727593D02*
X107894801Y-171679974D01*
X107894801Y-171679974D02*
X107990039Y-171632355D01*
X107990039Y-171632355D02*
X108132896Y-171632355D01*
X108132896Y-171632355D02*
X108228134Y-171679974D01*
X108228134Y-171679974D02*
X108275753Y-171727593D01*
X108275753Y-171727593D02*
X108323372Y-171822831D01*
X108323372Y-171822831D02*
X108323372Y-172108545D01*
X108323372Y-172108545D02*
X108275753Y-172203783D01*
X108275753Y-172203783D02*
X108228134Y-172251403D01*
X108228134Y-172251403D02*
X108132896Y-172299022D01*
X108132896Y-172299022D02*
X107990039Y-172299022D01*
X109180515Y-171632355D02*
X109180515Y-172299022D01*
X108751944Y-171632355D02*
X108751944Y-172156164D01*
X108751944Y-172156164D02*
X108799563Y-172251403D01*
X108799563Y-172251403D02*
X108894801Y-172299022D01*
X108894801Y-172299022D02*
X109037658Y-172299022D01*
X109037658Y-172299022D02*
X109132896Y-172251403D01*
X109132896Y-172251403D02*
X109180515Y-172203783D01*
X110751944Y-171775212D02*
X110418611Y-171775212D01*
X110418611Y-172299022D02*
X110418611Y-171299022D01*
X110418611Y-171299022D02*
X110894801Y-171299022D01*
X111418611Y-172299022D02*
X111323373Y-172251403D01*
X111323373Y-172251403D02*
X111275754Y-172156164D01*
X111275754Y-172156164D02*
X111275754Y-171299022D01*
X111799564Y-172299022D02*
X111799564Y-171632355D01*
X111799564Y-171299022D02*
X111751945Y-171346641D01*
X111751945Y-171346641D02*
X111799564Y-171394260D01*
X111799564Y-171394260D02*
X111847183Y-171346641D01*
X111847183Y-171346641D02*
X111799564Y-171299022D01*
X111799564Y-171299022D02*
X111799564Y-171394260D01*
X112704325Y-171632355D02*
X112704325Y-172441879D01*
X112704325Y-172441879D02*
X112656706Y-172537117D01*
X112656706Y-172537117D02*
X112609087Y-172584736D01*
X112609087Y-172584736D02*
X112513849Y-172632355D01*
X112513849Y-172632355D02*
X112370992Y-172632355D01*
X112370992Y-172632355D02*
X112275754Y-172584736D01*
X112704325Y-172251403D02*
X112609087Y-172299022D01*
X112609087Y-172299022D02*
X112418611Y-172299022D01*
X112418611Y-172299022D02*
X112323373Y-172251403D01*
X112323373Y-172251403D02*
X112275754Y-172203783D01*
X112275754Y-172203783D02*
X112228135Y-172108545D01*
X112228135Y-172108545D02*
X112228135Y-171822831D01*
X112228135Y-171822831D02*
X112275754Y-171727593D01*
X112275754Y-171727593D02*
X112323373Y-171679974D01*
X112323373Y-171679974D02*
X112418611Y-171632355D01*
X112418611Y-171632355D02*
X112609087Y-171632355D01*
X112609087Y-171632355D02*
X112704325Y-171679974D01*
X113180516Y-172299022D02*
X113180516Y-171299022D01*
X113609087Y-172299022D02*
X113609087Y-171775212D01*
X113609087Y-171775212D02*
X113561468Y-171679974D01*
X113561468Y-171679974D02*
X113466230Y-171632355D01*
X113466230Y-171632355D02*
X113323373Y-171632355D01*
X113323373Y-171632355D02*
X113228135Y-171679974D01*
X113228135Y-171679974D02*
X113180516Y-171727593D01*
X113942421Y-171632355D02*
X114323373Y-171632355D01*
X114085278Y-171299022D02*
X114085278Y-172156164D01*
X114085278Y-172156164D02*
X114132897Y-172251403D01*
X114132897Y-172251403D02*
X114228135Y-172299022D01*
X114228135Y-172299022D02*
X114323373Y-172299022D01*
X95442423Y-173528013D02*
X96204328Y-173528013D01*
X96680518Y-173528013D02*
X97442423Y-173528013D01*
X97918613Y-173528013D02*
X98680518Y-173528013D01*
X99156708Y-173528013D02*
X99918613Y-173528013D01*
X100394803Y-173528013D02*
X101156708Y-173528013D01*
X101632898Y-173528013D02*
X102394803Y-173528013D01*
X102870993Y-173528013D02*
X103632898Y-173528013D01*
X104109088Y-173528013D02*
X104870993Y-173528013D01*
X105347183Y-173528013D02*
X106109088Y-173528013D01*
X106585278Y-173528013D02*
X107347183Y-173528013D01*
X107823373Y-173528013D02*
X108585278Y-173528013D01*
X109061468Y-173528013D02*
X109823373Y-173528013D01*
X110299563Y-173528013D02*
X111061468Y-173528013D01*
X111537658Y-173528013D02*
X112299563Y-173528013D01*
X112775753Y-173528013D02*
X113537658Y-173528013D01*
X114013848Y-173528013D02*
X114775753Y-173528013D01*
X115251943Y-173528013D02*
X116013848Y-173528013D01*
X116490038Y-173528013D02*
X117251943Y-173528013D01*
X117728133Y-173528013D02*
X118490038Y-173528013D01*
X118966228Y-173528013D02*
X119728133Y-173528013D01*
X120204323Y-173528013D02*
X120966228Y-173528013D01*
X102847182Y-174518910D02*
X103037658Y-174518910D01*
X103037658Y-174518910D02*
X103132896Y-174566529D01*
X103132896Y-174566529D02*
X103228134Y-174661767D01*
X103228134Y-174661767D02*
X103275753Y-174852243D01*
X103275753Y-174852243D02*
X103275753Y-175185576D01*
X103275753Y-175185576D02*
X103228134Y-175376052D01*
X103228134Y-175376052D02*
X103132896Y-175471291D01*
X103132896Y-175471291D02*
X103037658Y-175518910D01*
X103037658Y-175518910D02*
X102847182Y-175518910D01*
X102847182Y-175518910D02*
X102751944Y-175471291D01*
X102751944Y-175471291D02*
X102656706Y-175376052D01*
X102656706Y-175376052D02*
X102609087Y-175185576D01*
X102609087Y-175185576D02*
X102609087Y-174852243D01*
X102609087Y-174852243D02*
X102656706Y-174661767D01*
X102656706Y-174661767D02*
X102751944Y-174566529D01*
X102751944Y-174566529D02*
X102847182Y-174518910D01*
X103704325Y-175518910D02*
X103704325Y-174852243D01*
X103704325Y-175042719D02*
X103751944Y-174947481D01*
X103751944Y-174947481D02*
X103799563Y-174899862D01*
X103799563Y-174899862D02*
X103894801Y-174852243D01*
X103894801Y-174852243D02*
X103990039Y-174852243D01*
X104323373Y-175518910D02*
X104323373Y-174852243D01*
X104323373Y-174518910D02*
X104275754Y-174566529D01*
X104275754Y-174566529D02*
X104323373Y-174614148D01*
X104323373Y-174614148D02*
X104370992Y-174566529D01*
X104370992Y-174566529D02*
X104323373Y-174518910D01*
X104323373Y-174518910D02*
X104323373Y-174614148D01*
X105228134Y-174852243D02*
X105228134Y-175661767D01*
X105228134Y-175661767D02*
X105180515Y-175757005D01*
X105180515Y-175757005D02*
X105132896Y-175804624D01*
X105132896Y-175804624D02*
X105037658Y-175852243D01*
X105037658Y-175852243D02*
X104894801Y-175852243D01*
X104894801Y-175852243D02*
X104799563Y-175804624D01*
X105228134Y-175471291D02*
X105132896Y-175518910D01*
X105132896Y-175518910D02*
X104942420Y-175518910D01*
X104942420Y-175518910D02*
X104847182Y-175471291D01*
X104847182Y-175471291D02*
X104799563Y-175423671D01*
X104799563Y-175423671D02*
X104751944Y-175328433D01*
X104751944Y-175328433D02*
X104751944Y-175042719D01*
X104751944Y-175042719D02*
X104799563Y-174947481D01*
X104799563Y-174947481D02*
X104847182Y-174899862D01*
X104847182Y-174899862D02*
X104942420Y-174852243D01*
X104942420Y-174852243D02*
X105132896Y-174852243D01*
X105132896Y-174852243D02*
X105228134Y-174899862D01*
X105704325Y-175518910D02*
X105704325Y-174852243D01*
X105704325Y-174518910D02*
X105656706Y-174566529D01*
X105656706Y-174566529D02*
X105704325Y-174614148D01*
X105704325Y-174614148D02*
X105751944Y-174566529D01*
X105751944Y-174566529D02*
X105704325Y-174518910D01*
X105704325Y-174518910D02*
X105704325Y-174614148D01*
X106180515Y-174852243D02*
X106180515Y-175518910D01*
X106180515Y-174947481D02*
X106228134Y-174899862D01*
X106228134Y-174899862D02*
X106323372Y-174852243D01*
X106323372Y-174852243D02*
X106466229Y-174852243D01*
X106466229Y-174852243D02*
X106561467Y-174899862D01*
X106561467Y-174899862D02*
X106609086Y-174995100D01*
X106609086Y-174995100D02*
X106609086Y-175518910D01*
X107513848Y-175518910D02*
X107513848Y-174995100D01*
X107513848Y-174995100D02*
X107466229Y-174899862D01*
X107466229Y-174899862D02*
X107370991Y-174852243D01*
X107370991Y-174852243D02*
X107180515Y-174852243D01*
X107180515Y-174852243D02*
X107085277Y-174899862D01*
X107513848Y-175471291D02*
X107418610Y-175518910D01*
X107418610Y-175518910D02*
X107180515Y-175518910D01*
X107180515Y-175518910D02*
X107085277Y-175471291D01*
X107085277Y-175471291D02*
X107037658Y-175376052D01*
X107037658Y-175376052D02*
X107037658Y-175280814D01*
X107037658Y-175280814D02*
X107085277Y-175185576D01*
X107085277Y-175185576D02*
X107180515Y-175137957D01*
X107180515Y-175137957D02*
X107418610Y-175137957D01*
X107418610Y-175137957D02*
X107513848Y-175090338D01*
X108132896Y-175518910D02*
X108037658Y-175471291D01*
X108037658Y-175471291D02*
X107990039Y-175376052D01*
X107990039Y-175376052D02*
X107990039Y-174518910D01*
X109275754Y-175518910D02*
X109275754Y-174518910D01*
X109275754Y-174518910D02*
X109513849Y-174518910D01*
X109513849Y-174518910D02*
X109656706Y-174566529D01*
X109656706Y-174566529D02*
X109751944Y-174661767D01*
X109751944Y-174661767D02*
X109799563Y-174757005D01*
X109799563Y-174757005D02*
X109847182Y-174947481D01*
X109847182Y-174947481D02*
X109847182Y-175090338D01*
X109847182Y-175090338D02*
X109799563Y-175280814D01*
X109799563Y-175280814D02*
X109751944Y-175376052D01*
X109751944Y-175376052D02*
X109656706Y-175471291D01*
X109656706Y-175471291D02*
X109513849Y-175518910D01*
X109513849Y-175518910D02*
X109275754Y-175518910D01*
X110656706Y-175471291D02*
X110561468Y-175518910D01*
X110561468Y-175518910D02*
X110370992Y-175518910D01*
X110370992Y-175518910D02*
X110275754Y-175471291D01*
X110275754Y-175471291D02*
X110228135Y-175376052D01*
X110228135Y-175376052D02*
X110228135Y-174995100D01*
X110228135Y-174995100D02*
X110275754Y-174899862D01*
X110275754Y-174899862D02*
X110370992Y-174852243D01*
X110370992Y-174852243D02*
X110561468Y-174852243D01*
X110561468Y-174852243D02*
X110656706Y-174899862D01*
X110656706Y-174899862D02*
X110704325Y-174995100D01*
X110704325Y-174995100D02*
X110704325Y-175090338D01*
X110704325Y-175090338D02*
X110228135Y-175185576D01*
X111085278Y-175471291D02*
X111180516Y-175518910D01*
X111180516Y-175518910D02*
X111370992Y-175518910D01*
X111370992Y-175518910D02*
X111466230Y-175471291D01*
X111466230Y-175471291D02*
X111513849Y-175376052D01*
X111513849Y-175376052D02*
X111513849Y-175328433D01*
X111513849Y-175328433D02*
X111466230Y-175233195D01*
X111466230Y-175233195D02*
X111370992Y-175185576D01*
X111370992Y-175185576D02*
X111228135Y-175185576D01*
X111228135Y-175185576D02*
X111132897Y-175137957D01*
X111132897Y-175137957D02*
X111085278Y-175042719D01*
X111085278Y-175042719D02*
X111085278Y-174995100D01*
X111085278Y-174995100D02*
X111132897Y-174899862D01*
X111132897Y-174899862D02*
X111228135Y-174852243D01*
X111228135Y-174852243D02*
X111370992Y-174852243D01*
X111370992Y-174852243D02*
X111466230Y-174899862D01*
X111942421Y-175518910D02*
X111942421Y-174852243D01*
X111942421Y-174518910D02*
X111894802Y-174566529D01*
X111894802Y-174566529D02*
X111942421Y-174614148D01*
X111942421Y-174614148D02*
X111990040Y-174566529D01*
X111990040Y-174566529D02*
X111942421Y-174518910D01*
X111942421Y-174518910D02*
X111942421Y-174614148D01*
X112847182Y-174852243D02*
X112847182Y-175661767D01*
X112847182Y-175661767D02*
X112799563Y-175757005D01*
X112799563Y-175757005D02*
X112751944Y-175804624D01*
X112751944Y-175804624D02*
X112656706Y-175852243D01*
X112656706Y-175852243D02*
X112513849Y-175852243D01*
X112513849Y-175852243D02*
X112418611Y-175804624D01*
X112847182Y-175471291D02*
X112751944Y-175518910D01*
X112751944Y-175518910D02*
X112561468Y-175518910D01*
X112561468Y-175518910D02*
X112466230Y-175471291D01*
X112466230Y-175471291D02*
X112418611Y-175423671D01*
X112418611Y-175423671D02*
X112370992Y-175328433D01*
X112370992Y-175328433D02*
X112370992Y-175042719D01*
X112370992Y-175042719D02*
X112418611Y-174947481D01*
X112418611Y-174947481D02*
X112466230Y-174899862D01*
X112466230Y-174899862D02*
X112561468Y-174852243D01*
X112561468Y-174852243D02*
X112751944Y-174852243D01*
X112751944Y-174852243D02*
X112847182Y-174899862D01*
X113323373Y-174852243D02*
X113323373Y-175518910D01*
X113323373Y-174947481D02*
X113370992Y-174899862D01*
X113370992Y-174899862D02*
X113466230Y-174852243D01*
X113466230Y-174852243D02*
X113609087Y-174852243D01*
X113609087Y-174852243D02*
X113704325Y-174899862D01*
X113704325Y-174899862D02*
X113751944Y-174995100D01*
X113751944Y-174995100D02*
X113751944Y-175518910D01*
X95632895Y-176462187D02*
X95632895Y-177271711D01*
X95632895Y-177271711D02*
X95585276Y-177366949D01*
X95585276Y-177366949D02*
X95537657Y-177414568D01*
X95537657Y-177414568D02*
X95442419Y-177462187D01*
X95442419Y-177462187D02*
X95299562Y-177462187D01*
X95299562Y-177462187D02*
X95204324Y-177414568D01*
X95632895Y-177081235D02*
X95537657Y-177128854D01*
X95537657Y-177128854D02*
X95347181Y-177128854D01*
X95347181Y-177128854D02*
X95251943Y-177081235D01*
X95251943Y-177081235D02*
X95204324Y-177033615D01*
X95204324Y-177033615D02*
X95156705Y-176938377D01*
X95156705Y-176938377D02*
X95156705Y-176652663D01*
X95156705Y-176652663D02*
X95204324Y-176557425D01*
X95204324Y-176557425D02*
X95251943Y-176509806D01*
X95251943Y-176509806D02*
X95347181Y-176462187D01*
X95347181Y-176462187D02*
X95537657Y-176462187D01*
X95537657Y-176462187D02*
X95632895Y-176509806D01*
X96109086Y-177128854D02*
X96109086Y-176462187D01*
X96109086Y-176128854D02*
X96061467Y-176176473D01*
X96061467Y-176176473D02*
X96109086Y-176224092D01*
X96109086Y-176224092D02*
X96156705Y-176176473D01*
X96156705Y-176176473D02*
X96109086Y-176128854D01*
X96109086Y-176128854D02*
X96109086Y-176224092D01*
X96442419Y-176462187D02*
X96823371Y-176462187D01*
X96585276Y-176128854D02*
X96585276Y-176985996D01*
X96585276Y-176985996D02*
X96632895Y-177081235D01*
X96632895Y-177081235D02*
X96728133Y-177128854D01*
X96728133Y-177128854D02*
X96823371Y-177128854D01*
X97156705Y-177128854D02*
X97156705Y-176128854D01*
X97585276Y-177128854D02*
X97585276Y-176605044D01*
X97585276Y-176605044D02*
X97537657Y-176509806D01*
X97537657Y-176509806D02*
X97442419Y-176462187D01*
X97442419Y-176462187D02*
X97299562Y-176462187D01*
X97299562Y-176462187D02*
X97204324Y-176509806D01*
X97204324Y-176509806D02*
X97156705Y-176557425D01*
X98490038Y-176462187D02*
X98490038Y-177128854D01*
X98061467Y-176462187D02*
X98061467Y-176985996D01*
X98061467Y-176985996D02*
X98109086Y-177081235D01*
X98109086Y-177081235D02*
X98204324Y-177128854D01*
X98204324Y-177128854D02*
X98347181Y-177128854D01*
X98347181Y-177128854D02*
X98442419Y-177081235D01*
X98442419Y-177081235D02*
X98490038Y-177033615D01*
X98966229Y-177128854D02*
X98966229Y-176128854D01*
X98966229Y-176509806D02*
X99061467Y-176462187D01*
X99061467Y-176462187D02*
X99251943Y-176462187D01*
X99251943Y-176462187D02*
X99347181Y-176509806D01*
X99347181Y-176509806D02*
X99394800Y-176557425D01*
X99394800Y-176557425D02*
X99442419Y-176652663D01*
X99442419Y-176652663D02*
X99442419Y-176938377D01*
X99442419Y-176938377D02*
X99394800Y-177033615D01*
X99394800Y-177033615D02*
X99347181Y-177081235D01*
X99347181Y-177081235D02*
X99251943Y-177128854D01*
X99251943Y-177128854D02*
X99061467Y-177128854D01*
X99061467Y-177128854D02*
X98966229Y-177081235D01*
X99870991Y-177033615D02*
X99918610Y-177081235D01*
X99918610Y-177081235D02*
X99870991Y-177128854D01*
X99870991Y-177128854D02*
X99823372Y-177081235D01*
X99823372Y-177081235D02*
X99870991Y-177033615D01*
X99870991Y-177033615D02*
X99870991Y-177128854D01*
X100775752Y-177081235D02*
X100680514Y-177128854D01*
X100680514Y-177128854D02*
X100490038Y-177128854D01*
X100490038Y-177128854D02*
X100394800Y-177081235D01*
X100394800Y-177081235D02*
X100347181Y-177033615D01*
X100347181Y-177033615D02*
X100299562Y-176938377D01*
X100299562Y-176938377D02*
X100299562Y-176652663D01*
X100299562Y-176652663D02*
X100347181Y-176557425D01*
X100347181Y-176557425D02*
X100394800Y-176509806D01*
X100394800Y-176509806D02*
X100490038Y-176462187D01*
X100490038Y-176462187D02*
X100680514Y-176462187D01*
X100680514Y-176462187D02*
X100775752Y-176509806D01*
X101347181Y-177128854D02*
X101251943Y-177081235D01*
X101251943Y-177081235D02*
X101204324Y-177033615D01*
X101204324Y-177033615D02*
X101156705Y-176938377D01*
X101156705Y-176938377D02*
X101156705Y-176652663D01*
X101156705Y-176652663D02*
X101204324Y-176557425D01*
X101204324Y-176557425D02*
X101251943Y-176509806D01*
X101251943Y-176509806D02*
X101347181Y-176462187D01*
X101347181Y-176462187D02*
X101490038Y-176462187D01*
X101490038Y-176462187D02*
X101585276Y-176509806D01*
X101585276Y-176509806D02*
X101632895Y-176557425D01*
X101632895Y-176557425D02*
X101680514Y-176652663D01*
X101680514Y-176652663D02*
X101680514Y-176938377D01*
X101680514Y-176938377D02*
X101632895Y-177033615D01*
X101632895Y-177033615D02*
X101585276Y-177081235D01*
X101585276Y-177081235D02*
X101490038Y-177128854D01*
X101490038Y-177128854D02*
X101347181Y-177128854D01*
X102109086Y-177128854D02*
X102109086Y-176462187D01*
X102109086Y-176557425D02*
X102156705Y-176509806D01*
X102156705Y-176509806D02*
X102251943Y-176462187D01*
X102251943Y-176462187D02*
X102394800Y-176462187D01*
X102394800Y-176462187D02*
X102490038Y-176509806D01*
X102490038Y-176509806D02*
X102537657Y-176605044D01*
X102537657Y-176605044D02*
X102537657Y-177128854D01*
X102537657Y-176605044D02*
X102585276Y-176509806D01*
X102585276Y-176509806D02*
X102680514Y-176462187D01*
X102680514Y-176462187D02*
X102823371Y-176462187D01*
X102823371Y-176462187D02*
X102918610Y-176509806D01*
X102918610Y-176509806D02*
X102966229Y-176605044D01*
X102966229Y-176605044D02*
X102966229Y-177128854D01*
X104156704Y-176081235D02*
X103299562Y-177366949D01*
X104918609Y-177128854D02*
X104918609Y-176128854D01*
X104918609Y-177081235D02*
X104823371Y-177128854D01*
X104823371Y-177128854D02*
X104632895Y-177128854D01*
X104632895Y-177128854D02*
X104537657Y-177081235D01*
X104537657Y-177081235D02*
X104490038Y-177033615D01*
X104490038Y-177033615D02*
X104442419Y-176938377D01*
X104442419Y-176938377D02*
X104442419Y-176652663D01*
X104442419Y-176652663D02*
X104490038Y-176557425D01*
X104490038Y-176557425D02*
X104537657Y-176509806D01*
X104537657Y-176509806D02*
X104632895Y-176462187D01*
X104632895Y-176462187D02*
X104823371Y-176462187D01*
X104823371Y-176462187D02*
X104918609Y-176509806D01*
X105537657Y-177128854D02*
X105442419Y-177081235D01*
X105442419Y-177081235D02*
X105394800Y-176985996D01*
X105394800Y-176985996D02*
X105394800Y-176128854D01*
X105918610Y-177128854D02*
X105918610Y-176462187D01*
X105918610Y-176128854D02*
X105870991Y-176176473D01*
X105870991Y-176176473D02*
X105918610Y-176224092D01*
X105918610Y-176224092D02*
X105966229Y-176176473D01*
X105966229Y-176176473D02*
X105918610Y-176128854D01*
X105918610Y-176128854D02*
X105918610Y-176224092D01*
X106394800Y-176462187D02*
X106394800Y-177462187D01*
X106394800Y-176509806D02*
X106490038Y-176462187D01*
X106490038Y-176462187D02*
X106680514Y-176462187D01*
X106680514Y-176462187D02*
X106775752Y-176509806D01*
X106775752Y-176509806D02*
X106823371Y-176557425D01*
X106823371Y-176557425D02*
X106870990Y-176652663D01*
X106870990Y-176652663D02*
X106870990Y-176938377D01*
X106870990Y-176938377D02*
X106823371Y-177033615D01*
X106823371Y-177033615D02*
X106775752Y-177081235D01*
X106775752Y-177081235D02*
X106680514Y-177128854D01*
X106680514Y-177128854D02*
X106490038Y-177128854D01*
X106490038Y-177128854D02*
X106394800Y-177081235D01*
X108347181Y-177509806D02*
X108299562Y-177462187D01*
X108299562Y-177462187D02*
X108204324Y-177319330D01*
X108204324Y-177319330D02*
X108156705Y-177224092D01*
X108156705Y-177224092D02*
X108109086Y-177081235D01*
X108109086Y-177081235D02*
X108061467Y-176843139D01*
X108061467Y-176843139D02*
X108061467Y-176652663D01*
X108061467Y-176652663D02*
X108109086Y-176414568D01*
X108109086Y-176414568D02*
X108156705Y-176271711D01*
X108156705Y-176271711D02*
X108204324Y-176176473D01*
X108204324Y-176176473D02*
X108299562Y-176033615D01*
X108299562Y-176033615D02*
X108347181Y-175985996D01*
X108728134Y-177128854D02*
X108728134Y-176128854D01*
X108728134Y-176128854D02*
X108966229Y-176128854D01*
X108966229Y-176128854D02*
X109109086Y-176176473D01*
X109109086Y-176176473D02*
X109204324Y-176271711D01*
X109204324Y-176271711D02*
X109251943Y-176366949D01*
X109251943Y-176366949D02*
X109299562Y-176557425D01*
X109299562Y-176557425D02*
X109299562Y-176700282D01*
X109299562Y-176700282D02*
X109251943Y-176890758D01*
X109251943Y-176890758D02*
X109204324Y-176985996D01*
X109204324Y-176985996D02*
X109109086Y-177081235D01*
X109109086Y-177081235D02*
X108966229Y-177128854D01*
X108966229Y-177128854D02*
X108728134Y-177128854D01*
X110156705Y-177128854D02*
X110156705Y-176605044D01*
X110156705Y-176605044D02*
X110109086Y-176509806D01*
X110109086Y-176509806D02*
X110013848Y-176462187D01*
X110013848Y-176462187D02*
X109823372Y-176462187D01*
X109823372Y-176462187D02*
X109728134Y-176509806D01*
X110156705Y-177081235D02*
X110061467Y-177128854D01*
X110061467Y-177128854D02*
X109823372Y-177128854D01*
X109823372Y-177128854D02*
X109728134Y-177081235D01*
X109728134Y-177081235D02*
X109680515Y-176985996D01*
X109680515Y-176985996D02*
X109680515Y-176890758D01*
X109680515Y-176890758D02*
X109728134Y-176795520D01*
X109728134Y-176795520D02*
X109823372Y-176747901D01*
X109823372Y-176747901D02*
X110061467Y-176747901D01*
X110061467Y-176747901D02*
X110156705Y-176700282D01*
X110632896Y-176462187D02*
X110632896Y-177128854D01*
X110632896Y-176557425D02*
X110680515Y-176509806D01*
X110680515Y-176509806D02*
X110775753Y-176462187D01*
X110775753Y-176462187D02*
X110918610Y-176462187D01*
X110918610Y-176462187D02*
X111013848Y-176509806D01*
X111013848Y-176509806D02*
X111061467Y-176605044D01*
X111061467Y-176605044D02*
X111061467Y-177128854D01*
X111918610Y-177081235D02*
X111823372Y-177128854D01*
X111823372Y-177128854D02*
X111632896Y-177128854D01*
X111632896Y-177128854D02*
X111537658Y-177081235D01*
X111537658Y-177081235D02*
X111490039Y-176985996D01*
X111490039Y-176985996D02*
X111490039Y-176605044D01*
X111490039Y-176605044D02*
X111537658Y-176509806D01*
X111537658Y-176509806D02*
X111632896Y-176462187D01*
X111632896Y-176462187D02*
X111823372Y-176462187D01*
X111823372Y-176462187D02*
X111918610Y-176509806D01*
X111918610Y-176509806D02*
X111966229Y-176605044D01*
X111966229Y-176605044D02*
X111966229Y-176700282D01*
X111966229Y-176700282D02*
X111490039Y-176795520D01*
X113632896Y-177128854D02*
X113156706Y-177128854D01*
X113156706Y-177128854D02*
X113156706Y-176128854D01*
X113966230Y-177128854D02*
X113966230Y-176462187D01*
X113966230Y-176128854D02*
X113918611Y-176176473D01*
X113918611Y-176176473D02*
X113966230Y-176224092D01*
X113966230Y-176224092D02*
X114013849Y-176176473D01*
X114013849Y-176176473D02*
X113966230Y-176128854D01*
X113966230Y-176128854D02*
X113966230Y-176224092D01*
X114442420Y-176462187D02*
X114442420Y-177462187D01*
X114442420Y-176509806D02*
X114537658Y-176462187D01*
X114537658Y-176462187D02*
X114728134Y-176462187D01*
X114728134Y-176462187D02*
X114823372Y-176509806D01*
X114823372Y-176509806D02*
X114870991Y-176557425D01*
X114870991Y-176557425D02*
X114918610Y-176652663D01*
X114918610Y-176652663D02*
X114918610Y-176938377D01*
X114918610Y-176938377D02*
X114870991Y-177033615D01*
X114870991Y-177033615D02*
X114823372Y-177081235D01*
X114823372Y-177081235D02*
X114728134Y-177128854D01*
X114728134Y-177128854D02*
X114537658Y-177128854D01*
X114537658Y-177128854D02*
X114442420Y-177081235D01*
X115299563Y-177081235D02*
X115394801Y-177128854D01*
X115394801Y-177128854D02*
X115585277Y-177128854D01*
X115585277Y-177128854D02*
X115680515Y-177081235D01*
X115680515Y-177081235D02*
X115728134Y-176985996D01*
X115728134Y-176985996D02*
X115728134Y-176938377D01*
X115728134Y-176938377D02*
X115680515Y-176843139D01*
X115680515Y-176843139D02*
X115585277Y-176795520D01*
X115585277Y-176795520D02*
X115442420Y-176795520D01*
X115442420Y-176795520D02*
X115347182Y-176747901D01*
X115347182Y-176747901D02*
X115299563Y-176652663D01*
X115299563Y-176652663D02*
X115299563Y-176605044D01*
X115299563Y-176605044D02*
X115347182Y-176509806D01*
X115347182Y-176509806D02*
X115442420Y-176462187D01*
X115442420Y-176462187D02*
X115585277Y-176462187D01*
X115585277Y-176462187D02*
X115680515Y-176509806D01*
X116585277Y-177081235D02*
X116490039Y-177128854D01*
X116490039Y-177128854D02*
X116299563Y-177128854D01*
X116299563Y-177128854D02*
X116204325Y-177081235D01*
X116204325Y-177081235D02*
X116156706Y-177033615D01*
X116156706Y-177033615D02*
X116109087Y-176938377D01*
X116109087Y-176938377D02*
X116109087Y-176652663D01*
X116109087Y-176652663D02*
X116156706Y-176557425D01*
X116156706Y-176557425D02*
X116204325Y-176509806D01*
X116204325Y-176509806D02*
X116299563Y-176462187D01*
X116299563Y-176462187D02*
X116490039Y-176462187D01*
X116490039Y-176462187D02*
X116585277Y-176509806D01*
X117156706Y-177128854D02*
X117061468Y-177081235D01*
X117061468Y-177081235D02*
X117013849Y-177033615D01*
X117013849Y-177033615D02*
X116966230Y-176938377D01*
X116966230Y-176938377D02*
X116966230Y-176652663D01*
X116966230Y-176652663D02*
X117013849Y-176557425D01*
X117013849Y-176557425D02*
X117061468Y-176509806D01*
X117061468Y-176509806D02*
X117156706Y-176462187D01*
X117156706Y-176462187D02*
X117299563Y-176462187D01*
X117299563Y-176462187D02*
X117394801Y-176509806D01*
X117394801Y-176509806D02*
X117442420Y-176557425D01*
X117442420Y-176557425D02*
X117490039Y-176652663D01*
X117490039Y-176652663D02*
X117490039Y-176938377D01*
X117490039Y-176938377D02*
X117442420Y-177033615D01*
X117442420Y-177033615D02*
X117394801Y-177081235D01*
X117394801Y-177081235D02*
X117299563Y-177128854D01*
X117299563Y-177128854D02*
X117156706Y-177128854D01*
X117918611Y-177128854D02*
X117918611Y-176462187D01*
X117918611Y-176557425D02*
X117966230Y-176509806D01*
X117966230Y-176509806D02*
X118061468Y-176462187D01*
X118061468Y-176462187D02*
X118204325Y-176462187D01*
X118204325Y-176462187D02*
X118299563Y-176509806D01*
X118299563Y-176509806D02*
X118347182Y-176605044D01*
X118347182Y-176605044D02*
X118347182Y-177128854D01*
X118347182Y-176605044D02*
X118394801Y-176509806D01*
X118394801Y-176509806D02*
X118490039Y-176462187D01*
X118490039Y-176462187D02*
X118632896Y-176462187D01*
X118632896Y-176462187D02*
X118728135Y-176509806D01*
X118728135Y-176509806D02*
X118775754Y-176605044D01*
X118775754Y-176605044D02*
X118775754Y-177128854D01*
X119251944Y-177128854D02*
X119251944Y-176128854D01*
X119251944Y-176509806D02*
X119347182Y-176462187D01*
X119347182Y-176462187D02*
X119537658Y-176462187D01*
X119537658Y-176462187D02*
X119632896Y-176509806D01*
X119632896Y-176509806D02*
X119680515Y-176557425D01*
X119680515Y-176557425D02*
X119728134Y-176652663D01*
X119728134Y-176652663D02*
X119728134Y-176938377D01*
X119728134Y-176938377D02*
X119680515Y-177033615D01*
X119680515Y-177033615D02*
X119632896Y-177081235D01*
X119632896Y-177081235D02*
X119537658Y-177128854D01*
X119537658Y-177128854D02*
X119347182Y-177128854D01*
X119347182Y-177128854D02*
X119251944Y-177081235D01*
X120537658Y-177081235D02*
X120442420Y-177128854D01*
X120442420Y-177128854D02*
X120251944Y-177128854D01*
X120251944Y-177128854D02*
X120156706Y-177081235D01*
X120156706Y-177081235D02*
X120109087Y-176985996D01*
X120109087Y-176985996D02*
X120109087Y-176605044D01*
X120109087Y-176605044D02*
X120156706Y-176509806D01*
X120156706Y-176509806D02*
X120251944Y-176462187D01*
X120251944Y-176462187D02*
X120442420Y-176462187D01*
X120442420Y-176462187D02*
X120537658Y-176509806D01*
X120537658Y-176509806D02*
X120585277Y-176605044D01*
X120585277Y-176605044D02*
X120585277Y-176700282D01*
X120585277Y-176700282D02*
X120109087Y-176795520D01*
X120918611Y-177509806D02*
X120966230Y-177462187D01*
X120966230Y-177462187D02*
X121061468Y-177319330D01*
X121061468Y-177319330D02*
X121109087Y-177224092D01*
X121109087Y-177224092D02*
X121156706Y-177081235D01*
X121156706Y-177081235D02*
X121204325Y-176843139D01*
X121204325Y-176843139D02*
X121204325Y-176652663D01*
X121204325Y-176652663D02*
X121156706Y-176414568D01*
X121156706Y-176414568D02*
X121109087Y-176271711D01*
X121109087Y-176271711D02*
X121061468Y-176176473D01*
X121061468Y-176176473D02*
X120966230Y-176033615D01*
X120966230Y-176033615D02*
X120918611Y-175985996D01*
X95442423Y-178357845D02*
X96204328Y-178357845D01*
X96680518Y-178357845D02*
X97442423Y-178357845D01*
X97918613Y-178357845D02*
X98680518Y-178357845D01*
X99156708Y-178357845D02*
X99918613Y-178357845D01*
X100394803Y-178357845D02*
X101156708Y-178357845D01*
X101632898Y-178357845D02*
X102394803Y-178357845D01*
X102870993Y-178357845D02*
X103632898Y-178357845D01*
X104109088Y-178357845D02*
X104870993Y-178357845D01*
X105347183Y-178357845D02*
X106109088Y-178357845D01*
X106585278Y-178357845D02*
X107347183Y-178357845D01*
X107823373Y-178357845D02*
X108585278Y-178357845D01*
X109061468Y-178357845D02*
X109823373Y-178357845D01*
X110299563Y-178357845D02*
X111061468Y-178357845D01*
X111537658Y-178357845D02*
X112299563Y-178357845D01*
X112775753Y-178357845D02*
X113537658Y-178357845D01*
X114013848Y-178357845D02*
X114775753Y-178357845D01*
X115251943Y-178357845D02*
X116013848Y-178357845D01*
X116490038Y-178357845D02*
X117251943Y-178357845D01*
X117728133Y-178357845D02*
X118490038Y-178357845D01*
X118966228Y-178357845D02*
X119728133Y-178357845D01*
X120204323Y-178357845D02*
X120966228Y-178357845D01*
X98370991Y-179824932D02*
X98037658Y-179824932D01*
X98037658Y-180348742D02*
X98037658Y-179348742D01*
X98037658Y-179348742D02*
X98513848Y-179348742D01*
X99037658Y-180348742D02*
X98942420Y-180301123D01*
X98942420Y-180301123D02*
X98894801Y-180205884D01*
X98894801Y-180205884D02*
X98894801Y-179348742D01*
X99418611Y-180348742D02*
X99418611Y-179682075D01*
X99418611Y-179348742D02*
X99370992Y-179396361D01*
X99370992Y-179396361D02*
X99418611Y-179443980D01*
X99418611Y-179443980D02*
X99466230Y-179396361D01*
X99466230Y-179396361D02*
X99418611Y-179348742D01*
X99418611Y-179348742D02*
X99418611Y-179443980D01*
X100323372Y-179682075D02*
X100323372Y-180491599D01*
X100323372Y-180491599D02*
X100275753Y-180586837D01*
X100275753Y-180586837D02*
X100228134Y-180634456D01*
X100228134Y-180634456D02*
X100132896Y-180682075D01*
X100132896Y-180682075D02*
X99990039Y-180682075D01*
X99990039Y-180682075D02*
X99894801Y-180634456D01*
X100323372Y-180301123D02*
X100228134Y-180348742D01*
X100228134Y-180348742D02*
X100037658Y-180348742D01*
X100037658Y-180348742D02*
X99942420Y-180301123D01*
X99942420Y-180301123D02*
X99894801Y-180253503D01*
X99894801Y-180253503D02*
X99847182Y-180158265D01*
X99847182Y-180158265D02*
X99847182Y-179872551D01*
X99847182Y-179872551D02*
X99894801Y-179777313D01*
X99894801Y-179777313D02*
X99942420Y-179729694D01*
X99942420Y-179729694D02*
X100037658Y-179682075D01*
X100037658Y-179682075D02*
X100228134Y-179682075D01*
X100228134Y-179682075D02*
X100323372Y-179729694D01*
X100799563Y-180348742D02*
X100799563Y-179348742D01*
X101228134Y-180348742D02*
X101228134Y-179824932D01*
X101228134Y-179824932D02*
X101180515Y-179729694D01*
X101180515Y-179729694D02*
X101085277Y-179682075D01*
X101085277Y-179682075D02*
X100942420Y-179682075D01*
X100942420Y-179682075D02*
X100847182Y-179729694D01*
X100847182Y-179729694D02*
X100799563Y-179777313D01*
X101561468Y-179682075D02*
X101942420Y-179682075D01*
X101704325Y-179348742D02*
X101704325Y-180205884D01*
X101704325Y-180205884D02*
X101751944Y-180301123D01*
X101751944Y-180301123D02*
X101847182Y-180348742D01*
X101847182Y-180348742D02*
X101942420Y-180348742D01*
X103037659Y-179824932D02*
X103370992Y-179824932D01*
X103513849Y-180348742D02*
X103037659Y-180348742D01*
X103037659Y-180348742D02*
X103037659Y-179348742D01*
X103037659Y-179348742D02*
X103513849Y-179348742D01*
X104370992Y-180348742D02*
X104370992Y-179348742D01*
X104370992Y-180301123D02*
X104275754Y-180348742D01*
X104275754Y-180348742D02*
X104085278Y-180348742D01*
X104085278Y-180348742D02*
X103990040Y-180301123D01*
X103990040Y-180301123D02*
X103942421Y-180253503D01*
X103942421Y-180253503D02*
X103894802Y-180158265D01*
X103894802Y-180158265D02*
X103894802Y-179872551D01*
X103894802Y-179872551D02*
X103942421Y-179777313D01*
X103942421Y-179777313D02*
X103990040Y-179729694D01*
X103990040Y-179729694D02*
X104085278Y-179682075D01*
X104085278Y-179682075D02*
X104275754Y-179682075D01*
X104275754Y-179682075D02*
X104370992Y-179729694D01*
X104847183Y-180348742D02*
X104847183Y-179682075D01*
X104847183Y-179348742D02*
X104799564Y-179396361D01*
X104799564Y-179396361D02*
X104847183Y-179443980D01*
X104847183Y-179443980D02*
X104894802Y-179396361D01*
X104894802Y-179396361D02*
X104847183Y-179348742D01*
X104847183Y-179348742D02*
X104847183Y-179443980D01*
X105180516Y-179682075D02*
X105561468Y-179682075D01*
X105323373Y-179348742D02*
X105323373Y-180205884D01*
X105323373Y-180205884D02*
X105370992Y-180301123D01*
X105370992Y-180301123D02*
X105466230Y-180348742D01*
X105466230Y-180348742D02*
X105561468Y-180348742D01*
X105894802Y-180348742D02*
X105894802Y-179682075D01*
X105894802Y-179348742D02*
X105847183Y-179396361D01*
X105847183Y-179396361D02*
X105894802Y-179443980D01*
X105894802Y-179443980D02*
X105942421Y-179396361D01*
X105942421Y-179396361D02*
X105894802Y-179348742D01*
X105894802Y-179348742D02*
X105894802Y-179443980D01*
X106513849Y-180348742D02*
X106418611Y-180301123D01*
X106418611Y-180301123D02*
X106370992Y-180253503D01*
X106370992Y-180253503D02*
X106323373Y-180158265D01*
X106323373Y-180158265D02*
X106323373Y-179872551D01*
X106323373Y-179872551D02*
X106370992Y-179777313D01*
X106370992Y-179777313D02*
X106418611Y-179729694D01*
X106418611Y-179729694D02*
X106513849Y-179682075D01*
X106513849Y-179682075D02*
X106656706Y-179682075D01*
X106656706Y-179682075D02*
X106751944Y-179729694D01*
X106751944Y-179729694D02*
X106799563Y-179777313D01*
X106799563Y-179777313D02*
X106847182Y-179872551D01*
X106847182Y-179872551D02*
X106847182Y-180158265D01*
X106847182Y-180158265D02*
X106799563Y-180253503D01*
X106799563Y-180253503D02*
X106751944Y-180301123D01*
X106751944Y-180301123D02*
X106656706Y-180348742D01*
X106656706Y-180348742D02*
X106513849Y-180348742D01*
X107275754Y-179682075D02*
X107275754Y-180348742D01*
X107275754Y-179777313D02*
X107323373Y-179729694D01*
X107323373Y-179729694D02*
X107418611Y-179682075D01*
X107418611Y-179682075D02*
X107561468Y-179682075D01*
X107561468Y-179682075D02*
X107656706Y-179729694D01*
X107656706Y-179729694D02*
X107704325Y-179824932D01*
X107704325Y-179824932D02*
X107704325Y-180348742D01*
X108942421Y-180348742D02*
X108942421Y-179348742D01*
X108942421Y-179348742D02*
X109275754Y-180063027D01*
X109275754Y-180063027D02*
X109609087Y-179348742D01*
X109609087Y-179348742D02*
X109609087Y-180348742D01*
X110228135Y-180348742D02*
X110132897Y-180301123D01*
X110132897Y-180301123D02*
X110085278Y-180253503D01*
X110085278Y-180253503D02*
X110037659Y-180158265D01*
X110037659Y-180158265D02*
X110037659Y-179872551D01*
X110037659Y-179872551D02*
X110085278Y-179777313D01*
X110085278Y-179777313D02*
X110132897Y-179729694D01*
X110132897Y-179729694D02*
X110228135Y-179682075D01*
X110228135Y-179682075D02*
X110370992Y-179682075D01*
X110370992Y-179682075D02*
X110466230Y-179729694D01*
X110466230Y-179729694D02*
X110513849Y-179777313D01*
X110513849Y-179777313D02*
X110561468Y-179872551D01*
X110561468Y-179872551D02*
X110561468Y-180158265D01*
X110561468Y-180158265D02*
X110513849Y-180253503D01*
X110513849Y-180253503D02*
X110466230Y-180301123D01*
X110466230Y-180301123D02*
X110370992Y-180348742D01*
X110370992Y-180348742D02*
X110228135Y-180348742D01*
X111418611Y-180348742D02*
X111418611Y-179348742D01*
X111418611Y-180301123D02*
X111323373Y-180348742D01*
X111323373Y-180348742D02*
X111132897Y-180348742D01*
X111132897Y-180348742D02*
X111037659Y-180301123D01*
X111037659Y-180301123D02*
X110990040Y-180253503D01*
X110990040Y-180253503D02*
X110942421Y-180158265D01*
X110942421Y-180158265D02*
X110942421Y-179872551D01*
X110942421Y-179872551D02*
X110990040Y-179777313D01*
X110990040Y-179777313D02*
X111037659Y-179729694D01*
X111037659Y-179729694D02*
X111132897Y-179682075D01*
X111132897Y-179682075D02*
X111323373Y-179682075D01*
X111323373Y-179682075D02*
X111418611Y-179729694D01*
X111894802Y-180348742D02*
X111894802Y-179682075D01*
X111894802Y-179348742D02*
X111847183Y-179396361D01*
X111847183Y-179396361D02*
X111894802Y-179443980D01*
X111894802Y-179443980D02*
X111942421Y-179396361D01*
X111942421Y-179396361D02*
X111894802Y-179348742D01*
X111894802Y-179348742D02*
X111894802Y-179443980D01*
X112228135Y-179682075D02*
X112609087Y-179682075D01*
X112370992Y-180348742D02*
X112370992Y-179491599D01*
X112370992Y-179491599D02*
X112418611Y-179396361D01*
X112418611Y-179396361D02*
X112513849Y-179348742D01*
X112513849Y-179348742D02*
X112609087Y-179348742D01*
X112942421Y-180348742D02*
X112942421Y-179682075D01*
X112942421Y-179348742D02*
X112894802Y-179396361D01*
X112894802Y-179396361D02*
X112942421Y-179443980D01*
X112942421Y-179443980D02*
X112990040Y-179396361D01*
X112990040Y-179396361D02*
X112942421Y-179348742D01*
X112942421Y-179348742D02*
X112942421Y-179443980D01*
X113847182Y-180301123D02*
X113751944Y-180348742D01*
X113751944Y-180348742D02*
X113561468Y-180348742D01*
X113561468Y-180348742D02*
X113466230Y-180301123D01*
X113466230Y-180301123D02*
X113418611Y-180253503D01*
X113418611Y-180253503D02*
X113370992Y-180158265D01*
X113370992Y-180158265D02*
X113370992Y-179872551D01*
X113370992Y-179872551D02*
X113418611Y-179777313D01*
X113418611Y-179777313D02*
X113466230Y-179729694D01*
X113466230Y-179729694D02*
X113561468Y-179682075D01*
X113561468Y-179682075D02*
X113751944Y-179682075D01*
X113751944Y-179682075D02*
X113847182Y-179729694D01*
X114704325Y-180348742D02*
X114704325Y-179824932D01*
X114704325Y-179824932D02*
X114656706Y-179729694D01*
X114656706Y-179729694D02*
X114561468Y-179682075D01*
X114561468Y-179682075D02*
X114370992Y-179682075D01*
X114370992Y-179682075D02*
X114275754Y-179729694D01*
X114704325Y-180301123D02*
X114609087Y-180348742D01*
X114609087Y-180348742D02*
X114370992Y-180348742D01*
X114370992Y-180348742D02*
X114275754Y-180301123D01*
X114275754Y-180301123D02*
X114228135Y-180205884D01*
X114228135Y-180205884D02*
X114228135Y-180110646D01*
X114228135Y-180110646D02*
X114275754Y-180015408D01*
X114275754Y-180015408D02*
X114370992Y-179967789D01*
X114370992Y-179967789D02*
X114609087Y-179967789D01*
X114609087Y-179967789D02*
X114704325Y-179920170D01*
X115037659Y-179682075D02*
X115418611Y-179682075D01*
X115180516Y-179348742D02*
X115180516Y-180205884D01*
X115180516Y-180205884D02*
X115228135Y-180301123D01*
X115228135Y-180301123D02*
X115323373Y-180348742D01*
X115323373Y-180348742D02*
X115418611Y-180348742D01*
X115751945Y-180348742D02*
X115751945Y-179682075D01*
X115751945Y-179348742D02*
X115704326Y-179396361D01*
X115704326Y-179396361D02*
X115751945Y-179443980D01*
X115751945Y-179443980D02*
X115799564Y-179396361D01*
X115799564Y-179396361D02*
X115751945Y-179348742D01*
X115751945Y-179348742D02*
X115751945Y-179443980D01*
X116370992Y-180348742D02*
X116275754Y-180301123D01*
X116275754Y-180301123D02*
X116228135Y-180253503D01*
X116228135Y-180253503D02*
X116180516Y-180158265D01*
X116180516Y-180158265D02*
X116180516Y-179872551D01*
X116180516Y-179872551D02*
X116228135Y-179777313D01*
X116228135Y-179777313D02*
X116275754Y-179729694D01*
X116275754Y-179729694D02*
X116370992Y-179682075D01*
X116370992Y-179682075D02*
X116513849Y-179682075D01*
X116513849Y-179682075D02*
X116609087Y-179729694D01*
X116609087Y-179729694D02*
X116656706Y-179777313D01*
X116656706Y-179777313D02*
X116704325Y-179872551D01*
X116704325Y-179872551D02*
X116704325Y-180158265D01*
X116704325Y-180158265D02*
X116656706Y-180253503D01*
X116656706Y-180253503D02*
X116609087Y-180301123D01*
X116609087Y-180301123D02*
X116513849Y-180348742D01*
X116513849Y-180348742D02*
X116370992Y-180348742D01*
X117132897Y-179682075D02*
X117132897Y-180348742D01*
X117132897Y-179777313D02*
X117180516Y-179729694D01*
X117180516Y-179729694D02*
X117275754Y-179682075D01*
X117275754Y-179682075D02*
X117418611Y-179682075D01*
X117418611Y-179682075D02*
X117513849Y-179729694D01*
X117513849Y-179729694D02*
X117561468Y-179824932D01*
X117561468Y-179824932D02*
X117561468Y-180348742D01*
X117990040Y-180301123D02*
X118085278Y-180348742D01*
X118085278Y-180348742D02*
X118275754Y-180348742D01*
X118275754Y-180348742D02*
X118370992Y-180301123D01*
X118370992Y-180301123D02*
X118418611Y-180205884D01*
X118418611Y-180205884D02*
X118418611Y-180158265D01*
X118418611Y-180158265D02*
X118370992Y-180063027D01*
X118370992Y-180063027D02*
X118275754Y-180015408D01*
X118275754Y-180015408D02*
X118132897Y-180015408D01*
X118132897Y-180015408D02*
X118037659Y-179967789D01*
X118037659Y-179967789D02*
X117990040Y-179872551D01*
X117990040Y-179872551D02*
X117990040Y-179824932D01*
X117990040Y-179824932D02*
X118037659Y-179729694D01*
X118037659Y-179729694D02*
X118132897Y-179682075D01*
X118132897Y-179682075D02*
X118275754Y-179682075D01*
X118275754Y-179682075D02*
X118370992Y-179729694D01*
X94228132Y-181292019D02*
X94228132Y-182101543D01*
X94228132Y-182101543D02*
X94180513Y-182196781D01*
X94180513Y-182196781D02*
X94132894Y-182244400D01*
X94132894Y-182244400D02*
X94037656Y-182292019D01*
X94037656Y-182292019D02*
X93894799Y-182292019D01*
X93894799Y-182292019D02*
X93799561Y-182244400D01*
X94228132Y-181911067D02*
X94132894Y-181958686D01*
X94132894Y-181958686D02*
X93942418Y-181958686D01*
X93942418Y-181958686D02*
X93847180Y-181911067D01*
X93847180Y-181911067D02*
X93799561Y-181863447D01*
X93799561Y-181863447D02*
X93751942Y-181768209D01*
X93751942Y-181768209D02*
X93751942Y-181482495D01*
X93751942Y-181482495D02*
X93799561Y-181387257D01*
X93799561Y-181387257D02*
X93847180Y-181339638D01*
X93847180Y-181339638D02*
X93942418Y-181292019D01*
X93942418Y-181292019D02*
X94132894Y-181292019D01*
X94132894Y-181292019D02*
X94228132Y-181339638D01*
X94704323Y-181958686D02*
X94704323Y-181292019D01*
X94704323Y-180958686D02*
X94656704Y-181006305D01*
X94656704Y-181006305D02*
X94704323Y-181053924D01*
X94704323Y-181053924D02*
X94751942Y-181006305D01*
X94751942Y-181006305D02*
X94704323Y-180958686D01*
X94704323Y-180958686D02*
X94704323Y-181053924D01*
X95037656Y-181292019D02*
X95418608Y-181292019D01*
X95180513Y-180958686D02*
X95180513Y-181815828D01*
X95180513Y-181815828D02*
X95228132Y-181911067D01*
X95228132Y-181911067D02*
X95323370Y-181958686D01*
X95323370Y-181958686D02*
X95418608Y-181958686D01*
X95751942Y-181958686D02*
X95751942Y-180958686D01*
X96180513Y-181958686D02*
X96180513Y-181434876D01*
X96180513Y-181434876D02*
X96132894Y-181339638D01*
X96132894Y-181339638D02*
X96037656Y-181292019D01*
X96037656Y-181292019D02*
X95894799Y-181292019D01*
X95894799Y-181292019D02*
X95799561Y-181339638D01*
X95799561Y-181339638D02*
X95751942Y-181387257D01*
X97085275Y-181292019D02*
X97085275Y-181958686D01*
X96656704Y-181292019D02*
X96656704Y-181815828D01*
X96656704Y-181815828D02*
X96704323Y-181911067D01*
X96704323Y-181911067D02*
X96799561Y-181958686D01*
X96799561Y-181958686D02*
X96942418Y-181958686D01*
X96942418Y-181958686D02*
X97037656Y-181911067D01*
X97037656Y-181911067D02*
X97085275Y-181863447D01*
X97561466Y-181958686D02*
X97561466Y-180958686D01*
X97561466Y-181339638D02*
X97656704Y-181292019D01*
X97656704Y-181292019D02*
X97847180Y-181292019D01*
X97847180Y-181292019D02*
X97942418Y-181339638D01*
X97942418Y-181339638D02*
X97990037Y-181387257D01*
X97990037Y-181387257D02*
X98037656Y-181482495D01*
X98037656Y-181482495D02*
X98037656Y-181768209D01*
X98037656Y-181768209D02*
X97990037Y-181863447D01*
X97990037Y-181863447D02*
X97942418Y-181911067D01*
X97942418Y-181911067D02*
X97847180Y-181958686D01*
X97847180Y-181958686D02*
X97656704Y-181958686D01*
X97656704Y-181958686D02*
X97561466Y-181911067D01*
X98466228Y-181863447D02*
X98513847Y-181911067D01*
X98513847Y-181911067D02*
X98466228Y-181958686D01*
X98466228Y-181958686D02*
X98418609Y-181911067D01*
X98418609Y-181911067D02*
X98466228Y-181863447D01*
X98466228Y-181863447D02*
X98466228Y-181958686D01*
X99370989Y-181911067D02*
X99275751Y-181958686D01*
X99275751Y-181958686D02*
X99085275Y-181958686D01*
X99085275Y-181958686D02*
X98990037Y-181911067D01*
X98990037Y-181911067D02*
X98942418Y-181863447D01*
X98942418Y-181863447D02*
X98894799Y-181768209D01*
X98894799Y-181768209D02*
X98894799Y-181482495D01*
X98894799Y-181482495D02*
X98942418Y-181387257D01*
X98942418Y-181387257D02*
X98990037Y-181339638D01*
X98990037Y-181339638D02*
X99085275Y-181292019D01*
X99085275Y-181292019D02*
X99275751Y-181292019D01*
X99275751Y-181292019D02*
X99370989Y-181339638D01*
X99942418Y-181958686D02*
X99847180Y-181911067D01*
X99847180Y-181911067D02*
X99799561Y-181863447D01*
X99799561Y-181863447D02*
X99751942Y-181768209D01*
X99751942Y-181768209D02*
X99751942Y-181482495D01*
X99751942Y-181482495D02*
X99799561Y-181387257D01*
X99799561Y-181387257D02*
X99847180Y-181339638D01*
X99847180Y-181339638D02*
X99942418Y-181292019D01*
X99942418Y-181292019D02*
X100085275Y-181292019D01*
X100085275Y-181292019D02*
X100180513Y-181339638D01*
X100180513Y-181339638D02*
X100228132Y-181387257D01*
X100228132Y-181387257D02*
X100275751Y-181482495D01*
X100275751Y-181482495D02*
X100275751Y-181768209D01*
X100275751Y-181768209D02*
X100228132Y-181863447D01*
X100228132Y-181863447D02*
X100180513Y-181911067D01*
X100180513Y-181911067D02*
X100085275Y-181958686D01*
X100085275Y-181958686D02*
X99942418Y-181958686D01*
X100704323Y-181958686D02*
X100704323Y-181292019D01*
X100704323Y-181387257D02*
X100751942Y-181339638D01*
X100751942Y-181339638D02*
X100847180Y-181292019D01*
X100847180Y-181292019D02*
X100990037Y-181292019D01*
X100990037Y-181292019D02*
X101085275Y-181339638D01*
X101085275Y-181339638D02*
X101132894Y-181434876D01*
X101132894Y-181434876D02*
X101132894Y-181958686D01*
X101132894Y-181434876D02*
X101180513Y-181339638D01*
X101180513Y-181339638D02*
X101275751Y-181292019D01*
X101275751Y-181292019D02*
X101418608Y-181292019D01*
X101418608Y-181292019D02*
X101513847Y-181339638D01*
X101513847Y-181339638D02*
X101561466Y-181434876D01*
X101561466Y-181434876D02*
X101561466Y-181958686D01*
X102751941Y-180911067D02*
X101894799Y-182196781D01*
X103228132Y-181958686D02*
X103132894Y-181911067D01*
X103132894Y-181911067D02*
X103085275Y-181815828D01*
X103085275Y-181815828D02*
X103085275Y-180958686D01*
X103751942Y-181958686D02*
X103656704Y-181911067D01*
X103656704Y-181911067D02*
X103609085Y-181863447D01*
X103609085Y-181863447D02*
X103561466Y-181768209D01*
X103561466Y-181768209D02*
X103561466Y-181482495D01*
X103561466Y-181482495D02*
X103609085Y-181387257D01*
X103609085Y-181387257D02*
X103656704Y-181339638D01*
X103656704Y-181339638D02*
X103751942Y-181292019D01*
X103751942Y-181292019D02*
X103894799Y-181292019D01*
X103894799Y-181292019D02*
X103990037Y-181339638D01*
X103990037Y-181339638D02*
X104037656Y-181387257D01*
X104037656Y-181387257D02*
X104085275Y-181482495D01*
X104085275Y-181482495D02*
X104085275Y-181768209D01*
X104085275Y-181768209D02*
X104037656Y-181863447D01*
X104037656Y-181863447D02*
X103990037Y-181911067D01*
X103990037Y-181911067D02*
X103894799Y-181958686D01*
X103894799Y-181958686D02*
X103751942Y-181958686D01*
X104418609Y-181292019D02*
X104942418Y-181292019D01*
X104942418Y-181292019D02*
X104418609Y-181958686D01*
X104418609Y-181958686D02*
X104942418Y-181958686D01*
X105704323Y-181911067D02*
X105609085Y-181958686D01*
X105609085Y-181958686D02*
X105418609Y-181958686D01*
X105418609Y-181958686D02*
X105323371Y-181911067D01*
X105323371Y-181911067D02*
X105275752Y-181815828D01*
X105275752Y-181815828D02*
X105275752Y-181434876D01*
X105275752Y-181434876D02*
X105323371Y-181339638D01*
X105323371Y-181339638D02*
X105418609Y-181292019D01*
X105418609Y-181292019D02*
X105609085Y-181292019D01*
X105609085Y-181292019D02*
X105704323Y-181339638D01*
X105704323Y-181339638D02*
X105751942Y-181434876D01*
X105751942Y-181434876D02*
X105751942Y-181530114D01*
X105751942Y-181530114D02*
X105275752Y-181625352D01*
X106180514Y-181292019D02*
X106180514Y-181958686D01*
X106180514Y-181387257D02*
X106228133Y-181339638D01*
X106228133Y-181339638D02*
X106323371Y-181292019D01*
X106323371Y-181292019D02*
X106466228Y-181292019D01*
X106466228Y-181292019D02*
X106561466Y-181339638D01*
X106561466Y-181339638D02*
X106609085Y-181434876D01*
X106609085Y-181434876D02*
X106609085Y-181958686D01*
X107513847Y-181292019D02*
X107513847Y-182101543D01*
X107513847Y-182101543D02*
X107466228Y-182196781D01*
X107466228Y-182196781D02*
X107418609Y-182244400D01*
X107418609Y-182244400D02*
X107323371Y-182292019D01*
X107323371Y-182292019D02*
X107180514Y-182292019D01*
X107180514Y-182292019D02*
X107085276Y-182244400D01*
X107513847Y-181911067D02*
X107418609Y-181958686D01*
X107418609Y-181958686D02*
X107228133Y-181958686D01*
X107228133Y-181958686D02*
X107132895Y-181911067D01*
X107132895Y-181911067D02*
X107085276Y-181863447D01*
X107085276Y-181863447D02*
X107037657Y-181768209D01*
X107037657Y-181768209D02*
X107037657Y-181482495D01*
X107037657Y-181482495D02*
X107085276Y-181387257D01*
X107085276Y-181387257D02*
X107132895Y-181339638D01*
X107132895Y-181339638D02*
X107228133Y-181292019D01*
X107228133Y-181292019D02*
X107418609Y-181292019D01*
X107418609Y-181292019D02*
X107513847Y-181339638D01*
X108370990Y-181911067D02*
X108275752Y-181958686D01*
X108275752Y-181958686D02*
X108085276Y-181958686D01*
X108085276Y-181958686D02*
X107990038Y-181911067D01*
X107990038Y-181911067D02*
X107942419Y-181815828D01*
X107942419Y-181815828D02*
X107942419Y-181434876D01*
X107942419Y-181434876D02*
X107990038Y-181339638D01*
X107990038Y-181339638D02*
X108085276Y-181292019D01*
X108085276Y-181292019D02*
X108275752Y-181292019D01*
X108275752Y-181292019D02*
X108370990Y-181339638D01*
X108370990Y-181339638D02*
X108418609Y-181434876D01*
X108418609Y-181434876D02*
X108418609Y-181530114D01*
X108418609Y-181530114D02*
X107942419Y-181625352D01*
X109275752Y-181958686D02*
X109275752Y-180958686D01*
X109275752Y-181911067D02*
X109180514Y-181958686D01*
X109180514Y-181958686D02*
X108990038Y-181958686D01*
X108990038Y-181958686D02*
X108894800Y-181911067D01*
X108894800Y-181911067D02*
X108847181Y-181863447D01*
X108847181Y-181863447D02*
X108799562Y-181768209D01*
X108799562Y-181768209D02*
X108799562Y-181482495D01*
X108799562Y-181482495D02*
X108847181Y-181387257D01*
X108847181Y-181387257D02*
X108894800Y-181339638D01*
X108894800Y-181339638D02*
X108990038Y-181292019D01*
X108990038Y-181292019D02*
X109180514Y-181292019D01*
X109180514Y-181292019D02*
X109275752Y-181339638D01*
X109751943Y-181958686D02*
X109751943Y-181292019D01*
X109751943Y-181482495D02*
X109799562Y-181387257D01*
X109799562Y-181387257D02*
X109847181Y-181339638D01*
X109847181Y-181339638D02*
X109942419Y-181292019D01*
X109942419Y-181292019D02*
X110037657Y-181292019D01*
X110513848Y-181958686D02*
X110418610Y-181911067D01*
X110418610Y-181911067D02*
X110370991Y-181863447D01*
X110370991Y-181863447D02*
X110323372Y-181768209D01*
X110323372Y-181768209D02*
X110323372Y-181482495D01*
X110323372Y-181482495D02*
X110370991Y-181387257D01*
X110370991Y-181387257D02*
X110418610Y-181339638D01*
X110418610Y-181339638D02*
X110513848Y-181292019D01*
X110513848Y-181292019D02*
X110656705Y-181292019D01*
X110656705Y-181292019D02*
X110751943Y-181339638D01*
X110751943Y-181339638D02*
X110799562Y-181387257D01*
X110799562Y-181387257D02*
X110847181Y-181482495D01*
X110847181Y-181482495D02*
X110847181Y-181768209D01*
X110847181Y-181768209D02*
X110799562Y-181863447D01*
X110799562Y-181863447D02*
X110751943Y-181911067D01*
X110751943Y-181911067D02*
X110656705Y-181958686D01*
X110656705Y-181958686D02*
X110513848Y-181958686D01*
X111275753Y-181292019D02*
X111275753Y-182292019D01*
X111275753Y-181339638D02*
X111370991Y-181292019D01*
X111370991Y-181292019D02*
X111561467Y-181292019D01*
X111561467Y-181292019D02*
X111656705Y-181339638D01*
X111656705Y-181339638D02*
X111704324Y-181387257D01*
X111704324Y-181387257D02*
X111751943Y-181482495D01*
X111751943Y-181482495D02*
X111751943Y-181768209D01*
X111751943Y-181768209D02*
X111704324Y-181863447D01*
X111704324Y-181863447D02*
X111656705Y-181911067D01*
X111656705Y-181911067D02*
X111561467Y-181958686D01*
X111561467Y-181958686D02*
X111370991Y-181958686D01*
X111370991Y-181958686D02*
X111275753Y-181911067D01*
X113228134Y-182339638D02*
X113180515Y-182292019D01*
X113180515Y-182292019D02*
X113085277Y-182149162D01*
X113085277Y-182149162D02*
X113037658Y-182053924D01*
X113037658Y-182053924D02*
X112990039Y-181911067D01*
X112990039Y-181911067D02*
X112942420Y-181672971D01*
X112942420Y-181672971D02*
X112942420Y-181482495D01*
X112942420Y-181482495D02*
X112990039Y-181244400D01*
X112990039Y-181244400D02*
X113037658Y-181101543D01*
X113037658Y-181101543D02*
X113085277Y-181006305D01*
X113085277Y-181006305D02*
X113180515Y-180863447D01*
X113180515Y-180863447D02*
X113228134Y-180815828D01*
X113513849Y-180958686D02*
X114180515Y-180958686D01*
X114180515Y-180958686D02*
X113513849Y-181958686D01*
X113513849Y-181958686D02*
X114180515Y-181958686D01*
X114990039Y-181958686D02*
X114990039Y-181434876D01*
X114990039Y-181434876D02*
X114942420Y-181339638D01*
X114942420Y-181339638D02*
X114847182Y-181292019D01*
X114847182Y-181292019D02*
X114656706Y-181292019D01*
X114656706Y-181292019D02*
X114561468Y-181339638D01*
X114990039Y-181911067D02*
X114894801Y-181958686D01*
X114894801Y-181958686D02*
X114656706Y-181958686D01*
X114656706Y-181958686D02*
X114561468Y-181911067D01*
X114561468Y-181911067D02*
X114513849Y-181815828D01*
X114513849Y-181815828D02*
X114513849Y-181720590D01*
X114513849Y-181720590D02*
X114561468Y-181625352D01*
X114561468Y-181625352D02*
X114656706Y-181577733D01*
X114656706Y-181577733D02*
X114894801Y-181577733D01*
X114894801Y-181577733D02*
X114990039Y-181530114D01*
X115894801Y-181911067D02*
X115799563Y-181958686D01*
X115799563Y-181958686D02*
X115609087Y-181958686D01*
X115609087Y-181958686D02*
X115513849Y-181911067D01*
X115513849Y-181911067D02*
X115466230Y-181863447D01*
X115466230Y-181863447D02*
X115418611Y-181768209D01*
X115418611Y-181768209D02*
X115418611Y-181482495D01*
X115418611Y-181482495D02*
X115466230Y-181387257D01*
X115466230Y-181387257D02*
X115513849Y-181339638D01*
X115513849Y-181339638D02*
X115609087Y-181292019D01*
X115609087Y-181292019D02*
X115799563Y-181292019D01*
X115799563Y-181292019D02*
X115894801Y-181339638D01*
X116323373Y-181958686D02*
X116323373Y-180958686D01*
X116751944Y-181958686D02*
X116751944Y-181434876D01*
X116751944Y-181434876D02*
X116704325Y-181339638D01*
X116704325Y-181339638D02*
X116609087Y-181292019D01*
X116609087Y-181292019D02*
X116466230Y-181292019D01*
X116466230Y-181292019D02*
X116370992Y-181339638D01*
X116370992Y-181339638D02*
X116323373Y-181387257D01*
X118466230Y-181958686D02*
X117990040Y-181958686D01*
X117990040Y-181958686D02*
X117990040Y-180958686D01*
X118942421Y-181958686D02*
X118847183Y-181911067D01*
X118847183Y-181911067D02*
X118799564Y-181863447D01*
X118799564Y-181863447D02*
X118751945Y-181768209D01*
X118751945Y-181768209D02*
X118751945Y-181482495D01*
X118751945Y-181482495D02*
X118799564Y-181387257D01*
X118799564Y-181387257D02*
X118847183Y-181339638D01*
X118847183Y-181339638D02*
X118942421Y-181292019D01*
X118942421Y-181292019D02*
X119085278Y-181292019D01*
X119085278Y-181292019D02*
X119180516Y-181339638D01*
X119180516Y-181339638D02*
X119228135Y-181387257D01*
X119228135Y-181387257D02*
X119275754Y-181482495D01*
X119275754Y-181482495D02*
X119275754Y-181768209D01*
X119275754Y-181768209D02*
X119228135Y-181863447D01*
X119228135Y-181863447D02*
X119180516Y-181911067D01*
X119180516Y-181911067D02*
X119085278Y-181958686D01*
X119085278Y-181958686D02*
X118942421Y-181958686D01*
X120132897Y-181292019D02*
X120132897Y-182101543D01*
X120132897Y-182101543D02*
X120085278Y-182196781D01*
X120085278Y-182196781D02*
X120037659Y-182244400D01*
X120037659Y-182244400D02*
X119942421Y-182292019D01*
X119942421Y-182292019D02*
X119799564Y-182292019D01*
X119799564Y-182292019D02*
X119704326Y-182244400D01*
X120132897Y-181911067D02*
X120037659Y-181958686D01*
X120037659Y-181958686D02*
X119847183Y-181958686D01*
X119847183Y-181958686D02*
X119751945Y-181911067D01*
X119751945Y-181911067D02*
X119704326Y-181863447D01*
X119704326Y-181863447D02*
X119656707Y-181768209D01*
X119656707Y-181768209D02*
X119656707Y-181482495D01*
X119656707Y-181482495D02*
X119704326Y-181387257D01*
X119704326Y-181387257D02*
X119751945Y-181339638D01*
X119751945Y-181339638D02*
X119847183Y-181292019D01*
X119847183Y-181292019D02*
X120037659Y-181292019D01*
X120037659Y-181292019D02*
X120132897Y-181339638D01*
X121037659Y-181958686D02*
X121037659Y-181434876D01*
X121037659Y-181434876D02*
X120990040Y-181339638D01*
X120990040Y-181339638D02*
X120894802Y-181292019D01*
X120894802Y-181292019D02*
X120704326Y-181292019D01*
X120704326Y-181292019D02*
X120609088Y-181339638D01*
X121037659Y-181911067D02*
X120942421Y-181958686D01*
X120942421Y-181958686D02*
X120704326Y-181958686D01*
X120704326Y-181958686D02*
X120609088Y-181911067D01*
X120609088Y-181911067D02*
X120561469Y-181815828D01*
X120561469Y-181815828D02*
X120561469Y-181720590D01*
X120561469Y-181720590D02*
X120609088Y-181625352D01*
X120609088Y-181625352D02*
X120704326Y-181577733D01*
X120704326Y-181577733D02*
X120942421Y-181577733D01*
X120942421Y-181577733D02*
X121037659Y-181530114D01*
X121513850Y-181292019D02*
X121513850Y-181958686D01*
X121513850Y-181387257D02*
X121561469Y-181339638D01*
X121561469Y-181339638D02*
X121656707Y-181292019D01*
X121656707Y-181292019D02*
X121799564Y-181292019D01*
X121799564Y-181292019D02*
X121894802Y-181339638D01*
X121894802Y-181339638D02*
X121942421Y-181434876D01*
X121942421Y-181434876D02*
X121942421Y-181958686D01*
X122323374Y-182339638D02*
X122370993Y-182292019D01*
X122370993Y-182292019D02*
X122466231Y-182149162D01*
X122466231Y-182149162D02*
X122513850Y-182053924D01*
X122513850Y-182053924D02*
X122561469Y-181911067D01*
X122561469Y-181911067D02*
X122609088Y-181672971D01*
X122609088Y-181672971D02*
X122609088Y-181482495D01*
X122609088Y-181482495D02*
X122561469Y-181244400D01*
X122561469Y-181244400D02*
X122513850Y-181101543D01*
X122513850Y-181101543D02*
X122466231Y-181006305D01*
X122466231Y-181006305D02*
X122370993Y-180863447D01*
X122370993Y-180863447D02*
X122323374Y-180815828D01*
X148085277Y-179323882D02*
X148085277Y-178323882D01*
X148085277Y-178323882D02*
X148466229Y-178323882D01*
X148466229Y-178323882D02*
X148561467Y-178371501D01*
X148561467Y-178371501D02*
X148609086Y-178419120D01*
X148609086Y-178419120D02*
X148656705Y-178514358D01*
X148656705Y-178514358D02*
X148656705Y-178657215D01*
X148656705Y-178657215D02*
X148609086Y-178752453D01*
X148609086Y-178752453D02*
X148561467Y-178800072D01*
X148561467Y-178800072D02*
X148466229Y-178847691D01*
X148466229Y-178847691D02*
X148085277Y-178847691D01*
X149228134Y-179323882D02*
X149132896Y-179276263D01*
X149132896Y-179276263D02*
X149085277Y-179228643D01*
X149085277Y-179228643D02*
X149037658Y-179133405D01*
X149037658Y-179133405D02*
X149037658Y-178847691D01*
X149037658Y-178847691D02*
X149085277Y-178752453D01*
X149085277Y-178752453D02*
X149132896Y-178704834D01*
X149132896Y-178704834D02*
X149228134Y-178657215D01*
X149228134Y-178657215D02*
X149370991Y-178657215D01*
X149370991Y-178657215D02*
X149466229Y-178704834D01*
X149466229Y-178704834D02*
X149513848Y-178752453D01*
X149513848Y-178752453D02*
X149561467Y-178847691D01*
X149561467Y-178847691D02*
X149561467Y-179133405D01*
X149561467Y-179133405D02*
X149513848Y-179228643D01*
X149513848Y-179228643D02*
X149466229Y-179276263D01*
X149466229Y-179276263D02*
X149370991Y-179323882D01*
X149370991Y-179323882D02*
X149228134Y-179323882D01*
X149894801Y-178657215D02*
X150085277Y-179323882D01*
X150085277Y-179323882D02*
X150275753Y-178847691D01*
X150275753Y-178847691D02*
X150466229Y-179323882D01*
X150466229Y-179323882D02*
X150656705Y-178657215D01*
X151418610Y-179276263D02*
X151323372Y-179323882D01*
X151323372Y-179323882D02*
X151132896Y-179323882D01*
X151132896Y-179323882D02*
X151037658Y-179276263D01*
X151037658Y-179276263D02*
X150990039Y-179181024D01*
X150990039Y-179181024D02*
X150990039Y-178800072D01*
X150990039Y-178800072D02*
X151037658Y-178704834D01*
X151037658Y-178704834D02*
X151132896Y-178657215D01*
X151132896Y-178657215D02*
X151323372Y-178657215D01*
X151323372Y-178657215D02*
X151418610Y-178704834D01*
X151418610Y-178704834D02*
X151466229Y-178800072D01*
X151466229Y-178800072D02*
X151466229Y-178895310D01*
X151466229Y-178895310D02*
X150990039Y-178990548D01*
X151894801Y-179323882D02*
X151894801Y-178657215D01*
X151894801Y-178847691D02*
X151942420Y-178752453D01*
X151942420Y-178752453D02*
X151990039Y-178704834D01*
X151990039Y-178704834D02*
X152085277Y-178657215D01*
X152085277Y-178657215D02*
X152180515Y-178657215D01*
X152894801Y-179276263D02*
X152799563Y-179323882D01*
X152799563Y-179323882D02*
X152609087Y-179323882D01*
X152609087Y-179323882D02*
X152513849Y-179276263D01*
X152513849Y-179276263D02*
X152466230Y-179181024D01*
X152466230Y-179181024D02*
X152466230Y-178800072D01*
X152466230Y-178800072D02*
X152513849Y-178704834D01*
X152513849Y-178704834D02*
X152609087Y-178657215D01*
X152609087Y-178657215D02*
X152799563Y-178657215D01*
X152799563Y-178657215D02*
X152894801Y-178704834D01*
X152894801Y-178704834D02*
X152942420Y-178800072D01*
X152942420Y-178800072D02*
X152942420Y-178895310D01*
X152942420Y-178895310D02*
X152466230Y-178990548D01*
X153799563Y-179323882D02*
X153799563Y-178323882D01*
X153799563Y-179276263D02*
X153704325Y-179323882D01*
X153704325Y-179323882D02*
X153513849Y-179323882D01*
X153513849Y-179323882D02*
X153418611Y-179276263D01*
X153418611Y-179276263D02*
X153370992Y-179228643D01*
X153370992Y-179228643D02*
X153323373Y-179133405D01*
X153323373Y-179133405D02*
X153323373Y-178847691D01*
X153323373Y-178847691D02*
X153370992Y-178752453D01*
X153370992Y-178752453D02*
X153418611Y-178704834D01*
X153418611Y-178704834D02*
X153513849Y-178657215D01*
X153513849Y-178657215D02*
X153704325Y-178657215D01*
X153704325Y-178657215D02*
X153799563Y-178704834D01*
X155370992Y-178800072D02*
X155513849Y-178847691D01*
X155513849Y-178847691D02*
X155561468Y-178895310D01*
X155561468Y-178895310D02*
X155609087Y-178990548D01*
X155609087Y-178990548D02*
X155609087Y-179133405D01*
X155609087Y-179133405D02*
X155561468Y-179228643D01*
X155561468Y-179228643D02*
X155513849Y-179276263D01*
X155513849Y-179276263D02*
X155418611Y-179323882D01*
X155418611Y-179323882D02*
X155037659Y-179323882D01*
X155037659Y-179323882D02*
X155037659Y-178323882D01*
X155037659Y-178323882D02*
X155370992Y-178323882D01*
X155370992Y-178323882D02*
X155466230Y-178371501D01*
X155466230Y-178371501D02*
X155513849Y-178419120D01*
X155513849Y-178419120D02*
X155561468Y-178514358D01*
X155561468Y-178514358D02*
X155561468Y-178609596D01*
X155561468Y-178609596D02*
X155513849Y-178704834D01*
X155513849Y-178704834D02*
X155466230Y-178752453D01*
X155466230Y-178752453D02*
X155370992Y-178800072D01*
X155370992Y-178800072D02*
X155037659Y-178800072D01*
X155942421Y-178657215D02*
X156180516Y-179323882D01*
X156418611Y-178657215D02*
X156180516Y-179323882D01*
X156180516Y-179323882D02*
X156085278Y-179561977D01*
X156085278Y-179561977D02*
X156037659Y-179609596D01*
X156037659Y-179609596D02*
X155942421Y-179657215D01*
X149442420Y-180410016D02*
X149775753Y-180410016D01*
X149918610Y-180933826D02*
X149442420Y-180933826D01*
X149442420Y-180933826D02*
X149442420Y-179933826D01*
X149442420Y-179933826D02*
X149918610Y-179933826D01*
X150347182Y-180933826D02*
X150347182Y-180267159D01*
X150347182Y-180457635D02*
X150394801Y-180362397D01*
X150394801Y-180362397D02*
X150442420Y-180314778D01*
X150442420Y-180314778D02*
X150537658Y-180267159D01*
X150537658Y-180267159D02*
X150632896Y-180267159D01*
X151394801Y-180267159D02*
X151394801Y-181076683D01*
X151394801Y-181076683D02*
X151347182Y-181171921D01*
X151347182Y-181171921D02*
X151299563Y-181219540D01*
X151299563Y-181219540D02*
X151204325Y-181267159D01*
X151204325Y-181267159D02*
X151061468Y-181267159D01*
X151061468Y-181267159D02*
X150966230Y-181219540D01*
X151394801Y-180886207D02*
X151299563Y-180933826D01*
X151299563Y-180933826D02*
X151109087Y-180933826D01*
X151109087Y-180933826D02*
X151013849Y-180886207D01*
X151013849Y-180886207D02*
X150966230Y-180838587D01*
X150966230Y-180838587D02*
X150918611Y-180743349D01*
X150918611Y-180743349D02*
X150918611Y-180457635D01*
X150918611Y-180457635D02*
X150966230Y-180362397D01*
X150966230Y-180362397D02*
X151013849Y-180314778D01*
X151013849Y-180314778D02*
X151109087Y-180267159D01*
X151109087Y-180267159D02*
X151299563Y-180267159D01*
X151299563Y-180267159D02*
X151394801Y-180314778D01*
X152013849Y-180933826D02*
X151918611Y-180886207D01*
X151918611Y-180886207D02*
X151870992Y-180838587D01*
X151870992Y-180838587D02*
X151823373Y-180743349D01*
X151823373Y-180743349D02*
X151823373Y-180457635D01*
X151823373Y-180457635D02*
X151870992Y-180362397D01*
X151870992Y-180362397D02*
X151918611Y-180314778D01*
X151918611Y-180314778D02*
X152013849Y-180267159D01*
X152013849Y-180267159D02*
X152156706Y-180267159D01*
X152156706Y-180267159D02*
X152251944Y-180314778D01*
X152251944Y-180314778D02*
X152299563Y-180362397D01*
X152299563Y-180362397D02*
X152347182Y-180457635D01*
X152347182Y-180457635D02*
X152347182Y-180743349D01*
X152347182Y-180743349D02*
X152299563Y-180838587D01*
X152299563Y-180838587D02*
X152251944Y-180886207D01*
X152251944Y-180886207D02*
X152156706Y-180933826D01*
X152156706Y-180933826D02*
X152013849Y-180933826D01*
X153204325Y-180267159D02*
X153204325Y-181076683D01*
X153204325Y-181076683D02*
X153156706Y-181171921D01*
X153156706Y-181171921D02*
X153109087Y-181219540D01*
X153109087Y-181219540D02*
X153013849Y-181267159D01*
X153013849Y-181267159D02*
X152870992Y-181267159D01*
X152870992Y-181267159D02*
X152775754Y-181219540D01*
X153204325Y-180886207D02*
X153109087Y-180933826D01*
X153109087Y-180933826D02*
X152918611Y-180933826D01*
X152918611Y-180933826D02*
X152823373Y-180886207D01*
X152823373Y-180886207D02*
X152775754Y-180838587D01*
X152775754Y-180838587D02*
X152728135Y-180743349D01*
X152728135Y-180743349D02*
X152728135Y-180457635D01*
X152728135Y-180457635D02*
X152775754Y-180362397D01*
X152775754Y-180362397D02*
X152823373Y-180314778D01*
X152823373Y-180314778D02*
X152918611Y-180267159D01*
X152918611Y-180267159D02*
X153109087Y-180267159D01*
X153109087Y-180267159D02*
X153204325Y-180314778D01*
X154061468Y-180886207D02*
X153966230Y-180933826D01*
X153966230Y-180933826D02*
X153775754Y-180933826D01*
X153775754Y-180933826D02*
X153680516Y-180886207D01*
X153680516Y-180886207D02*
X153632897Y-180790968D01*
X153632897Y-180790968D02*
X153632897Y-180410016D01*
X153632897Y-180410016D02*
X153680516Y-180314778D01*
X153680516Y-180314778D02*
X153775754Y-180267159D01*
X153775754Y-180267159D02*
X153966230Y-180267159D01*
X153966230Y-180267159D02*
X154061468Y-180314778D01*
X154061468Y-180314778D02*
X154109087Y-180410016D01*
X154109087Y-180410016D02*
X154109087Y-180505254D01*
X154109087Y-180505254D02*
X153632897Y-180600492D01*
X154537659Y-180267159D02*
X154537659Y-180933826D01*
X154537659Y-180362397D02*
X154585278Y-180314778D01*
X154585278Y-180314778D02*
X154680516Y-180267159D01*
X154680516Y-180267159D02*
X154823373Y-180267159D01*
X154823373Y-180267159D02*
X154918611Y-180314778D01*
X154918611Y-180314778D02*
X154966230Y-180410016D01*
X154966230Y-180410016D02*
X154966230Y-180933826D01*
D11*
%TO.C,LOGO1*%
X154705555Y-173674035D02*
X154705555Y-173824109D01*
X154705555Y-174687123D01*
X154705555Y-176175266D01*
X152204325Y-176175266D01*
X149703094Y-176175266D01*
X149703094Y-173992942D01*
X150503100Y-173992942D01*
X150506420Y-174336862D01*
X150509741Y-174680781D01*
X152226210Y-174683952D01*
X153942680Y-174687123D01*
X153942680Y-174511992D01*
X153942680Y-174336862D01*
X152395205Y-174336862D01*
X150847731Y-174336862D01*
X150675415Y-174164902D01*
X150503100Y-173992942D01*
X149703094Y-173992942D01*
X149703094Y-173674035D01*
X149703094Y-173473937D01*
X151735679Y-173473937D01*
X151910430Y-173649023D01*
X152085181Y-173824109D01*
X152841803Y-173824109D01*
X153598426Y-173824109D01*
X153423675Y-173649023D01*
X153248924Y-173473937D01*
X152492301Y-173473937D01*
X151735679Y-173473937D01*
X149703094Y-173473937D01*
X149703094Y-172611012D01*
X150503488Y-172611012D01*
X150503488Y-172954932D01*
X150503489Y-172963572D01*
X150503624Y-173052715D01*
X150503966Y-173132810D01*
X150504485Y-173200663D01*
X150505148Y-173253083D01*
X150505926Y-173286877D01*
X150506788Y-173298851D01*
X150506903Y-173298809D01*
X150517440Y-173289272D01*
X150542646Y-173264902D01*
X150579750Y-173228421D01*
X150625983Y-173182552D01*
X150678574Y-173130018D01*
X150847059Y-172961185D01*
X152394870Y-172961185D01*
X153942680Y-172961185D01*
X153942680Y-172786098D01*
X153942680Y-172611012D01*
X152223084Y-172611012D01*
X150503488Y-172611012D01*
X149703094Y-172611012D01*
X149703094Y-171172805D01*
X152204325Y-171172805D01*
X154705555Y-171172805D01*
X154705555Y-172611012D01*
X154705555Y-173674035D01*
G36*
X154705555Y-173674035D02*
G01*
X154705555Y-173824109D01*
X154705555Y-174687123D01*
X154705555Y-176175266D01*
X152204325Y-176175266D01*
X149703094Y-176175266D01*
X149703094Y-173992942D01*
X150503100Y-173992942D01*
X150506420Y-174336862D01*
X150509741Y-174680781D01*
X152226210Y-174683952D01*
X153942680Y-174687123D01*
X153942680Y-174511992D01*
X153942680Y-174336862D01*
X152395205Y-174336862D01*
X150847731Y-174336862D01*
X150675415Y-174164902D01*
X150503100Y-173992942D01*
X149703094Y-173992942D01*
X149703094Y-173674035D01*
X149703094Y-173473937D01*
X151735679Y-173473937D01*
X151910430Y-173649023D01*
X152085181Y-173824109D01*
X152841803Y-173824109D01*
X153598426Y-173824109D01*
X153423675Y-173649023D01*
X153248924Y-173473937D01*
X152492301Y-173473937D01*
X151735679Y-173473937D01*
X149703094Y-173473937D01*
X149703094Y-172611012D01*
X150503488Y-172611012D01*
X150503488Y-172954932D01*
X150503489Y-172963572D01*
X150503624Y-173052715D01*
X150503966Y-173132810D01*
X150504485Y-173200663D01*
X150505148Y-173253083D01*
X150505926Y-173286877D01*
X150506788Y-173298851D01*
X150506903Y-173298809D01*
X150517440Y-173289272D01*
X150542646Y-173264902D01*
X150579750Y-173228421D01*
X150625983Y-173182552D01*
X150678574Y-173130018D01*
X150847059Y-172961185D01*
X152394870Y-172961185D01*
X153942680Y-172961185D01*
X153942680Y-172786098D01*
X153942680Y-172611012D01*
X152223084Y-172611012D01*
X150503488Y-172611012D01*
X149703094Y-172611012D01*
X149703094Y-171172805D01*
X152204325Y-171172805D01*
X154705555Y-171172805D01*
X154705555Y-172611012D01*
X154705555Y-173674035D01*
G37*
D10*
%TO.C,S8*%
X108597830Y-139782808D02*
X108475042Y-139086444D01*
X110481879Y-141102034D02*
X108597830Y-139782808D01*
X110612570Y-143879248D02*
X111014073Y-143305842D01*
X111178924Y-136096624D02*
X110482559Y-136219411D01*
X113324762Y-140040705D02*
X116994563Y-142610327D01*
X113636380Y-137817353D02*
X111178924Y-136096624D01*
X113759168Y-138513717D02*
X113231477Y-139267337D01*
X113759168Y-138513717D02*
X113636380Y-137817353D01*
X114298754Y-146460342D02*
X110612570Y-143879248D01*
X114585542Y-146050766D02*
X114298754Y-146460342D01*
X116994563Y-142610327D02*
X116650417Y-143101819D01*
X110481879Y-141102034D02*
G75*
G02*
X111025544Y-143289458I-821877J-1365544D01*
G01*
X113324762Y-140040705D02*
G75*
G02*
X113231478Y-139267337I340042J433326D01*
G01*
%TO.C,S2*%
X40511206Y-116219647D02*
X40157652Y-115607274D01*
X41675891Y-111872981D02*
X41063519Y-112226534D01*
X42732835Y-116814931D02*
X40511206Y-116219647D01*
X43805507Y-119379960D02*
X43986680Y-118703812D01*
X44573669Y-112649438D02*
X41675891Y-111872981D01*
X44927222Y-113261810D02*
X44573669Y-112649438D01*
X44927222Y-113261810D02*
X44689109Y-114150462D01*
X45041275Y-114845285D02*
X49368623Y-116004794D01*
X48152173Y-120544647D02*
X43805507Y-119379960D01*
X48281583Y-120061683D02*
X48152173Y-120544647D01*
X49368623Y-116004794D02*
X49213331Y-116584350D01*
X42732835Y-116814931D02*
G75*
G02*
X43991857Y-118684493I-305270J-1564292D01*
G01*
X45041275Y-114845285D02*
G75*
G02*
X44689108Y-114150462I171328J523495D01*
G01*
D12*
%TO.C,D11*%
X228428933Y-137434411D02*
X228815303Y-137330884D01*
X228815303Y-137330884D02*
X228672952Y-136799623D01*
X228815303Y-137330884D02*
X228957653Y-137862143D01*
X228815303Y-137330884D02*
X229291331Y-136789222D01*
X229291331Y-136789222D02*
X229498386Y-137561963D01*
X229394858Y-137175592D02*
X229877821Y-137046183D01*
X229498386Y-137561963D02*
X228815303Y-137330884D01*
%TO.C,D1*%
X40569522Y-140150153D02*
X40776577Y-139377412D01*
X40673050Y-139763782D02*
X40190087Y-139634373D01*
X40776577Y-139377412D02*
X41252605Y-139919074D01*
X41252605Y-139919074D02*
X40569522Y-140150153D01*
X41252605Y-139919074D02*
X41110255Y-140450333D01*
X41252605Y-139919074D02*
X41394956Y-139387813D01*
X41638975Y-140022601D02*
X41252605Y-139919074D01*
D10*
%TO.C,S9*%
X220234905Y-129070177D02*
X219881352Y-129682549D01*
X221399591Y-133416843D02*
X220787218Y-133063290D01*
X223132683Y-128293720D02*
X220234905Y-129070177D01*
X223621220Y-132821559D02*
X221399591Y-133416843D01*
X223745055Y-128647273D02*
X223132683Y-128293720D01*
X223745055Y-128647273D02*
X223983169Y-129535925D01*
X224635565Y-129961576D02*
X228962913Y-128802068D01*
X225832696Y-134506604D02*
X225651523Y-133830457D01*
X228962913Y-128802068D02*
X229118204Y-129381622D01*
X230049953Y-132858955D02*
X230179362Y-133341918D01*
X230179362Y-133341918D02*
X225832696Y-134506604D01*
X223621220Y-132821559D02*
G75*
G02*
X225646346Y-133811137I517774J-1507352D01*
G01*
X224635565Y-129961576D02*
G75*
G02*
X223983168Y-129535925I-113373J539024D01*
G01*
D12*
%TO.C,REF\u002A\u002A*%
X121355572Y-160865695D02*
X121355572Y-143720695D01*
X123260572Y-141815695D02*
X137230572Y-141815695D01*
D13*
X125741572Y-140805695D02*
X125741572Y-141815695D01*
X134236844Y-140305695D02*
X126241572Y-140305695D01*
X134740572Y-141815695D02*
X134736844Y-140805423D01*
D12*
X137230572Y-162770695D02*
X123260572Y-162770695D01*
X139135572Y-160865695D02*
X139135572Y-143720695D01*
X121355572Y-143720695D02*
G75*
G02*
X123260572Y-141815695I1905049J-49D01*
G01*
X123260572Y-162770695D02*
G75*
G02*
X121355572Y-160865695I1J1905001D01*
G01*
D13*
X125741572Y-140805695D02*
G75*
G02*
X126241572Y-140305695I500100J-100D01*
G01*
X134236844Y-140305695D02*
G75*
G02*
X134736865Y-140805423I-19J-500040D01*
G01*
D12*
X137230572Y-141811695D02*
G75*
G02*
X139135575Y-143716695I3J-1905000D01*
G01*
X139135572Y-160865695D02*
G75*
G02*
X137230572Y-162770702I-1905007J0D01*
G01*
D14*
X138323572Y-142948695D02*
G75*
G02*
X137819572Y-142948695I-252000J0D01*
G01*
X137819572Y-142948695D02*
G75*
G02*
X138323572Y-142948695I252000J0D01*
G01*
D10*
%TO.C,S12*%
X187509822Y-112622943D02*
X187267977Y-113287406D01*
X189411604Y-116701328D02*
X188747141Y-116459483D01*
X190228745Y-111355088D02*
X187509822Y-112622943D01*
X190893208Y-111596933D02*
X190228745Y-111355088D01*
X190893208Y-111596933D02*
X191282017Y-112430736D01*
X191496112Y-115729306D02*
X189411604Y-116701328D01*
X191998415Y-112736633D02*
X196058674Y-110843303D01*
X193966595Y-117004732D02*
X193670762Y-116370316D01*
X196058674Y-110843303D02*
X196312245Y-111387088D01*
X197833671Y-114649796D02*
X198044980Y-115102949D01*
X198044980Y-115102949D02*
X193966595Y-117004732D01*
X191496112Y-115729306D02*
G75*
G02*
X193662310Y-116352190I771658J-1394538D01*
G01*
X191998415Y-112736633D02*
G75*
G02*
X191282017Y-112430736I-205250J511148D01*
G01*
%TO.C,S13*%
X172974671Y-132820008D02*
X172791658Y-133503020D01*
X175224671Y-136717122D02*
X174541658Y-136534109D01*
X175572747Y-131320008D02*
X172974671Y-132820008D01*
X176255760Y-131503020D02*
X175572747Y-131320008D01*
X176255760Y-131503020D02*
X176715760Y-132299764D01*
X177216529Y-135567122D02*
X175224671Y-136717122D01*
X177456093Y-132542058D02*
X181335887Y-130302058D01*
X179788773Y-136622378D02*
X179438773Y-136016160D01*
X181335887Y-130302058D02*
X181635887Y-130821674D01*
X183435887Y-133939365D02*
X183685887Y-134372378D01*
X183685887Y-134372378D02*
X179788773Y-136622378D01*
X177216529Y-135567122D02*
G75*
G02*
X179428773Y-135998840I890263J-1321980D01*
G01*
X177456093Y-132542058D02*
G75*
G02*
X176715761Y-132299764I-249019J491313D01*
G01*
D12*
%TO.C,D13*%
X204216308Y-134844460D02*
X204578831Y-134675412D01*
X204578831Y-134675412D02*
X204346391Y-134176943D01*
X204578831Y-134675412D02*
X204811271Y-135173882D01*
X204578831Y-134675412D02*
X204953569Y-134059318D01*
X204953569Y-134059318D02*
X205291663Y-134784365D01*
X205122616Y-134421841D02*
X205575770Y-134210532D01*
X205291663Y-134784365D02*
X204578831Y-134675412D01*
%TO.C,D9*%
X95278393Y-191282967D02*
X95935564Y-190986106D01*
X95617612Y-191494935D02*
X95352653Y-191918959D01*
X95935564Y-190986106D02*
X95469137Y-190694651D01*
X95935564Y-190986106D02*
X95956831Y-191706903D01*
X95935564Y-190986106D02*
X96401990Y-191277562D01*
X95956831Y-191706903D02*
X95278393Y-191282967D01*
X96147531Y-190646887D02*
X95935564Y-190986106D01*
D10*
%TO.C,S10*%
X215834982Y-112649438D02*
X215481429Y-113261810D01*
X216999668Y-116996104D02*
X216387295Y-116642551D01*
X218732760Y-111872981D02*
X215834982Y-112649438D01*
X219221297Y-116400820D02*
X216999668Y-116996104D01*
X219345132Y-112226534D02*
X218732760Y-111872981D01*
X219345132Y-112226534D02*
X219583246Y-113115186D01*
X220235642Y-113540837D02*
X224562990Y-112381329D01*
X221432773Y-118085865D02*
X221251600Y-117409718D01*
X224562990Y-112381329D02*
X224718281Y-112960883D01*
X225650030Y-116438216D02*
X225779439Y-116921179D01*
X225779439Y-116921179D02*
X221432773Y-118085865D01*
X219221297Y-116400820D02*
G75*
G02*
X221246423Y-117390398I517774J-1507352D01*
G01*
X220235642Y-113540837D02*
G75*
G02*
X219583245Y-113115186I-113373J539024D01*
G01*
D12*
%TO.C,D12*%
X224029010Y-121013672D02*
X224415380Y-120910145D01*
X224415380Y-120910145D02*
X224273029Y-120378884D01*
X224415380Y-120910145D02*
X224557730Y-121441404D01*
X224415380Y-120910145D02*
X224891408Y-120368483D01*
X224891408Y-120368483D02*
X225098463Y-121141224D01*
X224994935Y-120754853D02*
X225477898Y-120625444D01*
X225098463Y-121141224D02*
X224415380Y-120910145D01*
%TO.C,D10*%
X110543259Y-200821514D02*
X111200430Y-200524653D01*
X110882478Y-201033482D02*
X110617519Y-201457506D01*
X111200430Y-200524653D02*
X110734003Y-200233198D01*
X111200430Y-200524653D02*
X111221697Y-201245450D01*
X111200430Y-200524653D02*
X111666856Y-200816109D01*
X111221697Y-201245450D02*
X110543259Y-200821514D01*
X111412397Y-200185434D02*
X111200430Y-200524653D01*
%TO.C,D14*%
X197031798Y-119437228D02*
X197394321Y-119268180D01*
X197394321Y-119268180D02*
X197161881Y-118769711D01*
X197394321Y-119268180D02*
X197626761Y-119766650D01*
X197394321Y-119268180D02*
X197769059Y-118652086D01*
X197769059Y-118652086D02*
X198107153Y-119377133D01*
X197938106Y-119014609D02*
X198391260Y-118803300D01*
X198107153Y-119377133D02*
X197394321Y-119268180D01*
%TO.C,D20*%
X154295447Y-208665915D02*
X154507414Y-209005134D01*
X154486147Y-209725931D02*
X154507414Y-209005134D01*
X154507414Y-209005134D02*
X154040988Y-209296590D01*
X154507414Y-209005134D02*
X154973841Y-208713679D01*
X154507414Y-209005134D02*
X155164585Y-209301995D01*
X154825366Y-209513963D02*
X155090325Y-209937987D01*
X155164585Y-209301995D02*
X154486147Y-209725931D01*
%TO.C,D7*%
X100467914Y-162290073D02*
X100926776Y-161634751D01*
X100697345Y-161962412D02*
X100287769Y-161675624D01*
X100926776Y-161634751D02*
X101188836Y-162306558D01*
X101188836Y-162306558D02*
X100467914Y-162290073D01*
X101188836Y-162306558D02*
X100873369Y-162757091D01*
X101188836Y-162306558D02*
X101504303Y-161856024D01*
X101516497Y-162535988D02*
X101188836Y-162306558D01*
%TO.C,D18*%
X157332874Y-142874639D02*
X157660535Y-142645209D01*
X157660535Y-142645209D02*
X157345068Y-142194675D01*
X157660535Y-142645209D02*
X157922595Y-141973402D01*
X157660535Y-142645209D02*
X157976002Y-143095742D01*
X157922595Y-141973402D02*
X158381457Y-142628724D01*
X158152026Y-142301063D02*
X158561602Y-142014275D01*
X158381457Y-142628724D02*
X157660535Y-142645209D01*
D10*
%TO.C,S20*%
X156082284Y-200769099D02*
X156241348Y-200080115D01*
X156336255Y-205327113D02*
X156929889Y-204956170D01*
X157301098Y-202719609D02*
X156082284Y-200769099D01*
X158720892Y-209143330D02*
X156336255Y-205327113D01*
X159144916Y-208878370D02*
X158720892Y-209143330D01*
X159898500Y-198384462D02*
X159209517Y-198225397D01*
X160332680Y-202853454D02*
X162706718Y-206652709D01*
X161329194Y-201617590D02*
X160548990Y-202105116D01*
X161329194Y-201617590D02*
X161488258Y-200928606D01*
X161488258Y-200928606D02*
X159898500Y-198384462D01*
X162706718Y-206652709D02*
X162197889Y-206970661D01*
X157301098Y-202719609D02*
G75*
G02*
X156946850Y-204945571I-1290105J-935857D01*
G01*
X160332680Y-202853454D02*
G75*
G02*
X160548990Y-202105116I482324J266014D01*
G01*
%TO.C,S3*%
X61093613Y-130840706D02*
X60851768Y-130176243D01*
X62995395Y-126762321D02*
X62330932Y-127004166D01*
X63178121Y-131812728D02*
X61093613Y-130840706D01*
X63789084Y-134525056D02*
X64084918Y-133890641D01*
X65714318Y-128030176D02*
X62995395Y-126762321D01*
X65793516Y-130273862D02*
X69853775Y-132167192D01*
X65956163Y-128694639D02*
X65567354Y-129528442D01*
X65956163Y-128694639D02*
X65714318Y-128030176D01*
X67867469Y-136426838D02*
X63789084Y-134525056D01*
X68078778Y-135973684D02*
X67867469Y-136426838D01*
X69853775Y-132167192D02*
X69600204Y-132710976D01*
X63178121Y-131812728D02*
G75*
G02*
X64093369Y-133872514I-572269J-1487517D01*
G01*
X65793516Y-130273862D02*
G75*
G02*
X65567354Y-129528442I259629J485791D01*
G01*
%TO.C,S14*%
X164474671Y-118097577D02*
X164291658Y-118780589D01*
X166724671Y-121994691D02*
X166041658Y-121811678D01*
X167072747Y-116597577D02*
X164474671Y-118097577D01*
X167755760Y-116780589D02*
X167072747Y-116597577D01*
X167755760Y-116780589D02*
X168215760Y-117577333D01*
X168716529Y-120844691D02*
X166724671Y-121994691D01*
X168956093Y-117819627D02*
X172835887Y-115579627D01*
X171288773Y-121899947D02*
X170938773Y-121293729D01*
X172835887Y-115579627D02*
X173135887Y-116099243D01*
X174935887Y-119216934D02*
X175185887Y-119649947D01*
X175185887Y-119649947D02*
X171288773Y-121899947D01*
X168716529Y-120844691D02*
G75*
G02*
X170928773Y-121276409I890263J-1321980D01*
G01*
X168956093Y-117819627D02*
G75*
G02*
X168215761Y-117577333I-249019J491313D01*
G01*
D15*
%TO.C,JST1*%
X127144325Y-163714035D02*
X127144325Y-164714035D01*
X127144325Y-171534035D02*
X127144325Y-170534035D01*
X128064325Y-171534035D02*
X127144325Y-171534035D01*
X128144325Y-163714035D02*
X127144325Y-163714035D01*
D12*
X128704325Y-172574035D02*
X129704325Y-172574035D01*
X129204325Y-172074035D02*
X129204325Y-173074035D01*
X131704325Y-172574035D02*
X130704325Y-172574035D01*
D15*
X132344325Y-163714035D02*
X133264325Y-163714035D01*
X132344325Y-171534035D02*
X133264325Y-171534035D01*
X133264325Y-163714035D02*
X133264325Y-164714035D01*
X133264325Y-171534035D02*
X133264325Y-170534035D01*
D10*
%TO.C,S1*%
X36111282Y-132640386D02*
X35757728Y-132028013D01*
X37275967Y-128293720D02*
X36663595Y-128647273D01*
X38332911Y-133235670D02*
X36111282Y-132640386D01*
X39405583Y-135800699D02*
X39586756Y-135124551D01*
X40173745Y-129070177D02*
X37275967Y-128293720D01*
X40527298Y-129682549D02*
X40173745Y-129070177D01*
X40527298Y-129682549D02*
X40289185Y-130571201D01*
X40641351Y-131266024D02*
X44968699Y-132425533D01*
X43752249Y-136965386D02*
X39405583Y-135800699D01*
X43881659Y-136482422D02*
X43752249Y-136965386D01*
X44968699Y-132425533D02*
X44813407Y-133005089D01*
X38332911Y-133235670D02*
G75*
G02*
X39591933Y-135105232I-305270J-1564292D01*
G01*
X40641351Y-131266024D02*
G75*
G02*
X40289184Y-130571201I171328J523495D01*
G01*
D12*
%TO.C,D19*%
X169560312Y-199127368D02*
X169772279Y-199466587D01*
X169751012Y-200187384D02*
X169772279Y-199466587D01*
X169772279Y-199466587D02*
X169305853Y-199758043D01*
X169772279Y-199466587D02*
X170238706Y-199175132D01*
X169772279Y-199466587D02*
X170429450Y-199763448D01*
X170090231Y-199975416D02*
X170355190Y-200399440D01*
X170429450Y-199763448D02*
X169751012Y-200187384D01*
D10*
%TO.C,S18*%
X98920392Y-200928606D02*
X99079456Y-201617590D01*
X100510150Y-198384462D02*
X98920392Y-200928606D01*
X101199133Y-198225397D02*
X100510150Y-198384462D01*
X101199133Y-198225397D02*
X101979337Y-198712923D01*
X102736608Y-203313243D02*
X102047624Y-203472307D01*
X102746763Y-198579291D02*
X105120802Y-194780036D01*
X103955422Y-201362732D02*
X102736608Y-203313243D01*
X105120802Y-194780036D02*
X105629631Y-195097987D01*
X106721991Y-201086873D02*
X106128357Y-200715929D01*
X108682604Y-197005697D02*
X109106628Y-197270656D01*
X109106628Y-197270656D02*
X106721991Y-201086873D01*
X102746763Y-198579291D02*
G75*
G02*
X101979337Y-198712923I-450529J316897D01*
G01*
X103955422Y-201362732D02*
G75*
G02*
X106111396Y-200705331I1406688J-749287D01*
G01*
%TO.C,S4*%
X68278123Y-115433473D02*
X68036278Y-114769010D01*
X70179905Y-111355088D02*
X69515442Y-111596933D01*
X70362631Y-116405495D02*
X68278123Y-115433473D01*
X70973594Y-119117823D02*
X71269428Y-118483408D01*
X72898828Y-112622943D02*
X70179905Y-111355088D01*
X72978026Y-114866629D02*
X77038285Y-116759959D01*
X73140673Y-113287406D02*
X72751864Y-114121209D01*
X73140673Y-113287406D02*
X72898828Y-112622943D01*
X75051979Y-121019605D02*
X70973594Y-119117823D01*
X75263288Y-120566451D02*
X75051979Y-121019605D01*
X77038285Y-116759959D02*
X76784714Y-117303743D01*
X70362631Y-116405495D02*
G75*
G02*
X71277879Y-118465281I-572269J-1487517D01*
G01*
X72978026Y-114866629D02*
G75*
G02*
X72751864Y-114121209I259629J485791D01*
G01*
D12*
%TO.C,D17*%
X167083674Y-156800223D02*
X167411335Y-156570793D01*
X167411335Y-156570793D02*
X167095868Y-156120259D01*
X167411335Y-156570793D02*
X167673395Y-155898986D01*
X167411335Y-156570793D02*
X167726802Y-157021326D01*
X167673395Y-155898986D02*
X168132257Y-156554308D01*
X167902826Y-156226647D02*
X168312402Y-155939859D01*
X168132257Y-156554308D02*
X167411335Y-156570793D01*
D10*
%TO.C,S16*%
X146772270Y-137817353D02*
X146649482Y-138513717D01*
X149229726Y-136096624D02*
X146772270Y-137817353D01*
X149353364Y-141503537D02*
X148657000Y-141380749D01*
X149926091Y-136219411D02*
X149229726Y-136096624D01*
X149926091Y-136219411D02*
X150453781Y-136973031D01*
X151212414Y-137149880D02*
X154882215Y-134580257D01*
X151237414Y-140184311D02*
X149353364Y-141503537D01*
X153891840Y-141011366D02*
X153490337Y-140437959D01*
X154882215Y-134580257D02*
X155226361Y-135071748D01*
X157291236Y-138020696D02*
X157578025Y-138430272D01*
X157578025Y-138430272D02*
X153891840Y-141011366D01*
X151212414Y-137149880D02*
G75*
G02*
X150453781Y-136973031I-290892J467741D01*
G01*
X151237414Y-140184311D02*
G75*
G02*
X153478865Y-140421576I1002093J-1239359D01*
G01*
%TO.C,S5*%
X82585904Y-135217122D02*
X82402891Y-134534109D01*
X84577762Y-136367122D02*
X82585904Y-135217122D01*
X84835904Y-131320008D02*
X84152891Y-131503020D01*
X84950006Y-139122378D02*
X85300006Y-138516160D01*
X87317326Y-135062058D02*
X91197120Y-137302058D01*
X87433980Y-132820008D02*
X84835904Y-131320008D01*
X87616993Y-133503020D02*
X87156993Y-134299764D01*
X87616993Y-133503020D02*
X87433980Y-132820008D01*
X88847120Y-141372378D02*
X84950006Y-139122378D01*
X89097120Y-140939365D02*
X88847120Y-141372378D01*
X91197120Y-137302058D02*
X90897120Y-137821674D01*
X84577762Y-136367122D02*
G75*
G02*
X85310005Y-138498839I-699737J-1431980D01*
G01*
X87317326Y-135062058D02*
G75*
G02*
X87156994Y-134299764I300981J461313D01*
G01*
%TO.C,S15*%
X156523070Y-151742938D02*
X156400282Y-152439302D01*
X158980526Y-150022209D02*
X156523070Y-151742938D01*
X159104164Y-155429122D02*
X158407800Y-155306334D01*
X159676891Y-150144996D02*
X158980526Y-150022209D01*
X159676891Y-150144996D02*
X160204581Y-150898616D01*
X160963214Y-151075465D02*
X164633015Y-148505842D01*
X160988214Y-154109896D02*
X159104164Y-155429122D01*
X163642640Y-154936951D02*
X163241137Y-154363544D01*
X164633015Y-148505842D02*
X164977161Y-148997333D01*
X167042036Y-151946281D02*
X167328825Y-152355857D01*
X167328825Y-152355857D02*
X163642640Y-154936951D01*
X160963214Y-151075465D02*
G75*
G02*
X160204581Y-150898616I-290892J467741D01*
G01*
X160988214Y-154109896D02*
G75*
G02*
X163229665Y-154347161I1002093J-1239359D01*
G01*
%TO.C,S19*%
X171347150Y-191230552D02*
X171506214Y-190541568D01*
X171601121Y-195788566D02*
X172194755Y-195417623D01*
X172565964Y-193181062D02*
X171347150Y-191230552D01*
X173985758Y-199604783D02*
X171601121Y-195788566D01*
X174409782Y-199339823D02*
X173985758Y-199604783D01*
X175163366Y-188845915D02*
X174474383Y-188686850D01*
X175597546Y-193314907D02*
X177971584Y-197114162D01*
X176594060Y-192079043D02*
X175813856Y-192566569D01*
X176594060Y-192079043D02*
X176753124Y-191390059D01*
X176753124Y-191390059D02*
X175163366Y-188845915D01*
X177971584Y-197114162D02*
X177462755Y-197432114D01*
X172565964Y-193181062D02*
G75*
G02*
X172211716Y-195407024I-1290105J-935857D01*
G01*
X175597546Y-193314907D02*
G75*
G02*
X175813856Y-192566569I482324J266014D01*
G01*
%TO.C,S6*%
X91085904Y-120494691D02*
X90902891Y-119811678D01*
X93077762Y-121644691D02*
X91085904Y-120494691D01*
X93335904Y-116597577D02*
X92652891Y-116780589D01*
X93450006Y-124399947D02*
X93800006Y-123793729D01*
X95817326Y-120339627D02*
X99697120Y-122579627D01*
X95933980Y-118097577D02*
X93335904Y-116597577D01*
X96116993Y-118780589D02*
X95656993Y-119577333D01*
X96116993Y-118780589D02*
X95933980Y-118097577D01*
X97347120Y-126649947D02*
X93450006Y-124399947D01*
X97597120Y-126216934D02*
X97347120Y-126649947D01*
X99697120Y-122579627D02*
X99397120Y-123099243D01*
X93077762Y-121644691D02*
G75*
G02*
X93810005Y-123776408I-699737J-1431980D01*
G01*
X95817326Y-120339627D02*
G75*
G02*
X95656994Y-119577333I300981J461313D01*
G01*
D12*
%TO.C,D3*%
X64180065Y-139010548D02*
X64518159Y-138285501D01*
X64349112Y-138648024D02*
X63895958Y-138436715D01*
X64518159Y-138285501D02*
X64892897Y-138901595D01*
X64892897Y-138901595D02*
X64180065Y-139010548D01*
X64892897Y-138901595D02*
X64660457Y-139400065D01*
X64892897Y-138901595D02*
X65125337Y-138403126D01*
X65255420Y-139070643D02*
X64892897Y-138901595D01*
%TO.C,D2*%
X44969446Y-123729414D02*
X45176501Y-122956673D01*
X45072974Y-123343043D02*
X44590011Y-123213634D01*
X45176501Y-122956673D02*
X45652529Y-123498335D01*
X45652529Y-123498335D02*
X44969446Y-123729414D01*
X45652529Y-123498335D02*
X45510179Y-124029594D01*
X45652529Y-123498335D02*
X45794880Y-122967074D01*
X46038899Y-123601862D02*
X45652529Y-123498335D01*
%TO.C,D4*%
X71364576Y-123603315D02*
X71702670Y-122878268D01*
X71533623Y-123240791D02*
X71080469Y-123029482D01*
X71702670Y-122878268D02*
X72077408Y-123494362D01*
X72077408Y-123494362D02*
X71364576Y-123603315D01*
X72077408Y-123494362D02*
X71844968Y-123992832D01*
X72077408Y-123494362D02*
X72309848Y-122995893D01*
X72439931Y-123663410D02*
X72077408Y-123494362D01*
D10*
%TO.C,S17*%
X83655527Y-191390059D02*
X83814591Y-192079043D01*
X85245285Y-188845915D02*
X83655527Y-191390059D01*
X85934268Y-188686850D02*
X85245285Y-188845915D01*
X85934268Y-188686850D02*
X86714472Y-189174376D01*
X87471743Y-193774696D02*
X86782759Y-193933760D01*
X87481898Y-189040744D02*
X89855937Y-185241489D01*
X88690557Y-191824185D02*
X87471743Y-193774696D01*
X89855937Y-185241489D02*
X90364766Y-185559440D01*
X91457126Y-191548326D02*
X90863492Y-191177382D01*
X93417739Y-187467150D02*
X93841763Y-187732109D01*
X93841763Y-187732109D02*
X91457126Y-191548326D01*
X87481898Y-189040744D02*
G75*
G02*
X86714472Y-189174376I-450529J316897D01*
G01*
X88690557Y-191824185D02*
G75*
G02*
X90846531Y-191166784I1406688J-749287D01*
G01*
%TO.C,S11*%
X194694333Y-128030176D02*
X194452488Y-128694639D01*
X196596115Y-132108561D02*
X195931652Y-131866716D01*
X197413256Y-126762321D02*
X194694333Y-128030176D01*
X198077719Y-127004166D02*
X197413256Y-126762321D01*
X198077719Y-127004166D02*
X198466528Y-127837969D01*
X198680623Y-131136539D02*
X196596115Y-132108561D01*
X199182926Y-128143866D02*
X203243185Y-126250536D01*
X201151106Y-132411965D02*
X200855273Y-131777549D01*
X203243185Y-126250536D02*
X203496756Y-126794321D01*
X205018182Y-130057029D02*
X205229491Y-130510182D01*
X205229491Y-130510182D02*
X201151106Y-132411965D01*
X198680623Y-131136539D02*
G75*
G02*
X200846821Y-131759423I771658J-1394538D01*
G01*
X199182926Y-128143866D02*
G75*
G02*
X198466528Y-127837969I-205250J511148D01*
G01*
%TO.C,S7*%
X98847031Y-153708393D02*
X98724243Y-153012029D01*
X100731080Y-155027619D02*
X98847031Y-153708393D01*
X100861771Y-157804833D02*
X101263274Y-157231427D01*
X101428125Y-150022209D02*
X100731760Y-150144996D01*
X103573963Y-153966290D02*
X107243764Y-156535912D01*
X103885581Y-151742938D02*
X101428125Y-150022209D01*
X104008369Y-152439302D02*
X103480678Y-153192922D01*
X104008369Y-152439302D02*
X103885581Y-151742938D01*
X104547955Y-160385927D02*
X100861771Y-157804833D01*
X104834743Y-159976351D02*
X104547955Y-160385927D01*
X107243764Y-156535912D02*
X106899618Y-157027404D01*
X100731080Y-155027619D02*
G75*
G02*
X101274745Y-157215043I-821877J-1365544D01*
G01*
X103573963Y-153966290D02*
G75*
G02*
X103480679Y-153192922I340042J433326D01*
G01*
D12*
%TO.C,D8*%
X110218714Y-148364488D02*
X110677576Y-147709166D01*
X110448145Y-148036827D02*
X110038569Y-147750039D01*
X110677576Y-147709166D02*
X110939636Y-148380973D01*
X110939636Y-148380973D02*
X110218714Y-148364488D01*
X110939636Y-148380973D02*
X110624169Y-148831506D01*
X110939636Y-148380973D02*
X111255103Y-147930439D01*
X111267297Y-148610403D02*
X110939636Y-148380973D01*
%TO.C,D6*%
X93448563Y-128902445D02*
X93848563Y-128209625D01*
X93648563Y-128556035D02*
X93215550Y-128306035D01*
X93848563Y-128209625D02*
X94168178Y-128856035D01*
X94168178Y-128856035D02*
X93448563Y-128902445D01*
X94168178Y-128856035D02*
X93893178Y-129332349D01*
X94168178Y-128856035D02*
X94443178Y-128379721D01*
X94514588Y-129056035D02*
X94168178Y-128856035D01*
%TO.C,D16*%
X174554317Y-124056035D02*
X174900727Y-123856035D01*
X174900727Y-123856035D02*
X174625727Y-123379721D01*
X174900727Y-123856035D02*
X175175727Y-124332349D01*
X174900727Y-123856035D02*
X175220342Y-123209625D01*
X175220342Y-123209625D02*
X175620342Y-123902445D01*
X175420342Y-123556035D02*
X175853355Y-123306035D01*
X175620342Y-123902445D02*
X174900727Y-123856035D01*
%TO.C,D5*%
X84948563Y-143624877D02*
X85348563Y-142932057D01*
X85148563Y-143278467D02*
X84715550Y-143028467D01*
X85348563Y-142932057D02*
X85668178Y-143578467D01*
X85668178Y-143578467D02*
X84948563Y-143624877D01*
X85668178Y-143578467D02*
X85393178Y-144054781D01*
X85668178Y-143578467D02*
X85943178Y-143102153D01*
X86014588Y-143778467D02*
X85668178Y-143578467D01*
%TO.C,D15*%
X183054317Y-138778467D02*
X183400727Y-138578467D01*
X183400727Y-138578467D02*
X183125727Y-138102153D01*
X183400727Y-138578467D02*
X183675727Y-139054781D01*
X183400727Y-138578467D02*
X183720342Y-137932057D01*
X183720342Y-137932057D02*
X184120342Y-138624877D01*
X183920342Y-138278467D02*
X184353355Y-138028467D01*
X184120342Y-138624877D02*
X183400727Y-138578467D01*
%TD*%
M02*
